<svg xmlns="http://www.w3.org/2000/svg" role="img" viewBox="38.89 19.169674 422.19 461.6603"><path d="M125.83 380.41h21v12.33a26.31 26.31 0 0 1 9.17-11.07 21.92 21.92 0 0 1 12.42-3.77 23.1 23.1 0 0 1 10 2.51l-7.65 21.15a16.9 16.9 0 0 0-7.11-2.16q-5.67 0-9.58 7t-3.96 27.6l.09 4.77v39.59h-24.38zm162.77 56.06h-78.91a26.23 26.23 0 0 0 9.13 16.6q7.43 6.17 18.94 6.17a32.76 32.76 0 0 0 23.67-9.63l20.69 9.72a48.82 48.82 0 0 1-18.53 16.24q-10.8 5.26-25.65 5.26-23 0-37.52-14.53t-14.49-36.4q0-22.39 14.45-37.2t36.21-14.8q23.13 0 37.62 14.8t14.48 39.09zM264 417.13a24.63 24.63 0 0 0-9.6-13.32 27.83 27.83 0 0 0-16.63-5.13 29.42 29.42 0 0 0-18 5.76q-4.86 3.6-9 12.69zm40.35-36.72h74.95l-44 77.12h41.46v20.78H297.6l44.19-77.11h-37.44zM412 137.42a172 172 0 0 0-60.84-84.82 169.77 169.77 0 0 0-202.32 0A172 172 0 0 0 88 137.42l-1.18 3.66H38.89v96.44h47.9l1.21 3.65A172.05 172.05 0 0 0 148.84 326a169.77 169.77 0 0 0 202.32 0A172.05 172.05 0 0 0 412 241.17l1.18-3.65h47.9v-96.44h-47.9zM76.93 223H53.37v-67.44h67.48V223H76.93zm318.54 21.62a155.69 155.69 0 0 1-290.94 0l-2.72-7.14h33.52v-96.4h-33.52l2.72-7.15a155.69 155.69 0 0 1 290.94 0l2.72 7.15h-33.52v41h-35.41V110H170.74v158.55h158.52v-72h35.41v41h33.52zM250 148.19a41.11 41.11 0 1 0 39.57 52.19l1.08-3.84h24.13v57.53H185.22V124.52h129.56v57.54h-24.13l-1.08-3.85A41.26 41.26 0 0 0 250 148.19zm26.62 41.11A26.62 26.62 0 1 1 250 162.67a26.65 26.65 0 0 1 26.62 26.63zm146.45-33.74h23.56V223h-67.48v-67.44h43.92z" data-name="Black Logo"/></svg>