<?xml version="1.0" encoding="UTF-8" standalone="no"?>
<svg
   role="img"
   viewBox="-7.92 -7.92 396.40624 265.22732"
   version="1.1"
   id="svg4"
   sodipodi:docname="usd-working-group.svg"
   width="396.40625"
   height="265.22733"
   inkscape:version="1.3 (0e150ed, 2023-07-21)"
   xmlns:inkscape="http://www.inkscape.org/namespaces/inkscape"
   xmlns:sodipodi="http://sodipodi.sourceforge.net/DTD/sodipodi-0.dtd"
   xmlns="http://www.w3.org/2000/svg"
   xmlns:svg="http://www.w3.org/2000/svg">
  <defs
     id="defs4" />
  <sodipodi:namedview
     id="namedview4"
     pagecolor="#ffffff"
     bordercolor="#666666"
     borderopacity="1.0"
     inkscape:showpageshadow="2"
     inkscape:pageopacity="0.0"
     inkscape:pagecheckerboard="0"
     inkscape:deskcolor="#d1d1d1"
     inkscape:zoom="1.1942822"
     inkscape:cx="201.79485"
     inkscape:cy="112.20128"
     inkscape:window-width="1160"
     inkscape:window-height="701"
     inkscape:window-x="395"
     inkscape:window-y="252"
     inkscape:window-maximized="0"
     inkscape:current-layer="svg4" />
  <title
     id="title1">USD Working Group logo</title>
  <style
     id="style1">.st0{fill:#1dcad3}</style>
  <style
     id="style2">.st0{fill:#1dcad3}</style>
  <style
     id="style3">.st0{fill:#1dcad3}</style>
  <style
     id="style4">.st0{fill:#1dcad3}</style>
  <style
     id="style275"
     type="text/css">.st0{fill:#1dcad3}</style>
  <g
     id="text444"
     transform="translate(-7.92,47.823165)">
    <path
       id="path699"
       d="m 22.32422,189.54276 q 0,3.16406 -0.70313,5.52734 -0.68359,2.34375 -2.26562,3.90625 -1.5039,1.48437 -3.51563,2.16797 -2.01172,0.68359 -4.6875,0.68359 -2.73437,0 -4.76562,-0.72265 Q 4.35547,200.3826 2.96875,198.97635 1.38672,197.37479 0.68359,195.10916 0,192.84354 0,189.54276 v -17.40235 h 3.86719 v 17.59766 q 0,2.36328 0.3125,3.73047 0.33203,1.36718 1.09375,2.48047 0.85937,1.26953 2.32422,1.91406 1.48437,0.64453 3.55468,0.64453 2.08985,0 3.5547,-0.625 1.46483,-0.64453 2.34374,-1.93359 0.76172,-1.11329 1.07422,-2.53907 0.33203,-1.44531 0.33203,-3.57422 v -17.69531 h 3.86719 z" />
    <path
       id="path701"
       d="m 50.83984,192.92166 q 0,1.69922 -0.80078,3.35938 -0.78125,1.66015 -2.20703,2.8125 -1.5625,1.25 -3.65234,1.95312 -2.07031,0.70313 -5,0.70313 -3.14453,0 -5.66406,-0.58594 -2.5,-0.58594 -5.09766,-1.73828 v -4.84375 h 0.27344 q 2.20703,1.83594 5.09765,2.83203 2.89063,0.99609 5.42969,0.99609 3.59375,0 5.58594,-1.34765 2.01172,-1.34766 2.01172,-3.59375 0,-1.9336 -0.95703,-2.85157 -0.9375,-0.91796 -2.8711,-1.42578 -1.46484,-0.39062 -3.1836,-0.64453 -1.69921,-0.2539 -3.61327,-0.64453 -3.8672,-0.82031 -5.7422,-2.79297 -1.85546,-1.99219 -1.85546,-5.17578 0,-3.65234 3.08594,-5.97656 3.08594,-2.34375 7.83203,-2.34375 3.0664,0 5.625,0.58594 2.5586,0.58593 4.53125,1.44531 v 4.57031 h -0.27344 q -1.66016,-1.40625 -4.375,-2.32422 -2.69531,-0.9375 -5.52734,-0.9375 -3.10547,0 -5,1.28906 -1.875,1.28907 -1.875,3.32032 0,1.8164 0.9375,2.85156 0.9375,1.03516 3.30078,1.58203 1.25,0.27344 3.55469,0.66406 2.30468,0.39063 3.90625,0.80078 3.24218,0.85938 4.8828,2.59766 1.64063,1.73828 1.64063,4.86328 z" />
    <path
       id="path703"
       d="m 81.6211,186.71072 q 0,3.96485 -1.73829,7.1875 -1.71875,3.22266 -4.58984,5 -1.99219,1.23047 -4.45313,1.77735 -2.4414,0.54687 -6.4453,0.54687 h -7.34376 v -29.08203 h 7.26563 q 4.2578,0 6.7578,0.625 2.51954,0.60547 4.25782,1.67969 2.96875,1.85547 4.6289,4.94141 1.66016,3.08593 1.66016,7.32421 z m -4.04297,-0.0586 q 0,-3.41797 -1.19141,-5.76172 -1.1914,-2.34375 -3.55469,-3.6914 -1.71875,-0.97657 -3.65234,-1.34766 -1.9336,-0.39063 -4.6289,-0.39063 h -3.63282 v 22.44141 h 3.63281 q 2.79297,0 4.86328,-0.41016 2.08985,-0.41015 3.82813,-1.52343 2.16797,-1.38672 3.24219,-3.65235 1.09374,-2.26562 1.09374,-5.66406 z" />
    <path
       id="path705"
       d="m 135.78125,172.14041 -7.55859,29.08203 h -4.35547 l -6.11328,-24.14062 -5.97657,24.14062 h -4.25781 l -7.69531,-29.08203 h 3.96484 l 6.11328,24.17969 6.01563,-24.17969 h 3.92578 l 6.07422,24.41406 6.07422,-24.41406 z" />
    <path
       id="path707"
       d="m 157.83203,190.32401 q 0,5.33203 -2.73437,8.41796 -2.73438,3.08594 -7.32422,3.08594 -4.62891,0 -7.36328,-3.08594 -2.71485,-3.08593 -2.71485,-8.41796 0,-5.33204 2.71485,-8.41797 2.73437,-3.10547 7.36328,-3.10547 4.58984,0 7.32422,3.10547 2.73437,3.08593 2.73437,8.41797 z m -3.78906,0 q 0,-4.23829 -1.66016,-6.28907 -1.66015,-2.07031 -4.60937,-2.07031 -2.98828,0 -4.64844,2.07031 -1.64063,2.05078 -1.64063,6.28907 0,4.10156 1.66016,6.23046 1.66016,2.10938 4.62891,2.10938 2.92968,0 4.58984,-2.08984 1.67969,-2.10938 1.67969,-6.25 z" />
    <path
       id="path709"
       d="m 177.12891,183.40994 h -0.19532 q -0.82031,-0.19531 -1.60156,-0.27343 -0.76172,-0.0977 -1.81641,-0.0977 -1.69921,0 -3.28125,0.76172 -1.58203,0.74219 -3.04687,1.93359 v 15.48828 h -3.67188 V 179.406 h 3.67188 v 3.22265 q 2.1875,-1.75781 3.84766,-2.48047 1.67968,-0.74218 3.41796,-0.74218 0.95704,0 1.38672,0.0586 0.42969,0.0391 1.28907,0.17578 z" />
    <path
       id="path711"
       d="m 200.39062,201.22244 h -4.84375 l -8.75,-9.55078 -2.38281,2.26563 v 7.28515 h -3.67187 v -30.39062 h 3.67187 v 19.49219 l 10.60547,-10.91797 h 4.62891 l -10.13672,10.07812 z" />
    <path
       id="path713"
       d="m 208.20312,175.75369 h -4.14062 v -3.80859 h 4.14062 z m -0.23437,25.46875 h -3.67188 v -21.8164 h 3.67188 z" />
    <path
       id="path715"
       d="m 233.47656,201.22244 h -3.67187 v -12.42187 q 0,-1.50391 -0.17578,-2.8125 -0.17579,-1.32813 -0.64454,-2.07031 -0.48828,-0.82032 -1.40625,-1.21094 -0.91796,-0.41016 -2.38281,-0.41016 -1.5039,0 -3.14453,0.74219 -1.64062,0.74219 -3.14453,1.89453 v 16.28906 h -3.67188 v -21.8164 h 3.67188 v 2.42187 q 1.71875,-1.42578 3.55469,-2.22656 1.83593,-0.80078 3.76953,-0.80078 3.53515,0 5.39062,2.1289 1.85547,2.12891 1.85547,6.13282 z" />
    <path
       id="path717"
       d="m 258.24219,198.74197 q 0,5.54688 -2.51953,8.14454 -2.51954,2.59765 -7.75391,2.59765 -1.73828,0 -3.39844,-0.2539 -1.64062,-0.23438 -3.24219,-0.6836 v -3.75 h 0.19532 q 0.89843,0.35156 2.85156,0.85938 1.95312,0.52734 3.90625,0.52734 1.875,0 3.10547,-0.44922 1.23047,-0.44922 1.91406,-1.25 0.68359,-0.76172 0.97656,-1.83594 0.29297,-1.07421 0.29297,-2.40234 v -1.99219 q -1.66015,1.32813 -3.18359,1.99219 -1.50391,0.64453 -3.84766,0.64453 -3.90625,0 -6.21094,-2.8125 -2.28515,-2.83203 -2.28515,-7.96875 0,-2.8125 0.78125,-4.84375 0.80078,-2.05078 2.16797,-3.53515 1.26953,-1.38672 3.08593,-2.14844 1.81641,-0.78125 3.61329,-0.78125 1.89453,0 3.16406,0.39062 1.28906,0.3711 2.71484,1.15235 l 0.23438,-0.9375 h 3.4375 z m -3.67188,-3.51562 v -11.89453 q -1.46484,-0.66406 -2.73437,-0.9375 -1.25,-0.29297 -2.5,-0.29297 -3.02735,0 -4.76563,2.03125 -1.73828,2.03125 -1.73828,5.89844 0,3.67187 1.28906,5.5664 1.28907,1.89453 4.27735,1.89453 1.60156,0 3.20312,-0.60546 1.6211,-0.625 2.96875,-1.66016 z" />
    <path
       id="path719"
       d="m 304.08203,199.07401 q -2.38281,1.09375 -5.21484,1.91406 -2.8125,0.80078 -5.44922,0.80078 -3.39844,0 -6.23047,-0.9375 -2.83203,-0.9375 -4.82422,-2.8125 -2.01172,-1.89453 -3.10547,-4.72656 -1.09375,-2.85157 -1.09375,-6.66016 0,-6.97266 4.0625,-10.99609 4.08203,-4.04297 11.19141,-4.04297 2.48047,0 5.05859,0.60547 2.59766,0.58593 5.58594,2.01172 v 4.58984 h -0.35156 q -0.60547,-0.46875 -1.75782,-1.23047 -1.15234,-0.76172 -2.26562,-1.26953 -1.34766,-0.60547 -3.06641,-0.99609 -1.69922,-0.41016 -3.86718,-0.41016 -4.88282,0 -7.73438,3.14453 -2.83203,3.125 -2.83203,8.47656 0,5.64453 2.96875,8.78907 2.96875,3.125 8.08594,3.125 1.875,0 3.73047,-0.3711 1.875,-0.37109 3.28125,-0.95703 v -7.12891 h -7.79297 v -3.39843 h 11.62109 z" />
    <path
       id="path721"
       d="m 324.16016,183.40994 h -0.19532 q -0.82031,-0.19531 -1.60156,-0.27343 -0.76172,-0.0977 -1.81641,-0.0977 -1.69921,0 -3.28125,0.76172 -1.58203,0.74219 -3.04687,1.93359 v 15.48828 h -3.67188 V 179.406 h 3.67188 v 3.22265 q 2.1875,-1.75781 3.84766,-2.48047 1.67968,-0.74218 3.41796,-0.74218 0.95704,0 1.38672,0.0586 0.42969,0.0391 1.28907,0.17578 z" />
    <path
       id="path723"
       d="m 346.21094,190.32401 q 0,5.33203 -2.73438,8.41796 -2.73437,3.08594 -7.32422,3.08594 -4.6289,0 -7.36328,-3.08594 -2.71484,-3.08593 -2.71484,-8.41796 0,-5.33204 2.71484,-8.41797 2.73438,-3.10547 7.36328,-3.10547 4.58985,0 7.32422,3.10547 2.73438,3.08593 2.73438,8.41797 z m -3.78907,0 q 0,-4.23829 -1.66015,-6.28907 -1.66016,-2.07031 -4.60938,-2.07031 -2.98828,0 -4.64843,2.07031 -1.64063,2.05078 -1.64063,6.28907 0,4.10156 1.66016,6.23046 1.66015,2.10938 4.6289,2.10938 2.92969,0 4.58985,-2.08984 1.67968,-2.10938 1.67968,-6.25 z" />
    <path
       id="path725"
       d="m 369.98047,201.22244 h -3.67188 v -2.42187 q -1.85547,1.46484 -3.55468,2.24609 -1.69922,0.78125 -3.75,0.78125 -3.4375,0 -5.35157,-2.08984 -1.91406,-2.10938 -1.91406,-6.17188 v -14.16015 h 3.67188 v 12.42187 q 0,1.66016 0.15625,2.85156 0.15625,1.17188 0.66406,2.01172 0.52734,0.85938 1.36719,1.25 0.83984,0.39063 2.4414,0.39063 1.42578,0 3.10547,-0.74219 1.69922,-0.74219 3.16406,-1.89453 v -16.28906 h 3.67188 z" />
    <path
       id="path727"
       d="m 396.40625,190.05057 q 0,2.65625 -0.76172,4.86328 -0.76172,2.1875 -2.14844,3.71094 -1.28906,1.44531 -3.04687,2.24609 -1.73828,0.78125 -3.69141,0.78125 -1.69922,0 -3.08594,-0.37109 -1.36718,-0.3711 -2.79296,-1.15235 v 9.14063 h -3.67188 v -29.86328 h 3.67188 v 2.28515 q 1.46484,-1.23047 3.28125,-2.05078 1.83593,-0.83984 3.90625,-0.83984 3.94531,0 6.13281,2.98828 2.20703,2.96875 2.20703,8.26172 z m -3.78906,0.0977 q 0,-3.94531 -1.34766,-5.89843 -1.34766,-1.95313 -4.14062,-1.95313 -1.58204,0 -3.1836,0.6836 -1.60156,0.68359 -3.0664,1.79687 v 12.36328 q 1.5625,0.70313 2.67578,0.95703 1.13281,0.25391 2.55859,0.25391 3.06641,0 4.78516,-2.07031 1.71875,-2.07032 1.71875,-6.13282 z" />
  </g>
  <g
     id="g2"
     transform="matrix(1.4281418,0,0,1.4281418,7.1239389,-7.92)">
    <polygon
       class="st0"
       points="14.9,0 13.2,0 0,37.2 1.7,37.2 "
       id="polygon1"
       style="fill:#ba9d5c" />
    <polygon
       class="st0"
       points="25.4,9.1 29.9,12.1 30.7,10.7 25.7,8.3 30.7,5.9 29.9,4.5 25.4,7.5 25.8,1.8 24.2,1.8 24.6,7.5 20.1,4.5 19.3,5.9 24.3,8.3 19.3,10.7 20.1,12.1 24.6,9.1 24.2,14.9 25.8,14.9 "
       id="polygon2"
       style="fill:#ba9d5c" />
    <path
       class="st0"
       d="m 50,23.6 h 14.2 l 3.1,8 h 1.8 L 57.4,1.5 H 56.9 L 45.2,31.6 H 47 Z M 56.3,7.4 c 0.4,-1 0.8,-2.5 0.8,-2.7 0,0.1 0.4,1.7 0.8,2.7 L 63.6,22 h -13 z"
       id="path2"
       style="fill:#ba9d5c" />
    <path
       class="st0"
       d="m 86.4,31.9 c 5,0 9.2,-2.1 11.8,-5.9 l -1.3,-1 c -2.3,3.4 -6,5.3 -10.5,5.3 -7.4,0 -13,-5.8 -13,-13.6 0,-7.8 5.6,-13.6 13,-13.6 4.6,0 8,1.9 10.1,5 l 1.3,-1 C 95.4,3.5 91.4,1.5 86.4,1.5 c -8.1,0 -14.7,6.2 -14.7,15.2 0,9 6.5,15.2 14.7,15.2 z"
       id="path3"
       style="fill:#ba9d5c" />
    <path
       class="st0"
       d="m 106.4,23.6 h 14.2 l 3.1,8 h 1.8 L 113.8,1.5 h -0.5 l -11.6,30.1 h 1.7 z m 6.3,-16.2 c 0.4,-1 0.8,-2.5 0.8,-2.7 0,0.1 0.4,1.7 0.8,2.7 L 120,22 h -13 z"
       id="path4"
       style="fill:#ba9d5c" />
    <path
       class="st0"
       d="m 153.6,16.7 c 0,-9.1 -5.8,-14.9 -15.7,-14.9 h -6.1 v 29.7 h 6.1 c 9.9,0.1 15.7,-5.7 15.7,-14.8 z M 133.4,30 V 3.5 h 4.2 c 9.5,0 14.1,5.5 14.1,13.3 0,7.8 -4.6,13.2 -14.1,13.2 z"
       id="path5"
       style="fill:#ba9d5c" />
    <polygon
       class="st0"
       points="177.1,1.8 160.3,1.8 160.3,31.6 177.7,31.6 177.7,30 162.1,30 162.1,17.4 175.6,17.4 175.6,15.8 162.1,15.8 162.1,3.4 177.1,3.4 "
       id="polygon5"
       style="fill:#ba9d5c" />
    <path
       class="st0"
       d="m 186.2,8 c 0,-1 -0.1,-2.6 -0.1,-2.6 0,0 0.8,1.5 1.6,2.4 l 10,13.7 h 0.5 L 208.3,7.8 c 0.8,-1 1.6,-2.4 1.6,-2.4 0,0 -0.1,1.5 -0.1,2.6 v 23.6 h 1.7 V 1.5 H 211 L 198,19.2 185,1.5 h -0.4 v 30.1 h 1.7 V 8 Z"
       id="path6"
       style="fill:#ba9d5c" />
    <path
       class="st0"
       d="m 227.6,31.6 h 1.8 V 20.7 l 10,-18.9 h -1.8 l -8.3,15.6 c -0.4,0.7 -0.8,1.7 -0.8,1.8 0,-0.2 -0.3,-1.1 -0.7,-1.8 L 219.5,1.8 h -1.9 l 10,18.8 z"
       id="path7"
       style="fill:#ba9d5c" />
    <path
       class="st0"
       d="m 18.5,76.8 c 0,-4.1 -2.2,-6.6 -6.9,-8.8 L 8.9,66.7 c -3.6,-1.7 -5,-3.1 -5,-6.1 0,-3 2,-5 5.4,-5 3.2,0 4.8,1.7 6,3.6 l 1.4,-0.9 C 15.3,56 13.2,54 9.3,54 c -3.9,0 -7.1,2.5 -7.1,6.6 0,3.8 2,5.7 6,7.7 l 2.7,1.3 c 4,1.9 5.9,3.8 5.9,7.3 0,3.8 -3.1,6 -6.9,6 -4.6,0 -6.8,-2.5 -8.1,-5.1 l -1.5,0.7 c 1.4,3 4.2,5.9 9.7,5.9 4.9,0 8.5,-3 8.5,-7.6 z"
       id="path8"
       style="fill:#ba9d5c" />
    <path
       class="st0"
       d="m 37.8,84.4 c 8.1,0 14.7,-6.2 14.7,-15.2 0,-9 -6.6,-15.2 -14.7,-15.2 -8.1,0 -14.7,6.2 -14.7,15.2 0,9 6.6,15.2 14.7,15.2 z m 0,-28.8 c 7.4,0 13,5.8 13,13.6 0,7.8 -5.5,13.6 -13,13.6 -7.4,0 -13,-5.8 -13,-13.6 0,-7.8 5.6,-13.6 13,-13.6 z"
       id="path9"
       style="fill:#ba9d5c" />
    <polygon
       class="st0"
       points="76.1,54.3 59.3,54.3 59.3,84.1 61.1,84.1 61.1,70.6 74.7,70.6 74.7,69 61.1,69 61.1,55.9 76.1,55.9 "
       id="polygon9"
       style="fill:#ba9d5c" />
    <polygon
       class="st0"
       points="89.5,84.1 91.2,84.1 91.2,55.9 100.3,55.9 100.3,54.3 80.3,54.3 80.3,55.9 89.5,55.9 "
       id="polygon10"
       style="fill:#ba9d5c" />
    <path
       class="st0"
       d="m 132,78.2 c -0.3,0.8 -0.5,2 -0.5,2.1 0,-0.2 -0.3,-1.4 -0.5,-2.1 L 122.7,54 h -0.5 L 114,78.2 c -0.3,0.8 -0.6,2 -0.6,2.1 0,-0.2 -0.3,-1.4 -0.5,-2.1 l -7,-23.9 H 104 l 9,30.1 h 0.5 l 8.4,-24.7 c 0.3,-0.8 0.5,-2 0.5,-2.1 0,0.3 0.2,1.4 0.5,2.1 l 8.4,24.7 h 0.5 l 9,-30.1 H 139 Z"
       id="path10"
       style="fill:#ba9d5c" />
    <path
       class="st0"
       d="M 146.8,76.1 H 161 l 3.1,8 h 1.8 L 154.2,54 h -0.5 L 142,84.1 h 1.7 z m 6.3,-16.2 c 0.4,-1 0.8,-2.5 0.8,-2.7 0,0.1 0.4,1.7 0.8,2.7 l 5.6,14.6 h -13 z"
       id="path11"
       style="opacity:0.921914;fill:#ba9d5c" />
    <path
       class="st0"
       d="m 189.8,63.1 c 0,-5.8 -3.9,-8.7 -10,-8.7 h -7.7 v 29.7 h 1.7 V 71.8 h 6 c 0.7,0 1.3,0 1.9,-0.1 l 7,12.4 h 2.1 l -7.2,-12.7 c 3.9,-1.2 6.2,-4 6.2,-8.3 z m -10.2,7.1 h -5.8 V 55.9 h 5.8 c 5.5,0 8.4,2.4 8.4,7.2 0,4.6 -2.9,7.1 -8.4,7.1 z"
       id="path12"
       style="fill:#ba9d5c" />
    <polygon
       class="st0"
       points="214.2,54.3 197.4,54.3 197.4,84.1 214.8,84.1 214.8,82.5 199.2,82.5 199.2,69.9 212.7,69.9 212.7,68.3 199.2,68.3 199.2,55.9 214.2,55.9 "
       id="polygon12"
       style="fill:#ba9d5c" />
    <polygon
       class="st0"
       points="1.9,108.4 16.9,108.4 16.9,106.8 0.1,106.8 0.1,136.5 1.9,136.5 1.9,123.1 15.5,123.1 15.5,121.5 1.9,121.5 "
       id="polygon13"
       style="fill:#ba9d5c" />
    <path
       class="st0"
       d="m 35.8,106.5 c -8.1,0 -14.7,6.2 -14.7,15.2 0,9.1 6.6,15.2 14.7,15.2 8.1,0 14.7,-6.2 14.7,-15.2 0.1,-9.1 -6.5,-15.2 -14.7,-15.2 z m 0,28.8 c -7.4,0 -13,-5.8 -13,-13.6 0,-7.8 5.5,-13.6 13,-13.6 7.5,0 13,5.8 13,13.6 0,7.8 -5.6,13.6 -13,13.6 z"
       id="path13"
       style="fill:#ba9d5c" />
    <path
       class="st0"
       d="m 74.7,126.5 c 0,5.7 -3.3,8.8 -8,8.8 -4.7,0 -8,-3.1 -8,-8.8 V 106.8 H 57 v 19.9 c 0,6.7 4.1,10.2 9.7,10.2 5.5,0 9.7,-3.5 9.7,-10.2 v -19.9 h -1.7 z"
       id="path14"
       style="fill:#ba9d5c" />
    <path
       class="st0"
       d="m 105,130.9 c 0,0.9 0.1,2.2 0.1,2.2 0,0 -0.8,-1.2 -1.3,-2 L 85.4,106.4 h -0.5 v 30.1 h 1.6 v -24.1 c 0,-0.9 -0.1,-2.2 -0.1,-2.2 0,0 0.8,1.2 1.3,2 l 18.4,24.7 h 0.5 V 106.8 H 105 Z"
       id="path15"
       style="fill:#ba9d5c" />
    <path
       class="st0"
       d="m 121.5,106.8 h -6.1 v 29.7 h 6.1 c 10,0 15.7,-5.7 15.7,-14.9 0,-9.2 -5.8,-14.8 -15.7,-14.8 z m -0.2,28.1 h -4.2 v -26.5 h 4.2 c 9.5,0 14.1,5.5 14.1,13.3 0,7.8 -4.6,13.2 -14.1,13.2 z"
       id="path16"
       style="fill:#ba9d5c" />
    <path
       class="st0"
       d="m 151.4,106.5 -11.6,30.1 h 1.7 l 3,-8 h 14.2 l 3.1,8 h 1.8 L 152,106.5 Z m 6.8,20.5 h -13 l 5.6,-14.7 c 0.4,-1 0.8,-2.5 0.8,-2.7 0,0.1 0.4,1.7 0.8,2.7 z"
       id="path17"
       style="fill:#ba9d5c" />
    <polygon
       class="st0"
       points="163.9,108.4 173.1,108.4 173.1,136.5 174.8,136.5 174.8,108.4 184,108.4 184,106.8 163.9,106.8 "
       id="polygon17"
       style="fill:#ba9d5c" />
    <rect
       x="189.89999"
       y="106.8"
       class="st0"
       width="1.7"
       height="29.700001"
       id="rect17"
       style="fill:#ba9d5c" />
    <path
       class="st0"
       d="m 213.3,106.5 c -8.1,0 -14.7,6.2 -14.7,15.2 0,9.1 6.6,15.2 14.7,15.2 8.1,0 14.7,-6.2 14.7,-15.2 0,-9.1 -6.6,-15.2 -14.7,-15.2 z m 0,28.8 c -7.4,0 -13,-5.8 -13,-13.6 0,-7.8 5.5,-13.6 13,-13.6 7.4,0 13,5.8 13,13.6 0,7.8 -5.6,13.6 -13,13.6 z"
       id="path18"
       style="fill:#ba9d5c" />
    <path
       class="st0"
       d="m 254.9,106.8 v 24.1 c 0,0.9 0.1,2.2 0.1,2.2 0,0 -0.8,-1.2 -1.3,-2 l -18.4,-24.7 h -0.5 v 30.1 h 1.6 v -24.1 c 0,-0.9 -0.1,-2.2 -0.1,-2.2 0,0 0.8,1.2 1.3,2 l 18.4,24.7 h 0.5 v -30.1 z"
       id="path19"
       style="fill:#ba9d5c" />
  </g>
</svg>
