<svg xmlns="http://www.w3.org/2000/svg" role="img" viewBox="-10.92 -10.92 500.84 567.84"><defs><clipPath id="a" clipPathUnits="userSpaceOnUse"><path d="M292 1124v2974h2967V1124z"/></clipPath></defs><g fill="#100f0d" clip-path="url(#a)" transform="matrix(.13333 0 0 -.13333 0 546.453)"><path d="M2680.04 2262.99l-177.64 47.6c-26.58-64.19-61.44-124.02-103.2-178.32l130.19-130.2-144.66-144.66-130.19 130.19c-54.31-41.76-114.15-76.63-178.33-103.21l47.59-177.63-197.6-52.95-47.66 177.86c-33.74-4.41-68.06-6.92-103-6.92-34.93 0-69.25 2.51-102.98 6.92l-47.66-177.86-197.61 52.95 47.59 177.63c-64.18 26.58-124.02 61.45-178.32 103.21l-130.2-130.19-144.66 144.66 130.2 130.2c-41.77 54.3-76.63 114.13-103.22 178.32l-177.629-47.6-52.949 197.62 177.867 47.66c-4.414 33.73-6.93 68.05-6.93 102.98 0 34.94 2.516 69.26 6.93 102.99l-177.867 47.66 52.949 197.61 177.629-47.6c26.59 64.19 61.45 124.03 103.22 178.33l-130.2 130.2 144.66 144.66 130.2-130.2c54.3 41.76 114.14 76.63 178.32 103.21l-47.59 177.64 197.61 52.95 47.66-177.87c33.73 4.42 68.05 6.93 102.98 6.93 34.94 0 69.26-2.51 103-6.93l47.66 177.87 197.6-52.95-47.59-177.64c64.18-26.58 124.02-61.45 178.33-103.21l130.19 130.2 144.66-144.66-130.19-130.2c41.76-54.3 76.62-114.14 103.2-178.33l177.64 47.6 52.95-197.61-177.86-47.66c4.41-33.73 6.92-68.05 6.92-102.99 0-34.93-2.51-69.25-6.92-102.98l177.86-47.66zm-904.5 1429.82c-597.32 0-1081.548-484.23-1081.548-1081.56 0-597.32 484.228-1081.55 1081.548-1081.55 597.34 0 1081.57 484.23 1081.57 1081.55 0 597.33-484.23 1081.56-1081.57 1081.56"/><path d="M2959.06 2454.41c-76.77-582.92-575.52-1032.86-1179.4-1032.86-657.06 0-1189.707 532.64-1189.707 1189.7 0 657.06 532.647 1189.71 1189.707 1189.71 603.88 0 1102.63-449.94 1179.4-1032.86h299.5c-78.36 747.59-710.56 1330.29-1478.9 1330.29-821.324 0-1487.137-665.81-1487.137-1487.14 0-821.32 665.813-1487.13 1487.137-1487.13 768.34 0 1400.54 582.7 1478.9 1330.29h-299.5"/></g><path fill="#231f20" d="M43.786 488.65c-.004-.278.017-.514.018-.755 0-3.548.047-7.096-.022-10.644-.03-1.545-.237-3.092-.464-4.623-1.076-7.253-6.284-12.12-13.33-12.505-7.274-.398-13.667 3.499-14.344 10.887-.983 10.705-.99 21.622-.09 32.337.655 7.775 6.41 10.954 15.041 10.402 7.369-.47 11.91-4.566 12.708-11.914.502-4.617.248-8.539.483-13.184zm14.704 3.606c0 7.462-.159 9.325-1.825 15.884-3.3 12.985-14.961 19.612-30.724 18.505C12.347 525.692 2 517.287.836 504.46-.18 493.267-.346 481.824.76 470.656c1.588-16.015 13.358-23.78 32.28-22.883 13.831.656 24.207 11.007 25.08 25.291.299 4.863.369 3.948.369 8.83.02 3.167 0 6.658 0 10.362m56.941 6.269c.07-10.281-5.273-15.885-15.138-15.878-9.279.006-15.302 5.944-15.458 15.238-.162 9.664 5.91 15.898 15.48 15.894 9.587-.006 15.05-5.518 15.116-15.254zm-43.813-27.12c4.517 0 13.8.046 13.8.046s0 3.625.112 7.967c5.846-7.645 15.786-11.713 25.587-8.582 4.775 1.525 9.83 4.663 12.912 8.539 9.163 11.528 7.227 32.092-3.046 41.533-20.217 11.912-36.157-4.512-36.157-4.512v30.057H71.617v-75.048m253.45 24.932s4.886.081 5.761.074c.957.038 5.259.05 7.733.05 2.352 10.098-1.09 19.515-8.808 25.067-19.141 13.772-46.048 2.344-48.186-20.947-.928-10.094-.651-20.486.61-30.553 2.031-16.208 16.598-24.716 35.802-22.023 14.196 1.991 22.785 13.601 21.106 29.171h-13.262c-.106-.516-.362-3.304-.595-4.785-1.25-7.939-6.053-11.895-13.556-12.283-7.207-.372-13.923 3.55-14.603 10.814-1.028 10.929-1.06 22.11.05 33.025.756 7.446 7.142 10.496 15.712 9.793 7.462-.612 11.048-3.87 11.822-11.748.207-2.092.414-4.367.414-5.655m-140.911-5.556c-2.29-7.202-7.621-8.905-13.13-8.994-5.85-.095-11.2 1.888-13.358 8.994h26.488zm13.72 11.767h-40.57c.053 5.55 3.097 8.635 7.365 10.081 6.922 2.343 13.576 1.796 19.061-4.501 3.672 1.95 7.308 3.877 10.875 5.77-2.006 10.207-20.367 15.987-34.568 11.09-13.678-4.715-20.726-19.75-16.659-35.44 3.62-13.964 17.867-21.932 34.135-19.093 14.512 2.53 21.969 13.943 20.361 32.093m267.364-11.765c-1.816-7.515-7.564-8.663-13.236-9.058-6.444-.448-10.967 3.235-12.288 9.058h25.524zm13.673 11.77h-40.281c2.572 12.472 15.42 15.014 26.799 5.675l10.738 5.817c-6.025 11.683-22.328 16.09-36.314 10.222-13.162-5.52-19.535-20.779-14.919-35.715 4.29-13.873 19.67-21.596 35.585-17.864 13.659 3.203 20.887 15.427 18.392 31.865m-212.752 22.442h-13.674c0-9.772.034-19.243-.011-28.711-.041-9.205-3.793-14.136-11.015-14.621-7.048-.474-12.629 4.101-13.309 12.757-.777 9.904-.18 19.915-.18 30.383h-13.456v-53.144h12.539c.061 1.38.24 3.582.24 4.975 0 2.682.01 3.465 0 4.777-.002.248.47.165.606-.042.971-1.465 3.302-3.833 4.006-4.747 5.7-7.41 13.482-7.794 21.649-5.827 7.037 1.693 12.287 8.23 12.513 16.213.352 12.405.092 24.828.092 37.987m89.229-53.53h13.602c0 7.784-.057 15.439.025 23.09.038 3.532.086 7.098.584 10.584.832 5.81 4.402 8.997 10.286 9.421 6.285.455 11.232-1.935 12.656-8.233 1.152-5.1 1.073-10.512 1.234-15.795.188-6.17.043-12.353.043-18.965h13.367v53.372H394.24c-.277-2.417-.559-4.862-.841-7.304-4.948 6.337-10.9 9.292-18.522 9.12-10.797-.243-18.901-7.187-19.364-17.923-.526-12.168-.122-24.376-.122-37.367"/><path fill="#231f20" d="M214.516 471.659h12.539c.061 1.38.24 3.582.24 4.975"/></svg>