<svg xmlns="http://www.w3.org/2000/svg" viewBox="0 0 170.3 130.01"><defs><style>.cls-1{fill:#cc1e68;}</style></defs><g id="Layer_2" data-name="Layer 2"><g id="Layer_1-2" data-name="Layer 1"><path class="cls-1" d="M102.81,36l22.3-7.42-.1-.27A42.82,42.82,0,0,0,121,20l-.15-.25L101,32.68A18.31,18.31,0,0,1,102.81,36Z"/><path class="cls-1" d="M127.36,38.73l0-.29-23.1,2.94a18.23,18.23,0,0,1,0,3.84l23.11,2.94,0-.29a43.46,43.46,0,0,0,0-9.15Z"/><path class="cls-1" d="M100.86,54l19.78,13.1.16-.24a42.86,42.86,0,0,0,4.06-8.2l.1-.27-22.2-7.65A18.31,18.31,0,0,1,100.86,54Z"/><circle class="cls-1" cx="85.97" cy="43.28" r="10"/><path class="cls-1" d="M103.67,63.94a27.21,27.21,0,1,1,.23-41.12l11.85-10.92a43.28,43.28,0,1,0-.22,63Z"/><path class="cls-1" d="M9.22,124.56a8.74,8.74,0,0,1-3.79-.8,9.13,9.13,0,0,1-2.91-2.15,9.77,9.77,0,0,1-1.87-3,9.6,9.6,0,0,1-.65-3.5,9.15,9.15,0,0,1,.69-3.54,9.84,9.84,0,0,1,1.94-3A9,9,0,0,1,9.3,105.7a8.69,8.69,0,0,1,3.76.8A9.07,9.07,0,0,1,16,108.66a10,10,0,0,1,1.87,3.05,9.48,9.48,0,0,1,.65,3.44,9.3,9.3,0,0,1-.68,3.54,9.54,9.54,0,0,1-4.89,5.1A8.81,8.81,0,0,1,9.22,124.56Zm-4.85-9.43a7,7,0,0,0,.31,2.08A5.56,5.56,0,0,0,5.62,119a4.58,4.58,0,0,0,1.53,1.26,4.52,4.52,0,0,0,2.1.47,4.54,4.54,0,0,0,2.15-.48,4.46,4.46,0,0,0,1.52-1.3,5.81,5.81,0,0,0,.9-1.82,7.16,7.16,0,0,0,.3-2.06A6.82,6.82,0,0,0,13.8,113a5.6,5.6,0,0,0-.94-1.79A4.38,4.38,0,0,0,11.32,110a4.68,4.68,0,0,0-2.07-.45,4.39,4.39,0,0,0-3.65,1.74,5.5,5.5,0,0,0-.92,1.81A7.14,7.14,0,0,0,4.37,115.13Z"/><path class="cls-1" d="M29.86,124.69a5.35,5.35,0,0,1-2.7-.66,4.79,4.79,0,0,1-1.81-1.79V130H21.17V110.83h3.64v2.24a5.23,5.23,0,0,1,4.61-2.45,6,6,0,0,1,2.55.54,6.31,6.31,0,0,1,2,1.5,6.83,6.83,0,0,1,1.34,2.22,7.77,7.77,0,0,1,.47,2.74,8.33,8.33,0,0,1-.76,3.61,6.26,6.26,0,0,1-2.11,2.53A5.3,5.3,0,0,1,29.86,124.69Zm-1.41-3.54a2.66,2.66,0,0,0,1.24-.29,3.33,3.33,0,0,0,1-.78,3.39,3.39,0,0,0,.64-1.13,4.16,4.16,0,0,0,.22-1.36,3.53,3.53,0,0,0-.25-1.35,3.45,3.45,0,0,0-.69-1.08,3.07,3.07,0,0,0-1-.72,3.33,3.33,0,0,0-1.31-.25,3.05,3.05,0,0,0-.85.13,3.19,3.19,0,0,0-.81.36,3.65,3.65,0,0,0-.69.56,3,3,0,0,0-.52.75v2.79a4.38,4.38,0,0,0,.76,1.21,3.77,3.77,0,0,0,1.07.85A2.67,2.67,0,0,0,28.45,121.15Z"/><path class="cls-1" d="M45.16,124.69a8.19,8.19,0,0,1-3.12-.56,6.93,6.93,0,0,1-2.32-1.52,6.49,6.49,0,0,1-1.45-2.21,7.07,7.07,0,0,1-.5-2.63,7.32,7.32,0,0,1,.88-3.56,6.8,6.8,0,0,1,2.53-2.6,7.6,7.6,0,0,1,4-1,7.59,7.59,0,0,1,4,1,6.7,6.7,0,0,1,2.5,2.57,7.08,7.08,0,0,1,.86,3.44,6.29,6.29,0,0,1,0,.71q0,.35-.07.61H42.23a3,3,0,0,0,.51,1.5,2.78,2.78,0,0,0,1.11.93,3.35,3.35,0,0,0,1.44.32,3.67,3.67,0,0,0,1.77-.45A2.42,2.42,0,0,0,48.2,120l3.56,1a5.94,5.94,0,0,1-1.48,1.9,7.15,7.15,0,0,1-2.25,1.3A8.35,8.35,0,0,1,45.16,124.69Zm-3-8.33h6a3.44,3.44,0,0,0-.5-1.44,2.69,2.69,0,0,0-1-.95,3.27,3.27,0,0,0-2.89,0,2.72,2.72,0,0,0-1,.95A3.42,3.42,0,0,0,42.12,116.36Z"/><path class="cls-1" d="M68.32,124.43H64.13v-7.57a3,3,0,0,0-.51-1.94,1.68,1.68,0,0,0-1.35-.6,2.63,2.63,0,0,0-1.18.3,3.85,3.85,0,0,0-1.83,2v7.77H55.06v-13.6h3.77v2.32a5.18,5.18,0,0,1,1.31-1.37,5.85,5.85,0,0,1,1.81-.86,8,8,0,0,1,2.23-.3,4.29,4.29,0,0,1,2.16.48,3.3,3.3,0,0,1,1.26,1.25,5.05,5.05,0,0,1,.58,1.66,10.93,10.93,0,0,1,.14,1.74Z"/><path class="cls-1" d="M70.89,114.94a9.25,9.25,0,0,1,.63-3.34,9.5,9.5,0,0,1,1.83-3,9,9,0,0,1,2.93-2.14,9.26,9.26,0,0,1,3.93-.8,8.85,8.85,0,0,1,4.55,1.13,7.29,7.29,0,0,1,2.87,2.93l-3.3,2.31a3.81,3.81,0,0,0-1.11-1.55,4.18,4.18,0,0,0-1.52-.77,6.08,6.08,0,0,0-1.58-.22A4.54,4.54,0,0,0,78,110a4.46,4.46,0,0,0-1.52,1.3,5.63,5.63,0,0,0-.89,1.81,7.12,7.12,0,0,0-.29,2,6.65,6.65,0,0,0,.34,2.12,5.65,5.65,0,0,0,1,1.81,4.7,4.7,0,0,0,1.56,1.24,4.44,4.44,0,0,0,2,.46,5.18,5.18,0,0,0,1.6-.26,4.65,4.65,0,0,0,1.51-.83,3.58,3.58,0,0,0,1.06-1.48l3.51,2.07A5.54,5.54,0,0,1,86,122.57,9.28,9.28,0,0,1,83.19,124a10.16,10.16,0,0,1-3.13.51,8.33,8.33,0,0,1-3.71-.83,9.28,9.28,0,0,1-2.91-2.2,10.21,10.21,0,0,1-1.89-3.09A9.56,9.56,0,0,1,70.89,114.94Z"/><path class="cls-1" d="M96.74,124.69a8.15,8.15,0,0,1-3.13-.57,6.74,6.74,0,0,1-2.32-1.55,6.63,6.63,0,0,1-1.43-2.25,7.61,7.61,0,0,1,0-5.34,6.63,6.63,0,0,1,1.43-2.25,6.73,6.73,0,0,1,2.32-1.55,8.13,8.13,0,0,1,3.13-.57,8,8,0,0,1,3.12.57,6.71,6.71,0,0,1,3.75,3.79,7.43,7.43,0,0,1,0,5.34,6.71,6.71,0,0,1-3.75,3.79A8.06,8.06,0,0,1,96.74,124.69Zm-3.06-7a3.94,3.94,0,0,0,.41,1.83,3.07,3.07,0,0,0,1.09,1.22,2.87,2.87,0,0,0,1.57.43,2.83,2.83,0,0,0,1.56-.45,3,3,0,0,0,1.09-1.23,4,4,0,0,0,.39-1.81,4.06,4.06,0,0,0-.39-1.83,3,3,0,0,0-1.09-1.22,3.05,3.05,0,0,0-3.13,0,3.07,3.07,0,0,0-1.09,1.22A3.94,3.94,0,0,0,93.68,117.67Z"/><path class="cls-1" d="M106.78,105.3H111v14.25a1.91,1.91,0,0,0,.31,1.23,1.11,1.11,0,0,0,.89.37,2.86,2.86,0,0,0,.8-.12,4.25,4.25,0,0,0,.72-.27l.55,3.14a8.15,8.15,0,0,1-1.81.58,9.56,9.56,0,0,1-1.91.21,3.8,3.8,0,0,1-2.76-1,3.62,3.62,0,0,1-1-2.72Z"/><path class="cls-1" d="M122.81,124.69a8.15,8.15,0,0,1-3.13-.57,6.74,6.74,0,0,1-2.32-1.55,6.63,6.63,0,0,1-1.43-2.25,7.61,7.61,0,0,1,0-5.34,6.63,6.63,0,0,1,1.43-2.25,6.73,6.73,0,0,1,2.32-1.55,8.13,8.13,0,0,1,3.13-.57,8,8,0,0,1,3.12.57,6.71,6.71,0,0,1,3.75,3.79,7.43,7.43,0,0,1,0,5.34,6.71,6.71,0,0,1-3.75,3.79A8.06,8.06,0,0,1,122.81,124.69Zm-3.06-7a3.94,3.94,0,0,0,.41,1.83,3.07,3.07,0,0,0,1.09,1.22,2.87,2.87,0,0,0,1.57.43,2.83,2.83,0,0,0,1.56-.45,3,3,0,0,0,1.09-1.23,4,4,0,0,0,.39-1.81,4.06,4.06,0,0,0-.39-1.83,3,3,0,0,0-1.09-1.22,3.05,3.05,0,0,0-3.13,0,3.07,3.07,0,0,0-1.09,1.22A3.94,3.94,0,0,0,119.74,117.67Z"/><path class="cls-1" d="M141.62,114.26a7.46,7.46,0,0,0-2.75.48,3.41,3.41,0,0,0-1.78,1.43v8.25h-4.19v-13.6h3.85v2.62a5.79,5.79,0,0,1,1.83-2.17,4.22,4.22,0,0,1,2.36-.81h.43a1,1,0,0,1,.25,0Z"/><path class="cls-1" d="M144.37,124.43v-18.6h4.3v18.6Z"/><path class="cls-1" d="M161,124.56a8.74,8.74,0,0,1-3.79-.8,9.13,9.13,0,0,1-2.91-2.15,9.77,9.77,0,0,1-1.87-3,9.6,9.6,0,0,1-.65-3.5,9.15,9.15,0,0,1,.69-3.54,9.84,9.84,0,0,1,1.94-3,9,9,0,0,1,6.67-2.84,8.69,8.69,0,0,1,3.76.8,9.07,9.07,0,0,1,2.91,2.16,10,10,0,0,1,1.87,3.05,9.48,9.48,0,0,1,.65,3.44,9.3,9.3,0,0,1-.68,3.54,9.54,9.54,0,0,1-4.89,5.1A8.81,8.81,0,0,1,161,124.56Zm-4.85-9.43a7,7,0,0,0,.31,2.08,5.56,5.56,0,0,0,.93,1.79,4.58,4.58,0,0,0,1.53,1.26,5,5,0,0,0,4.24,0,4.46,4.46,0,0,0,1.52-1.3,5.81,5.81,0,0,0,.9-1.82,7.16,7.16,0,0,0,.3-2.06,6.82,6.82,0,0,0-.31-2.07,5.6,5.6,0,0,0-.94-1.79,4.38,4.38,0,0,0-1.55-1.24,4.68,4.68,0,0,0-2.07-.45,4.39,4.39,0,0,0-3.65,1.74,5.5,5.5,0,0,0-.92,1.81A7.14,7.14,0,0,0,156.18,115.13Z"/></g></g></svg>