<svg xmlns="http://www.w3.org/2000/svg" xmlns:xlink="http://www.w3.org/1999/xlink" viewBox="33.33 115 1354.961 174.91663"><defs><style>.cls-1{fill:url(#New_Gradient_Swatch_12);}</style><linearGradient id="New_Gradient_Swatch_12" x1="33.33" y1="202.42" x2="1388.29" y2="202.42" gradientUnits="userSpaceOnUse"><stop offset="0" stop-color="#e05f78"/><stop offset="0.07" stop-color="#d9687a"/><stop offset="0.19" stop-color="#c67f80"/><stop offset="0.34" stop-color="#a7a68a"/><stop offset="0.5" stop-color="#80d596"/><stop offset="0.5" stop-color="#80d596"/><stop offset="0.66" stop-color="#8bd7c3"/><stop offset="0.8" stop-color="#93d9e3"/><stop offset="0.92" stop-color="#97daf7"/><stop offset="1" stop-color="#99dafe"/></linearGradient></defs><g id="_5.2" data-name="5.2"><path class="cls-1" d="M259,145.07q-16.08,0-26.12,8.42-6.16,5-14.45,18.71V148.34H173.57c0,1.78,0,3.56,0,5.33-1.85,0-3.71,0-5.56,0,0-1.78,0-3.56,0-5.35H134.36v10.81h-5.63c0-3.6,0-7.2,0-10.81H117.49c0,1.78,0,3.56,0,5.33-1.86,0-3.72,0-5.58,0,.1,3.6-.23,7.29.17,10.87,3.68.14,7.36,0,11,.05,0,3.66,0,7.32,0,11h-5.64c0-1.82,0-3.65,0-5.47h-5.6a32.19,32.19,0,0,0-.15-5.38,40.84,40.84,0,0,0-5.42-.13q0-2.72,0-5.43h-5.65c0-3.6,0-7.21,0-10.81h-5.6v5.33H89.41c0,1.83,0,3.65,0,5.47h11.25c0,1.81,0,3.63,0,5.44,1.84,0,3.67,0,5.51-.05a109.28,109.28,0,0,1,0,11c-1.85,0-3.69,0-5.53,0v5.52h5.63c0,1.82,0,3.64,0,5.46h5.59v-5.48c3.74,0,7.48,0,11.22,0,0-1.82,0-3.66,0-5.48,1.87,0,3.73,0,5.6,0,.08,3.6-.11,7.21.11,10.79a33,33,0,0,0,5.54.19c0,1.81,0,3.6,0,5.41l-5.66,0c0-1.77.05-3.54,0-5.29-3.7-.34-7.48-.07-11.2-.16v5.54c3.75,0,7.5,0,11.25,0,0,3.64,0,7.27,0,10.9,1.88,0,3.76,0,5.64,0v5.5h-5.63V203c-1.87,0-3.75,0-5.62,0,0-1.82,0-3.64,0-5.47a27.54,27.54,0,0,0-5.53.21,42.07,42.07,0,0,0-.11,5.27h5.62c0,1.83,0,3.66,0,5.49-3.74,0-7.48,0-11.22,0,0-3.65,0-7.31,0-11a39.11,39.11,0,0,0,5.52-.14c.12-1.78.06-3.57,0-5.35-1.85,0-3.7,0-5.55,0,0,1.83,0,3.66,0,5.49h-5.59a41.63,41.63,0,0,0-.13-5.36c-3.67-.33-7.41-.06-11.09-.15,0,3.67,0,7.35,0,11h5.58v-5.48h5.64c0,3.65,0,7.31,0,11-3.75,0-7.5,0-11.24,0,0,1.83,0,3.66,0,5.48h5.6v5.54c1.87,0,3.74,0,5.62,0,0,1.8,0,3.61,0,5.41,1.85,0,3.7,0,5.54,0,.1-1.79.06-3.6.05-5.4-1.86,0-3.71,0-5.57,0,0-3.66,0-7.33,0-11l5.58,0c0,1.82,0,3.65,0,5.48h5.59c0,1.84,0,3.69,0,5.53h5.62c0-1.85,0-3.7,0-5.55,1.87,0,3.73,0,5.6,0q0,2.78,0,5.55h5.64v5.42h5.58q0,5.49,0,11c-3.74,0-7.48,0-11.22,0,0,1.82,0,3.64,0,5.46h0v0c3.73,0,7.47,0,11.21,0,0,1.83,0,3.66,0,5.49h-11.2v-5.5H123.1c0-1.82,0-3.63,0-5.45l5.6,0c0-1.85,0-3.7,0-5.55h5.63c0-1.81,0-3.62,0-5.43-3.75-.06-7.51,0-11.26,0,0,3.66,0,7.32,0,11-1.87,0-3.75,0-5.62,0,0-3.66,0-7.32,0-11a29.51,29.51,0,0,0-5.4.19,29.88,29.88,0,0,0-.18,5.27c-1.86,0-3.71,0-5.57,0,0,1.85,0,3.7,0,5.55h-5.64v-5.53H95.08v5.57c1.87,0,3.73,0,5.6,0,0,1.82,0,3.65,0,5.47,1.88,0,3.77,0,5.65,0,0-1.81,0-3.63,0-5.44h11.18c0,1.82,0,3.64,0,5.46h5.63v5.48h-5.62c0,1.82,0,3.63,0,5.46h-5.58c0-1.83,0-3.65,0-5.48-3.74,0-7.49,0-11.23,0v5.49c3.74,0,7.49,0,11.23,0,0,1.81,0,3.62,0,5.42-3.73,0-7.47,0-11.2,0,0,3.68,0,7.37,0,11.05l5.64,0c0,1.84,0,3.68-.1,5.51-1.85,0-3.69,0-5.54,0v5.45H95.08c0,1.84,0,3.68,0,5.52h5.6c0-1.83,0-3.67,0-5.51h5.63c0-1.82,0-3.64,0-5.45h5.58c0,1.82,0,3.64,0,5.45h5.59v5.5h5.63c0-1.83,0-3.67,0-5.51h5.61c0,1.83,0,3.68,0,5.51h5.63c.07-3.61-.14-7.25.11-10.85,1.81-.14,3.65-.09,5.46-.1,0,1.82,0,3.64,0,5.45h5.61v5.51h11.23c0-1.83,0-3.67,0-5.5h5.67c0,1.83,0,3.67,0,5.5h16.8c0-1.83,0-3.67,0-5.5h5v5.58h36V219.8q0-16.44,4.14-24.36,7.41-14.07,29-14.07c1.09,0,2.52,0,4.28.12s3.76.26,6,.51V145.32c-1.59-.08-2.61-.14-3.07-.19S259.64,145.07,259,145.07Zm-152.65,36c0-1.84,0-3.68,0-5.52,1.86,0,3.72,0,5.58,0,0,1.82,0,3.65,0,5.47Zm44.85,32.85h11.24v5.53c-3.74,0-7.48,0-11.22,0C151.17,217.61,151.17,215.77,151.17,213.93Zm0,11v5.43l-5.63,0c0-1.8,0-3.61,0-5.41C147.42,224.89,149.29,224.89,151.17,224.9Zm11.23-49.34h-5.64c0-1.82,0-3.65,0-5.47,1.89,0,3.78,0,5.68,0C162.42,171.94,162.42,173.75,162.4,175.56Zm5.6,5.51c0,1.82,0,3.64,0,5.46h-5.59c0-1.82,0-3.64,0-5.46Q165.21,181.1,168,181.07Zm-11.25,0c0,1.8.08,3.61-.05,5.41-1.84.13-3.7,0-5.54,0,0-1.82,0-3.64,0-5.46Zm-5.58,0-5.63,0c0-3.66,0-7.31,0-11h5.65C151.16,173.75,151.17,177.4,151.17,181.05Zm-5.71,10.89c-1.84.08-3.68,0-5.52.1v-5.5h5.59C145.51,188.34,145.62,190.15,145.46,191.94Zm.08,5.55h5.64c0,1.83,0,3.65,0,5.47h-5.64C145.54,201.12,145.54,199.31,145.54,197.49Zm11.21,5.45c0-3.62,0-7.25,0-10.87l5.66,0c0,3.61,0,7.23,0,10.85Zm5.68,27.39H168v5.51l-5.57,0C162.42,234,162.42,232.18,162.43,230.33ZM168,208.47h5.57c0,1.8.08,3.61-.05,5.41-1.84.11-3.69,0-5.52,0C168,212.11,168,210.29,168,208.47Zm5.58,27.4c0,1.8.06,3.61-.06,5.41-1.84.1-3.69,0-5.52,0,0-1.81,0-3.63,0-5.44Zm0-11v-5.4l5.67,0q0,2.72,0,5.43Zm5.67-16.4c0-1.84,0-3.68,0-5.52h5.57c0,1.84,0,3.67,0,5.5h-5.58Zm5.59,38.37h5.64c0,1.79.07,3.6-.07,5.38-1.85.14-3.72,0-5.58.05C184.82,250.45,184.82,248.64,184.82,246.84Zm5.65-27.38,0-5.53h5.61c0,1.84,0,3.68,0,5.52Zm5.58,49.27c0,1.83,0,3.66,0,5.5-1.86,0-3.72,0-5.59,0,0-1.84,0-3.66,0-5.49Zm0-115c1.86,0,3.71,0,5.56,0,0,1.81,0,3.63,0,5.44-1.83,0-3.68.09-5.5,0C196,157.31,196.08,155.48,196.05,153.68Zm0,38.37c1.85,0,3.7,0,5.55,0,0,1.78.09,3.57-.05,5.35-1.83.12-3.68,0-5.5.05C196.05,195.66,196.06,193.86,196.06,192.05Zm-5.61-22h-5.64c0-1.83,0-3.66,0-5.5h5.63C190.46,166.43,190.45,168.27,190.45,170.1Zm11.16,93.13c.18-1.59-.43-4.12.4-5.45,1.74-.12,3.5,0,5.25,0v5.5Zm-16.8-87.65q0,2.74,0,5.49h-5.57c0-1.84,0-3.67,0-5.5h5.58Zm-5.58-21.89c0,1.79.07,3.61-.07,5.4-1.85.14-3.73,0-5.59,0q0-2.71,0-5.43Zm0,32.84c0,1.82,0,3.64,0,5.45-3.75,0-7.49,0-11.24,0v-5.42C171.73,186.54,175.47,186.56,179.22,186.53ZM168,159.16c0,3.65,0,7.3,0,10.94h-5.59c0-3.64,0-7.29,0-10.93Zm-16.83,0a30.05,30.05,0,0,0,5.37-.17,25.33,25.33,0,0,0,.21-5.3h5.66c0,1.82,0,3.63,0,5.45a37.59,37.59,0,0,0-5.52.16c-.27,1.69-.06,3.5-.19,5.22-1.84.12-3.7,0-5.54.06Zm-16.8,0h5.57v-5.51c1.86,0,3.73,0,5.59,0,0,3.61.09,7.23-.05,10.84-3.7.12-7.41,0-11.12,0C134.36,162.78,134.36,161,134.37,159.17Zm-11.27,0h-5.61c0-1.82,0-3.63,0-5.45h5.63C123.1,155.51,123.11,157.33,123.1,159.15Zm0,5.44v-5.43h5.6c0,1.67,0,3.33,0,5v.43C126.85,164.58,125,164.56,123.12,164.59Zm11.25,16.47a40,40,0,0,0-.16-5.36,38.51,38.51,0,0,0-5.48-.13c0-1.82,0-3.65,0-5.47,1.88,0,3.77,0,5.65,0,0,1.81-.05,3.58.08,5.39,1.84.11,3.65.07,5.48.06,0,1.83,0,3.66,0,5.5Zm0,16.42v-5.41c1.86,0,3.72,0,5.57,0,0,1.8,0,3.61,0,5.42Zm5.57,22h-5.56q0-2.76,0-5.52h5.57C139.93,215.78,139.94,217.62,139.93,219.46ZM123.1,279.64h-5.62v-5.41h5.65C123.11,276,123.11,277.84,123.1,279.64Zm11.09-5.58a43.35,43.35,0,0,1-5.47.16c0-1.83,0-3.66,0-5.48h5.64A37.89,37.89,0,0,1,134.19,274.06Zm.17-10.82-5.64,0c0,1.83,0,3.66,0,5.49-1.86,0-3.73,0-5.59,0,0-1.84,0-3.66,0-5.49h-5.64v5.5c-3.72,0-7.44,0-11.16,0,0-1.83,0-3.65,0-5.47h5.6c0-1.83,0-3.68,0-5.52h5.58c0-1.81,0-3.62,0-5.44,1.87,0,3.74,0,5.62,0,0,1.82,0,3.63,0,5.45,3.68,0,7.39-.09,11.06,0A34.26,34.26,0,0,1,134.36,263.24Zm0-5.52c0-1.81,0-3.62,0-5.44,1.86,0,3.71,0,5.57,0,0,1.81,0,3.62,0,5.44C138.07,257.71,136.21,257.71,134.35,257.72Zm5.58,5.52c0-1.83,0-3.67,0-5.5h5.58c0,1.84,0,3.68,0,5.51Zm5.55-49.38c-1.85.12-3.71,0-5.55,0,0-3.65,0-7.3,0-11h5.59C145.48,206.6,145.62,210.24,145.48,213.86Zm5.69,27.44c0-1.82,0-3.63,0-5.44,1.86,0,3.71,0,5.57,0,0,1.81,0,3.63,0,5.45h5.65q0,2.74,0,5.49h-5.65c0-1.83,0-3.66,0-5.5-1.85,0-3.72,0-5.57,0,0,3.65,0,7.29,0,10.93h-5.63c0-3.65,0-7.29,0-10.94C147.4,241.31,149.29,241.38,151.17,241.3Zm-5.63,32.92c0-1.83,0-3.66,0-5.48,1.87,0,3.75,0,5.63,0,0,1.82,0,3.64,0,5.46Zm11.16-5.55c-1.84.12-3.69,0-5.52.05,0-3.66,0-7.32,0-11h5.57C156.72,261.37,156.84,265,156.7,268.67ZM168,257.72c-1.85,0-3.7,0-5.56,0,0-1.81,0-3.62,0-5.43,1.86,0,3.72,0,5.58,0C168,254.1,168,255.91,168,257.72Zm0,11v-5.49h5.55c0,1.81.08,3.62,0,5.43C171.68,268.78,169.83,268.7,168,268.73Zm11.23,10.92h-5.67v-5.41l5.67,0Q179.22,276.93,179.23,279.65Zm0-43.78c0-1.85,0-3.69,0-5.54h5.58c0,1.84,0,3.68,0,5.53h-.57C182.56,235.86,180.89,235.85,179.22,235.87ZM398.9,275.82q-1.77-2.51-2.14-9.54-.25-9.3-.25-15.83v-62.8q0-24.75-17.53-33.66t-40.12-8.92q-34.69,0-48.95,18.09-9,11.55-10.09,29.51h34.54q1.27-7.9,5.1-12.56,5.34-6.27,18.2-6.28,11.46,0,17.38,3.21c3.95,2.13,5.92,6,5.92,11.61q0,6.91-7.72,10.18Q349,200.71,339,202l-12.28,1.51q-20.88,2.63-31.63,8.79-19.62,11.29-19.61,36.55,0,19.47,12.19,30.08t30.89,10.62a51.91,51.91,0,0,0,26.28-6.66A74,74,0,0,0,362,269.17q.38,4.65,1,8.29a39.7,39.7,0,0,0,2.26,7.78h38.94V280A12.81,12.81,0,0,1,398.9,275.82ZM360.83,232q-.37,18-10.26,24.74A37.45,37.45,0,0,1,329,263.52a19.58,19.58,0,0,1-12.56-4.09q-5.17-4.08-5.17-13.25,0-10.29,8.46-15.2,5-2.88,16.45-4.89l8.15-1.51a58.92,58.92,0,0,0,9.61-2.45,39,39,0,0,0,6.94-3.46Zm210-83.65h37.3l-39.69,136.9h-36.8l-21.48-99.73-21.73,99.73H451.27l-38.43-136.9h38.43l21.36,98.22,19.72-98.22h36.3l20.85,98.6Zm99.35,126.1q3.22-.51,6.31-1.29v12.61q-2.84.51-7.46,1.8a38.33,38.33,0,0,1-10.29,1.29q-11.58,0-17.62-5.79t-6-20.71V164.86H616.31V152h18.78V115h15.44v37h25v12.87h-25v91.32q0,4.89.25,8.49a14.13,14.13,0,0,0,1.55,5.91,7.34,7.34,0,0,0,4,3.35,22.25,22.25,0,0,0,7.59,1A39,39,0,0,0,670.2,274.44Zm130.55-105.6a55.68,55.68,0,0,0-19.29-14.92q-11.58-5.52-27.27-5.53-15.44,0-27,5.53A55,55,0,0,0,707.89,169a64.85,64.85,0,0,0-11.58,22.25,94.12,94.12,0,0,0-3.86,27.4q0,17.49,4.89,30.61a63,63,0,0,0,13.25,21.87,53.91,53.91,0,0,0,19.55,13.12,69.69,69.69,0,0,0,24.05,4.63,62.54,62.54,0,0,0,25.34-5,54.82,54.82,0,0,0,19.55-14.28,64.88,64.88,0,0,0,12.48-22.12,89.24,89.24,0,0,0,4.37-28.81,98.56,98.56,0,0,0-3.73-27.52A61.64,61.64,0,0,0,800.75,168.84Zm-3.86,70.62a57,57,0,0,1-8,18,40,40,0,0,1-14,12.74Q766.28,275,754.19,275a44.22,44.22,0,0,1-19.55-4.12,38.58,38.58,0,0,1-14.15-11.58,53.35,53.35,0,0,1-8.61-17.87,82.88,82.88,0,0,1-3-22.77,84.8,84.8,0,0,1,2.57-21,55.1,55.1,0,0,1,8-18,40.62,40.62,0,0,1,14-12.61q8.63-4.75,20.71-4.76,12.34,0,20.84,4.38a38.32,38.32,0,0,1,13.89,12,52.35,52.35,0,0,1,8,17.88,90.72,90.72,0,0,1,2.58,22.12A83.38,83.38,0,0,1,796.89,239.46Zm159.7,36.36q-1.77-2.51-2.14-9.54-.26-9.3-.25-15.83v-62.8q0-24.75-17.53-33.66t-40.12-8.92q-34.69,0-48.95,18.09-9,11.55-10.09,29.51h34.54q1.28-7.9,5.1-12.56,5.34-6.27,18.2-6.28,11.46,0,17.38,3.21c3.95,2.13,5.92,6,5.92,11.61q0,6.91-7.72,10.18-4.29,1.88-14.29,3.14l-12.28,1.51q-20.88,2.63-31.63,8.79-19.62,11.29-19.61,36.55,0,19.47,12.19,30.08t30.89,10.62a51.91,51.91,0,0,0,26.28-6.66,74,74,0,0,0,17.18-13.69q.38,4.65,1,8.29a40.4,40.4,0,0,0,2.26,7.78h38.94V280A12.81,12.81,0,0,1,956.59,275.82ZM918.53,232q-.39,18-10.27,24.74a37.45,37.45,0,0,1-21.62,6.79,19.58,19.58,0,0,1-12.56-4.09q-5.16-4.08-5.17-13.25,0-10.29,8.46-15.2,5-2.88,16.46-4.89l8.14-1.51a59.36,59.36,0,0,0,9.62-2.45,39.72,39.72,0,0,0,6.94-3.46Zm100.11-38.69q-3.52,9.52-3.52,25.31,0,15,3.52,24.18,6.42,17.09,24.18,17.08,12.59,0,17.88-6.78t6.42-17.58h36.55q-1.26,16.32-11.82,30.89-16.85,23.49-49.91,23.49T993.28,270.3q-15.59-19.59-15.59-50.81,0-35.24,17.22-54.83t47.53-19.59q25.77,0,42.18,11.56t19.43,40.82h-36.68a31.69,31.69,0,0,0-5.16-13.82q-6-8.3-18.76-8.29Q1025.31,175.34,1018.64,193.3Zm222.77-21.94a55.69,55.69,0,0,0-23.65-20.25,78,78,0,0,0-32.2-6.42q-30.11,0-49,19t-18.86,54.55q0,38,20.89,54.82a74.62,74.62,0,0,0,48.22,16.84q33.12,0,51.51-20,11.84-12.56,13.27-24.74h-36.54a30.2,30.2,0,0,1-7.37,9.42q-7.65,6.29-19.88,6.28-11.53,0-19.74-5.15-13.49-8.29-14.31-28.89h99.71q.27-17.73-1.18-27.17A67.23,67.23,0,0,0,1241.41,171.36Zm-86.74,31.86q1.93-13.36,9.53-21.19t21.37-7.82q12.67,0,21.23,7.38t9.54,21.63Zm233.62,40.58q0,20.34-15.17,33.22t-46.88,12.87q-32.34,0-47.76-13.63t-15.42-34.73h36.3q1.14,9.56,4.92,13.57,6.69,7.16,24.74,7.16,10.61,0,16.85-3.14t6.25-9.42a10.15,10.15,0,0,0-5-9.17q-5-3.14-37.44-10.8-23.34-5.78-32.89-14.45t-9.54-24.62q0-19,14.91-32.59t42-13.63q25.68,0,41.85,10.24T1384.52,190h-35.79q-.76-6.91-3.91-10.93-5.92-7.29-20.15-7.29-11.72,0-16.69,3.65t-5,8.54a9.35,9.35,0,0,0,5.29,8.92q5.28,2.88,37.37,9.92,21.39,5,32.07,15.2T1388.29,243.8ZM72.6,279.64c0,1.84,0,3.69,0,5.53H67v-5.52C68.89,279.66,70.75,279.66,72.6,279.64Zm16.75,0c-3.68.13-7.38,0-11.07,0,0-1.82,0-3.64,0-5.46q5.58,0,11.16,0C89.41,276,89.5,277.83,89.35,279.63Zm-39.11-5.38c0,1.78.07,3.57-.05,5.34-1.87.17-3.76.06-5.63.08,0-1.82,0-3.65,0-5.47C46.45,274.21,48.35,274.21,50.24,274.25Zm16.79,0H61.38c0-1.84,0-3.67,0-5.51H67C67,270.55,67,272.39,67,274.23Zm22.39-5.49c0-1.83,0-3.67,0-5.5h5.67v5.51Zm-11.31-5.52c-1.83.1-3.67,0-5.5,0a37.12,37.12,0,0,1,.15-5.38,38.89,38.89,0,0,1,5.4-.16A24.18,24.18,0,0,1,78.11,263.22Zm-16.72,0H55.78c0-1.85,0-3.71,0-5.56,1.86,0,3.72,0,5.58,0C61.38,259.55,61.38,261.4,61.39,263.25Zm22.47-5.51a26.79,26.79,0,0,1,.18-5.3,16.72,16.72,0,0,1,5.33,0,46,46,0,0,1,0,5.25C87.53,257.8,85.69,257.71,83.86,257.74Zm-16.83,0v-5.46h5.58a33.28,33.28,0,0,1-.16,5.19C70.74,257.94,68.79,257.68,67,257.73Zm28.06-5.44a32.13,32.13,0,0,1-5.55-.19c-.29-3.57,0-7.2-.12-10.79h5.66C95.08,245,95.07,248.63,95.09,252.29Zm-16.82,0c0-1.81,0-3.64,0-5.46,1.85,0,3.71,0,5.56,0a33.75,33.75,0,0,1-.14,5.32A30.73,30.73,0,0,1,78.27,252.28Zm-22.48-11c0,1.84,0,3.68,0,5.51-1.83.06-3.66,0-5.49,0a36.59,36.59,0,0,1,0-5.54Zm22.49,0c-1.9,0-3.8,0-5.69,0,0-1.82,0-3.64,0-5.46,1.89,0,3.79,0,5.68,0Zm16.81-16.42H89.42v11H83.85c0-3.67,0-7.33,0-11,1.86,0,3.72,0,5.58,0v-5.4h5.66C95.08,221.26,95.08,223.08,95.09,224.89Zm-33.71,11H55.79c0-1.86,0-3.71,0-5.57h5.58C61.38,232.17,61.38,234,61.38,235.87Zm-28-5.55H39v5.56H33.33C33.34,234,33.34,232.17,33.34,230.32Zm39.26-5.46c0,1.81.08,3.63,0,5.43-1.83.11-3.68,0-5.52.06,0-1.83,0-3.66,0-5.48Zm5.67-11h5.59c0,1.85,0,3.71,0,5.56H78.29C78.28,217.62,78.28,215.76,78.27,213.91Zm-16.88,5.55c0-1.85,0-3.7,0-5.55H67c0,1.85,0,3.71,0,5.56Zm-5.67-5.59c-1.85.15-3.72,0-5.57,0,0-1.81,0-3.63,0-5.45,1.89,0,3.78,0,5.66,0C55.77,210.26,55.87,212.08,55.72,213.87ZM67,202.94h5.57v5.54c-1.86,0-3.72,0-5.57,0Q67,205.71,67,202.94ZM78.13,186.7c.33,3.57.07,7.2.14,10.78,1.85,0,3.69,0,5.53-.07,0,1.83.13,3.68,0,5.5-1.87.13-3.76,0-5.64,0,.09-1.82.13-3.63.11-5.45H72.6q0-5.49,0-11A36.3,36.3,0,0,1,78.13,186.7ZM89.4,192c0,1.81.11,3.65,0,5.45-1.56.12-3.14.06-4.71.12l-.87-.64c.08-1.65.08-3.29.08-5C85.71,192,87.56,192,89.4,192Zm-44.83,0h5.54c0,1.82.11,3.66,0,5.48-1.83.11-3.68,0-5.52.05C44.56,195.65,44.56,193.81,44.57,192ZM67,186.53c0,1.82,0,3.65,0,5.47a46.47,46.47,0,0,1-5.66,0v-5.45Zm11.3-.18c-.13-1.76-.06-3.54-.06-5.3,1.86,0,3.71,0,5.57,0,0,1.83,0,3.66,0,5.48A25.79,25.79,0,0,1,78.34,186.35Zm11.09-16.26c0,1.82,0,3.65,0,5.47h5.67c0,3.66,0,7.33,0,11-1.89,0-3.79,0-5.68,0,0-3.66,0-7.33,0-11-1.86,0-3.72,0-5.57,0,0-1.83,0-3.67,0-5.51Zm-28.05,11H55.79c0-1.84,0-3.69,0-5.53h5.59Zm11.23-5.49c0-1.83,0-3.66,0-5.49,1.89,0,3.78,0,5.67,0v5.44C76.39,175.57,74.5,175.57,72.61,175.59Zm22.48-5.48c0-1.84,0-3.69,0-5.54h5.59v5.53Q97.88,170.09,95.09,170.11Zm-33.71,0c0-1.84,0-3.68,0-5.53H72.6c0,1.84,0,3.68,0,5.52Zm22.47-5.49c-1.86,0-3.72,0-5.58,0,0-3.64,0-7.27,0-10.91,1.86,0,3.72,0,5.58,0C83.86,157.31,83.85,161,83.85,164.61Zm-39.34-.07c-1.83.13-3.69,0-5.54.05v-5.45c1.87,0,3.73,0,5.59,0C44.55,160.94,44.64,162.75,44.51,164.54Zm61.7-11a40.38,40.38,0,0,0,0-5.16c1.89-.07,3.79-.07,5.68-.06,0,1.78,0,3.57,0,5.35C110,153.71,108.11,153.72,106.21,153.56Zm-50.42.14c0-1.78,0-3.57,0-5.36h5.59v5.36Z"/></g></svg>