<?xml version="1.0" encoding="UTF-8" standalone="no"?>
<svg
   role="img"
   viewBox="-14.35 -14.35 369.20 258.20"
   version="1.1"
   id="svg8"
   sodipodi:docname="continuous-integration-wg.svg"
   inkscape:version="1.3.2 (091e20e, 2023-11-25)"
   xmlns:inkscape="http://www.inkscape.org/namespaces/inkscape"
   xmlns:sodipodi="http://sodipodi.sourceforge.net/DTD/sodipodi-0.dtd"
   xmlns="http://www.w3.org/2000/svg"
   xmlns:svg="http://www.w3.org/2000/svg">
  <defs
     id="defs8" />
  <sodipodi:namedview
     id="namedview8"
     pagecolor="#ffffff"
     bordercolor="#666666"
     borderopacity="1.0"
     inkscape:showpageshadow="2"
     inkscape:pageopacity="0.0"
     inkscape:pagecheckerboard="0"
     inkscape:deskcolor="#d1d1d1"
     inkscape:zoom="2.995558"
     inkscape:cx="184.60667"
     inkscape:cy="129.02437"
     inkscape:window-width="1840"
     inkscape:window-height="1032"
     inkscape:window-x="0"
     inkscape:window-y="25"
     inkscape:window-maximized="0"
     inkscape:current-layer="g2" />
  <title
     id="title1">Continuous Integration Working Group logo</title>
  <style
     id="style1">.st0{fill:#1dcad3}</style>
  <style
     id="style2">.st0{fill:#1dcad3}</style>
  <style
     id="style3">.st0{fill:#1dcad3}</style>
  <style
     id="style4">.st0{fill:#1dcad3}</style>
  <style
     id="style5">.st0{fill:#1dcad3}</style>
  <style
     id="style6">.st0{fill:#1dcad3}</style>
  <style
     id="style7">.st0{fill:#1dcad3}</style>
  <style
     id="style8">.st0{fill:#1dcad3}</style>
  <style
     id="style275"
     type="text/css">.st0{fill:#1dcad3}</style>
  <g
     id="text444"
     transform="translate(36.846 27.389)">
    <path
       id="path579"
       d="M-19.81502 199.11307q-1.07422.46875-1.95312.8789-.85938.41016-2.26563.85938-1.1914.37109-2.59765.625-1.38672.27344-3.06641.27344-3.16406 0-5.76172-.87891-2.57812-.89844-4.49219-2.79297-1.875-1.85547-2.92968-4.70703-1.0547-2.87109-1.0547-6.66016 0-3.59375 1.01563-6.42578 1.01563-2.83203 2.9297-4.78515 1.85546-1.89453 4.47265-2.89063 2.63672-.99609 5.83984-.99609 2.34375 0 4.66797.5664 2.34375.56641 5.19531 1.99219v4.58985h-.29297q-2.40234-2.01172-4.76562-2.92969t-5.0586-.91797q-2.20703 0-3.98437.72266-1.75781.70312-3.14453 2.20703-1.34766 1.46484-2.10938 3.71093-.74218 2.22657-.74218 5.15625 0 3.06641.8203 5.27344.83985 2.20703 2.14845 3.59375 1.36718 1.44531 3.18359 2.14844 1.83594.68359 3.86719.68359 2.79297 0 5.23437-.95703 2.4414-.95703 4.57032-2.87109h.27343z" />
    <path
       id="path581"
       d="M-4.09236 201.22244h-11.48438v-2.96875h3.8086v-23.14453h-3.8086v-2.96875h11.48438v2.96875h-3.8086v23.14453h3.8086z" />
    <path
       id="path583"
       d="M50.39983 172.14041l-7.5586 29.08203h-4.35547l-6.11328-24.14062-5.97656 24.14062h-4.25781l-7.69532-29.08203h3.96485l6.11328 24.17969 6.01562-24.17969h3.92579l6.07421 24.41406 6.07422-24.41406z" />
    <path
       id="path585"
       d="M72.4506 190.32401q0 5.33203-2.73437 8.41796-2.73437 3.08594-7.32422 3.08594-4.6289 0-7.36328-3.08594-2.71484-3.08593-2.71484-8.41796 0-5.33204 2.71484-8.41797 2.73438-3.10547 7.36328-3.10547 4.58985 0 7.32422 3.10547 2.73438 3.08593 2.73438 8.41797zm-3.78905 0q0-4.23829-1.66016-6.28907-1.66016-2.07031-4.60938-2.07031-2.98828 0-4.64843 2.07031-1.64063 2.05078-1.64063 6.28907 0 4.10156 1.66016 6.23046 1.66015 2.10938 4.6289 2.10938 2.9297 0 4.58985-2.08984 1.67969-2.10938 1.67969-6.25z" />
    <path
       id="path587"
       d="M91.74748 183.40994h-.19531q-.82031-.19531-1.60156-.27343-.76172-.0977-1.8164-.0977-1.69923 0-3.28126.76172-1.58203.74219-3.04687 1.93359v15.48828H78.1342V179.406h3.67188v3.22265q2.1875-1.75781 3.84765-2.48047 1.67969-.74218 3.41797-.74218.95703 0 1.38672.0586.42969.0391 1.28906.17578z" />
    <path
       id="path589"
       d="M115.0092 201.22244h-4.84375l-8.75-9.55078-2.38281 2.26563v7.28515h-3.67188v-30.39062h3.67188v19.49219l10.60547-10.91797h4.6289l-10.13672 10.07812z" />
    <path
       id="path591"
       d="M122.8217 175.75369h-4.14062v-3.80859h4.14062zm-.23437 25.46875h-3.67188v-21.8164h3.67188z" />
    <path
       id="path593"
       d="M148.09514 201.22244h-3.67188v-12.42187q0-1.50391-.17578-2.8125-.17578-1.32813-.64453-2.07031-.48828-.82032-1.40625-1.21094-.91797-.41016-2.38281-.41016-1.50391 0-3.14453.74219-1.64063.74219-3.14453 1.89453v16.28906h-3.67188v-21.8164h3.67188v2.42187q1.71875-1.42578 3.55468-2.22656 1.83594-.80078 3.76953-.80078 3.53516 0 5.39063 2.1289 1.85547 2.12891 1.85547 6.13282z" />
    <path
       id="path595"
       d="M172.86076 198.74197q0 5.54688-2.51953 8.14454-2.51953 2.59765-7.7539 2.59765-1.73829 0-3.39844-.2539-1.64063-.23438-3.24219-.6836v-3.75h.19531q.89844.35156 2.85157.85938 1.95312.52734 3.90625.52734 1.875 0 3.10546-.44922 1.23047-.44922 1.91407-1.25.68359-.76172.97656-1.83594.29297-1.07421.29297-2.40234v-1.99219q-1.66016 1.32813-3.1836 1.99219-1.5039.64453-3.84765.64453-3.90625 0-6.21094-2.8125-2.28516-2.83203-2.28516-7.96875 0-2.8125.78125-4.84375.80079-2.05078 2.16797-3.53515 1.26953-1.38672 3.08594-2.14844 1.81641-.78125 3.61328-.78125 1.89453 0 3.16406.39062 1.28907.3711 2.71485 1.15235l.23437-.9375h3.4375zm-3.67187-3.51562v-11.89453q-1.46485-.66406-2.73438-.9375-1.25-.29297-2.5-.29297-3.02734 0-4.76562 2.03125t-1.73828 5.89844q0 3.67187 1.28906 5.5664 1.28906 1.89453 4.27734 1.89453 1.60157 0 3.20313-.60546 1.62109-.625 2.96875-1.66016z" />
    <path
       id="path597"
       d="M218.70061 199.07401q-2.38282 1.09375-5.21485 1.91406-2.8125.80078-5.44922.80078-3.39843 0-6.23046-.9375-2.83204-.9375-4.82422-2.8125-2.01172-1.89453-3.10547-4.72656-1.09375-2.85157-1.09375-6.66016 0-6.97266 4.0625-10.99609 4.08203-4.04297 11.1914-4.04297 2.48047 0 5.0586.60547 2.59765.58593 5.58594 2.01172v4.58984h-.35157q-.60547-.46875-1.75781-1.23047-1.15234-.76172-2.26562-1.26953-1.34766-.60547-3.06641-.99609-1.69922-.41016-3.86719-.41016-4.88281 0-7.73437 3.14453-2.83203 3.125-2.83203 8.47656 0 5.64453 2.96875 8.78907 2.96875 3.125 8.08593 3.125 1.875 0 3.73047-.3711 1.875-.37109 3.28125-.95703v-7.12891h-7.79297v-3.39843h11.6211z" />
    <path
       id="path599"
       d="M238.77873 183.40994h-.19531q-.82031-.19531-1.60156-.27343-.76172-.0977-1.81641-.0977-1.69922 0-3.28125.76172-1.58203.74219-3.04687 1.93359v15.48828h-3.67188V179.406h3.67188v3.22265q2.1875-1.75781 3.84765-2.48047 1.67969-.74218 3.41797-.74218.95703 0 1.38672.0586.42969.0391 1.28906.17578z" />
    <path
       id="path601"
       d="M260.82951 190.32401q0 5.33203-2.73437 8.41796-2.73438 3.08594-7.32422 3.08594-4.62891 0-7.36328-3.08594-2.71485-3.08593-2.71485-8.41796 0-5.33204 2.71485-8.41797 2.73437-3.10547 7.36328-3.10547 4.58984 0 7.32422 3.10547 2.73437 3.08593 2.73437 8.41797zm-3.78906 0q0-4.23829-1.66016-6.28907-1.66015-2.07031-4.60937-2.07031-2.98828 0-4.64844 2.07031-1.64062 2.05078-1.64062 6.28907 0 4.10156 1.66015 6.23046 1.66016 2.10938 4.62891 2.10938 2.92969 0 4.58984-2.08984 1.67969-2.10938 1.67969-6.25z" />
    <path
       id="path603"
       d="M284.59904 201.22244h-3.67187v-2.42187q-1.85547 1.46484-3.55469 2.24609-1.69922.78125-3.75.78125-3.4375 0-5.35156-2.08984-1.91406-2.10938-1.91406-6.17188v-14.16015h3.67187v12.42187q0 1.66016.15625 2.85156.15625 1.17188.66406 2.01172.52735.85938 1.36719 1.25.83985.39063 2.44141.39063 1.42578 0 3.10547-.74219 1.69922-.74219 3.16406-1.89453v-16.28906h3.67187z" />
    <path
       id="path605"
       d="M311.02483 190.05057q0 2.65625-.76172 4.86328-.76172 2.1875-2.14844 3.71094-1.28906 1.44531-3.04688 2.24609-1.73828.78125-3.6914.78125-1.69922 0-3.08594-.37109-1.36719-.3711-2.79297-1.15235v9.14063h-3.67187v-29.86328h3.67187v2.28515q1.46485-1.23047 3.28125-2.05078 1.83594-.83984 3.90625-.83984 3.94531 0 6.13281 2.98828 2.20704 2.96875 2.20704 8.26172zm-3.78907.0977q0-3.94531-1.34765-5.89843-1.34766-1.95313-4.14063-1.95313-1.58203 0-3.18359.6836-1.60156.68359-3.06641 1.79687v12.36328q1.5625.70313 2.67578.95703 1.13282.25391 2.5586.25391 3.0664 0 4.78515-2.07031 1.71875-2.07032 1.71875-6.13282z" />
  </g>
  <g
     id="g2"
     transform="translate(1.084 -7.09) scale(1.31418)">
    <path
       id="polygon1"
       fill="#ba9d5c"
       d="M13.2 0L0 37.2h1.7L14.9 0z"
       class="st0"
       style="fill:#ba9d5c" />
    <path
       id="polygon2"
       fill="#ba9d5c"
       d="M19.3 10.7l.8 1.4 4.5-3-.4 5.8h1.6l-.4-5.8 4.5 3 .8-1.4-5-2.4 5-2.4-.8-1.4-4.5 3 .4-5.7h-1.6l.4 5.7-4.5-3-.8 1.4 5 2.4z"
       class="st0"
       style="fill:#ba9d5c" />
    <path
       id="path2"
       fill="#ba9d5c"
       d="M50 23.6h14.2l3.1 8h1.8L57.4 1.5h-.5L45.2 31.6H47zm6.3-16.2c.4-1 .8-2.5.8-2.7 0 .1.4 1.7.8 2.7L63.6 22h-13z"
       class="st0"
       style="fill:#ba9d5c" />
    <path
       id="path3"
       fill="#ba9d5c"
       d="M86.4 31.9c5 0 9.2-2.1 11.8-5.9l-1.3-1c-2.3 3.4-6 5.3-10.5 5.3-7.4 0-13-5.8-13-13.6S79 3.1 86.4 3.1c4.6 0 8 1.9 10.1 5l1.3-1c-2.4-3.6-6.4-5.6-11.4-5.6-8.1 0-14.7 6.2-14.7 15.2s6.5 15.2 14.7 15.2z"
       class="st0"
       style="fill:#ba9d5c" />
    <path
       id="path4"
       fill="#ba9d5c"
       d="M106.4 23.6h14.2l3.1 8h1.8L113.8 1.5h-.5l-11.6 30.1h1.7zm6.3-16.2c.4-1 .8-2.5.8-2.7 0 .1.4 1.7.8 2.7L120 22h-13z"
       class="st0"
       style="fill:#ba9d5c" />
    <path
       id="path5"
       fill="#ba9d5c"
       d="M153.6 16.7c0-9.1-5.8-14.9-15.7-14.9h-6.1v29.7h6.1c9.9.1 15.7-5.7 15.7-14.8zM133.4 30V3.5h4.2c9.5 0 14.1 5.5 14.1 13.3 0 7.8-4.6 13.2-14.1 13.2z"
       class="st0"
       style="fill:#ba9d5c" />
    <path
       id="polygon5"
       fill="#ba9d5c"
       d="M160.3 1.8v29.8h17.4V30h-15.6V17.4h13.5v-1.6h-13.5V3.4h15V1.8z"
       class="st0"
       style="fill:#ba9d5c" />
    <path
       id="path6"
       fill="#ba9d5c"
       d="M186.2 8c0-1-.1-2.6-.1-2.6s.8 1.5 1.6 2.4l10 13.7h.5l10.1-13.7c.8-1 1.6-2.4 1.6-2.4s-.1 1.5-.1 2.6v23.6h1.7V1.5h-.5l-13 17.7-13-17.7h-.4v30.1h1.7V8z"
       class="st0"
       style="fill:#ba9d5c" />
    <path
       id="path7"
       fill="#ba9d5c"
       d="M227.6 31.6h1.8V20.7l10-18.9h-1.8l-8.3 15.6c-.4.7-.8 1.7-.8 1.8 0-.2-.3-1.1-.7-1.8l-8.3-15.6h-1.9l10 18.8z"
       class="st0"
       style="fill:#ba9d5c" />
    <path
       id="path8"
       fill="#ba9d5c"
       d="M18.5 76.8c0-4.1-2.2-6.6-6.9-8.8l-2.7-1.3c-3.6-1.7-5-3.1-5-6.1 0-3 2-5 5.4-5 3.2 0 4.8 1.7 6 3.6l1.4-.9C15.3 56 13.2 54 9.3 54c-3.9 0-7.1 2.5-7.1 6.6 0 3.8 2 5.7 6 7.7l2.7 1.3c4 1.9 5.9 3.8 5.9 7.3 0 3.8-3.1 6-6.9 6-4.6 0-6.8-2.5-8.1-5.1l-1.5.7c1.4 3 4.2 5.9 9.7 5.9 4.9 0 8.5-3 8.5-7.6z"
       class="st0"
       style="fill:#ba9d5c" />
    <path
       id="path9"
       fill="#ba9d5c"
       d="M37.8 84.4c8.1 0 14.7-6.2 14.7-15.2S45.9 54 37.8 54s-14.7 6.2-14.7 15.2 6.6 15.2 14.7 15.2zm0-28.8c7.4 0 13 5.8 13 13.6s-5.5 13.6-13 13.6c-7.4 0-13-5.8-13-13.6s5.6-13.6 13-13.6z"
       class="st0"
       style="fill:#ba9d5c" />
    <path
       id="polygon9"
       fill="#ba9d5c"
       d="M61.1 84.1V70.6h13.6V69H61.1V55.9h15v-1.6H59.3v29.8z"
       class="st0"
       style="fill:#ba9d5c" />
    <path
       id="polygon10"
       fill="#ba9d5c"
       d="M80.3 54.3v1.6h9.2v28.2h1.7V55.9h9.1v-1.6z"
       class="st0"
       style="fill:#ba9d5c" />
    <path
       id="path10"
       fill="#ba9d5c"
       d="M132 78.2c-.3.8-.5 2-.5 2.1 0-.2-.3-1.4-.5-2.1L122.7 54h-.5L114 78.2c-.3.8-.6 2-.6 2.1 0-.2-.3-1.4-.5-2.1l-7-23.9H104l9 30.1h.5l8.4-24.7c.3-.8.5-2 .5-2.1 0 .3.2 1.4.5 2.1l8.4 24.7h.5l9-30.1H139z"
       class="st0"
       style="fill:#ba9d5c" />
    <path
       id="path11"
       fill="#ba9d5c"
       d="M146.8 76.1H161l3.1 8h1.8L154.2 54h-.5L142 84.1h1.7zm6.3-16.2c.4-1 .8-2.5.8-2.7 0 .1.4 1.7.8 2.7l5.6 14.6h-13z"
       class="st0"
       opacity=".922"
       style="fill:#ba9d5c" />
    <path
       id="path12"
       fill="#ba9d5c"
       d="M189.8 63.1c0-5.8-3.9-8.7-10-8.7h-7.7v29.7h1.7V71.8h6c.7 0 1.3 0 1.9-.1l7 12.4h2.1l-7.2-12.7c3.9-1.2 6.2-4 6.2-8.3zm-10.2 7.1h-5.8V55.9h5.8c5.5 0 8.4 2.4 8.4 7.2 0 4.6-2.9 7.1-8.4 7.1z"
       class="st0"
       style="fill:#ba9d5c" />
    <path
       id="polygon12"
       fill="#ba9d5c"
       d="M197.4 54.3v29.8h17.4v-1.6h-15.6V69.9h13.5v-1.6h-13.5V55.9h15v-1.6z"
       class="st0"
       style="fill:#ba9d5c" />
    <path
       id="polygon13"
       fill="#ba9d5c"
       d="M.1 106.8v29.7h1.8v-13.4h13.6v-1.6H1.9v-13.1h15v-1.6z"
       class="st0"
       style="fill:#ba9d5c" />
    <path
       id="path13"
       fill="#ba9d5c"
       d="M35.8 106.5c-8.1 0-14.7 6.2-14.7 15.2 0 9.1 6.6 15.2 14.7 15.2s14.7-6.2 14.7-15.2c.1-9.1-6.5-15.2-14.7-15.2zm0 28.8c-7.4 0-13-5.8-13-13.6s5.5-13.6 13-13.6 13 5.8 13 13.6-5.6 13.6-13 13.6z"
       class="st0"
       style="fill:#ba9d5c" />
    <path
       id="path14"
       fill="#ba9d5c"
       d="M74.7 126.5c0 5.7-3.3 8.8-8 8.8s-8-3.1-8-8.8v-19.7H57v19.9c0 6.7 4.1 10.2 9.7 10.2 5.5 0 9.7-3.5 9.7-10.2v-19.9h-1.7z"
       class="st0"
       style="fill:#ba9d5c" />
    <path
       id="path15"
       fill="#ba9d5c"
       d="M105 130.9c0 .9.1 2.2.1 2.2s-.8-1.2-1.3-2l-18.4-24.7h-.5v30.1h1.6v-24.1c0-.9-.1-2.2-.1-2.2s.8 1.2 1.3 2l18.4 24.7h.5v-30.1H105z"
       class="st0"
       style="fill:#ba9d5c" />
    <path
       id="path16"
       fill="#ba9d5c"
       d="M121.5 106.8h-6.1v29.7h6.1c10 0 15.7-5.7 15.7-14.9s-5.8-14.8-15.7-14.8zm-.2 28.1h-4.2v-26.5h4.2c9.5 0 14.1 5.5 14.1 13.3 0 7.8-4.6 13.2-14.1 13.2z"
       class="st0"
       style="fill:#ba9d5c" />
    <path
       id="path17"
       fill="#ba9d5c"
       d="M151.4 106.5l-11.6 30.1h1.7l3-8h14.2l3.1 8h1.8L152 106.5zm6.8 20.5h-13l5.6-14.7c.4-1 .8-2.5.8-2.7 0 .1.4 1.7.8 2.7z"
       class="st0"
       style="fill:#ba9d5c" />
    <path
       id="polygon17"
       fill="#ba9d5c"
       d="M184 108.4v-1.6h-20.1v1.6h9.2v28.1h1.7v-28.1z"
       class="st0"
       style="fill:#ba9d5c" />
    <path
       id="rect17"
       fill="#ba9d5c"
       d="M189.9 106.8h1.7v29.7h-1.7z"
       class="st0"
       style="fill:#ba9d5c" />
    <path
       id="path18"
       fill="#ba9d5c"
       d="M213.3 106.5c-8.1 0-14.7 6.2-14.7 15.2 0 9.1 6.6 15.2 14.7 15.2s14.7-6.2 14.7-15.2c0-9.1-6.6-15.2-14.7-15.2zm0 28.8c-7.4 0-13-5.8-13-13.6s5.5-13.6 13-13.6c7.4 0 13 5.8 13 13.6s-5.6 13.6-13 13.6z"
       class="st0"
       style="fill:#ba9d5c" />
    <path
       id="path19"
       fill="#ba9d5c"
       d="M254.9 106.8v24.1c0 .9.1 2.2.1 2.2s-.8-1.2-1.3-2l-18.4-24.7h-.5v30.1h1.6v-24.1c0-.9-.1-2.2-.1-2.2s.8 1.2 1.3 2l18.4 24.7h.5v-30.1z"
       class="st0"
       style="fill:#ba9d5c" />
  </g>
</svg>
