<svg xmlns="http://www.w3.org/2000/svg" viewBox="0 0 146.11 46.13"><defs><style>.cls-1{fill:#1dc5ed;}.cls-2{fill:#9661ee;}.cls-3{fill:#319fe0;}.cls-4{fill:#4570ee;}.cls-5{fill:#7870ee;}</style></defs><g id="Layer_2" data-name="Layer 2"><g id="Layer_1-2" data-name="Layer 1"><path class="cls-1" d="M2.24,19.12c-.15,0-.26-.18-.31-.28a16.1,16.1,0,0,1-.88-2.09,5.15,5.15,0,0,1,.23-2.69,17.85,17.85,0,0,1,1.31-2.63c.3-.51.66-.75.87-.75,0,0,.1,0,.19.12.5.63,1.07,1.33,1.71,2.08a2.5,2.5,0,0,1-.29,2.84c-.79,1-1.52,2-2.16,2.89C2.64,19,2.38,19.12,2.24,19.12Z"/><path class="cls-1" d="M7.19,12.31A1,1,0,0,1,6.43,12c-.62-.73-1.18-1.42-1.68-2.06a2.06,2.06,0,0,1,.57-2.19A27.41,27.41,0,0,1,7.73,5.32a2.68,2.68,0,0,1,1.66-.71.85.85,0,0,1,.54.15c.63.49,1.32,1.06,2.05,1.67a.94.94,0,0,1,.33.71,2.16,2.16,0,0,1-.74,1.55c-1,.93-2,1.9-2.88,2.88A2.2,2.2,0,0,1,7.19,12.31Z"/><path class="cls-1" d="M14,5.68a1.62,1.62,0,0,1-1.06-.32q-1.12-.94-2.1-1.71a.24.24,0,0,1-.11-.21,1.38,1.38,0,0,1,.75-.85,17.1,17.1,0,0,1,2.65-1.31A5.67,5.67,0,0,1,15.94,1a3.23,3.23,0,0,1,.83.09,16.45,16.45,0,0,1,2.06.88c.11.05.28.15.29.29s-.12.41-.52.69c-.93.64-1.9,1.36-2.88,2.15A2.89,2.89,0,0,1,14,5.68Z"/><path class="cls-1" d="M20.88,1.22A3.41,3.41,0,0,1,19.35.91l-.64-.3a.27.27,0,0,1-.15-.29.27.27,0,0,1,.23-.21L19.62,0c.36,0,.76,0,1.19,0s.88,0,1.33,0l.85,0a.26.26,0,0,1,.23.22.26.26,0,0,1-.15.28l-.65.32A3.46,3.46,0,0,1,20.88,1.22Z"/><path class="cls-2" d="M21,41.75l-1.33,0-.85-.06a.27.27,0,0,1-.24-.22.26.26,0,0,1,.15-.28l.66-.32a3.43,3.43,0,0,1,1.54-.31,3.55,3.55,0,0,1,1.53.31l.63.31a.26.26,0,0,1-.08.5l-.83.07C21.8,41.74,21.41,41.75,21,41.75Z"/><path class="cls-1" d="M.32,23.18A.26.26,0,0,1,.11,23c0-.26,0-.54-.07-.83a21,21,0,0,1,0-2.51c0-.34,0-.6,0-.85a.27.27,0,0,1,.22-.24h0a.25.25,0,0,1,.23.15c.1.22.21.44.32.66a3.9,3.9,0,0,1,0,3.07c-.1.21-.21.42-.3.63a.27.27,0,0,1-.24.16Z"/><path class="cls-2" d="M41.4,23.19a.26.26,0,0,1-.24-.16c-.1-.21-.2-.43-.32-.65a4,4,0,0,1,0-3.07l.31-.64a.27.27,0,0,1,.24-.15h0a.27.27,0,0,1,.22.24c0,.26.05.53.07.82a21.12,21.12,0,0,1,0,2.52c0,.33,0,.6-.06.84a.27.27,0,0,1-.21.24Z"/><path class="cls-3" d="M3.46,31.07c-.21,0-.57-.23-.87-.74a17.1,17.1,0,0,1-1.31-2.65A5,5,0,0,1,1.06,25a14.43,14.43,0,0,1,.87-2.06c.05-.12.16-.29.31-.29s.4.13.67.51c.64.93,1.36,1.9,2.15,2.88a2.49,2.49,0,0,1,.3,2.84c-.64.76-1.21,1.46-1.71,2.09C3.56,31.07,3.49,31.07,3.46,31.07Z"/><path class="cls-3" d="M7.41,25.83a1.63,1.63,0,0,1-1.25-.67c-.77-1-1.48-1.9-2.1-2.81a2.8,2.8,0,0,1,0-3c.62-.9,1.33-1.84,2.1-2.8a1.61,1.61,0,0,1,1.26-.67,1.37,1.37,0,0,1,1,.48c.82.91,1.7,1.86,2.63,2.85a2.45,2.45,0,0,1,0,3.23c-.93,1-1.81,2-2.64,2.86A1.38,1.38,0,0,1,7.41,25.83Z"/><path class="cls-3" d="M13.57,18.93a2,2,0,0,1-1.47-.63c-.93-1-1.8-1.93-2.62-2.83a2.21,2.21,0,0,1,.23-2.94c.91-1,1.86-1.91,2.82-2.82A2.46,2.46,0,0,1,14.21,9a1.86,1.86,0,0,1,1.26.46c.9.82,1.85,1.69,2.83,2.62a2,2,0,0,1,.63,1.43,2.26,2.26,0,0,1-.69,1.64c-1,1-2.06,2-3.07,3.07A2.23,2.23,0,0,1,13.57,18.93Z"/><path class="cls-3" d="M20.88,11.69a2.37,2.37,0,0,1-1.62-.61q-1.49-1.39-2.85-2.64a1.34,1.34,0,0,1-.48-1.07,1.64,1.64,0,0,1,.66-1.21c1-.77,1.91-1.48,2.81-2.1a2.82,2.82,0,0,1,3,0c.9.62,1.84,1.33,2.8,2.1a1.65,1.65,0,0,1,.67,1.21,1.4,1.4,0,0,1-.48,1.07c-.91.83-1.87,1.71-2.85,2.63A2.35,2.35,0,0,1,20.88,11.69Z"/><path class="cls-3" d="M27.8,5.68A2.86,2.86,0,0,1,26,5.06c-1-.79-2-1.51-2.89-2.16-.39-.27-.52-.54-.51-.68s.18-.24.28-.29A16.1,16.1,0,0,1,25,1.05,2.92,2.92,0,0,1,25.82,1a5.83,5.83,0,0,1,1.87.32,16.93,16.93,0,0,1,2.63,1.31c.5.29.73.63.75.85a.23.23,0,0,1-.11.21c-.64.5-1.34,1.08-2.09,1.71A1.7,1.7,0,0,1,27.8,5.68Z"/><path class="cls-4" d="M9.39,37.15a2.74,2.74,0,0,1-1.66-.71A29,29,0,0,1,5.32,34a2,2,0,0,1-.56-2.2c.48-.61,1-1.3,1.67-2.05a1,1,0,0,1,.76-.32,2.16,2.16,0,0,1,1.5.74c.93,1,1.9,1.95,2.88,2.87a2.2,2.2,0,0,1,.74,1.55.94.94,0,0,1-.33.71c-.74.63-1.43,1.2-2.05,1.68A.91.91,0,0,1,9.39,37.15Z"/><path class="cls-4" d="M14.21,32.73A2.46,2.46,0,0,1,12.53,32c-.95-.9-1.9-1.85-2.82-2.82a2.2,2.2,0,0,1-.22-2.94c.81-.9,1.69-1.85,2.61-2.83a2,2,0,0,1,1.47-.63,2.27,2.27,0,0,1,1.6.69c1,1,2,2.06,3.07,3.07a2.26,2.26,0,0,1,.69,1.64,2,2,0,0,1-.63,1.44c-1,.92-1.93,1.79-2.83,2.61A1.86,1.86,0,0,1,14.21,32.73Z"/><path class="cls-4" d="M20.88,26.26a2.4,2.4,0,0,1-1.66-.67c-1-1-2-2-3-3.06a2.37,2.37,0,0,1,0-3.31c1-1,2-2,3-3a2.35,2.35,0,0,1,3.31,0c1,1,2,2,3.06,3a2.39,2.39,0,0,1,0,3.31l-3.06,3.06A2.36,2.36,0,0,1,20.88,26.26Z"/><path class="cls-4" d="M28.19,18.93a2.2,2.2,0,0,1-1.6-.69c-1-1-2.05-2.06-3.08-3.07a2.3,2.3,0,0,1-.69-1.63,2,2,0,0,1,.63-1.44c1-.93,1.93-1.8,2.84-2.62A1.84,1.84,0,0,1,27.55,9a2.49,2.49,0,0,1,1.68.69c1,.91,1.91,1.86,2.82,2.82a2.21,2.21,0,0,1,.22,2.94c-.81.9-1.69,1.85-2.61,2.83A2,2,0,0,1,28.19,18.93Z"/><path class="cls-4" d="M34.57,12.31a2.2,2.2,0,0,1-1.51-.74c-.92-1-1.89-2-2.87-2.88a2.12,2.12,0,0,1-.74-1.55,1,1,0,0,1,.32-.71c.72-.61,1.42-1.17,2.06-1.68a.91.91,0,0,1,.54-.14A2.7,2.7,0,0,1,34,5.32a27.41,27.41,0,0,1,2.41,2.41c.7.8.86,1.81.56,2.2-.5.64-1.07,1.33-1.67,2.05A1,1,0,0,1,34.57,12.31Z"/><path class="cls-5" d="M15.94,40.79a5.62,5.62,0,0,1-1.88-.32,18.79,18.79,0,0,1-2.63-1.3,1.39,1.39,0,0,1-.75-.86.25.25,0,0,1,.12-.21c.62-.49,1.33-1.07,2.08-1.7A1.67,1.67,0,0,1,14,36.07a2.89,2.89,0,0,1,1.77.62c1,.79,2,1.51,2.89,2.16.39.28.52.54.51.68s-.18.24-.28.29a14.81,14.81,0,0,1-2.09.88A3,3,0,0,1,15.94,40.79Z"/><path class="cls-5" d="M20.88,38.11a2.65,2.65,0,0,1-1.48-.42c-.91-.62-1.85-1.33-2.8-2.09a1.65,1.65,0,0,1-.67-1.21,1.34,1.34,0,0,1,.48-1.08c.91-.82,1.86-1.7,2.85-2.63a2.38,2.38,0,0,1,1.62-.62,2.36,2.36,0,0,1,1.61.62c1,.93,2,1.81,2.86,2.63a1.38,1.38,0,0,1,.48,1.08,1.69,1.69,0,0,1-.67,1.21c-1,.76-1.9,1.47-2.81,2.1A2.7,2.7,0,0,1,20.88,38.11Z"/><path class="cls-5" d="M27.55,32.73a1.84,1.84,0,0,1-1.26-.46c-.91-.82-1.86-1.69-2.83-2.61a2,2,0,0,1-.64-1.44,2.3,2.3,0,0,1,.69-1.64c1-1,2.06-2,3.07-3.07a2.28,2.28,0,0,1,1.61-.69,2,2,0,0,1,1.47.63c.92,1,1.8,1.93,2.61,2.84A2.2,2.2,0,0,1,32,29.22c-.9,1-1.85,1.91-2.82,2.82A2.45,2.45,0,0,1,27.55,32.73Z"/><path class="cls-5" d="M34.34,25.83a1.39,1.39,0,0,1-1-.48c-.82-.91-1.7-1.87-2.63-2.86a2.43,2.43,0,0,1,0-3.23c.93-1,1.81-1.94,2.63-2.85a1.36,1.36,0,0,1,1-.48,1.65,1.65,0,0,1,1.26.66c.77,1,1.47,1.91,2.1,2.81a2.84,2.84,0,0,1,0,3c-.62.9-1.33,1.84-2.09,2.8A1.67,1.67,0,0,1,34.34,25.83Z"/><path class="cls-5" d="M39.52,19.12c-.15,0-.4-.14-.67-.52-.64-.93-1.37-1.9-2.16-2.88a2.49,2.49,0,0,1-.3-2.83c.64-.75,1.21-1.45,1.72-2.1a.21.21,0,0,1,.19-.11c.2,0,.57.24.87.75a19.1,19.1,0,0,1,1.31,2.65,5.08,5.08,0,0,1,.22,2.68,15.76,15.76,0,0,1-.87,2.07C39.77,18.94,39.66,19.12,39.52,19.12Z"/><path class="cls-2" d="M25.82,40.79A3.18,3.18,0,0,1,25,40.7a15.13,15.13,0,0,1-2.06-.87c-.11-.06-.28-.16-.29-.3s.12-.4.51-.68c.93-.64,1.9-1.37,2.89-2.16a2.86,2.86,0,0,1,1.76-.62,1.7,1.7,0,0,1,1.07.32c.74.63,1.45,1.21,2.1,1.72.1.08.11.15.1.2,0,.22-.25.57-.74.86a18,18,0,0,1-2.65,1.3A5.47,5.47,0,0,1,25.82,40.79Z"/><path class="cls-2" d="M32.37,37.15a1,1,0,0,1-.55-.15c-.62-.49-1.31-1-2-1.67a1,1,0,0,1-.33-.72,2.16,2.16,0,0,1,.74-1.55c1-.93,1.95-1.9,2.87-2.87a2.16,2.16,0,0,1,1.51-.74.93.93,0,0,1,.75.32c.63.74,1.19,1.43,1.68,2.06.3.39.14,1.39-.56,2.2A29,29,0,0,1,34,36.44,2.71,2.71,0,0,1,32.37,37.15Z"/><path class="cls-2" d="M38.3,31.07a.23.23,0,0,1-.2-.11c-.5-.64-1.07-1.34-1.7-2.09A2.47,2.47,0,0,1,36.69,26c.79-1,1.51-2,2.16-2.89.27-.38.53-.51.67-.51s.25.17.3.28A15.15,15.15,0,0,1,40.71,25a5.14,5.14,0,0,1-.24,2.68,16.82,16.82,0,0,1-1.3,2.63C38.87,30.84,38.5,31.07,38.3,31.07Z"/><path class="cls-4" d="M55.3,4.93a4.76,4.76,0,1,1,9.51,0,4.76,4.76,0,1,1-9.51,0Zm8.11,0a3.35,3.35,0,1,0-6.7,0,3.35,3.35,0,1,0,6.7,0Z"/><path class="cls-4" d="M87.11,5.68,80,6.81A3.2,3.2,0,0,0,83,8.5a3.55,3.55,0,0,0,1.49-.31.61.61,0,0,1,.86.4.63.63,0,0,1-.29.89A4.9,4.9,0,0,1,83,9.9,4.64,4.64,0,0,1,78.2,5a4.76,4.76,0,1,1,9.51,0A.74.74,0,0,1,87.11,5.68Zm-1-1.27c.13,0,.18-.15.17-.27A3.36,3.36,0,0,0,79.6,5v.24a.19.19,0,0,0,.24.19Z"/><path class="cls-4" d="M91.72.94A.45.45,0,0,0,92,.85,5,5,0,0,1,94.78,0a4.62,4.62,0,0,1,4.76,4.91v4a.71.71,0,0,1-1.4,0v-4a3.36,3.36,0,1,0-6.71,0v4a.71.71,0,0,1-1.4,0V1a.71.71,0,0,1,.7-.71.63.63,0,0,1,.65.38A.4.4,0,0,0,91.72.94Z"/><path class="cls-4" d="M62.28,17a.57.57,0,0,1,.21.58.79.79,0,0,1-.77.62.68.68,0,0,1-.41-.19,3.39,3.39,0,0,0-2-.62c-1,0-2.14.29-2.14,1.1,0,1.11,1.58,1.11,2.26,1.19,1.9.23,3.57.84,3.57,2.86A3.93,3.93,0,0,1,63,23c-.22,1.9-2,2.84-3.75,2.84a3.7,3.7,0,0,1-.47,0,4.66,4.66,0,0,1-3.63-2.29.76.76,0,0,1,.65-1c.43,0,.65.46.87.74a3.37,3.37,0,0,0,2.26,1.19,1.94,1.94,0,0,0,.34,0c1,0,2.21-.48,2.34-1.59,0-.07,0-.14,0-.21,0-1.23-1.3-1.45-2.32-1.59a5.13,5.13,0,0,1-3-1A2.19,2.19,0,0,1,56.47,17,4.44,4.44,0,0,1,59.29,16,4.66,4.66,0,0,1,62.28,17Z"/><path class="cls-4" d="M71.28,15.93a4.91,4.91,0,0,0-2.71.77.31.31,0,0,1-.22.07.41.41,0,0,1-.43-.41V9.22a.29.29,0,0,1,.31-.31.48.48,0,0,1,.24.09,5,5,0,0,0,2.81.85A4.64,4.64,0,0,0,76,4.93,4.62,4.62,0,0,0,71.28,0a4.68,4.68,0,0,0-2.81.85.54.54,0,0,1-.26.09c-.15,0-.29-.16-.37-.29a.63.63,0,0,0-.62-.33.66.66,0,0,0-.7.65V24.93c0,.39.34.58.7.58s.7-.19.7-.58V20.84a3.36,3.36,0,1,1,6.71,0v4.09c0,.39.34.58.7.58s.7-.19.7-.58V20.84A4.63,4.63,0,0,0,71.28,15.93Zm0-14.51a3.22,3.22,0,0,1,3.35,3.51,3.36,3.36,0,1,1-6.71,0A3.23,3.23,0,0,1,71.28,1.42Z"/><path class="cls-4" d="M87.69,24.84a.67.67,0,0,1-.73.67.65.65,0,0,1-.62-.38.42.42,0,0,0-.36-.24.48.48,0,0,0-.24.09,5,5,0,0,1-2.8.85,4.64,4.64,0,0,1-4.76-4.92A4.63,4.63,0,0,1,82.94,16a5,5,0,0,1,2.8.85.4.4,0,0,0,.24.09.44.44,0,0,0,.36-.26.65.65,0,0,1,.62-.36.67.67,0,0,1,.73.67Zm-8.11-3.93a3.36,3.36,0,1,0,6.71,0,3.36,3.36,0,1,0-6.71,0Z"/><path class="cls-4" d="M98.21,16.65V12.27c0-.39.34-.56.7-.56s.7.17.7.56V24.88a.72.72,0,0,1-1.32.32c-.08-.13-.22-.29-.38-.29a.51.51,0,0,0-.25.09,4.68,4.68,0,0,1-2.81.85,4.62,4.62,0,0,1-4.75-4.91A4.64,4.64,0,0,1,94.85,16a5,5,0,0,1,2.81.85.44.44,0,0,0,.24.09A.29.29,0,0,0,98.21,16.65Zm0,4.29a3.36,3.36,0,1,0-6.71,0,3.36,3.36,0,1,0,6.71,0Z"/><path class="cls-4" d="M103,13.37a.67.67,0,1,1-.7.66A.64.64,0,0,1,103,13.37Zm-.69,3.55a.64.64,0,0,1,.7-.61.65.65,0,0,1,.71.61v4.55a3.66,3.66,0,0,0,1.64,3,.68.68,0,0,1,.31.53.76.76,0,0,1-.77.72c-.57,0-1.42-1-1.78-1.56a5.06,5.06,0,0,1-.81-2.56Z"/><path class="cls-4" d="M109.27,16.94a.43.43,0,0,0,.25-.09,5,5,0,0,1,2.81-.85,4.62,4.62,0,0,1,4.75,4.91v4a.71.71,0,0,1-1.4,0v-4a3.36,3.36,0,1,0-6.71,0v4a.71.71,0,0,1-1.4,0V17a.71.71,0,0,1,.7-.71.63.63,0,0,1,.65.38A.4.4,0,0,0,109.27,16.94Z"/><path class="cls-4" d="M128.78,25.22A4.64,4.64,0,0,1,124,30.13a4.86,4.86,0,0,1-2-.43.58.58,0,0,1-.27-.85c.29-.62.7-.48.85-.43a3.62,3.62,0,0,0,1.47.31,3.22,3.22,0,0,0,3.35-3.31v-.24a.28.28,0,0,0-.3-.3.51.51,0,0,0-.24.08,4.75,4.75,0,0,1-2.81.86,4.64,4.64,0,0,1-4.75-4.93A4.62,4.62,0,0,1,124,16a5,5,0,0,1,2.81.86.43.43,0,0,0,.24.08.46.46,0,0,0,.36-.24.63.63,0,0,1,.65-.37.66.66,0,0,1,.7.7Zm-8.11-4.33a3.35,3.35,0,1,0,6.7,0,3.35,3.35,0,1,0-6.7,0Z"/><path class="cls-4" d="M55.61,28.3c0-.39.31-.59.7-.59s.7.2.7.59v8.63a3.23,3.23,0,0,0,3.36,3.52.71.71,0,0,1,0,1.4,4.64,4.64,0,0,1-4.76-4.92Z"/><path class="cls-4" d="M72.05,40.84a.68.68,0,0,1-.74.67.65.65,0,0,1-.62-.38.4.4,0,0,0-.35-.24.44.44,0,0,0-.24.09,5.07,5.07,0,0,1-2.81.85,4.64,4.64,0,0,1-4.75-4.92A4.62,4.62,0,0,1,67.29,32a5.07,5.07,0,0,1,2.81.85.38.38,0,0,0,.24.09.41.41,0,0,0,.35-.26.65.65,0,0,1,.62-.36.68.68,0,0,1,.74.67Zm-8.11-3.93a3.35,3.35,0,1,0,6.7,0,3.35,3.35,0,1,0-6.7,0Z"/><path class="cls-4" d="M77,32.94a.43.43,0,0,0,.25-.09A5,5,0,0,1,80,32a4.62,4.62,0,0,1,4.75,4.91v4a.71.71,0,0,1-1.4,0v-4a3.35,3.35,0,1,0-6.7,0v4a.71.71,0,0,1-1.41,0V33a.72.72,0,0,1,.7-.71.62.62,0,0,1,.65.38A.4.4,0,0,0,77,32.94Z"/><path class="cls-4" d="M96.82,41.22a4.63,4.63,0,0,1-4.75,4.91A4.91,4.91,0,0,1,90,45.7a.58.58,0,0,1-.27-.85c.29-.62.7-.48.85-.43a3.7,3.7,0,0,0,1.48.31,3.22,3.22,0,0,0,3.35-3.31v-.24a.29.29,0,0,0-.31-.3.51.51,0,0,0-.24.08,4.75,4.75,0,0,1-2.8.86,4.65,4.65,0,0,1-4.76-4.93A4.63,4.63,0,0,1,92.07,32a5,5,0,0,1,2.8.86.39.39,0,0,0,.6-.16.64.64,0,0,1,.65-.37.66.66,0,0,1,.7.7Zm-8.11-4.33a3.36,3.36,0,1,0,6.71,0,3.36,3.36,0,1,0-6.71,0Z"/><path class="cls-4" d="M107.61,40.91a.44.44,0,0,0-.24.09,4.75,4.75,0,0,1-2.81.85,4.62,4.62,0,0,1-4.75-4.91v-4a.71.71,0,0,1,1.4,0v4a3.36,3.36,0,1,0,6.71,0v-4a.71.71,0,0,1,1.4,0v7.89a.7.7,0,0,1-.7.7.63.63,0,0,1-.65-.38A.42.42,0,0,0,107.61,40.91Z"/><path class="cls-4" d="M121.56,40.84a.67.67,0,0,1-.73.67.65.65,0,0,1-.62-.38.4.4,0,0,0-.36-.24.51.51,0,0,0-.24.09,5,5,0,0,1-2.8.85,4.64,4.64,0,0,1-4.76-4.92A4.63,4.63,0,0,1,116.81,32a5,5,0,0,1,2.8.85.37.37,0,0,0,.6-.17.65.65,0,0,1,.62-.36.67.67,0,0,1,.73.67Zm-8.11-3.93a3.36,3.36,0,1,0,6.71,0,3.36,3.36,0,1,0-6.71,0Z"/><path class="cls-4" d="M133.82,41.22a4.63,4.63,0,0,1-4.75,4.91A4.91,4.91,0,0,1,127,45.7a.58.58,0,0,1-.27-.85c.29-.62.7-.48.85-.43a3.67,3.67,0,0,0,1.48.31,3.22,3.22,0,0,0,3.35-3.31v-.24a.29.29,0,0,0-.31-.3.51.51,0,0,0-.24.08,4.75,4.75,0,0,1-2.8.86,4.65,4.65,0,0,1-4.76-4.93A4.63,4.63,0,0,1,129.07,32a5,5,0,0,1,2.8.86.49.49,0,0,0,.24.08.46.46,0,0,0,.36-.24.64.64,0,0,1,.65-.37.66.66,0,0,1,.7.7Zm-8.11-4.33a3.36,3.36,0,1,0,6.71,0,3.36,3.36,0,1,0-6.71,0Z"/><path class="cls-4" d="M145.52,37.68l-7.12,1.13a3.2,3.2,0,0,0,3,1.69,3.55,3.55,0,0,0,1.49-.31.6.6,0,0,1,.85.4.62.62,0,0,1-.29.89,4.82,4.82,0,0,1-2,.42A4.64,4.64,0,0,1,136.6,37a4.76,4.76,0,1,1,9.51,0A.74.74,0,0,1,145.52,37.68Zm-1.05-1.27a.21.21,0,0,0,.17-.27,3.19,3.19,0,0,0-3.28-2.67A3.22,3.22,0,0,0,138,37v.24c0,.15.1.2.24.19Z"/></g></g></svg>