<svg xmlns="http://www.w3.org/2000/svg" role="img" xmlns:xlink="http://www.w3.org/1999/xlink" viewBox="-22.02 -29.02 1977.04 1472.04"><defs><linearGradient id="linear-gradient" x1="1359.039" x2="1359.081" y1="154.487" y2="154.487" gradientUnits="userSpaceOnUse"><stop offset="0" stop-color="#035766"/><stop offset=".087" stop-color="#055f70"/><stop offset=".327" stop-color="#097186"/><stop offset=".48" stop-color="#0b788e"/><stop offset=".547" stop-color="#096e82"/><stop offset=".674" stop-color="#056172"/><stop offset=".816" stop-color="#045968"/><stop offset="1" stop-color="#035665"/></linearGradient><linearGradient id="linear-gradient-2" x1="338.222" x2="1595.376" y1="559.892" y2="559.892" xlink:href="#linear-gradient"/><linearGradient id="linear-gradient-3" x1="434.956" x2="435.048" y1="688.363" y2="688.363" xlink:href="#linear-gradient"/><linearGradient id="linear-gradient-4" x1="438.035" x2="438.126" y1="686.435" y2="686.435" xlink:href="#linear-gradient"/><linearGradient id="linear-gradient-5" x1="412.03" x2="412.128" y1="701.434" y2="701.434" xlink:href="#linear-gradient"/><linearGradient id="linear-gradient-6" x1="721.253" x2="721.303" y1="879.709" y2="879.709" xlink:href="#linear-gradient"/><linearGradient id="linear-gradient-7" x1="719.251" x2="719.322" y1="880.715" y2="880.715" xlink:href="#linear-gradient"/><linearGradient id="linear-gradient-8" x1="714.256" x2="714.311" y1="883.716" y2="883.716" xlink:href="#linear-gradient"/><linearGradient id="linear-gradient-9" x1="439.976" x2="440.059" y1="685.356" y2="685.356" xlink:href="#linear-gradient"/><linearGradient id="linear-gradient-10" x1="457.043" x2="457.144" y1="675.454" y2="675.454" xlink:href="#linear-gradient"/><linearGradient id="linear-gradient-11" x1="1490.318" x2="1490.416" y1="435.851" y2="435.851" xlink:href="#linear-gradient"/><linearGradient id="linear-gradient-12" x1="1457.328" x2="1457.447" y1="454.873" y2="454.873" xlink:href="#linear-gradient"/><linearGradient id="linear-gradient-13" x1="1502.332" x2="1502.431" y1="428.878" y2="428.878" xlink:href="#linear-gradient"/><linearGradient id="linear-gradient-14" x1="1500.429" x2="1500.477" y1="429.916" y2="429.916" xlink:href="#linear-gradient"/><linearGradient id="linear-gradient-15" x1="1756.211" x2="1756.211" y1="18.927" y2="1100.886" gradientUnits="userSpaceOnUse"><stop offset="0" stop-color="#00b2cc"/><stop offset=".014" stop-color="#15b7cf"/><stop offset=".05" stop-color="#47c4d7"/><stop offset=".081" stop-color="#6ccddd"/><stop offset=".106" stop-color="#82d2e1"/><stop offset=".123" stop-color="#8ad4e2"/><stop offset=".131" stop-color="#83cfde"/><stop offset=".183" stop-color="#61b6c8"/><stop offset=".241" stop-color="#43a0b5"/><stop offset=".303" stop-color="#2b8ea5"/><stop offset=".374" stop-color="#18809a"/><stop offset=".457" stop-color="#0b7691"/><stop offset=".564" stop-color="#03718c"/><stop offset=".781" stop-color="#016f8b"/><stop offset="1" stop-color="#005261"/></linearGradient><linearGradient id="linear-gradient-16" x1="1761.455" x2="1761.455" y1="1007.946" y2="1008.023" xlink:href="#linear-gradient-15"/><linearGradient id="linear-gradient-17" x1="1765.362" x2="1765.362" y1="1005.785" y2="1005.862" xlink:href="#linear-gradient-15"/><linearGradient id="linear-gradient-18" x1="1763.41" x2="1763.41" y1="1006.869" y2="1006.951" xlink:href="#linear-gradient-15"/><linearGradient id="linear-gradient-19" x1="1758.379" x2="1758.379" y1="1009.806" y2="1009.883" xlink:href="#linear-gradient-15"/><linearGradient id="linear-gradient-20" x1="1756.425" x2="1756.425" y1="1010.892" y2="1010.973" xlink:href="#linear-gradient-15"/><style>.cls-3{fill:#1b98ae}.cls-4{fill:#bc295b}.cls-29{fill:#055f70}.cls-30{fill:#096f83}.cls-31{fill:#07687a}.cls-32{fill:#d54274}</style></defs><path fill="#b4dfde" d="M966.282 373.635q29.662-16.938 59.317-33.886 41.297-23.726 82.527-47.569 39.506-22.838 78.961-45.764 40.59-23.454 81.24-46.808 39.938-23.071 79.825-46.233 40.82-23.565 81.704-47.017 39.762-22.896 79.502-45.831c27.35-15.798 54.78-31.463 81.925-47.606 5.16-3.068 8.58-3.114 13.813-.04 42.142 24.758 84.502 49.147 126.837 73.577q53.778 31.034 107.637 61.93c24.767 14.279 49.445 28.712 74.257 42.91 2.78 1.592 3.445 3.396 3.444 6.349q-.087 361.738.028 723.475c.001 3.32-1.125 5.202-3.844 6.764q-36.971 21.233-73.877 42.58-39.951 23.07-79.887 46.167-41.043 23.68-82.117 47.31-36.929 21.312-73.782 42.753c-3.876 2.267-6.805 2.925-11.168.34-24.886-14.748-50.037-29.047-75.093-43.505q-40.598-23.427-81.189-46.863-37.149-21.426-74.313-42.826-40.17-23.188-80.307-46.432-43.168-24.98-86.326-49.978-38-21.943-76.061-43.78-39.746-22.915-79.458-45.892c-23.612-13.633-47.262-27.201-70.8-40.962-2.373-1.388-3.767-.27-5.402.667q-26.395 15.125-52.739 30.34-37.344 21.594-74.648 43.257-60.873 35.21-121.776 70.37-56.36 32.528-112.755 64.994-53.557 30.914-107.073 61.898-56.367 32.532-112.778 64.988-21.82 12.577-43.616 25.195l-.067-7.425a12.889 12.889 0 0 0 2.309-.835c20.159-11.967 40.655-23.348 60.764-35.412 18.128-10.876 36.638-21.13 55.02-31.588 38.413-21.854 76.467-44.339 114.676-66.553 7.948-4.622 15.924-9.194 23.887-13.79a37.727 37.727 0 0 0 3.586-1.622c29.67-17.212 59.399-34.328 88.936-51.767 7.054-4.165 14.713-7.391 21.013-12.806a4.888 4.888 0 0 0 3.838-1.944c.782-.171 1.752.018 2.059-1.07l-.055.042 1.146-1.047c1.305.518 1.867-.817 2.836-1.136.709.141.893-.37 1.085-.872l-.072.067c.79-.15 1.702-.058 2.052-1.059l-.05.038 1.14-1.04a4.075 4.075 0 0 0 2.839-.63q44.978-26.19 89.981-52.336c11.019-6.394 22.101-12.679 33.155-19.013l.985-.51.872-.552c1.898-1.001 3.833-1.938 5.688-3.014q46.171-26.785 92.324-53.602l31.21-17.976c.747-.36 1.52-.674 2.236-1.087q100.717-58.117 201.42-116.259 38.661-22.337 77.224-44.846l32.026-18.459c19.175-10.99 38.383-21.922 57.516-32.985q33.22-19.208 66.336-38.594c8.638-4.886 17.343-9.657 25.874-14.723 2.74-1.628 4.82-4.363 8.226-4.905l2.322-1.435 2.614-1.385 2.207-1.526-.12.058 2.248-1.155 2.732-1.508 2.404-1.484a11.5 11.5 0 0 0 4.593-2.538l2.364-1.461 4.634-2.56 2.315-1.446a51.146 51.146 0 0 0 9.7-5.515l2.099-1.43-.099.082 2.22-1.152a.67.67 0 0 0 .698-.315l2.563-1.663a5.978 5.978 0 0 0 3.486-1.904l1.194-1.03-.05.171a2.162 2.162 0 0 0 2.004-1.15l-.101.064 2.301-1.155 4.675-2.597 2.275-1.412a.582.582 0 0 0 .643-.297q40.195-23.093 80.409-46.155a4.758 4.758 0 0 0 2.74-4.732c-.164-25.603-.221-51.206-.308-76.81.082-1.823.233-3.646.235-5.47q.03-43.21.025-86.42.016-90.419.028-180.837c0-5.223-.024-5.222-4.574-2.619-22.375 12.803-44.791 25.535-67.117 38.423q-70.675 40.797-141.266 81.74c-7.268 4.212-14.418 8.628-21.623 12.95a.418.418 0 0 0-.554.164l-1.183.856.043-.114a9.436 9.436 0 0 0-5.22 3.1 22.012 22.012 0 0 1-2.774 2.019c-9.59 4.964-18.81 10.594-28.296 15.753-18.977 10.32-37.547 21.39-56.237 32.232q-29.747 17.258-59.404 34.665c-8.963 5.093-17.965 10.122-26.888 15.29q-34.553 20.011-69.05 40.12c-1.039.5-2.117.936-3.113 1.511q-40.336 23.282-80.651 46.6c-14.058 8.144-28.062 16.38-42.091 24.574l-31.289 18.033c-.898.426-1.83.79-2.688 1.285Q854.985 445.25 758.607 500.92q-42.762 24.719-85.425 49.611l-34.378 19.849-75.658 43.661-2.413 1.487a11.114 11.114 0 0 0-4.585 2.534l-2.374 1.464a11.804 11.804 0 0 0-4.624 2.551l-2.332 1.452-1.66.918-3.468 2.081a.307.307 0 0 0-.468.184l-63.079 36.378-2.32 1.437-2.616 1.392-2.512 1.603a10.924 10.924 0 0 0-4.553 2.521l-2.406 1.483-4.601 2.542-2.093 1.426.102-.08-2.192 1.142-12.74 7.267-2.238 1.556.085-.058a2.265 2.265 0 0 0-2.026 1.15l.093-.077a2.444 2.444 0 0 0-2.05 1.14l.078-.063-1.2.953.094-.121a2.836 2.836 0 0 0-2.398 1.225 20.661 20.661 0 0 0-6.508 3.566l-2.308 1.436-4.697 2.6-2.264 1.406-2.745 1.51-2.099 1.426.1-.08-2.21 1.154-2.776 1.517-2.362 1.463-1.629.904c-6.352 3.579-12.748 7.082-19.048 10.75q-22.549 13.126-45.025 26.375a4.847 4.847 0 0 0-.75.14l-.008-7.133 34.092-19.703q37.341-21.568 74.685-43.13 37.345-21.564 74.693-43.123 37.358-21.554 74.723-43.095c15.95-9.232 31.84-18.569 47.757-27.858 3.8-.93 6.722-3.464 9.942-5.452 1.04-.517 2.11-.98 3.114-1.559Q807.2 466.13 957.058 379.586c1.262-.729 2.81-1.178 3.376-2.78 2.378-.268 4.507-.993 5.848-3.171zm792.058 636.248l1.192-.96-.004.176a1.976 1.976 0 0 0 1.947-1.147l-.038.071a2.173 2.173 0 0 0 2.016-1.144l-.084.072a2.441 2.441 0 0 0 2.034-1.162l-.081.073 1.204-.956-.026.173a2.013 2.013 0 0 0 1.972-1.148l.07.109a.63.63 0 0 0 .693-.339c1.45-1.023 2.827-2.174 4.362-3.049q17.782-10.133 35.617-20.174c20.728-11.33 40.925-23.567 61.127-35.794 13.782-5.935 25.759-15.068 38.986-21.98 1.633-.854 1.83-2.087 1.824-3.658q-.133-31.69-.22-63.378c.077-1.824.22-3.647.22-5.47q-.006-96.519-.044-193.037c0-1.825-.118-3.65-.18-5.476l-.001-3.09-.05-77.896c.087-17.924.247-35.848.243-53.772-.005-22.41-.145-44.819-.227-67.228.085-1.984.258-3.969.24-5.951-.268-29.172.582-58.353-.68-87.517 1.233-7.267.768-14.598.774-21.906q.045-54.74.006-109.48c0-1.825-.186-3.65-.285-5.475.056-6.323-.013-12.65.229-18.967.104-2.715-.88-4.183-3.212-5.496-11.462-6.452-22.83-13.073-34.22-19.652Q1739.867 97.922 1605.978 20.61c-1.351-.78-2.607-2.186-4.675-1.502v20.433q-.041 38.668-.077 77.337-.003 31.931.076 63.863-.071 41.732-.132 83.464c-.003 23.154.086 46.308.135 69.462-.057 24.406-.154 48.812-.16 73.218-.003 18.924.107 37.849.167 56.773-.046.83-.131 1.659-.131 2.488q-.037 102.267-.054 204.534c0 .993.116 1.987.177 2.98-.053 7.797-.158 15.593-.149 23.389q.05 42.804.16 85.608.004 34.499.01 68.997.002 32.002.006 64.003c-.057.662-.164 1.325-.164 1.987q-.038 89.918-.053 179.836c0 .93.09 1.86.169 3.405 2.05-1.127 3.62-1.954 5.157-2.841 17.296-9.985 34.627-19.908 51.866-29.99 16.94-9.907 33.697-20.112 50.934-29.527 15.316-8.365 30.181-17.557 45.245-26.384l-.026-.1a2.097 2.097 0 0 0 2.003-1.142l-.075.071a2.324 2.324 0 0 0 2.031-1.161zM1594.565 743.45c-1.532-.986-3.025-2.038-4.6-2.948q-109.636-63.332-219.29-126.633-43.684-25.206-87.448-50.271c-2.117-.635-3.42 1.005-4.93 1.876Q1144.54 642.63 1010.82 719.847c-12.516 7.226-25.016 14.48-38.048 22.026 2.24 1.36 3.885 2.4 5.569 3.372q102.993 59.477 205.999 118.934 48.903 28.21 97.882 56.291l2.498 1.316c1.234.834 2.421 1.748 3.708 2.491q150.756 87.052 301.547 174.045c1.5.866 3.112 2.993 4.75 1.903 1.463-.972.555-3.398.556-5.164q.047-172.922-.009-345.844c0-1.916.724-3.997-.707-5.767zm.303-7.163v-353.28l-305.933 176.632 305.933 176.648z"/><path fill="#fbcacb" d="M338.32 736.561l.009 7.134-.106 357.389.066 7.423c-2 1.358-3.723 1.214-5.941-.075q-64.453-37.444-129.027-74.679-60.899-35.111-121.883-70.074c-20.882-12.022-41.699-24.158-62.58-36.181-1.77-1.02-2.89-2.117-2.643-4.28a26.485 26.485 0 0 0 .018-2.998q0-360.464-.088-720.927c-.002-4.32 1.141-6.596 5.112-8.87 46.147-26.438 92.12-53.183 138.154-79.817q67.316-38.945 134.665-77.832c12.955-7.482 25.972-14.858 38.909-22.372a4.056 4.056 0 0 1 4.858-.036c18.045 10.626 36.181 21.096 54.313 31.576q36.906 21.331 73.841 42.612 37.357 21.546 74.721 43.08 33.901 19.555 67.788 39.136c20.277 11.739 40.497 23.578 60.792 35.288 23.034 13.29 46.143 26.452 69.182 39.734q37.361 21.536 74.66 43.18 37.356 21.55 74.76 43.016 33.472 19.306 66.883 38.715c3.871 2.245 7.667 4.618 11.499 6.932-1.341 2.178-3.47 2.903-5.85 3.17-2.626-1.45-5.276-2.851-7.871-4.35Q805.178 287.38 657.79 202.312c-1.037-.598-1.95-1.96-3.718-.971v5.878q0 170.496.006 340.992c0 1.997.087 3.993.134 5.99-3.22 1.988-6.142 4.522-9.942 5.452a13.168 13.168 0 0 0-1.542-1.214q-40.826-23.473-81.66-46.932-60.193-34.754-120.312-69.634-40.54-23.471-81.087-46.931c-6.926-3.999-13.955-7.82-21.422-11.993v5.345q0 110.927.004 221.854.01 63.207.069 126.414zm-8.885 5.366c-18.23-10.548-35.78-20.72-53.345-30.863Q170.753 650.234 65.408 589.42c-12.98-7.493-26.029-14.866-38.932-22.488-3.38-1.997-4.391-1.365-4.1 2.369.103 1.325.015 2.664.015 3.997q0 166.438.052 332.876c.002 4.04-1.899 9.692 1.052 11.638 2.124 1.401 6.708-3.115 10.13-5.088q95.644-55.14 191.237-110.367c34.6-19.98 69.188-39.982 104.573-60.431zm-.234-364.533c-2.272-1.416-3.773-2.414-5.33-3.314q-30.073-17.37-60.16-34.717-118.364-68.32-236.738-136.626c-1.236-.713-2.48-2.39-3.913-1.577-1.414.803-.64 2.73-.64 4.143q-.047 171.74-.025 343.482c0 5.793.033 5.812 5.179 2.843q140.444-81.053 280.88-162.119c6.724-3.881 13.41-7.828 20.747-12.115zm315.79-182.197c-1.789-1.176-2.98-2.047-4.25-2.78Q491.877 106.448 342.997 20.504c-4.745-2.74-4.77-2.722-4.77 2.87q-.005 171.728.032 343.457c0 1.53-.668 3.263.914 4.947L644.99 195.197zm3.318 4.928L341.398 377.34c2.142 1.294 3.39 2.079 4.667 2.816q128.092 73.975 256.189 147.942c14.137 8.163 28.3 16.282 42.41 24.49 2.545 1.48 3.993 1.638 3.655-1.961-.077-.826-.01-1.666-.01-2.499V200.125zM25.887 924.095c1.194.827 1.828 1.335 2.524 1.738q21.828 12.645 43.67 25.266 127.62 73.68 255.255 147.333c1.39.8 2.834 2.629 4.362 1.786 1.55-.854.663-3.034.663-4.604q.056-171.432.014-342.864c0-1.56.428-3.232-.738-5.187L25.887 924.095zm-.217-729.03l306.496 176.954c.12-1.779.224-2.6.224-3.42q.01-172.927.06-345.854c.003-3.922-.692-4.615-4.256-2.53-21.416 12.523-42.92 24.895-64.406 37.3Q164.722 114.709 65.65 171.894c-13.095 7.56-26.166 15.163-39.98 23.17zm306.484 187.661L25.718 559.656l306.436 176.928z"/><path d="M158.027 1304.017q-4.434 14.724-8.865 29.449c-6.736 22.467-13.541 44.915-20.11 67.431-1.049 3.594-2.771 4.589-6.34 4.476-8.158-.257-16.343-.348-24.49.051-4.206.206-5.725-1.397-6.83-5.178q-13.446-45.983-27.251-91.861c-.4-1.336-.376-2.944-2.693-4.769 0 14.655.06 28.44-.016 42.223-.1 18.165-.424 36.33-.38 54.495.009 3.95-1.09 5.18-5.07 5.055-8.99-.285-17.998-.204-26.994-.03-3.05.058-4.023-.827-3.92-3.948q1.977-59.956 3.752-119.919c.276-8.994.642-17.988.756-26.984.039-3.035 1.064-3.945 4.113-3.91 13.498.16 27.002.238 40.496-.038 3.8-.078 5.058 1.343 6.053 4.703q14.74 49.763 29.773 99.44c.271.903.08 2.054 1.72 2.802 2.869-9.466 5.728-18.86 8.564-28.26 7.448-24.688 14.961-49.356 22.242-74.093 1.035-3.514 2.55-4.641 6.197-4.577q19.743.348 39.496 0c3.739-.067 4.742.986 4.844 4.71.99 36.146 2.173 72.286 3.334 108.427.396 12.323.765 24.65 1.411 36.96.178 3.382-.382 4.789-4.158 4.696q-14.49-.356-28.993.022c-3.9.106-5.092-.998-5.099-5.002-.059-31.496-.352-62.992-.586-94.487a12.85 12.85 0 0 0-.256-1.774zm802.34 23.818c0-24.155.079-48.31-.083-72.464-.024-3.645.776-4.837 4.636-4.796 20.488.217 40.98.02 61.468.198 9.71.085 19.317 1.446 28.21 5.593 17.08 7.966 25.647 21.853 26.185 40.389.552 19.065-7.132 33.986-24.51 42.917-3.665 1.883-4.288 3.046-2 6.714 11.363 18.209 22.37 36.639 33.596 54.933 1.77 2.884 2.28 4.136-2.087 4.05-11.823-.236-23.655-.198-35.478.011-3.193.057-4.707-1.22-6.153-3.832-8.784-15.863-17.918-31.535-26.497-47.506-2.31-4.3-4.844-5.828-9.651-5.601-8.9.42-8.915.12-8.915 8.895-.001 14.492-.1 28.987.07 43.478.041 3.438-.869 4.634-4.448 4.554-9.99-.222-19.99-.201-29.98.004-3.541.073-4.457-1.133-4.437-4.572.136-24.321.072-48.643.074-72.965zm38.721-28.198c0 5.65.013 11.302-.007 16.953-.007 1.744-.074 3.333 2.465 3.274 7.971-.186 16.013.345 23.901-.532 10.509-1.167 16.762-9.113 16.644-19.608-.118-10.562-6.503-17.736-17.11-19.247-7.614-1.084-15.273-.316-22.903-.611-2.539-.098-3.06 1.104-3.02 3.316.095 5.484.031 10.97.03 16.455zm401.476-48.97c6.663 0 13.328.116 19.985-.058 2.597-.067 3.794.799 4.63 3.277q24.924 73.962 50.066 147.85c1.084 3.182.22 3.646-2.699 3.617-11.158-.111-22.318-.133-33.475.02-2.867.04-4.112-.99-4.879-3.68-2.141-7.513-4.653-14.92-6.79-22.433-.73-2.562-1.897-3.301-4.56-3.274q-23.233.233-46.468.024c-3.163-.028-4.76.834-5.631 4.049-1.954 7.217-4.476 14.28-6.47 21.486-.823 2.974-2.26 3.873-5.275 3.82a877.67 877.67 0 0 0-29.977.001c-3.275.053-3.94-.653-2.831-3.91q25.08-73.65 49.885-147.393c.921-2.738 2.242-3.542 5.004-3.458 6.49.195 12.99.062 19.485.062zm-.818 38.18l-1.068-.008c-5.606 18.012-11.155 36.042-16.877 54.016-.9 2.825.183 3.057 2.452 3.045q14.956-.082 29.913 0c2.265.013 3.342-.196 2.44-3.03-5.72-17.975-11.26-36.009-16.86-54.023zm-1032.108-38.179c6.163 0 12.344.28 18.483-.102 3.8-.237 5.073 1.356 6.177 4.645q22.85 68.089 45.941 136.097c1.172 3.464 2.352 6.927 3.622 10.357.84 2.269 1.032 3.714-2.242 3.68-11.492-.12-22.986-.094-34.478-.002-2.459.02-3.467-.969-4.127-3.272-2.151-7.511-4.629-14.93-6.8-22.435-.774-2.67-2.09-3.65-4.941-3.625q-23.486.202-46.973-.006c-2.938-.029-4.055 1.101-4.8 3.725-2.088 7.357-4.488 14.625-6.607 21.974-.76 2.636-2.03 3.72-4.92 3.665-9.657-.18-19.328-.295-28.978.028-4.692.157-5.149-1.136-3.73-5.29q22.894-67.025 45.514-134.143c1.387-4.094 2.949-8.139 4.114-12.294.673-2.399 1.884-3.096 4.257-3.05 6.827.132 13.659.046 20.488.048zm-1.762 36.553c-6.039 19.264-11.663 37.161-17.24 55.074-.48 1.541-1.94 3.63 1.631 3.607 11.128-.073 22.256-.027 33.908-.027-6.077-19.478-11.993-38.443-18.3-58.654z" class="cls-3"/><path d="M1800.318 1404.546l22.995-39.229c2.8-5.005 5.653-9.981 8.805-15.54 1.208 2.025 2.07 3.382 2.849 4.787 8.467 15.278 17.053 30.493 25.285 45.896 2.02 3.781 4.34 5.025 8.565 4.907 11.487-.32 22.988-.08 34.483-.146 1.179-.007 2.674.77 3.679-.952-15.955-24.88-31.882-49.847-48.008-74.686-1.932-2.976-1.95-4.973-.064-7.961 14.035-22.234 27.878-44.59 41.732-66.937.706-1.14 2.27-2.082 1.428-4.007l-42.178.78-25.202 45.023a36.028 36.028 0 0 1-2.787 4.253l-29.083-48.86-41.527-1.197c1.11 1.87 1.747 3 2.437 4.096 14.195 22.529 28.348 45.083 42.659 67.537 1.669 2.619 1.74 4.374-.028 7.01-9.644 14.373-19.058 28.9-28.55 43.377-6.915 10.545-13.826 21.093-21.346 32.566" class="cls-4"/><path d="M567.139 1342.632c0-18.991-.138-37.984.11-56.972.054-4.122-1.23-4.977-5.043-4.895-10.99.238-21.99-.006-32.982.145-3.006.042-4.061-.795-3.976-3.917.21-7.658.174-15.327.013-22.986-.056-2.69.903-3.384 3.454-3.38q57.723.092 115.446.005c2.305-.003 3.258.628 3.223 3.082-.115 7.994-.152 15.994.016 23.987.06 2.892-1.312 3.196-3.636 3.18-10.995-.071-21.994.15-32.982-.125-4.086-.102-5.343.95-5.324 5.199.169 38.148.032 76.297.2 114.445.018 3.977-.955 5.104-4.931 4.988-9.82-.285-19.656-.201-29.481-.024-3.274.059-4.212-.957-4.185-4.26.157-19.49.077-38.981.078-58.472zm1005.907-14.832c-.001-24.143.072-48.287-.08-72.43-.024-3.603.707-4.926 4.617-4.802q14.472.456 28.966.004c3.938-.119 4.982.998 4.967 4.939-.151 37.63-.016 75.26-.194 112.89-.02 4.31.9 5.65 5.424 5.568 16.479-.299 32.969.037 49.449-.226 4.287-.069 5.306 1.289 5.134 5.32-.313 7.313-.24 14.654-.017 21.973.098 3.19-.713 4.343-4.097 4.33q-44.954-.173-89.908.013c-3.7.017-4.339-1.362-4.323-4.65.116-24.309.063-48.62.062-72.929zm-344.769.352c0 24.15-.083 48.302.087 72.451.026 3.71-.887 4.883-4.69 4.783-9.986-.263-19.985-.192-29.975-.029-3.179.052-4.325-.792-4.317-4.18q.152-73.202 0-146.403c-.006-3.316.945-4.247 4.227-4.181 10.156.204 20.323.247 30.476-.015 3.752-.097 4.272 1.37 4.256 4.623-.119 24.317-.064 48.634-.064 72.951z" class="cls-3"/><path fill="#276d87" d="M1284.72 921.786l-2.498-1.315q0-174.783.01-349.565c.001-2.472-.4-5.018.995-7.308q43.726 25.131 87.448 50.271 109.667 63.279 219.29 126.633c1.575.91 3.068 1.962 4.6 2.949l-34.898 20.231q-30.398 17.575-60.811 35.122-31.06 17.925-62.128 35.838-33.64 19.43-67.263 38.889c-20.99 12.12-41.955 24.287-63.023 36.272-7.184 4.087-13.905 9.037-21.722 11.983z"/><path fill="#0b768c" d="M1284.72 921.786c7.817-2.946 14.538-7.896 21.722-11.983 21.068-11.985 42.032-24.153 63.023-36.272q33.643-19.425 67.263-38.889 31.054-17.936 62.128-35.838 30.41-17.552 60.811-35.122 17.46-10.094 34.897-20.231c1.432 1.769.708 3.85.708 5.766q.062 172.922.009 345.844c0 1.766.907 4.192-.555 5.164-1.64 1.09-3.25-1.037-4.751-1.903q-150.8-86.978-301.547-174.045c-1.287-.743-2.474-1.657-3.708-2.491z"/><path fill="#306384" d="M1283.227 563.598c-1.395 2.29-.994 4.836-.994 7.308q-.017 174.782-.011 349.565-48.944-28.143-97.882-56.292-103.021-59.43-206-118.934c-1.683-.972-3.327-2.012-5.568-3.372 13.032-7.545 25.532-14.8 38.048-22.026q133.728-77.205 267.477-154.373c1.51-.871 2.813-2.511 4.93-1.876z"/><path d="M654.213 554.2c-.047-1.997-.134-3.993-.134-5.99q-.01-170.496-.006-340.992v-5.878c1.768-.989 2.681.373 3.718.971q147.399 85.049 294.77 170.145c2.595 1.498 5.245 2.9 7.872 4.348-.565 1.604-2.113 2.053-3.375 2.782q-149.854 86.547-299.731 173.055c-1.004.58-2.075 1.042-3.114 1.559z" class="cls-4"/><path fill="url(#linear-gradient)" d="M1359.039 154.544l.027-.02c.004-.032.011-.06.015-.094z"/><path fill="url(#linear-gradient-2)" d="M1595.067 295.757c.082-1.823.233-3.646.235-5.47q.03-43.21.025-86.42.016-90.419.028-180.837c0-5.223-.024-5.222-4.574-2.619-22.375 12.803-44.791 25.535-67.117 38.423q-70.675 40.797-141.266 81.74c-7.268 4.212-14.418 8.628-21.622 12.95a.419.419 0 0 0-.555.164l-1.155.837c-.412 3.228-2.857 3.034-5.204 3.005a22.042 22.042 0 0 1-2.775 2.019c-9.59 4.964-18.81 10.594-28.296 15.753-18.976 10.32-37.547 21.39-56.237 32.233q-29.747 17.257-59.407 34.664a6.17 6.17 0 0 1 .61.006q-.297-.017-.607-.005c-8.963 5.092-17.965 10.121-26.888 15.289q-34.553 20.011-69.049 40.12c-1.04.501-2.118.936-3.114 1.511q-40.336 23.282-80.651 46.6c-14.058 8.144-28.062 16.38-42.091 24.574l-31.289 18.034c-.898.425-1.83.79-2.688 1.284Q854.985 445.25 758.607 500.92q-42.762 24.719-85.425 49.611l-34.377 19.85-75.66 43.66c-.28 1.343-1.259 1.553-2.41 1.487a11.115 11.115 0 0 0-4.587 2.534c-.28 1.314-1.233 1.539-2.372 1.463a11.803 11.803 0 0 0-4.626 2.552c-.274 1.291-1.205 1.527-2.331 1.452l-1.66.918c-.063 2.514-1.856 2.145-3.468 2.081a.309.309 0 0 0-.469.184l-63.079 36.378c-.274 1.282-1.202 1.51-2.318 1.437l-2.618 1.392c-.202 1.529-1.254 1.724-2.51 1.603a10.924 10.924 0 0 0-4.555 2.521c-.28 1.34-1.256 1.55-2.405 1.482l-4.602 2.543c-.188 1.19-.97 1.51-2.027 1.43-.37 1.017-1.232 1.097-2.155 1.058l-12.74 7.267q-.215 2.034-2.174 1.57c-.235 1.085-1.026 1.195-1.943 1.085-.31 1.005-1.113 1.122-2.018 1.056l.076-.063-1.13.9c-.346 1.253-1.369 1.184-2.372 1.157a20.659 20.659 0 0 0-6.51 3.566c-.269 1.28-1.195 1.507-2.308 1.436l-4.697 2.6c-.257 1.268-1.182 1.463-2.263 1.406l-2.746 1.51c-.18 1.208-.959 1.535-2.034 1.43-.36 1.053-1.238 1.118-2.175 1.07l-2.776 1.517c-.275 1.314-1.225 1.536-2.36 1.463l-1.631.904c-6.352 3.579-12.748 7.082-19.049 10.75q-22.548 13.126-45.024 26.375a4.77 4.77 0 0 0-.75.14l-.107 357.388a12.889 12.889 0 0 0 2.31-.835c20.159-11.967 40.655-23.348 60.764-35.412 18.128-10.876 36.638-21.13 55.02-31.588 38.413-21.854 76.467-44.339 114.676-66.554 7.948-4.62 15.924-9.193 23.886-13.79a37.07 37.07 0 0 0 3.587-1.621c29.67-17.212 59.399-34.328 88.935-51.767 7.055-4.165 14.714-7.391 21.014-12.806a4.888 4.888 0 0 0 3.838-1.944c.374-.95 1.167-1.096 2.049-1.07l1.1-1.005c1.305.518 1.868-.817 2.837-1.136l1.022-.822c.38-.924 1.166-1.064 2.035-1.042l1.099-1.003a4.075 4.075 0 0 0 2.837-.628q44.979-26.19 89.982-52.337c11.019-6.395 22.101-12.679 33.155-19.013l.985-.51c.083-.512-.09-1.426.872-.552 1.898-1.001 3.833-1.938 5.688-3.014q46.171-26.785 92.324-53.602l31.21-17.977c-.37-.318-.722-.67-1.084-1.002.362.332.713.684 1.084 1.002.747-.36 1.52-.673 2.236-1.086q100.717-58.117 201.42-116.259 38.661-22.337 77.224-44.846l32.026-18.46c19.175-10.989 38.383-21.921 57.516-32.984q33.22-19.208 66.336-38.594a5.702 5.702 0 0 0 .13-1.164 5.703 5.703 0 0 1-.13 1.164c8.637-4.886 17.343-9.657 25.874-14.723 2.74-1.628 4.82-4.363 8.226-4.905.275-1.285 1.204-1.51 2.32-1.435l2.616-1.385a1.573 1.573 0 0 1 2.116-1.54c.365-1.089 1.263-1.14 2.218-1.083l2.733-1.508c.277-1.342 1.254-1.55 2.403-1.483a11.5 11.5 0 0 0 4.594-2.539c.276-1.313 1.227-1.534 2.362-1.461l4.636-2.56c.27-1.284 1.197-1.516 2.314-1.446a51.118 51.118 0 0 0 9.7-5.515c.182-1.206.962-1.535 2.036-1.434.367-1.05 1.247-1.113 2.185-1.066a.671.671 0 0 0 .698-.315c.188-1.58 1.27-1.78 2.561-1.663a5.98 5.98 0 0 0 3.488-1.904l1.182-1.021c.223-1.042.995-1.13 1.895-.997.378-1.114 1.302-1.14 2.27-1.082l4.676-2.597c.267-1.26 1.183-1.477 2.274-1.412a.583.583 0 0 0 .644-.296q40.195-23.094 80.409-46.155a4.758 4.758 0 0 0 2.74-4.733c-.164-25.603-.221-51.206-.308-76.81z"/><path fill="url(#linear-gradient-3)" d="M434.956 688.424l.069-.055c.006-.024.017-.041.023-.067z"/><path fill="url(#linear-gradient-4)" d="M438.035 686.471l.06.006c.01-.03.023-.053.031-.084z"/><path fill="url(#linear-gradient-5)" d="M412.03 701.471c.023.003.043.002.064.004.01-.03.025-.052.034-.083z"/><path fill="url(#linear-gradient-6)" d="M721.303 879.69h-.008l-.042.038z"/><path fill="url(#linear-gradient-7)" d="M719.322 880.682l-.062.05-.009.017z"/><path fill="url(#linear-gradient-8)" d="M714.31 883.696h-.01l-.044.04z"/><path fill="url(#linear-gradient-9)" d="M439.976 685.38c.023.005.042.006.063.011.006-.025.015-.044.02-.07z"/><path fill="url(#linear-gradient-10)" d="M457.043 675.493l.065.003c.011-.03.026-.052.036-.084z"/><path fill="url(#linear-gradient-11)" d="M1490.416 435.812l-.063-.004c-.01.03-.025.054-.035.086z"/><path fill="url(#linear-gradient-12)" d="M1457.447 454.85c-.032-.007-.059-.007-.09-.013-.008.026-.02.045-.029.072z"/><path fill="url(#linear-gradient-13)" d="M1502.431 428.85l-.069-.008c-.009.026-.022.046-.03.073z"/><path fill="url(#linear-gradient-14)" d="M1500.477 429.83l-.01.009c-.012.055-.03.101-.038.162z"/><path fill="url(#linear-gradient-15)" d="M1910.452 356.23c1.233-7.266.768-14.597.774-21.905q.045-54.74.006-109.48c0-1.825-.186-3.65-.285-5.475.056-6.323-.013-12.65.229-18.967.104-2.715-.88-4.182-3.212-5.496-11.462-6.452-22.83-13.073-34.22-19.652Q1739.867 97.922 1605.978 20.61c-1.351-.78-2.607-2.186-4.675-1.502v20.434q-.041 38.667-.077 77.336-.003 31.931.076 63.862-.07 41.733-.133 83.465c-.002 23.154.087 46.308.136 69.462-.057 24.406-.154 48.812-.16 73.218-.003 18.924.107 37.849.167 56.773-.046.83-.131 1.659-.131 2.488q-.037 102.267-.054 204.534c0 .993.116 1.987.177 2.98-.053 7.797-.158 15.593-.149 23.389q.049 42.804.16 85.608.004 34.499.01 68.997l.005 64.003c-.056.662-.163 1.325-.163 1.987q-.038 89.918-.053 179.836c0 .93.09 1.86.169 3.405 2.05-1.127 3.62-1.954 5.157-2.841 17.296-9.985 34.627-19.908 51.866-29.99 16.94-9.907 33.697-20.112 50.934-29.527 15.316-8.365 30.181-17.557 45.245-26.384l-.026-.1c.143-1.268.969-1.345 1.95-1.152.24-1.082 1.035-1.193 1.956-1.086a1.045 1.045 0 0 1 1.164-.885l-.002.178c.063-1.36.914-1.394 1.927-1.153.192-1.154.993-1.242 1.939-1.077.257-1.051 1.048-1.17 1.957-1.084a1.086 1.086 0 0 1 1.172-.88l-.023.174c.097-1.338.955-1.378 1.97-1.15l.072.11.076-.788.617.45c1.45-1.023 2.827-2.174 4.362-3.049q17.782-10.132 35.617-20.175c20.728-11.33 40.925-23.566 61.127-35.793 13.782-5.935 25.759-15.068 38.986-21.98 1.633-.853 1.83-2.087 1.824-3.658q-.133-31.69-.22-63.379c.077-1.823.22-3.646.22-5.469q-.006-96.519-.044-193.037c0-1.825-.118-3.65-.181-5.476v-3.09c-2.432-.573-1.682-2.56-1.685-4.068q-.055-34.856.01-69.713c.003-1.501-.778-3.488 1.625-4.115.087-17.924.247-35.848.243-53.772-.005-22.41-.145-44.819-.226-67.229.084-1.983.257-3.968.24-5.95-.269-29.172.58-58.353-.68-87.517zm-.837 295.492a17.784 17.784 0 0 1-9.06-3.088 17.785 17.785 0 0 0 9.06 3.088z"/><path fill="url(#linear-gradient-16)" d="M1761.473 1007.95l-.018-.004c-.005.028-.014.048-.018.077z"/><path fill="url(#linear-gradient-17)" d="M1765.402 1005.789l-.051-.004c-.008.028-.022.048-.03.077z"/><path fill="url(#linear-gradient-18)" d="M1763.451 1006.877l-.057-.008c-.008.03-.02.051-.025.082z"/><path fill="url(#linear-gradient-19)" d="M1758.418 1009.811l-.052-.005c-.007.028-.02.048-.026.077z"/><path fill="url(#linear-gradient-20)" d="M1756.462 1010.9l-.052-.008c-.006.029-.017.05-.022.081z"/><path fill="#0391a9" d="M1910.926 648.595c-2.432-.573-1.682-2.56-1.685-4.068q-.055-34.856.01-69.713c.003-1.5-.778-3.488 1.625-4.115l.05 77.896z"/><path d="M1359.081 154.43c-.373 3.333-2.848 3.129-5.22 3.1a9.434 9.434 0 0 1 5.22-3.1z" class="cls-29"/><path d="M545.159 624.446c-.063 2.514-1.856 2.145-3.468 2.081l3.468-2.081z" class="cls-30"/><path d="M473.207 665.918c-.202 1.529-1.254 1.724-2.51 1.603l2.51-1.603zm982.033-209.542c.156-1.345.936-1.789 2.207-1.526q-1.102.765-2.206 1.526zM442.212 683.822c-.145 1.379-.887 1.902-2.236 1.558q1.117-.781 2.236-1.558zm1051.024-249.395c.188-1.58 1.27-1.78 2.561-1.663l-2.56 1.663zM438.126 686.393c-.287 1.09-1.116 1.208-2.048 1.14a2.44 2.44 0 0 1 2.048-1.14z" class="cls-31"/><path d="M1766.5 1005.08c.097-1.339.955-1.38 1.97-1.152a2.007 2.007 0 0 1-1.97 1.151z" class="cls-29"/><path d="M435.048 688.302c-.325 1.332-1.373 1.253-2.396 1.225a2.832 2.832 0 0 1 2.396-1.225zm-8.906 4.791c-.269 1.28-1.195 1.507-2.307 1.436l2.307-1.436zm-7.005 4.037c-.257 1.267-1.182 1.462-2.263 1.405q1.13-.703 2.263-1.405zm-5.009 2.914c-.183 1.234-.989 1.552-2.097 1.428q1.047-.715 2.097-1.428z" class="cls-31"/><path d="M412.128 701.392c-.34 1.141-1.246 1.202-2.209 1.153l2.21-1.153zm-4.985 2.67c-.275 1.314-1.225 1.536-2.36 1.463l2.36-1.463zm51.992-29.995c-.192 1.216-1.001 1.526-2.092 1.426l2.092-1.426zm19.008-10.978c-.274 1.282-1.202 1.51-2.318 1.437l2.318-1.437z" class="cls-31"/><path d="M549.15 622.076c-.274 1.291-1.205 1.527-2.331 1.452l2.33-1.452zm6.998-4.015c-.28 1.314-1.233 1.539-2.372 1.464l2.372-1.464zm6.997-4.021c-.28 1.343-1.259 1.553-2.41 1.487l2.41-1.487z" class="cls-30"/><path d="M1509.308 425.163c.268-1.26 1.183-1.477 2.274-1.412l-2.274 1.412zm-59.003 34.034c.275-1.285 1.205-1.51 2.321-1.435l-2.32 1.435zm52.027-30.282c.36-1.194 1.31-1.215 2.3-1.155l-2.3 1.155zM719.251 880.75c.379-.945 1.174-1.083 2.052-1.06-.35 1.001-1.263.91-2.052 1.06z" class="cls-31"/><path d="M1500.43 430.001c.175-1.237 1.023-1.306 2.001-1.15a2.157 2.157 0 0 1-2.002 1.15zM440.06 685.32c-.22 1.184-1.06 1.276-2.025 1.151a2.26 2.26 0 0 1 2.024-1.15zm272.192 199.445c.376-.953 1.173-1.097 2.059-1.07-.307 1.088-1.277.899-2.06 1.07zM457.144 675.412c-.352 1.106-1.24 1.184-2.191 1.143l2.19-1.143zm1033.174-239.518c.347-1.142 1.255-1.2 2.22-1.152l-2.22 1.152zM466.142 670.042c-.28 1.34-1.256 1.55-2.405 1.482l2.405-1.482z" class="cls-31"/><path d="M1488.317 437.242c.186-1.23.991-1.55 2.099-1.43q-1.048.716-2.099 1.43z" class="cls-31"/><path d="M1763.369 1006.951c.237-1.156 1.078-1.26 2.033-1.162a2.437 2.437 0 0 1-2.033 1.162z" class="cls-29"/><path d="M1761.437 1008.023c.17-1.26 1.02-1.328 2.014-1.146a2.168 2.168 0 0 1-2.014 1.146z" class="cls-29"/><path d="M1759.528 1009.099c.064-1.369.924-1.395 1.945-1.15a1.97 1.97 0 0 1-1.945 1.15z" class="cls-29"/><path d="M1476.303 444.202c.27-1.283 1.197-1.515 2.314-1.445l-2.314 1.445z" class="cls-31"/><path d="M1756.388 1010.973c.218-1.187 1.062-1.282 2.03-1.162a2.32 2.32 0 0 1-2.03 1.162z" class="cls-29"/><path d="M1754.46 1012.045c.145-1.292.997-1.35 2.002-1.144a2.091 2.091 0 0 1-2.002 1.144z" class="cls-29"/><path d="M1457.328 454.909c.347-1.166 1.27-1.214 2.247-1.155l-2.247 1.155zm4.98-2.663c.277-1.342 1.254-1.55 2.403-1.483l-2.403 1.483zm6.997-4.022c.276-1.313 1.227-1.534 2.362-1.461l-2.362 1.461z" class="cls-31"/><path d="M1758.34 1009.883a1.064 1.064 0 0 1 1.19-.962q-.593.483-1.19.962zm6.982-4.021a1.105 1.105 0 0 1 1.201-.958q-.598.48-1.201.958zm3.22-1.822l.076-.789.617.45a.63.63 0 0 1-.693.339z" class="cls-29"/><path d="M714.256 883.737l1.146-1.047-1.146 1.047zm785.029-452.877l1.192-1.03q-.594.515-1.192 1.03zM718.238 881.554l1.084-.872c-.191.501-.375 1.013-1.084.872zm3.015-1.826l1.14-1.04-1.14 1.04z" class="cls-31"/><path d="M849.353 806.2c.083-.513-.09-1.427.872-.553z" class="cls-30"/><path d="M1360.221 153.688l-1.182.856 1.182-.856z" class="cls-29"/><path d="M436.154 687.47l-1.198.954q.597-.478 1.198-.954z" class="cls-31"/><path d="M329.435 741.927c-35.385 20.45-69.973 40.45-104.573 60.43q-95.605 55.209-191.238 110.368c-3.421 1.973-8.005 6.49-10.13 5.088-2.95-1.946-1.049-7.599-1.051-11.638q-.097-166.438-.052-332.876c0-1.333.088-2.672-.015-3.997-.291-3.734.72-4.366 4.1-2.369 12.903 7.622 25.952 14.995 38.932 22.488q105.345 60.814 210.682 121.643c17.565 10.144 35.115 20.315 53.345 30.863zm-.235-364.533c-7.336 4.287-14.022 8.234-20.745 12.115Q168.02 470.578 27.574 551.628c-5.146 2.97-5.18 2.95-5.18-2.843q-.006-171.741.025-343.482c0-1.413-.773-3.34.641-4.143 1.432-.814 2.677.864 3.913 1.577q118.382 68.29 236.738 136.626 30.078 17.362 60.16 34.717c1.557.9 3.058 1.898 5.33 3.314z" class="cls-32"/><path d="M644.99 195.197L339.171 371.779c-1.58-1.684-.912-3.417-.913-4.947q-.057-171.729-.032-343.457c0-5.592.025-5.61 4.77-2.87q148.878 85.947 297.746 171.911c1.27.734 2.46 1.605 4.248 2.78zm3.319 4.928v348.002c0 .833-.067 1.673.01 2.499.338 3.599-1.11 3.442-3.655 1.962-14.11-8.209-28.273-16.328-42.41-24.49q-128.097-73.967-256.19-147.943c-1.275-.737-2.524-1.522-4.666-2.816l306.91-177.214z" class="cls-4"/><path d="M25.887 924.095l305.75-176.532c1.166 1.955.737 3.627.738 5.187q.033 171.432-.014 342.864c0 1.57.886 3.75-.663 4.604-1.528.843-2.973-.985-4.362-1.786q-127.64-73.646-255.256-147.333-21.846-12.613-43.669-25.266c-.696-.403-1.33-.911-2.524-1.738zm-.217-729.03c13.814-8.008 26.885-15.61 39.98-23.171q99.064-57.198 198.138-114.38c21.486-12.404 42.99-24.776 64.406-37.3 3.564-2.083 4.26-1.39 4.257 2.531q-.104 172.927-.061 345.854c0 .82-.104 1.641-.224 3.42L25.67 195.065zm306.484 187.661v353.858L25.718 559.656l306.436-176.93z" class="cls-32"/><g opacity=".23"><path fill="#cb5a80" d="M963.717 735.481a44.609 44.609 0 0 1-16.287-3.19 132.117 132.117 0 0 1-19.292-9.744c-6.383-3.73-12.963-7.124-19.257-11-4.511-2.777-9.047-5.525-13.652-8.11-4.841-2.72-9.384-5.944-14.361-8.423-2.045-1.018-3.927-2.378-5.873-3.598a19.732 19.732 0 0 0-4.746-2.279 17.364 17.364 0 0 1-3.489-1.838c-3.25-1.896-6.606-3.641-9.694-5.78-3.297-2.285-6.97-3.823-10.353-5.927-5.392-3.353-10.93-6.464-16.402-9.682-3.342-1.965-6.663-3.967-10.022-5.902-6.038-3.479-11.9-7.266-18.063-10.525-2.104-1.113-4.106-2.424-6.159-3.637q-9.57-5.65-19.143-11.295c-6.239-3.678-12.403-7.496-18.742-10.988-6.958-3.833-13.57-8.257-20.514-12.09-6.953-3.838-13.68-8.064-20.614-11.933-6.088-3.397-12.009-7.104-18.007-10.667-6.37-3.785-12.858-7.38-19.082-11.399-5.256-3.393-10.441-6.951-14.71-11.69-5.65-6.275-4.366-14.566 1.372-19.703 2.104-1.884 3.857-4.175 6.278-5.688 3.953-2.471 7.709-5.251 11.787-7.534 3.683-2.061 7.223-4.382 10.856-6.536 5.538-3.284 11.103-6.52 16.652-9.783q9.004-5.294 18.002-10.6 11.071-6.501 22.224-12.86c3.83-2.174 7.546-4.585 11.372-6.79q7.231-4.168 14.445-8.366c4.878-2.855 9.728-5.758 14.599-8.625 3.958-2.33 7.931-4.636 11.894-6.958 3.34-1.957 6.671-3.93 10.014-5.884 3.66-2.139 7.364-4.206 10.986-6.411 3.087-1.88 6.212-3.696 9.276-5.619 2.673-1.677 5.584-2.954 8.274-4.676 2.877-1.843 5.908-3.463 8.856-5.211 2.879-1.708 5.881-3.208 8.716-4.985 6.735-4.22 13.632-8.172 20.506-12.135 6.81-3.927 13.557-7.972 20.397-11.849 7.06-4.001 14.005-8.21 21.029-12.275 8.322-4.818 16.614-9.7 25.59-13.22a51.215 51.215 0 0 1 9.193-2.203c2.614-.503 5.21-.155 7.763-.225a28.155 28.155 0 0 1 10.02 1.898c8.018 2.847 15.316 7.12 22.728 11.226 6.645 3.682 13.024 7.814 19.644 11.518 5.7 3.19 11.201 6.714 16.865 9.944q10.787 6.151 21.532 12.38c6.037 3.494 11.976 7.163 18.001 10.678 6.792 3.962 13.698 7.726 20.43 11.788 5.371 3.242 10.657 6.65 16.24 9.488 4.55 2.312 8.795 5.151 13.14 7.763 5.223 3.139 10.63 5.943 15.804 9.163 3.732 2.323 7.635 4.364 11.438 6.572 2.97 1.724 5.894 3.527 8.854 5.27 5.692 3.35 11.447 6.595 17.08 10.046 6.854 4.2 13.98 7.913 20.787 12.216 4.468 2.825 9.161 5.33 13.753 7.98 4.206 2.427 8.351 4.963 12.546 7.412 4.187 2.444 8.459 4.746 12.59 7.284 3.837 2.358 7.457 5.081 11.32 7.39a51.622 51.622 0 0 1 10.809 8.93 25.041 25.041 0 0 1 2.972 3.744c1.438 2.25 1.473 4.828 1.371 7.413-.14 3.543-2.011 6.073-4.3 8.588-4.837 5.315-10.72 9.135-16.78 12.73a26.941 26.941 0 0 0-3.459 2.428c-2.531 2.105-5.728 2.886-8.382 4.817-2.535 1.845-5.5 3.163-8.203 4.848-2.774 1.728-5.532 3.497-8.405 5.042-8.171 4.395-15.952 9.481-24.071 13.957-9.664 5.326-18.924 11.356-28.62 16.627-5.114 2.78-10.01 5.973-15.027 8.94-3.565 2.108-7.178 4.132-10.751 6.226-3.048 1.786-6.065 3.626-9.104 5.427q-6.382 3.782-12.779 7.54c-3.808 2.237-7.601 4.504-11.446 6.675-3.992 2.254-7.868 4.706-11.92 6.862a92.856 92.856 0 0 0-7.7 4.58c-4.128 2.74-8.663 4.706-12.799 7.389-7.641 4.957-15.613 9.354-23.488 13.887-6.805 3.918-13.392 8.215-20.344 11.888-5.217 2.757-10.17 6.025-15.256 9.04-5.318 3.154-10.446 6.748-16.039 9.281-5.353 2.425-10.31 5.767-15.984 7.422-3.022.881-5.858 2.312-9.028 2.795-2.177.333-4.307.892-5.658.741zm-2.343-351.21c-1.963-.235-5.383.723-8.8 1.504-6.084 1.391-11.45 4.584-16.891 7.464-6.628 3.507-12.96 7.587-19.538 11.199-6.65 3.651-12.87 8.034-19.65 11.475-4.3 2.183-8.24 5.086-12.449 7.47-4.228 2.394-8.205 5.238-12.628 7.276a61.549 61.549 0 0 0-7.734 4.534c-4.89 3.185-10.082 5.827-15.043 8.882-3.46 2.13-7.027 4.079-10.54 6.12-3.665 2.13-7.23 4.426-10.957 6.46-4.57 2.495-9.028 5.204-13.49 7.895-3.254 1.962-6.374 4.142-9.808 5.8a41.678 41.678 0 0 0-6.251 3.474c-3.457 2.481-7.268 4.314-10.887 6.491-3.546 2.134-7.16 4.16-10.744 6.227-5.579 3.218-11.01 6.72-16.66 9.813-7.514 4.113-14.573 9.01-22.165 12.993-1.783.935-3.58 1.908-5.315 2.974-4.59 2.82-9.324 5.406-13.856 8.316-3.513 2.256-7.29 3.986-10.86 6.107-5.912 3.513-11.704 7.236-17.646 10.695a60.638 60.638 0 0 0-14.615 11.782c-2.876 3.184-4.065 6.866-2.29 11.052 1.727 4.075 4.879 7.008 8.263 9.579 2.804 2.13 5.974 3.742 8.821 5.858a120.367 120.367 0 0 0 11.05 6.715c3.196 1.88 6.334 3.872 9.584 5.65 5.882 3.22 11.559 6.798 17.406 10.082 5.444 3.058 10.806 6.312 16.134 9.602 4.36 2.691 8.935 5.021 13.295 7.71 6.396 3.944 12.933 7.63 19.449 11.356 1.84 1.052 3.75 2 5.493 3.2a89.144 89.144 0 0 0 8.339 5.123c5.915 3.18 11.683 6.61 17.409 10.121 2.993 1.836 5.927 3.795 9.034 5.411 4.07 2.117 8.037 4.399 11.95 6.79 3.693 2.257 7.391 4.5 11.142 6.663 3.292 1.898 6.766 3.445 9.949 5.562 3.307 2.2 6.812 4.09 10.179 6.2 4.637 2.908 9.601 5.225 14.194 8.214 2.74 1.782 5.549 3.458 8.377 5.092 3.597 2.077 7.253 4.046 10.868 6.09 6.61 3.74 12.9 8.037 19.626 11.577 2.341 1.232 4.586 2.652 6.864 4.005 2.885 1.714 5.749 3.466 8.64 5.168 3.966 2.333 8.162 4.22 12.21 6.373a70.09 70.09 0 0 0 11.898 5.087 31.786 31.786 0 0 0 17.669.505 58.917 58.917 0 0 0 13.056-5.015c4.607-2.433 9.338-4.652 13.783-7.357 4.14-2.52 8.345-4.917 12.517-7.375q5.022-2.958 10.096-5.826c4.678-2.653 9.16-5.64 13.884-8.22s9.274-5.493 13.997-8.077c2.564-1.402 4.743-3.362 7.389-4.66 6.026-2.955 11.696-6.583 17.463-10.022 3.337-1.99 6.569-4.188 10.017-5.953 5.908-3.023 11.504-6.592 17.18-10 5.141-3.088 10.48-5.816 15.545-9.038 2.307-1.469 4.582-3.056 7.005-4.275 4.501-2.265 8.639-5.144 13.066-7.52 5.603-3.008 10.742-6.842 16.536-9.522a35.042 35.042 0 0 0 5.064-2.885c4.16-2.85 8.566-5.27 12.904-7.812 3.049-1.786 6.08-3.605 9.174-5.309 3.792-2.089 7.317-4.621 11.148-6.657 4.598-2.443 9.085-5.107 13.578-7.75 4.338-2.55 8.538-5.354 12.948-7.766a302.867 302.867 0 0 0 27.65-17.22 25.888 25.888 0 0 0 7.036-7.137 10.509 10.509 0 0 0 .074-12.266c-2.541-4.019-6.386-6.686-10.067-9.332-5.011-3.6-10.476-6.556-15.772-9.744-4.237-2.55-8.43-5.197-12.797-7.498-3.529-1.859-6.74-4.228-10.26-6.079-4.994-2.626-9.613-5.906-14.69-8.417-2.412-1.193-4.709-2.777-7.048-4.197-5.133-3.118-10.278-6.22-15.508-9.166a219.302 219.302 0 0 1-9.051-5.397c-4.487-2.818-9.183-5.296-13.807-7.885-7.069-3.96-13.802-8.494-20.966-12.305-6.923-3.684-13.483-8.04-20.319-11.905-7.445-4.21-14.762-8.655-22.102-13.053-4.305-2.58-8.812-4.793-12.991-7.605a93.354 93.354 0 0 0-8.154-4.879c-5.06-2.701-9.941-5.717-14.924-8.553-4.069-2.315-7.859-5.105-12.086-7.15a93.146 93.146 0 0 1-9.406-5.433c-3.337-2.126-6.789-4.068-10.184-6.1-2.876-1.723-5.965-3.1-8.785-4.854-7.228-4.496-14.706-8.483-22.314-12.237-5.444-2.686-11.226-4.062-18.905-4.285z"/><path fill="#c54772" d="M961.374 384.271c7.679.223 13.461 1.599 18.905 4.285 7.608 3.754 15.086 7.741 22.314 12.237 2.82 1.754 5.909 3.13 8.784 4.853 3.396 2.033 6.848 3.975 10.185 6.101a93.146 93.146 0 0 0 9.405 5.433c4.228 2.045 8.018 4.835 12.087 7.15 4.983 2.836 9.864 5.852 14.924 8.553a93.354 93.354 0 0 1 8.154 4.879c4.179 2.812 8.686 5.026 12.99 7.605 7.34 4.398 14.658 8.843 22.103 13.053 6.836 3.865 13.396 8.221 20.32 11.905 7.163 3.811 13.896 8.345 20.965 12.305 4.624 2.59 9.32 5.067 13.807 7.885a219.28 219.28 0 0 0 9.051 5.397c5.23 2.945 10.375 6.048 15.508 9.166 2.339 1.42 4.636 3.004 7.047 4.197 5.078 2.51 9.697 5.791 14.69 8.417 3.52 1.851 6.732 4.22 10.26 6.08 4.368 2.3 8.561 4.947 12.798 7.497 5.296 3.188 10.76 6.144 15.771 9.744 3.682 2.646 7.527 5.313 10.067 9.332a10.509 10.509 0 0 1-.073 12.266 25.888 25.888 0 0 1-7.036 7.137 302.867 302.867 0 0 1-27.65 17.22c-4.41 2.412-8.61 5.216-12.948 7.767-4.493 2.642-8.98 5.306-13.578 7.75-3.83 2.035-7.356 4.567-11.148 6.656-3.093 1.704-6.125 3.523-9.174 5.309-4.338 2.541-8.743 4.963-12.904 7.812a35.042 35.042 0 0 1-5.064 2.885c-5.794 2.68-10.933 6.514-16.536 9.522-4.427 2.376-8.565 5.255-13.066 7.52-2.423 1.219-4.698 2.806-7.005 4.275-5.065 3.222-10.404 5.95-15.545 9.038-5.676 3.408-11.272 6.977-17.18 10-3.448 1.765-6.68 3.963-10.017 5.953-5.767 3.44-11.437 7.067-17.463 10.022-2.646 1.298-4.825 3.258-7.39 4.66-4.722 2.584-9.271 5.496-13.996 8.076s-9.206 5.568-13.884 8.22q-5.07 2.876-10.096 5.827c-4.172 2.458-8.376 4.856-12.517 7.375-4.445 2.705-9.177 4.924-13.783 7.357a58.917 58.917 0 0 1-13.056 5.015 31.786 31.786 0 0 1-17.67-.505 70.09 70.09 0 0 1-11.897-5.087c-4.048-2.154-8.244-4.04-12.21-6.373-2.891-1.702-5.754-3.454-8.64-5.168-2.277-1.353-4.523-2.773-6.864-4.005-6.727-3.54-13.015-7.837-19.626-11.576-3.615-2.045-7.271-4.014-10.868-6.091-2.828-1.634-5.638-3.31-8.377-5.092-4.593-2.989-9.557-5.306-14.194-8.213-3.367-2.111-6.872-4.001-10.179-6.2-3.183-2.118-6.657-3.665-9.949-5.563-3.75-2.162-7.449-4.406-11.142-6.663-3.913-2.391-7.88-4.673-11.95-6.79-3.107-1.616-6.04-3.575-9.034-5.41-5.726-3.512-11.494-6.942-17.41-10.122a89.144 89.144 0 0 1-8.338-5.124c-1.742-1.2-3.653-2.147-5.493-3.2-6.516-3.726-13.053-7.41-19.449-11.355-4.36-2.689-8.936-5.019-13.294-7.71-5.329-3.29-10.691-6.544-16.135-9.602-5.847-3.284-11.524-6.863-17.405-10.081-3.251-1.779-6.389-3.77-9.586-5.651a120.367 120.367 0 0 1-11.049-6.715c-2.847-2.116-6.017-3.728-8.82-5.858-3.385-2.571-6.537-5.504-8.265-9.58-1.774-4.185-.585-7.867 2.291-11.051a60.638 60.638 0 0 1 14.615-11.782c5.942-3.46 11.734-7.182 17.646-10.695 3.57-2.121 7.347-3.85 10.86-6.107 4.532-2.91 9.265-5.496 13.856-8.316 1.735-1.066 3.532-2.039 5.315-2.974 7.592-3.982 14.651-8.88 22.165-12.993 5.65-3.094 11.081-6.595 16.66-9.813 3.583-2.067 7.198-4.093 10.744-6.227 3.62-2.177 7.43-4.01 10.887-6.491a41.678 41.678 0 0 1 6.25-3.474c3.435-1.658 6.555-3.838 9.809-5.8 4.462-2.69 8.92-5.4 13.49-7.895 3.726-2.035 7.292-4.33 10.957-6.46 3.513-2.041 7.08-3.99 10.54-6.12 4.96-3.055 10.154-5.697 15.043-8.882a61.549 61.549 0 0 1 7.734-4.534c4.423-2.038 8.4-4.883 12.628-7.277 4.21-2.383 8.148-5.286 12.449-7.469 6.78-3.44 13-7.824 19.65-11.475 6.578-3.612 12.91-7.692 19.538-11.2 5.44-2.879 10.807-6.072 16.89-7.463 3.418-.781 6.838-1.739 8.8-1.504zm1.847 339.88c5.99.332 11.653-1.614 17.088-4.205a163.855 163.855 0 0 0 14.386-7.938c4.668-2.83 9.7-5.057 14.298-7.99 6.862-4.376 13.988-8.273 20.976-12.417 4.094-2.429 8.234-4.779 12.337-7.192 4.796-2.822 9.488-5.837 14.382-8.468 5.453-2.93 10.496-6.55 15.976-9.43a81.402 81.402 0 0 0 7.384-4.169c3.306-2.202 6.847-4.039 10.192-6.183 3.655-2.342 7.553-4.228 11.274-6.442 4.85-2.885 9.743-5.699 14.619-8.54 4.197-2.445 8.41-4.864 12.593-7.336 4.41-2.607 8.726-5.382 13.2-7.867 5.625-3.124 11.084-6.526 16.632-9.777 5.64-3.303 11.322-6.527 16.922-9.905 7.254-4.374 14.79-8.273 21.989-12.734 6.015-3.727 12.27-7.01 18.285-10.724 6.838-4.222 13.934-8.028 20.441-12.78 3.19-2.33 6.425-4.653 8.815-7.933 2.258-3.098 2.225-8.794-.17-11.546a59.746 59.746 0 0 0-7.658-6.97c-5.935-4.813-12.802-8.164-19.289-12.093-5.491-3.327-11.022-6.615-16.685-9.67-7.068-3.812-13.734-8.35-20.757-12.271a86.62 86.62 0 0 1-8.052-4.536 75.86 75.86 0 0 0-8.062-5.087c-8.808-4.687-17.23-10.053-25.916-14.953-7.074-3.99-13.99-8.268-20.994-12.386-3.883-2.283-7.815-4.48-11.707-6.75-3.129-1.823-6.215-3.72-9.345-5.54-4.81-2.799-9.664-5.52-14.455-8.35-3.57-2.106-6.96-4.55-10.627-6.454-5.488-2.85-10.621-6.314-16.07-9.208-2.2-1.168-4.044-2.88-6.255-3.957-4.05-1.975-7.959-4.217-11.804-6.541-4.38-2.647-8.758-5.296-13.188-7.858-3.824-2.21-7.66-4.397-11.472-6.628-4.27-2.497-8.495-5.069-12.78-7.538-4.67-2.691-9.38-5.31-14.081-7.944-2.16-1.21-4.223-2.764-6.535-3.483-3.673-1.144-7.198-2.7-11.1-3.283a35.15 35.15 0 0 0-19.35 2.518 125.908 125.908 0 0 0-16.688 8.656c-3.828 2.367-7.881 4.31-11.727 6.65-2.79 1.7-5.474 3.59-8.365 5.113-6.957 3.668-13.742 7.66-20.417 11.806-8.173 5.075-16.78 9.368-24.85 14.62-3.33 2.166-6.94 3.881-10.371 5.89-4.801 2.81-9.544 5.721-14.332 8.555-6.153 3.641-12.436 7.052-18.552 10.764-7.543 4.578-15.195 8.967-22.798 13.442-2.055 1.21-4.095 2.445-6.153 3.649q-5.248 3.07-10.51 6.118c-6.106 3.554-12.179 7.171-18.331 10.643-4.147 2.34-8.126 4.96-12.321 7.226-4.89 2.64-9.49 5.831-14.391 8.443-5.699 3.035-11.014 6.71-16.715 9.753-6.687 3.57-13.001 7.852-19.586 11.629a132.546 132.546 0 0 0-17.223 11.374 47.488 47.488 0 0 0-3.896 3.605c-2.987 2.998-3.537 6.598-2.425 10.584a3.535 3.535 0 0 0 .848 1.637 71.79 71.79 0 0 0 6.046 6.018 157.328 157.328 0 0 0 17.018 11.21c3.555 2.12 7.13 4.215 10.753 6.212 3.484 1.92 6.812 4.11 10.28 6.044 4.09 2.282 7.882 5.072 12.1 7.128 1.664.81 3.262 1.771 4.845 2.737 3.467 2.117 6.795 4.502 10.387 6.367 4 2.076 7.693 4.671 11.677 6.74 4.713 2.449 9.067 5.498 13.686 8.097 5.928 3.336 11.857 6.671 17.736 10.096 7.401 4.311 14.817 8.604 22.107 13.106 6.904 4.264 14.113 7.979 20.957 12.363a199.69 199.69 0 0 0 14.418 8.401c7.265 3.837 14.215 8.22 21.294 12.36q15.994 9.355 31.99 18.718c6.776 3.983 13.475 8.103 20.388 11.867 6.653 3.623 13.13 7.563 19.966 10.866a38.026 38.026 0 0 0 17.718 4.07z"/><path fill="#c23e6b" d="M963.221 724.15a38.026 38.026 0 0 1-17.718-4.07c-6.835-3.303-13.313-7.243-19.966-10.866-6.913-3.764-13.612-7.884-20.388-11.867q-15.975-9.392-31.99-18.717c-7.08-4.14-14.03-8.524-21.294-12.36a199.705 199.705 0 0 1-14.418-8.402c-6.844-4.384-14.052-8.1-20.957-12.363-7.29-4.502-14.706-8.795-22.107-13.107-5.879-3.424-11.808-6.76-17.736-10.095-4.62-2.6-8.973-5.648-13.686-8.096-3.984-2.07-7.676-4.665-11.677-6.741-3.592-1.865-6.92-4.25-10.387-6.367-1.583-.966-3.18-1.926-4.844-2.737-4.22-2.056-8.011-4.846-12.101-7.128-3.468-1.935-6.795-4.125-10.28-6.044-3.624-1.997-7.198-4.091-10.753-6.212a157.328 157.328 0 0 1-17.018-11.21 71.79 71.79 0 0 1-6.046-6.018 3.535 3.535 0 0 1-.847-1.637c-1.113-3.986-.563-7.586 2.424-10.584a47.488 47.488 0 0 1 3.896-3.605 132.546 132.546 0 0 1 17.223-11.374c6.585-3.777 12.899-8.059 19.586-11.629 5.7-3.043 11.016-6.718 16.715-9.753 4.902-2.612 9.502-5.803 14.39-8.443 4.197-2.266 8.175-4.886 12.322-7.226 6.152-3.472 12.225-7.089 18.332-10.644l10.51-6.117c2.057-1.204 4.097-2.44 6.152-3.649 7.603-4.475 15.256-8.864 22.798-13.442 6.117-3.712 12.399-7.123 18.553-10.764 4.787-2.834 9.53-5.745 14.33-8.555 3.433-2.009 7.043-3.724 10.371-5.89 8.07-5.252 16.678-9.545 24.85-14.62 6.676-4.145 13.461-8.138 20.418-11.806 2.89-1.523 5.575-3.414 8.365-5.112 3.846-2.341 7.899-4.284 11.727-6.651a125.908 125.908 0 0 1 16.689-8.656 35.15 35.15 0 0 1 19.35-2.518c3.901.583 7.426 2.139 11.099 3.282 2.312.72 4.376 2.275 6.535 3.484 4.701 2.635 9.412 5.253 14.081 7.944 4.285 2.47 8.511 5.041 12.78 7.538 3.812 2.23 7.649 4.418 11.472 6.628 4.43 2.561 8.808 5.21 13.188 7.858 3.845 2.324 7.754 4.566 11.804 6.54 2.211 1.079 4.054 2.79 6.254 3.958 5.45 2.894 10.583 6.358 16.071 9.208 3.667 1.904 7.058 4.348 10.627 6.455 4.792 2.829 9.645 5.55 14.455 8.348 3.13 1.82 6.216 3.718 9.345 5.541 3.892 2.269 7.824 4.467 11.708 6.75 7.004 4.118 13.92 8.396 20.993 12.386 8.686 4.9 17.108 10.266 25.916 14.953a75.86 75.86 0 0 1 8.063 5.087 86.62 86.62 0 0 0 8.05 4.536c7.024 3.921 13.69 8.459 20.758 12.271 5.663 3.055 11.194 6.343 16.686 9.67 6.486 3.929 13.353 7.28 19.288 12.093a59.746 59.746 0 0 1 7.657 6.97c2.396 2.752 2.43 8.448.171 11.546-2.39 3.28-5.625 5.602-8.815 7.932-6.507 4.753-13.603 8.56-20.441 12.781-6.015 3.714-12.27 6.997-18.285 10.724-7.2 4.461-14.735 8.36-21.989 12.734-5.6 3.378-11.282 6.602-16.922 9.905-5.548 3.25-11.007 6.653-16.632 9.777-4.474 2.485-8.79 5.26-13.2 7.867-4.182 2.472-8.396 4.89-12.593 7.336-4.876 2.841-9.768 5.655-14.619 8.54-3.72 2.214-7.619 4.1-11.274 6.442-3.345 2.144-6.886 3.981-10.192 6.183a81.402 81.402 0 0 1-7.384 4.17c-5.48 2.879-10.523 6.498-15.976 9.429-4.894 2.63-9.586 5.646-14.382 8.467-4.103 2.414-8.243 4.764-12.337 7.193-6.988 4.144-14.114 8.04-20.976 12.417-4.599 2.933-9.63 5.16-14.297 7.99a163.855 163.855 0 0 1-14.387 7.938c-5.435 2.59-11.098 4.537-17.088 4.205zm-1.292-4.89c3.854.168 6.493-.924 9.226-1.557 3.886-.901 7.346-2.943 11.112-4.151 3.82-3.592 9.034-4.643 13.294-7.549a61.466 61.466 0 0 1 10.544-6.072 6.042 6.042 0 0 0 1.402-.752 60.013 60.013 0 0 1 12.05-7.102c2.439-1.132 4.446-2.876 6.686-4.281 4.173-2.618 8.761-4.49 12.755-7.428a12.603 12.603 0 0 1 2.86-1.367 12.697 12.697 0 0 0 2.107-1.089c3.801-2.398 7.452-5.052 11.502-7.03.632-.309 1.453-.372 1.93-.825 3.073-2.917 7.368-3.784 10.526-6.554 1.067-.937 2.637-.968 3.76-1.89 3.295-2.702 7.354-4.174 10.697-6.804a2.436 2.436 0 0 1 .96-.446c1.672-.365 2.974-1.429 4.431-2.23 3.779-2.079 7.046-5.063 11.164-6.517 1.651-.582 2.534-2.198 4.088-2.915 3.764-1.739 7.175-4.156 10.971-5.854 2.08-.93 3.55-2.895 5.76-3.73a17.556 17.556 0 0 0 3.433-1.987c3.223-2.163 6.777-3.717 10.072-5.775 3.208-2.003 6.623-3.747 9.832-5.757 5.61-3.515 11.405-6.698 17.089-10.073 6.888-4.09 13.825-8.106 20.704-12.216 5.135-3.068 10.45-5.816 15.446-9.136 4.472-2.971 9.484-4.962 13.94-8.053 4.263-2.956 9.013-5.194 13.4-8.01 4.166-2.674 8.359-5.35 11.798-8.961a9.465 9.465 0 0 0 .047-13.298 34.425 34.425 0 0 0-6.073-5.117 154.618 154.618 0 0 1-7.052-4.695c-1.672-1.173-3.466-2.119-5.202-3.17-2.351-1.425-5.045-2.312-7.14-4.04a25.967 25.967 0 0 0-6.126-3.637 27.874 27.874 0 0 1-3.175-1.86c-3.3-2.013-6.433-4.33-9.968-5.915a27.642 27.642 0 0 1-4.35-2.442 84.466 84.466 0 0 0-8.985-5.564c-3.366-1.725-6.633-3.667-9.841-5.593-3.767-2.26-7.773-4.087-11.41-6.607a101.697 101.697 0 0 0-9.32-5.48c-2.99-1.63-5.908-3.476-8.901-5.133-4.866-2.694-9.365-6.005-14.36-8.493a28.185 28.185 0 0 1-5.744-3.195c-3.368-2.85-7.467-4.346-11.081-6.734-4.607-3.045-9.553-5.584-14.35-8.338-3.657-2.098-7-4.767-10.986-6.33-1.856-.728-3.376-2.237-5.217-3.13-3.397-1.648-6.235-4.331-9.882-5.527a.794.794 0 0 1-.226-.14 67.243 67.243 0 0 0-12-7.154 16.124 16.124 0 0 1-2.948-1.772 42.423 42.423 0 0 0-5.425-3.292c-2.986-1.719-6.07-3.308-8.92-5.209-2.952-1.968-6.065-3.66-9.144-5.307-4.13-2.21-7.963-4.9-12.104-7.09-3.878-2.05-7.5-4.618-11.4-6.672-.701-.368-1.53-.386-2.15-.985-2.837-2.747-6.968-3.468-9.727-6.359a2.44 2.44 0 0 0-.95-.462 36.954 36.954 0 0 1-8.2-4.286 4.99 4.99 0 0 0-1.587-.937c-2.88-.577-5.31-2.296-8.108-3.126-5.729-1.7-11.418-2.543-17.365-1.149a60.183 60.183 0 0 0-11.131 3.933c-4.565 2.074-8.898 4.674-13.325 7.058a5.705 5.705 0 0 0-1.324.876c-1.629 1.605-3.766 2.292-5.71 3.325-.384.204-.886.225-1.214.486-5.29 4.194-11.71 6.481-17.132 10.45a9.043 9.043 0 0 1-1.176.612c-3.506 1.837-6.586 4.455-10.358 5.805a1.496 1.496 0 0 0-.45.278c-2.644 2.264-5.922 3.464-8.793 5.374-2.337 1.554-4.882 2.831-7.249 4.39a54.957 54.957 0 0 1-7.274 4.224c-4.123 1.876-7.696 4.618-11.66 6.716a65.988 65.988 0 0 0-9.723 5.903 10.049 10.049 0 0 1-2.358 1.21 52.906 52.906 0 0 0-9.36 5.406c-3.596 2.433-7.626 4.068-11.13 6.625-.862.629-1.96.7-2.849 1.36-5.467 4.066-11.93 6.485-17.304 10.718a2.545 2.545 0 0 1-.717.344c-3.85 1.39-7.061 3.985-10.661 5.86-3.578 1.865-6.765 4.503-10.343 6.366-3.35 1.746-6.474 3.912-9.949 5.411a4.666 4.666 0 0 0-1.126.69 48.201 48.201 0 0 1-5.355 3.408c-3.336 2.113-7.015 3.624-10.2 5.993a17.752 17.752 0 0 1-4.676 2.46 10.166 10.166 0 0 0-2.11 1.083c-3.634 2.345-7.134 4.925-11.042 6.797-3.423 1.64-6.472 3.914-9.788 5.736-3.77 2.072-7.42 4.369-11.163 6.493a28.554 28.554 0 0 0-4.45 2.865 4.513 4.513 0 0 1-1.563.973c-3.303.923-5.97 3.12-8.725 4.93a116.971 116.971 0 0 0-12.296 8.637c-2.542 2.181-4.377 4.524-5.007 7.86a6.09 6.09 0 0 0 .03 2.317c.726 4.184 3.888 6.516 6.683 9.039 4.686 4.23 10.605 6.62 15.618 10.391 1.052.791 2.515.791 3.563 1.707 3.095 2.704 6.854 4.38 10.384 6.304 3.084 1.681 5.93 3.743 9.052 5.361 2.73 1.415 5.223 3.344 8.087 4.52 1.52.625 2.324 2.137 3.898 2.692 3.668 1.293 6.516 4.24 10.284 5.384.39.118.693.536 1.034.818 2.801 2.314 6.354 3.434 9.08 5.871.122.11.333.11.493.182a31.923 31.923 0 0 1 3.357 1.564c4.91 2.973 9.777 6.017 14.897 8.612a3.439 3.439 0 0 1 .888.572c2.695 2.687 6.22 4.144 9.476 5.729 3.9 1.898 7.044 5.114 11.283 6.304a1.29 1.29 0 0 1 .427.311c3.096 2.697 6.84 4.345 10.335 6.364 1.817 1.049 3.656 2.062 5.454 3.167 3.456 2.124 7.008 4.09 10.528 6.107.845.483 1.767.838 2.578 1.37a116.507 116.507 0 0 0 10.837 6.529c5.803 2.973 11.077 6.869 16.907 9.832 4.391 2.232 8.434 5.168 12.85 7.406a11.677 11.677 0 0 1 2.474 1.526c2.692 2.333 5.927 3.865 9.029 5.428 3.936 1.983 7.22 5.145 11.53 6.39a.477.477 0 0 1 .204.167c1.285 1.587 3.188 2.19 4.858 3.17 2.732 1.607 5.284 3.546 8.357 4.509a2.807 2.807 0 0 1 .84.64 25.363 25.363 0 0 0 4.222 2.73c3.605 2.03 7.285 3.965 10.703 6.29 3.06 2.082 6.84 2.914 9.439 5.74 5.86 2.414 11.242 5.944 17.529 7.4 2.755.637 5.51.988 7.314 1.252z"/><path fill="#bf3463" d="M961.929 719.26c-1.803-.263-4.56-.614-7.314-1.252-6.287-1.455-11.669-4.985-17.529-7.4-2.599-2.826-6.379-3.657-9.44-5.74-3.417-2.325-7.097-4.258-10.702-6.29a25.363 25.363 0 0 1-4.222-2.73 2.807 2.807 0 0 0-.84-.64c-3.073-.962-5.625-2.901-8.357-4.507-1.67-.982-3.573-1.584-4.858-3.172a.477.477 0 0 0-.205-.166c-4.308-1.245-7.593-4.408-11.53-6.39-3.101-1.564-6.336-3.096-9.028-5.429a11.677 11.677 0 0 0-2.474-1.526c-4.416-2.237-8.459-5.173-12.85-7.405-5.83-2.964-11.104-6.859-16.907-9.832a116.507 116.507 0 0 1-10.837-6.528c-.81-.534-1.733-.888-2.578-1.372-3.52-2.016-7.072-3.982-10.528-6.106-1.798-1.105-3.637-2.118-5.454-3.168-3.495-2.018-7.239-3.666-10.335-6.363a1.29 1.29 0 0 0-.427-.311c-4.239-1.19-7.384-4.406-11.283-6.304-3.255-1.585-6.78-3.042-9.476-5.729a3.439 3.439 0 0 0-.888-.572c-5.12-2.595-9.988-5.64-14.897-8.612a31.923 31.923 0 0 0-3.357-1.564c-.16-.073-.371-.073-.493-.182-2.726-2.437-6.279-3.557-9.08-5.872-.34-.281-.643-.699-1.034-.817-3.768-1.144-6.616-4.091-10.284-5.384-1.574-.555-2.377-2.067-3.898-2.692-2.864-1.176-5.357-3.105-8.087-4.52-3.122-1.618-5.968-3.68-9.052-5.361-3.53-1.925-7.29-3.6-10.384-6.304-1.048-.916-2.51-.916-3.562-1.707-5.014-3.772-10.933-6.162-15.619-10.391-2.795-2.523-5.957-4.855-6.682-9.04a6.09 6.09 0 0 1-.03-2.316c.63-3.336 2.464-5.679 5.006-7.86a116.971 116.971 0 0 1 12.296-8.638c2.754-1.81 5.422-4.006 8.725-4.93a4.513 4.513 0 0 0 1.562-.972 28.554 28.554 0 0 1 4.45-2.866c3.744-2.123 7.394-4.42 11.164-6.492 3.316-1.822 6.365-4.097 9.788-5.736 3.908-1.872 7.409-4.452 11.042-6.797a10.166 10.166 0 0 1 2.11-1.082 17.752 17.752 0 0 0 4.676-2.461c3.185-2.37 6.864-3.88 10.2-5.994a48.201 48.201 0 0 0 5.355-3.406 4.666 4.666 0 0 1 1.126-.691c3.475-1.5 6.6-3.665 9.95-5.41 3.578-1.865 6.764-4.502 10.342-6.366 3.6-1.876 6.811-4.47 10.661-5.861a2.545 2.545 0 0 0 .717-.344c5.373-4.233 11.837-6.652 17.304-10.718.89-.661 1.987-.731 2.848-1.36 3.505-2.557 7.535-4.192 11.131-6.625a52.906 52.906 0 0 1 9.36-5.405 10.049 10.049 0 0 0 2.358-1.211 65.988 65.988 0 0 1 9.723-5.903c3.964-2.099 7.537-4.84 11.66-6.716a54.957 54.957 0 0 0 7.274-4.224c2.367-1.559 4.912-2.836 7.25-4.39 2.87-1.91 6.148-3.11 8.792-5.374a1.496 1.496 0 0 1 .45-.278c3.772-1.35 6.852-3.968 10.358-5.806a9.043 9.043 0 0 0 1.176-.612c5.423-3.968 11.842-6.255 17.132-10.45.328-.26.83-.281 1.214-.485 1.945-1.033 4.081-1.72 5.71-3.325a5.705 5.705 0 0 1 1.325-.876c4.426-2.384 8.76-4.984 13.324-7.058a60.183 60.183 0 0 1 11.131-3.933c5.947-1.394 11.636-.552 17.365 1.149 2.797.83 5.227 2.55 8.108 3.126a4.99 4.99 0 0 1 1.586.937 36.954 36.954 0 0 0 8.202 4.286 2.44 2.44 0 0 1 .949.462c2.759 2.89 6.89 3.612 9.727 6.358.62.6 1.45.617 2.15.986 3.9 2.054 7.523 4.622 11.4 6.672 4.141 2.19 7.974 4.88 12.104 7.09 3.08 1.647 6.192 3.34 9.143 5.307 2.85 1.901 5.935 3.49 8.921 5.208a42.423 42.423 0 0 1 5.425 3.293 16.124 16.124 0 0 0 2.948 1.772 67.243 67.243 0 0 1 12 7.155.794.794 0 0 0 .226.138c3.647 1.197 6.485 3.88 9.882 5.528 1.841.893 3.36 2.402 5.217 3.13 3.986 1.563 7.33 4.232 10.986 6.33 4.797 2.753 9.743 5.293 14.35 8.338 3.614 2.388 7.713 3.884 11.081 6.734a28.185 28.185 0 0 0 5.743 3.195c4.996 2.488 9.495 5.799 14.36 8.493 2.994 1.657 5.912 3.502 8.903 5.133a101.697 101.697 0 0 1 9.318 5.48c3.638 2.52 7.645 4.347 11.41 6.607 3.21 1.926 6.476 3.868 9.842 5.593a84.466 84.466 0 0 1 8.986 5.564 27.642 27.642 0 0 0 4.35 2.442c3.534 1.586 6.668 3.901 9.967 5.915a27.874 27.874 0 0 0 3.175 1.86 25.967 25.967 0 0 1 6.126 3.636c2.095 1.729 4.789 2.616 7.14 4.04 1.736 1.052 3.53 1.998 5.202 3.17a154.265 154.265 0 0 0 7.052 4.695 34.425 34.425 0 0 1 6.073 5.118 9.465 9.465 0 0 1-.047 13.298c-3.44 3.611-7.632 6.286-11.798 8.96-4.387 2.817-9.137 5.055-13.4 8.01-4.456 3.092-9.468 5.083-13.94 8.054-4.997 3.32-10.31 6.067-15.446 9.135-6.88 4.111-13.815 8.126-20.704 12.217-5.684 3.375-11.48 6.558-17.09 10.073-3.208 2.01-6.623 3.754-9.83 5.757-3.296 2.058-6.85 3.612-10.073 5.775a17.556 17.556 0 0 1-3.434 1.987c-2.21.835-3.678 2.8-5.758 3.73-3.797 1.698-7.208 4.115-10.972 5.853-1.554.718-2.437 2.334-4.087 2.916-4.119 1.454-7.386 4.438-11.165 6.516-1.457.802-2.76 1.866-4.432 2.231a2.436 2.436 0 0 0-.959.446c-3.343 2.63-7.402 4.102-10.697 6.804-1.123.922-2.693.953-3.76 1.89-3.158 2.77-7.453 3.636-10.526 6.554-.477.453-1.298.516-1.93.825-4.05 1.977-7.7 4.632-11.502 7.03a12.697 12.697 0 0 1-2.107 1.09 12.603 12.603 0 0 0-2.86 1.366c-3.994 2.937-8.582 4.81-12.755 7.428-2.24 1.405-4.247 3.149-6.686 4.281a60.013 60.013 0 0 0-12.05 7.102 6.042 6.042 0 0 1-1.402.752 61.466 61.466 0 0 0-10.544 6.072c-4.26 2.906-9.474 3.957-13.293 7.549-3.767 1.208-7.227 3.25-11.113 4.15-2.733.634-5.372 1.726-9.226 1.559zm.022-9.525c2.292-.281 3.97.172 5.617-.463 1.78-.688 3.652-1.137 5.42-1.853 3.172-1.285 6.441-2.31 9.276-4.42a43.174 43.174 0 0 1 7.42-4.54c4.948-2.31 9.515-5.284 14.242-7.975 3.518-2.004 6.899-4.257 10.42-6.253 3.89-2.203 8.06-3.864 11.656-6.65a21.7 21.7 0 0 1 3.72-2.505c5.144-2.49 9.762-5.97 15.027-8.226 2.869-1.229 5.067-3.476 7.667-5.119 1.733-1.095 3.61-1.83 5.382-2.807 3.233-1.78 6.314-3.821 9.592-5.538 1.623-.85 3.543-1.31 4.85-2.617 3.198-3.196 7.314-4.924 11.123-7.01 3.702-2.029 7.364-4.135 11.011-6.256 4.565-2.654 8.861-5.845 13.587-8.14 4.933-2.395 9.407-5.504 14.104-8.255 1.221-.715 2.521-1.227 3.744-1.92 2.46-1.397 4.79-2.989 7.191-4.466 2.838-1.745 5.936-3.032 8.801-4.775 1.282-.779 2.232-1.92 3.62-2.62 2.03-1.026 4.083-2.059 6.058-3.205 4.778-2.774 9.621-5.466 14.194-8.561 5.42-3.669 11.498-6.075 16.955-9.694a124.013 124.013 0 0 1 11.033-6.688c2.725-1.423 5.21-3.356 8.004-4.593a35.741 35.741 0 0 0 5.046-2.77c3.919-2.549 7.469-5.65 11.6-7.889 2.634-1.427 3.258-4.269 4.35-6.759.233-.533-.069-1.027-.249-1.537-1.306-3.7-2.968-7.077-7.053-8.365a1.405 1.405 0 0 1-.455-.27c-3.545-2.957-7.671-5.027-11.448-7.639-4.04-2.793-8.542-4.9-12.837-7.315-3.062-1.722-6.217-3.305-9.14-5.245a62.817 62.817 0 0 0-5.932-3.855c-5.854-3.015-11.482-6.48-17.248-9.674-1.574-.872-2.658-2.343-4.24-3.168-3.034-1.58-6.047-3.2-9.077-4.787a102.362 102.362 0 0 1-8.916-5.137 166.236 166.236 0 0 0-14.759-8.757c-4.968-2.589-9.61-5.815-14.505-8.561-3.073-1.724-5.783-4.045-9.039-5.45a45.24 45.24 0 0 1-10.465-6.141 17.311 17.311 0 0 0-2.978-1.727 98.193 98.193 0 0 1-11.11-6.516 9.326 9.326 0 0 0-1.813-1.076 38.446 38.446 0 0 1-6.866-3.91 62.063 62.063 0 0 0-7.733-4.545 82.836 82.836 0 0 1-10.948-6.285c-3.306-2.223-6.786-4.087-10.18-6.122a27.505 27.505 0 0 0-4.79-2.787c-3.375-1.168-6.265-3.218-9.16-5.13-2.87-1.894-5.836-3.61-8.74-5.433-4.775-2.998-9.98-5.214-14.768-8.227-1.484-.934-2.747-2.146-4.31-3.008-2.23-1.23-4.56-2.263-6.757-3.584-2.71-1.63-5.295-3.576-8.3-4.633-3.97-1.396-7.636-3.587-11.73-4.618a18.226 18.226 0 0 0-9.113.032c-1.791.462-3.33 1.605-5.07 2.12a38.052 38.052 0 0 0-10.803 4.827 20.635 20.635 0 0 1-4.293 2.603 34.286 34.286 0 0 0-7.34 4.036c-5.352 3.593-11.088 6.49-16.666 9.675a66.053 66.053 0 0 0-6.618 3.822c-2.137 1.576-4.409 2.879-6.629 4.296-2.978 1.901-6.217 3.267-9.257 5.04-3.72 2.17-7.26 4.625-10.946 6.824-3.313 1.976-6.665 3.918-10.141 5.646-6.062 3.013-11.656 6.897-17.475 10.364a70.166 70.166 0 0 1-8.49 4.838 24.336 24.336 0 0 0-3.92 2.16 104.774 104.774 0 0 1-9.414 5.894c-5 2.566-9.622 5.815-14.744 8.156-1.416.648-2.513 2.001-3.92 2.681-3.259 1.574-6.094 3.843-9.352 5.454-4.558 2.253-8.832 5.097-13.235 7.675-4.704 2.755-9.344 5.616-14.19 8.124-4.052 2.095-7.852 4.675-11.706 7.105-6.258 3.945-13.06 6.88-19.113 11.231-4.196 3.017-8.927 5.289-13.494 7.748a174.438 174.438 0 0 0-15.471 9.556c-2.412 1.643-4.923 3.112-7.373 4.677-3.047 1.948-3.909 5.155-5.26 8.117a1.51 1.51 0 0 0 .117 1.029c1.407 3.464 3.414 6.61 6.55 8.555 2.706 1.679 5.26 3.579 7.97 5.22 5.338 3.233 10.774 6.297 16.172 9.425a6.321 6.321 0 0 1 .945.448c3.12 2.634 6.888 4.188 10.301 6.335 4.233 2.662 8.74 4.87 13.054 7.416 1.602.946 2.855 2.317 4.563 3.114 4.533 2.114 8.71 4.913 13.11 7.283 5.653 3.046 10.869 6.816 16.601 9.768 4.883 2.514 9.84 5.076 14.198 8.57a12.221 12.221 0 0 0 2.009 1.28c9.055 4.706 17.77 10.016 26.52 15.27a97.463 97.463 0 0 0 10.614 5.906 22.08 22.08 0 0 1 5.319 3.367 25.71 25.71 0 0 0 6.428 4.168c4.805 2.041 9.011 5.155 13.674 7.436a16.97 16.97 0 0 1 4.105 2.402c1.855 1.688 4.136 2.612 6.218 3.894 5.11 3.145 10.502 5.777 15.58 8.984 4.313 2.726 8.679 5.377 13.128 7.865 2.766 1.547 5.61 2.925 8.29 4.655 3.984 2.572 8.087 4.959 12.194 7.325 4.729 2.723 9.568 5.234 14.187 8.17a35.214 35.214 0 0 0 17.022 5.483z"/><path d="M961.95 709.735a35.214 35.214 0 0 1-17.021-5.483c-4.619-2.936-9.458-5.447-14.187-8.17-4.107-2.366-8.21-4.753-12.193-7.325-2.68-1.73-5.525-3.108-8.29-4.655-4.45-2.488-8.816-5.14-13.13-7.865-5.077-3.207-10.47-5.84-15.58-8.984-2.08-1.282-4.362-2.206-6.217-3.894a16.97 16.97 0 0 0-4.105-2.402c-4.663-2.281-8.869-5.395-13.674-7.436a25.71 25.71 0 0 1-6.429-4.168 22.08 22.08 0 0 0-5.318-3.367 97.463 97.463 0 0 1-10.613-5.906c-8.751-5.254-17.466-10.564-26.521-15.27a12.221 12.221 0 0 1-2.01-1.28c-4.357-3.494-9.314-6.055-14.197-8.57-5.732-2.952-10.948-6.722-16.6-9.768-4.4-2.37-8.578-5.169-13.11-7.283-1.709-.797-2.962-2.168-4.564-3.114-4.315-2.547-8.821-4.754-13.054-7.416-3.413-2.147-7.181-3.701-10.3-6.335a6.321 6.321 0 0 0-.946-.448c-5.398-3.128-10.834-6.192-16.171-9.424-2.712-1.642-5.265-3.542-7.97-5.22-3.137-1.947-5.144-5.092-6.55-8.556a1.51 1.51 0 0 1-.119-1.03c1.352-2.961 2.214-6.168 5.261-8.116 2.45-1.565 4.961-3.034 7.373-4.677a174.438 174.438 0 0 1 15.47-9.556c4.568-2.46 9.299-4.731 13.495-7.748 6.053-4.35 12.855-7.286 19.113-11.231 3.855-2.43 7.654-5.01 11.705-7.105 4.847-2.508 9.487-5.37 14.19-8.124 4.404-2.578 8.678-5.422 13.236-7.675 3.258-1.611 6.093-3.88 9.352-5.454 1.407-.68 2.504-2.033 3.92-2.68 5.122-2.342 9.744-5.59 14.744-8.157a104.774 104.774 0 0 0 9.415-5.894 24.336 24.336 0 0 1 3.92-2.16 70.166 70.166 0 0 0 8.489-4.838c5.82-3.467 11.413-7.351 17.475-10.364 3.476-1.728 6.828-3.67 10.14-5.646 3.687-2.2 7.227-4.654 10.947-6.824 3.04-1.773 6.279-3.139 9.257-5.04 2.22-1.417 4.492-2.72 6.629-4.296a66.053 66.053 0 0 1 6.618-3.822c5.578-3.185 11.314-6.082 16.666-9.675a34.286 34.286 0 0 1 7.34-4.036 20.635 20.635 0 0 0 4.293-2.603 38.052 38.052 0 0 1 10.803-4.826c1.74-.516 3.279-1.658 5.07-2.121a18.226 18.226 0 0 1 9.113-.032c4.094 1.031 7.76 3.222 11.73 4.618 3.005 1.057 5.59 3.003 8.3 4.633 2.196 1.32 4.528 2.354 6.758 3.584 1.562.862 2.825 2.074 4.31 3.008 4.788 3.013 9.992 5.23 14.768 8.227 2.903 1.823 5.87 3.54 8.738 5.433 2.896 1.912 5.786 3.962 9.162 5.13a27.505 27.505 0 0 1 4.788 2.787c3.395 2.035 6.875 3.899 10.181 6.122a82.836 82.836 0 0 0 10.948 6.285 62.063 62.063 0 0 1 7.732 4.545 38.446 38.446 0 0 0 6.867 3.91 9.326 9.326 0 0 1 1.814 1.076 98.193 98.193 0 0 0 11.109 6.516 17.311 17.311 0 0 1 2.978 1.727 45.24 45.24 0 0 0 10.465 6.142c3.256 1.404 5.966 3.725 9.039 5.449 4.894 2.746 9.537 5.972 14.505 8.561a166.236 166.236 0 0 1 14.76 8.757 102.362 102.362 0 0 0 8.915 5.137c3.03 1.586 6.043 3.207 9.076 4.788 1.583.825 2.667 2.295 4.24 3.167 5.767 3.195 11.395 6.66 17.249 9.674a62.817 62.817 0 0 1 5.932 3.855c2.923 1.94 6.078 3.523 9.14 5.245 4.295 2.416 8.796 4.522 12.837 7.316 3.777 2.611 7.903 4.68 11.448 7.638a1.405 1.405 0 0 0 .455.27c4.085 1.288 5.747 4.664 7.053 8.365.18.51.482 1.004.248 1.538-1.09 2.49-1.715 5.331-4.349 6.758-4.131 2.239-7.681 5.34-11.6 7.89a35.741 35.741 0 0 1-5.046 2.77c-2.794 1.236-5.279 3.17-8.004 4.592a124.013 124.013 0 0 0-11.033 6.688c-5.457 3.619-11.535 6.025-16.955 9.694-4.573 3.096-9.416 5.787-14.194 8.561-1.975 1.146-4.028 2.179-6.058 3.204-1.388.702-2.338 1.842-3.62 2.621-2.865 1.743-5.963 3.03-8.8 4.775-2.402 1.477-4.732 3.07-7.192 4.466-1.223.693-2.523 1.205-3.744 1.92-4.697 2.751-9.17 5.86-14.104 8.256-4.726 2.294-9.022 5.485-13.587 8.14-3.647 2.12-7.309 4.226-11.01 6.254-3.81 2.087-7.926 3.815-11.123 7.011-1.308 1.307-3.228 1.767-4.85 2.617-3.279 1.717-6.36 3.758-9.593 5.538-1.772.977-3.649 1.712-5.382 2.807-2.6 1.643-4.798 3.89-7.667 5.12-5.265 2.256-9.883 5.736-15.028 8.225a21.7 21.7 0 0 0-3.72 2.505c-3.595 2.786-7.765 4.447-11.654 6.65-3.523 1.996-6.903 4.25-10.421 6.253-4.727 2.691-9.294 5.665-14.243 7.975a43.174 43.174 0 0 0-7.42 4.54c-2.834 2.11-6.103 3.135-9.275 4.42-1.768.716-3.64 1.166-5.42 1.853-1.646.635-3.325.182-5.617.463z" class="cls-4"/></g><path d="M1829.98 1359.47a36.028 36.028 0 0 1 2.786-4.253l29.083 48.86 41.527 1.197c-1.11-1.87-1.747-3-2.438-4.096-14.194-22.528-28.347-45.083-42.658-67.537-1.67-2.619-1.741-4.374.027-7.01 9.645-14.373 19.06-28.9 28.55-43.377 6.915-10.545 13.827-21.093 21.347-32.566l-43.856.717-22.996 39.229c-2.8 5.005-5.653 9.981-8.804 15.54-1.208-2.025-2.07-3.382-2.849-4.786" class="cls-4"/><path d="M1836.335 1359.238a36.027 36.027 0 0 0-2.787-4.253l-29.083 48.86-41.527 1.197c1.11-1.87 1.747-3 2.437-4.096 14.195-22.529 28.348-45.083 42.659-67.537 1.669-2.619 1.74-4.374-.028-7.01-9.644-14.373-19.058-28.9-28.55-43.377-6.915-10.545-13.826-21.093-21.346-32.566l43.856.717 22.995 39.229c2.8 5.005 5.653 9.981 8.805 15.54 1.208-2.025 2.07-3.382 2.849-4.787" class="cls-4"/><path d="M1829.499 1359.47a36.027 36.027 0 0 1 2.786-4.253l29.084 48.86 41.526 1.197c-1.11-1.87-1.746-3-2.437-4.096-14.194-22.528-28.347-45.083-42.658-67.537-1.67-2.619-1.741-4.374.027-7.01 9.645-14.373 19.059-28.9 28.55-43.377 6.915-10.545 13.827-21.093 21.347-32.566l-43.857.717-22.995 39.229c-2.8 5.005-5.653 9.981-8.804 15.54-1.209-2.025-2.07-3.382-2.85-4.786" class="cls-4"/><path d="M1835.854 1359.238a36.027 36.027 0 0 0-2.786-4.253l-29.084 48.86-41.526 1.197c1.11-1.87 1.746-3 2.437-4.096 14.194-22.529 28.347-45.083 42.658-67.537 1.67-2.619 1.741-4.374-.027-7.01-9.645-14.373-19.059-28.9-28.55-43.377-6.915-10.545-13.827-21.093-21.347-32.566l43.857.717 22.995 39.229c2.8 5.005 5.653 9.981 8.804 15.54 1.209-2.025 2.07-3.382 2.85-4.787" class="cls-4"/><path fill="none" d="M791.544 1309.964c.557-.008 1.113-.006 1.67-.013h-2.842c.369.013.755.019 1.172.013z"/><path d="M785.3 1375.991v-35.441h3.579a12.882 12.882 0 0 1 1.832-.088c8.021.089 16.043.091 24.065.088h29.433c2.318-.294 3.021-1.5 2.912-4.422a207.558 207.558 0 0 1 .04-20.984c.22-3.442-.664-4.76-2.825-5.193h-51.122c-.557.007-1.113.005-1.67.013-.417.006-.803 0-1.172-.013h-5.167v-30.09h65.478v-28.352c-.674-.668-1.79-.93-3.539-.922q-47.733.205-95.468 0c-3.568-.014-4.42 1.062-4.4 4.506.143 24.158.076 48.317.075 72.476q0 36.738-.035 73.476c-.006 2.62.029 4.34 3.577 4.326q49.73-.184 99.462-.014c3.28.01 3.829-1.368 3.768-4.2-.154-7.162-.384-14.35.065-21.486a7.681 7.681 0 0 0-.437-3.68z" class="cls-3"/><path fill="#fff" d="M842.692 1340.627a11.188 11.188 0 0 0 1.517-.077h-29.433c9.306-.004 18.612-.017 27.916.077zm8.023-60.767c.633-.625.885-1.649.83-3.275a320.944 320.944 0 0 1 .004-21.488c.059-1.75-.162-2.89-.866-3.588v28.351zm-57.501 30.09h51.122a13.713 13.713 0 0 0-2.811-.183c-16.101.23-32.21-.014-48.31.184zm57.469-30.054c.012-.011.021-.024.032-.036h-.032z"/></svg>