<?xml version="1.0" encoding="UTF-8"?>
<svg id="AW" xmlns="http://www.w3.org/2000/svg" viewBox="2.72 2.55 106.549995 26.310001">
  <defs>
    <style>
      .cls-1, .cls-2 {
        fill: none;
      }

      .cls-3 {
        fill: #fff;
      }

      .cls-4 {
        fill: #009cde;
      }

      .cls-4, .cls-2 {
        stroke: #000;
        stroke-miterlimit: 10;
        stroke-width: 1.03px;
      }
    </style>
  </defs>
  <g>
    <g>
      <path class="cls-2" d="M11.54,22.61H4.67c-1.07,0-1.95-.88-1.95-1.95V4.5c0-1.08,.88-1.95,1.95-1.95H26.98c1.07,0,1.95,.88,1.95,1.95v2.15"/>
      <polygon points="8.14 18.41 7.44 19.16 11.15 22.61 7.44 26.05 8.14 26.8 12.66 22.61 8.14 18.41"/>
    </g>
    <rect x="5.55" y="5.38" width="2.07" height="2.07" rx="1.04" ry="1.04"/>
    <rect x="8.71" y="5.38" width="2.07" height="2.07" rx="1.04" ry="1.04"/>
    <rect x="11.87" y="5.38" width="2.07" height="2.07" rx="1.04" ry="1.04"/>
    <g>
      <circle class="cls-4" cx="24.05" cy="18.16" r="10.7"/>
      <circle class="cls-1" cx="24.04" cy="18.22" r="9.42"/>
    </g>
  </g>
  <path class="cls-3" d="M19.26,22.64h-2.57V13.17h5.7v2.05h-3.13v1.81h2.89v2.05h-2.89v3.56Z"/>
  <path class="cls-3" d="M32.09,22.64h-3.07l-1.92-2.96-1.9,2.96h-3l3.26-4.84-3.06-4.62h2.94l1.77,2.93,1.71-2.93h3.03l-3.11,4.82,3.35,4.64Z"/>
  <g>
    <path d="M51.99,14.93c0,2.51-.64,4.49-1.91,5.93-1.27,1.44-3.04,2.16-5.3,2.16s-4.1-.71-5.35-2.12c-1.26-1.42-1.89-3.41-1.89-5.99s.63-4.54,1.89-5.95c1.26-1.41,3.05-2.11,5.37-2.11s4.02,.72,5.29,2.15,1.9,3.41,1.9,5.93Zm-12.51,0c0,2.13,.45,3.74,1.36,4.84,.91,1.1,2.22,1.65,3.95,1.65s3.05-.55,3.94-1.64,1.33-2.71,1.33-4.84-.44-3.71-1.33-4.81c-.88-1.09-2.19-1.64-3.93-1.64s-3.06,.55-3.97,1.65c-.91,1.1-1.36,2.7-1.36,4.8Z"/>
    <path d="M58.51,23.02c-.77,0-1.47-.14-2.1-.42-.63-.28-1.17-.72-1.6-1.31h-.13c.09,.69,.13,1.34,.13,1.96v4.84h-1.78V11.03h1.45l.25,1.61h.09c.46-.64,.99-1.11,1.6-1.4s1.31-.43,2.09-.43c1.56,0,2.77,.53,3.62,1.6,.85,1.07,1.27,2.56,1.27,4.49s-.43,3.44-1.29,4.51c-.86,1.07-2.06,1.61-3.59,1.61Zm-.26-10.69c-1.2,0-2.07,.33-2.61,1s-.81,1.73-.83,3.18v.4c0,1.65,.28,2.84,.83,3.55,.55,.71,1.44,1.07,2.65,1.07,1.02,0,1.81-.41,2.39-1.24,.58-.82,.86-1.96,.86-3.41s-.29-2.59-.86-3.38c-.58-.79-1.39-1.18-2.43-1.18Z"/>
    <path d="M69.28,23.02c-1.74,0-3.11-.53-4.12-1.59-1.01-1.06-1.51-2.53-1.51-4.42s.47-3.41,1.4-4.52c.94-1.12,2.19-1.68,3.77-1.68,1.48,0,2.64,.49,3.5,1.46,.86,.97,1.29,2.25,1.29,3.84v1.13h-8.11c.04,1.38,.38,2.43,1.05,3.15,.66,.72,1.59,1.07,2.8,1.07,1.27,0,2.52-.26,3.76-.79v1.59c-.63,.27-1.23,.47-1.79,.58-.56,.12-1.24,.18-2.04,.18Zm-.48-10.71c-.95,0-1.7,.31-2.26,.92-.56,.62-.89,1.47-.99,2.56h6.16c0-1.12-.25-1.99-.75-2.58-.5-.6-1.22-.9-2.15-.9Z"/>
    <path d="M82.51,22.81v-7.62c0-.96-.22-1.68-.66-2.15s-1.12-.71-2.05-.71c-1.23,0-2.13,.33-2.71,1s-.86,1.77-.86,3.3v6.18h-1.78V11.03h1.45l.29,1.61h.09c.37-.58,.88-1.03,1.54-1.35,.66-.32,1.39-.48,2.2-.48,1.42,0,2.49,.34,3.2,1.03,.72,.68,1.07,1.78,1.07,3.28v7.68h-1.78Z"/>
    <path d="M89.12,22.81h-3.28V7.1h9v2.73h-5.73v4.05h5.33v2.72h-5.33v6.21Z"/>
    <path d="M109.27,22.81h-3.8l-3.65-5.94-3.65,5.94h-3.57l5.21-8.1-4.88-7.61h3.67l3.38,5.65,3.32-5.65h3.59l-4.93,7.79,5.31,7.92Z"/>
  </g>
</svg>