<?xml version="1.0" encoding="UTF-8"?>
<svg id="Layer_1" xmlns="http://www.w3.org/2000/svg" width="782.9" height="260.5" version="1.1" viewBox="0 0 782.9 260.5">
  <!-- Generator: Adobe Illustrator 29.0.0, SVG Export Plug-In . SVG Version: 2.1.0 Build 186)  -->
  <defs>
    <style>
      .st0 {
        fill: #0271e8;
      }

      .st1 {
        fill: #4c4c4c;
      }

      .st2 {
        fill: #ffcc01;
      }

      .st3 {
        fill: #eb0000;
      }
    </style>
  </defs>
  <g>
    <path class="st1" d="M319.7,0c.3,0,.5.1.6.4l27.5,66.3c0,.2,0,.4,0,.6s-.3.3-.5.3h-7.5c-.3,0-.5-.1-.6-.4l-10.8-26h-23.9l-10.8,26c0,.3-.3.4-.6.4h-7.5c-.2,0-.4,0-.5-.3s-.1-.4,0-.6L312.6.4c.1-.3.3-.4.6-.4h6.5ZM324.9,33l-8.5-20.5-8.5,20.5h17Z"/>
    <path class="st1" d="M377.5,28.7c.6.3,1.1.5,1.4.6l1.4.6c1.1.5,2.1,1,3,1.5,2.4,1.3,4.3,2.6,6,4,4.4,3.7,6.5,8.2,6.5,13.5s-2,10.3-5.9,13.7c-3.9,3.4-9.3,5-16,5s-9.6-1.1-14-3.3c-1.5-.8-3-1.7-4.3-2.7-.5-.4-1-.8-1.5-1.1-.3-.3-.7-.6-.9-.8-.3-.3-.3-.6,0-.9l5.4-5c.3-.3.6-.3.8,0,.2.2.5.4.7.6.3.3.7.5,1,.8.9.7,2,1.3,3.1,1.8,3,1.4,6.3,2.2,9.7,2.2,8.9,0,13.3-3.4,13.3-10.1s-1.1-4.9-3.4-6.8c-1.9-1.7-5.2-3.5-9.8-5.6h-.1s-2.2-1.1-2.2-1.1l-1.2-.5-1.3-.6c-1-.5-1.9-.9-2.7-1.4-2.1-1.1-3.9-2.3-5.4-3.5-3.9-3.4-5.9-7.5-5.9-12.3s1.8-9.4,5.3-12.4c3.5-3,8.4-4.6,14.5-4.6s8.6,1,12.5,2.9c1.4.7,2.7,1.5,3.9,2.4.4.3.9.6,1.3,1,.3.3.6.6.8.8.3.3.3.6,0,.9l-2.6,2.5-2.7,2.5c-.3.3-.6.3-.8,0-.2-.2-.4-.4-.6-.6-.3-.2-.6-.4-.9-.7-.8-.6-1.7-1-2.6-1.5-2.6-1.2-5.4-1.8-8.3-1.8-7.5,0-11.3,2.8-11.3,8.4s1,4.1,2.9,5.7c1.6,1.4,4.4,3,8.5,4.7h.1c0,0,2.2,1.1,2.2,1.1Z"/>
    <path class="st1" d="M465.5.2c.4,0,.6.2.6.7l-4.5,66.2c0,.4-.2.6-.6.6h-6.1c-.2,0-.4,0-.5-.3l-17.3-26.9-17.3,26.9c-.1.2-.3.3-.5.3h-6.2c-.4,0-.6-.2-.6-.6L407.9.8c0-.4.2-.7.6-.7h6.9c.4,0,.6.2.6.6l3.5,51.9,15.6-24.2c.1-.2.3-.3.5-.3h2.7c.2,0,.4,0,.5.3l15.5,24.2,3.5-51.8c0-.4.2-.6.6-.6h6.9Z"/>
    <path class="st1" d="M488.6,8.7v20.8h25.5c.4,0,.6.2.6.6v7.4c0,.4-.2.6-.6.6h-25.5v28.9c0,.4-.2.6-.6.6h-7.4c-.4,0-.6-.2-.6-.6V.7c0-.4.2-.6.6-.6h40.9c.4,0,.6.2.6.6v7.4c0,.4-.2.6-.6.6h-32.9Z"/>
    <path class="st1" d="M330.4,155.4c.4,0,.6.2.6.6v7.4c0,.4-.2.6-.6.6h-37.5c-.4,0-.6-.2-.6-.6v-66.2c0-.4.2-.6.6-.6h7.4c.4,0,.6.2.6.6v58.2h29.5Z"/>
    <path class="st1" d="M368.9,96.4c.3,0,.5.1.6.4l27.5,66.3c0,.2,0,.4,0,.6s-.3.3-.5.3h-7.5c-.3,0-.5-.1-.6-.4l-10.8-26h-23.9l-10.8,26c0,.3-.3.4-.6.4h-7.5c-.2,0-.4,0-.5-.3s-.1-.4,0-.6l27.5-66.3c.1-.3.3-.4.6-.4h6.5ZM374.1,129.4l-8.5-20.5-8.5,20.5h17Z"/>
    <path class="st1" d="M454.4,96.5c.4,0,.6.2.6.6v66.2c0,.4-.2.6-.6.6h-3.3c-.2,0-.3,0-.5-.2l-35.9-48v47.6c0,.4-.2.6-.6.6h-7c-.4,0-.6-.2-.6-.6v-66.2c0-.4.2-.6.6-.6h3.1c.2,0,.3,0,.5.3l36.2,48.3v-47.9c0-.4.2-.6.6-.6h7Z"/>
    <path class="st1" d="M525.6,129.1c.4,0,.6.2.6.6v22.6c0,.2,0,.3-.2.4l-.7.7c-6.4,6.5-13.9,9.9-22.6,10.4-4.9.3-9.6-.5-14.1-2.3-4.3-1.7-8.2-4.2-11.5-7.5-3.3-3.3-5.8-7.2-7.5-11.5-1.8-4.5-2.6-9.2-2.3-14.1.5-8.9,4-16.5,10.6-22.7s14.4-9.3,23.4-9.2c9.1,0,16.9,3.4,23.4,9.8.3.3.3.6,0,.9l-5.3,5.1c-.3.3-.6.2-.8,0-5.1-5-11.3-7.4-18.5-7.2-6.3.2-11.8,2.5-16.5,7-4.6,4.5-7.2,9.8-7.7,16.1-.6,7.3,1.6,13.7,6.6,19.1,5,5.3,11.1,8,18.4,8s12-2.1,16.7-6.4v-11.3h-11c-.4,0-.6-.2-.6-.6v-7.3c0-.4.2-.6.6-.6h19Z"/>
    <path class="st1" d="M587.4,96.6c.4,0,.6.2.6.6v42.6c0,6.6-2.3,12.2-7,17-4.6,4.7-10.3,7.1-16.9,7.3-6.8.1-12.5-2.3-17.4-7.2-4.8-4.9-7.2-10.7-7.2-17.5v-42.1c0-.4.2-.6.6-.6h7.3c.4,0,.6.2.6.6v42.2c0,4.3,1.4,8,4.3,11.1,2.9,3.1,6.5,4.8,10.7,4.9,4.4.2,8.2-1.3,11.4-4.4,3.2-3.1,4.8-6.9,4.8-11.3v-42.6c0-.4.2-.6.6-.6h7.3Z"/>
    <path class="st1" d="M631.4,96.4c.3,0,.5.1.6.4l27.5,66.3c0,.2,0,.4,0,.6s-.3.3-.5.3h-7.5c-.3,0-.5-.1-.6-.4l-10.8-26h-23.9l-10.8,26c0,.3-.3.4-.6.4h-7.5c-.2,0-.4,0-.5-.3s-.1-.4,0-.6l27.5-66.3c.1-.3.3-.4.6-.4h6.5ZM636.6,129.4l-8.5-20.5-8.5,20.5h17Z"/>
    <path class="st1" d="M722.8,129.1c.4,0,.6.2.6.6v22.6c0,.2,0,.3-.2.4l-.7.7c-6.4,6.5-13.9,9.9-22.6,10.4-4.9.3-9.6-.5-14.1-2.3-4.3-1.7-8.2-4.2-11.5-7.5-3.3-3.3-5.8-7.2-7.5-11.5-1.8-4.5-2.6-9.2-2.3-14.1.5-8.9,4-16.5,10.6-22.7s14.4-9.3,23.4-9.2c9.1,0,16.9,3.4,23.4,9.8.3.3.3.6,0,.9l-5.3,5.1c-.3.3-.6.2-.8,0-5.1-5-11.3-7.4-18.5-7.2-6.3.2-11.8,2.5-16.5,7-4.6,4.5-7.2,9.8-7.7,16.1-.6,7.3,1.6,13.7,6.6,19.1,5,5.3,11.1,8,18.4,8s12-2.1,16.7-6.4v-11.3h-11c-.4,0-.6-.2-.6-.6v-7.3c0-.4.2-.6.6-.6h19Z"/>
    <path class="st1" d="M782.3,96.6c.4,0,.6.2.6.6v7.3c0,.4-.2.6-.6.6h-35.8v20.9h25.9c.4,0,.6.2.6.6v7.3c0,.4-.2.6-.6.6h-25.9v20.9h35.8c.4,0,.6.2.6.6v7.3c0,.4-.2.6-.6.6h-43.8c-.4,0-.6-.2-.6-.6v-66.2c0-.4.2-.6.6-.6h43.8Z"/>
    <path class="st1" d="M300.4,193c.4,0,.6.2.6.6v66.2c0,.4-.2.6-.6.6h-7.4c-.4,0-.6-.2-.6-.6v-66.2c0-.4.2-.6.6-.6h7.4Z"/>
    <path class="st1" d="M365.7,193c.4,0,.6.2.6.6v66.2c0,.4-.2.6-.6.6h-3.3c-.2,0-.3,0-.5-.2l-35.9-48v47.6c0,.4-.2.6-.6.6h-7c-.4,0-.6-.2-.6-.6v-66.2c0-.4.2-.6.6-.6h3.1c.2,0,.3,0,.5.3l36.2,48.3v-47.9c0-.4.2-.6.6-.6h7Z"/>
    <path class="st1" d="M422.2,193c.4,0,.6.2.6.6v7.3c0,.4-.2.6-.6.6h-17.7v58.2c0,.4-.2.6-.6.6h-7.3c-.4,0-.6-.2-.6-.6v-58.2h-17.7c-.4,0-.6-.2-.6-.6v-7.3c0-.4.2-.6.6-.6h43.9Z"/>
    <path class="st1" d="M477.3,193c.4,0,.6.2.6.6v7.3c0,.4-.2.6-.6.6h-35.8v20.9h25.9c.4,0,.6.2.6.6v7.3c0,.4-.2.6-.6.6h-25.9v20.9h35.8c.4,0,.6.2.6.6v7.3c0,.4-.2.6-.6.6h-43.8c-.4,0-.6-.2-.6-.6v-66.2c0-.4.2-.6.6-.6h43.8Z"/>
    <path class="st1" d="M534.7,259.5c0,.2,0,.4,0,.6,0,.2-.3.3-.5.3h-8.4c-.3,0-.4-.1-.5-.3l-15.8-28.9h0s-11.6,0-11.6,0v28.5c0,.4-.2.6-.6.6h-7.3c-.4,0-.6-.2-.6-.6v-66.1c0-.4.2-.6.6-.6h24.8c5.4,0,10,1.9,13.7,5.8,3.8,3.9,5.6,8.5,5.4,13.9-.2,4.4-1.6,8.2-4.5,11.6-2.8,3.3-6.3,5.4-10.5,6.4l15.9,28.9ZM514.6,222.6c2.9,0,5.4-1,7.5-3.1,2.1-2.1,3.1-4.6,3.1-7.4s-1-5.4-3.1-7.5c-2.1-2-4.6-3.1-7.5-3.1h-16.8v21.1h16.8Z"/>
    <path class="st1" d="M575.6,193c9.3,0,17.2,3.3,23.8,9.9,6.6,6.6,9.9,14.5,9.9,23.8s-3.3,17.2-9.9,23.8c-6.6,6.6-14.5,9.9-23.8,9.9s-17.2-3.3-23.8-9.9c-6.6-6.6-9.9-14.5-9.9-23.8s3.3-17.2,9.9-23.8c6.6-6.6,14.5-9.9,23.8-9.9ZM575.6,251.8c6.9,0,12.8-2.4,17.7-7.3,4.9-4.9,7.3-10.8,7.3-17.8s-2.4-12.8-7.3-17.7c-4.9-4.9-10.8-7.3-17.7-7.3s-12.9,2.4-17.8,7.3c-4.9,4.9-7.3,10.8-7.3,17.7s2.4,12.9,7.3,17.8c4.9,4.9,10.8,7.3,17.8,7.3Z"/>
    <path class="st1" d="M648.7,193c5.4,0,10,1.9,13.8,5.8,3.8,3.9,5.6,8.6,5.5,14-.2,5.2-2.2,9.6-6,13.3-3.8,3.6-8.4,5.4-13.6,5.4h-16.5v28.4c0,.4-.2.6-.6.6h-7.4c-.4,0-.6-.2-.6-.6v-66.3c0-.4.2-.6.6-.6h24.9ZM648.7,222.8c2.9,0,5.5-1,7.5-3.1s3.1-4.6,3.1-7.5-1-5.4-3.1-7.5-4.6-3.1-7.5-3.1h-16.9v21.2h16.9Z"/>
  </g>
  <path class="st0" d="M69.8,153.7l-40.7-40.7c-1.3-1.3-2.5-2.8-3.4-4.5-1.7-3-2.6-6.5-2.6-10,0-5.4,2.1-10.6,6-14.4,3.9-3.8,9-6,14.4-6s6.3.7,9.1,2.2l16.8-16.8c-7.4-5.5-16.6-8.5-25.9-8.5-11.7,0-22.6,4.5-30.8,12.7C4.5,76,0,87,0,98.6c0,9.9,3.2,19.3,9.4,27,1.1,1.3,2.2,2.6,3.4,3.8l40.7,40.7,16.4-16.4Z"/>
  <path class="st3" d="M115,152.1l-16.4-16.4-18.9,18.9-3.7,3.7-18.1,18.1c-1.3,1.3-2.8,2.5-4.5,3.4-3,1.7-6.5,2.6-10,2.6-5.5,0-10.6-2.1-14.4-6-3.9-3.9-6-9-6-14.4,0-3.2.7-6.3,2.2-9.2l-16.8-16.8c-5.6,7.5-8.5,16.4-8.5,25.9s4.5,22.6,12.8,30.8c8.2,8.2,19.2,12.8,30.8,12.8,9.9,0,19.3-3.2,27-9.4,1.3-1,2.6-2.2,3.8-3.4l18.1-18.1,3.7-3.7,18.9-18.9Z"/>
  <polygon class="st3" points="115 61.6 98.7 45.2 79.8 64.1 76.1 67.8 58 85.9 54.3 89.6 35.4 108.5 51.8 124.9 70.7 106 74.4 102.3 92.4 84.2 96.1 80.5 115 61.6"/>
  <rect class="st2" x="108.9" y="85.5" width="23.2" height="89.5" transform="translate(-56.8 123.3) rotate(-45)"/>
  <polygon class="st3" points="142.2 215.3 161.1 196.4 164.8 192.7 182.9 174.6 186.6 171 205.5 152.1 189.1 135.7 170.2 154.6 166.5 158.3 148.4 176.4 144.7 180 125.8 198.9 142.2 215.3"/>
  <path class="st0" d="M240.9,161.9c0-9.9-3.2-19.3-9.4-27-1.1-1.3-2.2-2.6-3.4-3.8l-17.7-17.7h0s-22.9-22.9-22.9-22.9l-16.4,16.4,40.7,40.7c1.3,1.3,2.5,2.8,3.4,4.5,1.7,3,2.6,6.5,2.6,10,0,5.4-2.1,10.6-6,14.4-3.8,3.9-9,6-14.4,6s-6.3-.7-9.1-2.2l-16.8,16.8c8.1,6,18.1,9,28.3,8.5,10.7-.6,20.8-5.1,28.4-12.7,8.2-8.2,12.8-19.2,12.8-30.8Z"/>
  <path class="st3" d="M142.2,124.9l18.9-18.9,3.7-3.7,18.1-18.1c1.3-1.3,2.8-2.5,4.5-3.4,7.9-4.4,18-3,24.4,3.4,3.9,3.9,6,9,6,14.4s-.7,6.3-2.2,9.2l16.8,16.8c5.6-7.5,8.5-16.4,8.5-25.9s-4.5-22.6-12.8-30.8c-8.2-8.2-19.2-12.7-30.8-12.7-9.8,0-19.4,3.3-27,9.4-1.3,1-2.6,2.2-3.8,3.4l-18.1,18.1-3.7,3.7-18.9,18.9,16.4,16.4Z"/>
  <polygon class="st0" points="119.6 203.5 119.2 203.1 97 180.9 80.6 197.3 104.1 220.7 121.3 238 121.7 238.3 143.9 260.5 160.3 244.2 136.8 220.7 119.6 203.5"/>
  <polygon class="st0" points="121.3 57 121.7 57.4 143.9 79.6 160.3 63.3 136.8 39.8 119.6 22.6 119.2 22.2 97 0 80.6 16.4 104.1 39.8 121.3 57"/>
</svg>