<svg id="Layer_1" data-name="Layer 1" xmlns="http://www.w3.org/2000/svg" viewBox="10.704802 7.1697245 361.08887 376.66037"><path d="M19.48516,239.04088a2.80357,2.80357,0,0,1,2.68407-2.83369h36.39c28.78344,0,52.347,23.41441,52.347,52.04869a52.41426,52.41426,0,0,1-52.347,52.347h-36.39a2.80355,2.80355,0,0,1-2.68407-2.83368Zm37.58235,79.48966c16.852,0,29.08178-13.273,29.08178-30.27466,0-16.85251-12.22973-30.12549-29.08179-30.12549H42.75041v60.40015Z"/><path d="M129.09985,239.04088a2.83184,2.83184,0,0,1,2.83-2.83369h35.94573c18.34368,0,33.40666,14.9138,33.40666,32.95918a33.54484,33.54484,0,0,1-33.25751,33.55585H152.3651v35.047a2.93275,2.93275,0,0,1-2.83324,2.83368H131.934a2.83183,2.83183,0,0,1-2.83414-2.82953V239.04088Zm37.43323,41.90726a11.71155,11.71155,0,0,0,11.78224-11.64041q.00043-.07068,0-.14139c0-6.26358-5.369-11.036-11.78224-11.036h-14.168v22.81775Z"/><path d="M216.49527,239.04088a2.83184,2.83184,0,0,1,2.83-2.83369H281.072a2.83164,2.83164,0,0,1,2.83322,2.83006v16.25946a2.83192,2.83192,0,0,1-2.83017,2.83368H239.7605v18.49289h34.00333A2.93357,2.93357,0,0,1,276.598,279.457v16.25583a2.83214,2.83214,0,0,1-2.83056,2.83368H239.7605v20.13321H281.072a2.83192,2.83192,0,0,1,2.83322,2.83062v16.25888a2.83162,2.83162,0,0,1-2.82959,2.83368H219.32941a2.83182,2.83182,0,0,1-2.83414-2.82953V239.04088Z"/><path d="M303.89069,239.04088a2.83182,2.83182,0,0,1,2.83-2.83369h17.75116a2.93278,2.93278,0,0,1,2.83322,2.83369v79.63883h35.495a2.83132,2.83132,0,0,1,2.83322,2.82946v16.26a2.831,2.831,0,0,1-2.82831,2.83368H306.72482a2.83183,2.83183,0,0,1-2.83413-2.82953V239.04088Z"/><path d="M19.75145,358.1985a.33639.33639,0,0,1,.30827-.334h5.4504a8.998,8.998,0,1,1,.11447,17.99564q-.05723.00036-.11447,0h-5.4504a.33685.33685,0,0,1-.30828-.33451Zm5.553,16.556a7.89279,7.89279,0,1,0,.15167-15.78485q-.07584-.00072-.15167,0H20.95968V374.7545Z"/><path d="M37.33983,359.68972a.87435.87435,0,1,1,1.74794-.05155q.00075.02577,0,.05155a.87437.87437,0,0,1-1.74794,0Zm.30873,6.2211a.34008.34008,0,0,1,.334-.334h.46294a.34007.34007,0,0,1,.334.334v9.61483a.29885.29885,0,0,1-.334.33451h-.51438a.29934.29934,0,0,1-.28427-.31369l.00176-.02082Z"/><path d="M43.33038,372.235a4.47272,4.47272,0,0,1-.7969-2.57016,4.21222,4.21222,0,0,1,4.49891-4.34521h4.2164a.32392.32392,0,0,1,.334.31351c.00022.007.00021.014,0,.021v.2825a.30223.30223,0,0,1-.23143.30872l-1.851.12836a3.49825,3.49825,0,0,1,1.59426,3.2911,4.14544,4.14544,0,0,1-4.02018,4.267q-.12386.00366-.24776,0a3.89993,3.89993,0,0,1-2.802-.92572,2.11675,2.11675,0,0,0-1.3113,1.85147c0,1.20868,1.02834,1.49075,2.03091,1.49075h3.72778c2.21126,0,3.80462,1.00257,3.80462,3.29068,0,2.18595-2.10775,4.19111-5.24429,4.19111-3.49635,0-5.01285-2.05668-5.01285-3.80509a3.20077,3.20077,0,0,1,1.61957-2.69943,2.56813,2.56813,0,0,1-2.00514-2.33963A3.2565,3.2565,0,0,1,43.33038,372.235Zm3.67671,10.541c2.31341,0,4.08758-1.36328,4.08758-3.11078,0-1.18246-.72007-2.26279-2.6226-2.26279H45.23292a2.78963,2.78963,0,0,0-2.08244,2.49424c0,1.41387,1.36283,2.8793,3.85661,2.8793Zm3.0077-13.13739a3.05624,3.05624,0,0,0-3.1623-3.29068,3.15181,3.15181,0,0,0-3.26592,3.03342q-.00474.12862.001.25726a3.08019,3.08019,0,0,0,3.26491,3.29068,3.11276,3.11276,0,0,0,3.16694-3.05762Q50.02149,369.75511,50.01479,369.6386Z"/><path d="M54.25831,359.68972a.87457.87457,0,0,1,1.74841-.05082q.00073.02541,0,.05082a.87461.87461,0,0,1-1.74841,0Zm.30918,6.2211a.3397.3397,0,0,1,.3336-.334H55.364a.34047.34047,0,0,1,.33449.334v9.61483a.299.299,0,0,1-.33449.33451H54.8505a.29967.29967,0,0,1-.28471-.31394l.00171-.02057Z"/><path d="M60.045,366.57933H58.83634c-.25675,0-.30829-.12838-.30829-.334V365.834c0-.1799.12837-.2572.30829-.2572H60.045v-2.80206a.32382.32382,0,0,1,.3128-.33448q.01038-.00036.02078,0l.43756-.02575a.34088.34088,0,0,1,.33449.3345v2.82782h3.57273a.32391.32391,0,0,1,.33447.313c.00024.007.00024.014,0,.021v.33451a.31045.31045,0,0,1-.33449.334H61.15066v6.556c0,1.2078.12836,1.87677,1.33615,1.87677a5.49683,5.49683,0,0,0,2.33963-.6943c.23143-.12836.33449-.02622.41133.10306l.1799.30828a.29564.29564,0,0,1-.07684.43665,5.1193,5.1193,0,0,1-2.9824.95105c-2.13351,0-2.31341-1.25931-2.31341-2.90466Z"/><path d="M71.56329,369.22725a8.451,8.451,0,0,1,2.59638.46286c0-2.26233-.23144-3.39374-2.26279-3.39374a7.55291,7.55291,0,0,0-3.08455.69431.26889.26889,0,0,1-.386-.20566l-.12837-.30826c-.07684-.23141.02621-.3345.15459-.38556a7.43542,7.43542,0,0,1,3.5221-.77157c3.13609,0,3.26446,1.87677,3.26446,4.4989v5.70715a.3401.3401,0,0,1-.33359.33451h-.3092c-.1799,0-.25674-.10306-.30828-.283l-.10305-.92572a5.36932,5.36932,0,0,1-3.57274,1.46545,3.23873,3.23873,0,0,1-3.37079-3.10107q-.00663-.15894.00237-.318C67.24382,370.718,68.86385,369.22725,71.56329,369.22725Zm-.82267,5.887a4.67907,4.67907,0,0,0,3.419-1.59382v-2.82782a6.67587,6.67587,0,0,0-2.59639-.5397c-1.95452,0-3.26535,1.00256-3.26535,2.51953a2.321,2.321,0,0,0,2.44274,2.44187Z"/><path d="M79.046,358.1985a.34049.34049,0,0,1,.33449-.334h.46286a.3397.3397,0,0,1,.33359.334v17.32712a.29831.29831,0,0,1-.33359.33451h-.51439a.29967.29967,0,0,1-.28471-.31391l.00171-.0206Z"/><path d="M90.43675,358.1985a.34048.34048,0,0,1,.33448-.334H96.2985a5.79712,5.79712,0,0,1,.03468,11.59418l-.00847,0H91.64543v6.06695c0,.1799-.15458.33451-.41134.33451h-.46286a.34087.34087,0,0,1-.33448-.33451ZM96.247,368.2762a4.69048,4.69048,0,0,0,4.653-4.6788,4.61491,4.61491,0,0,0-4.67837-4.52469h-4.5762v9.20349Z"/><path d="M104.42572,365.91082a.3405.3405,0,0,1,.33449-.334h.30827a.30615.30615,0,0,1,.30828.283l.10306,1.05411a3.945,3.945,0,0,1,3.21383-1.59427,4.24738,4.24738,0,0,1,1.59381.30871c.23143.07685.3598.25675.283.46286l-.20612.51395c-.07685.1799-.23143.20566-.41134.12836a3.27674,3.27674,0,0,0-1.33615-.30826,3.61446,3.61446,0,0,0-3.06015,1.77371v7.32672a.29826.29826,0,0,1-.33359.33451h-.51439a.29967.29967,0,0,1-.28472-.31394l.00172-.02057Z"/><path d="M117.07584,365.31957a5.40382,5.40382,0,1,1-5.16234,5.635q-.00573-.13083-.00511-.26184A5.28007,5.28007,0,0,1,117.07584,365.31957Zm0,9.74319a4.34062,4.34062,0,1,0-4.053-4.61029q-.00771.11994-.00878.24021a4.17349,4.17349,0,0,0,3.97082,4.36676Q117.03032,375.06159,117.07584,375.06276Z"/><path d="M129.70151,365.31957a5.18985,5.18985,0,0,1,3.16229,1.02832V358.1985a.32373.32373,0,0,1,.31307-.334q.01024-.00031.02052,0h.46286a.336.336,0,0,1,.30827.334v17.32712a.34008.34008,0,0,1-.33357.33451h-.25764a.33035.33035,0,0,1-.35982-.33451l-.07685-.8995a4.98245,4.98245,0,0,1-3.54832,1.49075c-2.67322,0-4.75521-2.39026-4.75521-5.39886a5.124,5.124,0,0,1,4.84193-5.39133Q129.59018,365.32068,129.70151,365.31957Zm-.23143,9.76941a4.083,4.083,0,0,0,3.39372-1.82523v-5.7587a4.84214,4.84214,0,0,0-3.05923-1.07986,4.04367,4.04367,0,0,0-4.04419,4.04315q0,.12487.00769.24963c0,2.39118,1.5423,4.371,3.702,4.371Z"/><path d="M137.72481,365.91082a.3397.3397,0,0,1,.33359-.334h.46287a.3405.3405,0,0,1,.33449.334v5.52771c0,2.39025,1.10564,3.599,3.05923,3.599a4.28211,4.28211,0,0,0,3.39373-1.79992v-7.32672a.31014.31014,0,0,1,.33358-.334h.46286a.34049.34049,0,0,1,.33451.334v9.61483a.34088.34088,0,0,1-.33451.33451h-.30827c-.20611,0-.283-.1546-.30827-.30826l-.103-1.00256a4.686,4.686,0,0,1-3.54742,1.56759c-2.87934,0-4.11335-1.77371-4.11335-4.67837Z"/><path d="M154.97644,365.31957a4.97037,4.97037,0,0,1,3.80507,1.61957.30839.30839,0,0,1-.05153.46286l-.25674.2572c-.18082.1799-.386.1026-.54062-.05155a4.28593,4.28593,0,1,0-2.98149,7.42978,4.15413,4.15413,0,0,0,3.21293-1.517c.1799-.20523.33449-.20523.48908-.05154l.28206.25766c.12927.12836.1799.25674.07774.41132a5.125,5.125,0,0,1-4.0365,1.97894,5.39865,5.39865,0,0,1,0-10.7973h0Z"/><path d="M162.58928,366.57933h-1.20869c-.25675,0-.30828-.12838-.30828-.334V365.834c0-.1799.12837-.2572.30828-.2572h1.20869v-2.80206a.32383.32383,0,0,1,.31281-.33448q.01038-.00036.02078,0l.43754-.02575a.34088.34088,0,0,1,.33449.3345v2.82782h3.57273a.32392.32392,0,0,1,.33447.313c.00023.007.00024.014,0,.021v.33451a.31044.31044,0,0,1-.33448.334H163.6949v6.556c0,1.2078.12837,1.87677,1.33617,1.87677a5.49645,5.49645,0,0,0,2.33963-.6943c.23143-.12836.33449-.02622.41133.10306l.17992.30828a.29565.29565,0,0,1-.07685.43665,5.11927,5.11927,0,0,1-2.98239.95105c-2.13351,0-2.31341-1.25931-2.31341-2.90466Z"/><path d="M170.30251,359.68972a.87457.87457,0,1,1,1.74839-.051q.00073.0255,0,.051a.87461.87461,0,0,1-1.74839,0Zm.30827,6.2211a.3405.3405,0,0,1,.33449-.334h.46286a.34048.34048,0,0,1,.3345.334v9.61483a.299.299,0,0,1-.3345.33451h-.51439a.29967.29967,0,0,1-.28471-.31394l.0017-.02057Z"/><path d="M180.047,365.31957a5.40382,5.40382,0,1,1-5.16234,5.635q-.00572-.13083-.00511-.26184A5.28007,5.28007,0,0,1,180.047,365.31957Zm0,9.74319a4.34062,4.34062,0,1,0-4.053-4.61029q-.00772.11994-.00878.24021a4.17349,4.17349,0,0,0,3.97082,4.36676Q180.00152,375.06159,180.047,375.06276Z"/><path d="M188.35327,365.91082a.34653.34653,0,0,1,.35846-.33408l.00134.00006h.25765a.28764.28764,0,0,1,.30827.2572l.10306,1.1052a5.49291,5.49291,0,0,1,3.80417-1.61957c2.88023,0,4.13956,1.82522,4.13956,4.705v5.501a.34089.34089,0,0,1-.33451.33451h-.46286a.34009.34009,0,0,1-.33358-.33451v-5.501c0-2.36539-1.10564-3.5994-3.05924-3.5994a5.27273,5.27273,0,0,0-3.6767,1.77371v7.32672a.299.299,0,0,1-.3345.33451h-.48817a.29967.29967,0,0,1-.28472-.31394l.00171-.02057Z"/><path d="M207.432,358.1985a.34049.34049,0,0,1,.33448-.334H218.076a.33969.33969,0,0,1,.33358.334v.43711a.33968.33968,0,0,1-.33358.334h-9.41007v7.09574h8.14984a.34052.34052,0,0,1,.33451.334v.4371a.34049.34049,0,0,1-.33451.334h-8.14984v7.61014H218.076a.33929.33929,0,0,1,.33358.33359v.41134a.34007.34007,0,0,1-.33358.3345H207.76643a.34087.34087,0,0,1-.33448-.3345Z"/><path d="M224.55791,370.58962l-3.57364-4.65305c-.15459-.1799-.05153-.3598.15369-.3598h.669a.48573.48573,0,0,1,.38512.23141l3.0086,3.985h.02532l3.03393-3.985a.48571.48571,0,0,1,.38512-.23141h.669c.20521,0,.30827.1799.15368.3598l-3.54742,4.62775,3.72733,4.936c.15458.1799.05152.35981-.15369.35981h-.669a.48454.48454,0,0,1-.38511-.23142l-3.21384-4.29324h-.02532l-3.21383,4.29324a.48608.48608,0,0,1-.386.23142h-.66808c-.20611,0-.30827-.17991-.15459-.35981Z"/><path d="M236.07707,369.22725a8.451,8.451,0,0,1,2.59638.46286c0-2.26233-.23143-3.39374-2.26279-3.39374a7.55283,7.55283,0,0,0-3.08455.69431.26888.26888,0,0,1-.386-.20566l-.12839-.30826c-.07684-.23141.02622-.3345.15459-.38556a7.43549,7.43549,0,0,1,3.52211-.77157c3.13608,0,3.26447,1.87677,3.26447,4.4989v5.70715a.3401.3401,0,0,1-.33359.33451h-.30918c-.1799,0-.25674-.10306-.30827-.283l-.10306-.92572a5.3691,5.3691,0,0,1-3.57272,1.46545,3.23876,3.23876,0,0,1-3.37079-3.10107q-.00663-.15894.00237-.318C231.75762,370.718,233.37764,369.22725,236.07707,369.22725Zm-.82266,5.887a4.67909,4.67909,0,0,0,3.419-1.59382v-2.82782a6.67589,6.67589,0,0,0-2.59638-.5397c-1.95451,0-3.26536,1.00256-3.26536,2.51953a2.32105,2.32105,0,0,0,2.44273,2.44187Z"/><path d="M243.55974,365.91082a.3405.3405,0,0,1,.33449-.334h.30827a.28011.28011,0,0,1,.283.2572l.12837,1.1052a4.48559,4.48559,0,0,1,3.54832-1.61957,3.56769,3.56769,0,0,1,3.36753,1.87677,5.20692,5.20692,0,0,1,3.85568-1.87677c2.80249,0,4.0112,1.82522,4.0112,4.705v5.501a.34087.34087,0,0,1-.33451.33451h-.5144a.30009.30009,0,0,1-.28363-.31565l.00162-.01886v-5.501c0-2.36539-1.02878-3.5994-2.9571-3.5994a4.40541,4.40541,0,0,0-3.39372,1.74792,6.73721,6.73721,0,0,1,.23143,1.85148v5.501a.34009.34009,0,0,1-.33359.33451h-.48907a.3042.3042,0,0,1-.30974-.29853.30026.30026,0,0,1,.00147-.036v-5.501c0-2.36539-1.0541-3.5994-2.98241-3.5994a4.14767,4.14767,0,0,0-3.34221,1.77371v7.32672a.29828.29828,0,0,1-.33357.33451h-.51441a.29967.29967,0,0,1-.28471-.31394l.00171-.02057Z"/><path d="M264.28467,383.23882a.34011.34011,0,0,1-.3345.33359h-.43668a.3401.3401,0,0,1-.3345-.33359v-17.328a.34532.34532,0,0,1,.3562-.33414l.0036.00012h.283a.271.271,0,0,1,.30591.23087l.00238.02633.07773.71961a5.20124,5.20124,0,0,1,3.36752-1.234,5.10523,5.10523,0,0,1,4.96808,5.23877q-.00216.07987-.00675.15964a5.16427,5.16427,0,0,1-4.92422,5.39364q-.13418.00609-.26853.00522a4.69369,4.69369,0,0,1-3.05923-1.05411Zm2.93088-8.20136a4.134,4.134,0,0,0,4.19513-4.072q.002-.13646-.005-.27279a4.01084,4.01084,0,0,0-3.68969-4.30811q-.10859-.00842-.21753-.01089a4.10508,4.10508,0,0,0-3.18851,1.43966v6.01541a4.01529,4.01529,0,0,0,2.90552,1.20868Z"/><path d="M275.70166,358.1985a.3405.3405,0,0,1,.3345-.334h.46286a.33967.33967,0,0,1,.33359.334v17.32712a.29831.29831,0,0,1-.33359.33451h-.5144a.29967.29967,0,0,1-.2847-.31394l.00171-.02057Z"/><path d="M285.06021,365.31957a4.52449,4.52449,0,0,1,4.65479,4.39035q.00462.15733-.00174.31463c0,.41132,0,1.00257-.386,1.00257H281.1268a4.06041,4.06041,0,0,0,4.01029,4.0618,5.49109,5.49109,0,0,0,3.03393-.951c.23142-.1546.33359-.1799.46286,0l.25675.3598c.07684.10306.05154.25674-.10306.41132a6.21543,6.21543,0,0,1-3.72733,1.20779c-3.137,0-5.06439-2.41647-5.06439-5.42419C279.99582,367.76183,281.92322,365.31957,285.06021,365.31957Zm3.5221,4.78186a3.46,3.46,0,0,0-3.5221-3.75354,3.82563,3.82563,0,0,0-3.9079,3.74154l-.00024.012Z"/><path d="M299.09979,358.1985a.3405.3405,0,0,1,.33451-.334h.56591a.33674.33674,0,0,1,.30826.334v16.58219h8.20139c.30829,0,.33359.15369.33359.33359v.46286a.29889.29889,0,0,1-.31238.28473l-.02121-.00174H299.4343a.34087.34087,0,0,1-.33451-.33451Z"/><path d="M310.59458,359.68972a.87457.87457,0,1,1,1.74841-.05042q.00074.02519,0,.05042a.87461.87461,0,0,1-1.74841,0Zm.30828,6.2211a.34046.34046,0,0,1,.33451-.334h.46286a.33967.33967,0,0,1,.33358.334v9.61483a.2983.2983,0,0,1-.33358.33451h-.51441a.29966.29966,0,0,1-.2847-.31394l.00171-.02057Z"/><path d="M315.94281,358.1985a.3405.3405,0,0,1,.3345-.334h.43665a.34049.34049,0,0,1,.3345.334v8.14939a5.31242,5.31242,0,0,1,3.18763-1.02832,5.09712,5.09712,0,0,1,5.04629,5.14743q-.00109.11293-.00723.22568c0,3.00772-2.082,5.42419-4.72989,5.42419a4.94432,4.94432,0,0,1-3.57364-1.51605l-.07776.92483a.32951.32951,0,0,1-.3598.33451h-.25675a.34087.34087,0,0,1-.3345-.33451Zm4.49936,16.89048c2.15973,0,3.72733-1.97983,3.72733-4.371a4.064,4.064,0,0,0-3.82877-4.28634q-.11641-.00655-.233-.00644a4.80938,4.80938,0,0,0-3.033,1.07986v5.75867A4.06241,4.06241,0,0,0,320.44217,375.089Z"/><path d="M328.43924,365.91082a.34048.34048,0,0,1,.3345-.334h.30829a.30611.30611,0,0,1,.30826.283l.10306,1.05411a3.945,3.945,0,0,1,3.21384-1.59427,4.24738,4.24738,0,0,1,1.59381.30871c.23141.07685.3598.25675.283.46286l-.20612.51395c-.07684.1799-.23141.20566-.41132.12836a3.27681,3.27681,0,0,0-1.33615-.30826,3.61447,3.61447,0,0,0-3.06015,1.77371v7.32672a.29827.29827,0,0,1-.33358.33451h-.51441a.29968.29968,0,0,1-.2847-.31394l.00171-.02057Z"/><path d="M340.26758,369.22725a8.451,8.451,0,0,1,2.59637.46286c0-2.26233-.23144-3.39374-2.26278-3.39374a7.553,7.553,0,0,0-3.08457.69431.26886.26886,0,0,1-.386-.20566l-.12836-.30826c-.07684-.23141.02621-.3345.1546-.38556a7.43547,7.43547,0,0,1,3.5221-.77157c3.13607,0,3.26446,1.87677,3.26446,4.4989v5.70715a.3401.3401,0,0,1-.33359.33451h-.30917c-.1799,0-.25674-.10306-.30826-.283l-.10306-.92572a5.36929,5.36929,0,0,1-3.57272,1.46545,3.23877,3.23877,0,0,1-3.37079-3.10107q-.00658-.15894.00238-.318C335.94812,370.718,337.56815,369.22725,340.26758,369.22725Zm-.82266,5.887a4.679,4.679,0,0,0,3.419-1.59382v-2.82782a6.67569,6.67569,0,0,0-2.59637-.5397c-1.95361,0-3.26535,1.00256-3.26535,2.51953a2.321,2.321,0,0,0,2.44272,2.44187Z"/><path d="M347.74933,365.91082a.34048.34048,0,0,1,.3345-.334h.30829a.30611.30611,0,0,1,.30826.283l.10306,1.05411a3.945,3.945,0,0,1,3.21383-1.59427,4.2474,4.2474,0,0,1,1.59382.30871c.23141.07685.3598.25675.283.46286l-.20611.51395c-.07684.1799-.23142.20566-.41132.12836a3.27681,3.27681,0,0,0-1.33615-.30826,3.61447,3.61447,0,0,0-3.06015,1.77371v7.32672a.29826.29826,0,0,1-.33359.33451h-.5144a.29967.29967,0,0,1-.2847-.31394l.00171-.02057Z"/><path d="M354.74384,365.98806c-.10306-.20566-.07776-.41132.15368-.41132h.56592a.38149.38149,0,0,1,.3345.23141l4.39539,8.68955h.05154l4.01029-8.68955a.38151.38151,0,0,1,.3345-.23141h.56592c.23141,0,.25674.20566.15369.41132l-8.07209,17.37908a.3712.3712,0,0,1-.3345.20521h-.59125c-.2052,0-.283-.12836-.1799-.35981l3.47058-7.45553Z"/><path d="M203.16266,214.102q-48.40474,0-96.80945-.02989c-4.09551-.00683-8.15261.47008-12.23941.5295a81.74239,81.74239,0,0,1-80.08309-58.95006C.14648,107.76358,31.3066,60.48606,78.21807,52.085a81.638,81.638,0,0,1,26.08185-.444c1.00252.14293,1.90831.40359,2.716-.8205,14.17126-21.47758,33.85039-35.21274,58.94988-40.65616C200.111,2.75913,231.646,8.96189,259.67511,30.17751,276.40326,42.83927,286.141,60.22235,291.1666,80.36545c1.41161,5.65785.90408,6.51555,8.95187,6.57387,25.17791.18245,46.14142,9.41046,61.10746,30.13839A55.03474,55.03474,0,0,1,371.514,155.0445c-1.7791,19.46962-11.15969,34.86174-27.56663,45.52079a81.7577,81.7577,0,0,1-44.8211,13.59124C267.13846,214.369,235.15166,214.64839,203.16266,214.102Zm-68.95154-10.78269a1.563,1.563,0,0,0,1.56871.628q19.75567.266,39.51164.51129c29.9368.32239,59.86874-.49936,89.80478-.41031,11.19905.03331,22.39977-.09,33.59693.06268A64.42434,64.42434,0,0,0,341.5233,189.3997c15.26824-12.45622,21.74509-28.62382,18.241-48.17529-2.82-15.73452-12.27922-27.06827-25.49531-35.42951-9.83559-6.22255-20.84267-8.62478-32.33979-9.13759a127.94588,127.94588,0,0,0-16.04012.49917c-3.02373.24479-4.11647-.65537-4.4775-3.6676a18.99323,18.99323,0,0,1-.13022-2.10779,57.38157,57.38157,0,0,0-2.90923-16.99629c-5.2258-16.438-15.7302-29.03929-29.45672-38.90077-26.50016-19.03839-55.86627-22.3539-86.70937-13.85038A77.89718,77.89718,0,0,0,118.02789,52.769c-.95,1.35723-.87047,1.746.75941,2.36563,33.0694,12.57136,52.19683,36.32093,55.35684,71.65363,2.28151,25.51-6.619,47.40659-25.1042,65.27285A84.53218,84.53218,0,0,1,134.21112,203.31931Zm-41.64863-.0205A70.58782,70.58782,0,0,0,92.8572,62.12354c-38.59894-.10209-70.69307,31.4331-70.82416,69.70254C21.89738,171.43038,53.21813,203.17,92.56249,203.29881Z"/><path d="M292.45363,176.35339c.00439-3.372.4201-6.75937-.2683-10.1143-.89259-4.35017-2.92123-5.41431-6.91626-3.54471-6.42821,3.0083-12.8412,6.04925-19.27354,9.04867a6.31284,6.31284,0,0,1-7.28287-.94064,3.53659,3.53659,0,0,1-.15509-5.68707,20.82507,20.82507,0,0,1,5.05146-3.42086c4.93743-2.55011,9.89969-5.05286,14.81725-7.64058,4.05247-2.13249,4.2657-4.92464.69614-7.8086-2.56974-2.07619-5.68647-3.04037-8.652-4.31179-2.38707-1.02338-4.808-1.96974-7.17622-3.03426A10.66489,10.66489,0,0,1,258.811,135.156c-1.15367-1.6775-1.72855-3.37806-.54093-5.28946,1.14944-1.84993,2.94077-2.293,4.9267-2.21894a10.14762,10.14762,0,0,1,3.9708,1.32665q8.836,4.25577,17.68944,8.47525a11.77907,11.77907,0,0,0,2.16133.8307c2.45184.6168,3.91981-.187,4.73855-2.60138a16.31165,16.31165,0,0,0,.81523-5.19594c.01479-4.36257-.05426-8.72536-.0802-13.08812a11.47413,11.47413,0,0,1,.50227-3.752,5.21124,5.21124,0,0,1,10.16847.21381c1.02874,4.14375.85128,8.38577.81884,12.61068-.01728,2.25245-.10613,4.51215.03332,6.7564.28582,4.6,2.33752,5.9708,6.74146,4.58811a54.98857,54.98857,0,0,0,10.24423-4.93414c3.12282-1.74922,6.13809-3.72388,9.60605-4.78148,3.348-1.021,6.22007-.15186,7.6252,2.30023a3.85774,3.85774,0,0,1-.992,5.44116,30.82332,30.82332,0,0,1-4.34441,2.5732c-5.24735,2.70171-10.52587,5.34279-15.78269,8.02621-1.27956.65317-2.41295,1.45707-2.63709,3.058-.2893,2.06607.7395,3.32681,2.46265,4.20581q9.02285,4.60273,18.0374,9.22172a14.89149,14.89149,0,0,1,2.15679,1.30611,3.9894,3.9894,0,0,1,1.61772,4.45368,4.2761,4.2761,0,0,1-3.49088,3.52708,10.63964,10.63964,0,0,1-6.59512-.75567c-4.21636-1.96017-8.14843-4.43865-12.25236-6.59921-2.53542-1.33481-5.06209-2.751-8.09106-2.783a3.7333,3.7333,0,0,0-3.83083,2.69327,14.0083,14.0083,0,0,0-.56763,4.79707c-.14291,4.92427.31,9.86267-.32724,14.77364a10.98041,10.98041,0,0,1-.61163,2.65559,4.79924,4.79924,0,0,1-4.378,3.42758,5.24691,5.24691,0,0,1-5.15246-3.014c-.98268-1.80882-.93763-3.80412-.9895-5.7699C292.417,179.87546,292.45363,178.11394,292.45363,176.35339Z"/><path d="M188.06748,193.036c-.48881-.03785-.98611-.03965-1.47043-.11982-3.34161-.55312-4.17093-2.01909-2.88614-5.17233,3.18212-7.80988,6.42428-15.59551,9.57152-23.41935Q213.1258,114.995,232.907,65.64047c1.23234-3.07654,2.7575-5.67282,6.29253-6.48527,4.0398-.92846,6.209,1.05257,5.4581,5.11772-.82587,4.47039-2.85272,8.52494-4.5764,12.66474-14.13452,33.94752-27.67963,68.13281-41.37042,102.25946-1.30807,3.26058-2.77673,6.45642-4.14586,9.69289C193.34567,191.77227,191.1048,193.00975,188.06748,193.036Z"/><path d="M109.43374,121.67062c.172-14.21184,11.91833-22.869,25.63277-20.69869,8.50358,1.34565,14.822,5.82035,17.445,14.28294,3.56064,11.48788-4.63542,23.71539-17.00453,25.67-8.61113,1.36078-16.03589-.91236-21.84744-7.61948A16.96592,16.96592,0,0,1,109.43374,121.67062Z"/><path d="M74.47077,123.06966c-.126,5.47363-3.38883,11.20651-9.85747,15.0037-9.75957,5.729-22.54256,3.67564-29.3204-4.62074-9.69206-11.86351-3.25453-28.98908,12.13108-32.19768a25.29056,25.29056,0,0,1,13.32554.5926C69.25637,104.673,74.49737,112.041,74.47077,123.06966Z"/><path d="M94.24987,162.57072c.3275-6.65432,3.70623-12.29778,9.86956-16.23943a22.53656,22.53656,0,0,1,31.60674,7.57876c4.61829,7.85987,3.42232,16.56561-3.079,22.95822-11.05169,10.86685-26.30912,7.08868-33.44155-.88894A19.19239,19.19239,0,0,1,94.24987,162.57072Z"/><path d="M67.09816,183.65546a23.61016,23.61016,0,0,1-16.079-7.169c-6.5842-6.6585-6.86484-17.78669-.50629-25.69021,5.91929-7.35758,13.74521-9.50787,22.72883-7.11845,8.96183,2.3836,15.00853,7.81908,16.60439,17.32872A16.7743,16.7743,0,0,1,87.669,171.98727,23.26442,23.26442,0,0,1,67.09816,183.65546Z"/><path d="M70.10355,95.19927c.08183-10.75363,7.605-18.97038,18.30145-20.27432,7.08237-.86338,13.43618.47207,18.8616,5.28833,9.80161,8.70113,8.89035,23.78564-2.1648,30.8059-10.57407,6.71474-24.09719,5.63539-31.83983-5.49759A17.19728,17.19728,0,0,1,70.10355,95.19927Z"/><path d="M92.01224,141.00059c-5.04285-.01989-7.955-2.232-8.79144-6.678-.90143-4.79138.81889-7.94225,5.17719-9.48236,4.64816-1.64253,9.87758.01336,11.84375,3.79614C102.81632,133.58964,99.92215,141.4922,92.01224,141.00059Z"/></svg>