<?xml version="1.0" encoding="utf-8"?>
<!-- Generator: Adobe Illustrator 24.2.0, SVG Export Plug-In . SVG Version: 6.00 Build 0)  -->
<svg version="1.1" id="Layer_1" xmlns="http://www.w3.org/2000/svg" xmlns:xlink="http://www.w3.org/1999/xlink" x="0px" y="0px"
	 viewBox="7 6.2 986.8 747.39996" style="enable-background:new 0 0 1000 760;" xml:space="preserve">
<style type="text/css">
	.st0{fill:#FFFFFF;}
	.st1{fill:none;}
	.st2{fill:#B4B4B4;}
	.st3{fill:#676767;}
	.st4{fill:#E6E6E5;}
	.st5{fill:#541431;}
	.st6{fill:#C92F3B;}
	.st7{fill:#891720;}
	.st8{fill:#DD8799;}
	.st9{fill:#010101;}
</style>
<g>
	<path class="st1" d="M394.8,609.1c-2.5-2.7-5.6-4.8-9.4-6.4c-3.7-1.5-8.1-2.3-13.1-2.3c-4.8,0-9.3,0.9-13.3,2.8
		c-4,1.8-7.5,4.2-10.2,7.2c-2.8,2.9-5,6.2-6.5,9.8c-1.5,3.6-2.3,7.2-2.3,10.7h62.5c-0.1-4.4-0.8-8.4-2.1-12.1
		C399.2,615,397.3,611.8,394.8,609.1z"/>
	<path class="st1" d="M269.7,613.3c-2.9-3.2-6.5-5.6-10.8-7.5c-4.3-1.8-9-2.8-14.3-2.8s-10.1,0.9-14.3,2.8
		c-4.3,1.8-7.9,4.3-10.8,7.5c-2.9,3.2-5.2,7-6.8,11.5c-1.6,4.5-2.4,9.4-2.4,14.6c0,5.3,0.8,10.2,2.4,14.6c1.6,4.5,3.9,8.3,6.8,11.5
		c2.9,3.2,6.5,5.7,10.8,7.5c4.3,1.8,9,2.8,14.3,2.8s10.1-0.9,14.3-2.8c4.3-1.8,7.9-4.3,10.8-7.5c2.9-3.2,5.2-7,6.8-11.5
		c1.6-4.5,2.4-9.4,2.4-14.6c0-5.3-0.8-10.2-2.4-14.6C274.9,620.2,272.7,616.4,269.7,613.3z"/>
	<path class="st1" d="M131,569.8c-5.1-5.6-11.3-10-18.5-13.3c-7.2-3.3-15.3-5-24.2-5c-9,0-17,1.7-24.2,5
		c-7.2,3.3-13.4,7.7-18.5,13.3c-5.1,5.6-9.1,12.2-11.9,19.7c-2.8,7.6-4.2,15.6-4.2,24.1c0,8.5,1.4,16.6,4.2,24.1
		c2.8,7.6,6.8,14.1,11.9,19.7c5.1,5.6,11.3,10,18.5,13.3c7.2,3.3,15.3,5,24.2,5c9,0,17-1.7,24.2-5c7.2-3.3,13.4-7.7,18.5-13.3
		c5.1-5.6,9.1-12.1,11.9-19.7c2.8-7.6,4.2-15.6,4.2-24.1c0-8.5-1.4-16.6-4.2-24.1C140.1,581.9,136.1,575.4,131,569.8z"/>
	<path class="st1" d="M599.4,77.4c-32.6,5.8-67.3,18.3-91.1,44.2C532.1,95.7,566.9,83.2,599.4,77.4z"/>
	<path class="st1" d="M943.4,567.9c-2.5-1.2-5.4-2.1-8.6-2.5c-3.2-0.4-6.4-0.7-9.5-0.7h-22.5v35.5h20.3c3.1,0,6.3-0.1,9.8-0.3
		c3.4-0.2,6.6-0.9,9.4-2c2.8-1.1,5.1-2.8,6.9-5.2c1.8-2.3,2.8-5.7,2.8-9.9c0-4-0.8-7.1-2.4-9.5C947.9,570.9,945.9,569.1,943.4,567.9
		z"/>
	<path class="st1" d="M496.3,134.2c-0.5,0.5-1.1,1-1.7,1.5h0C495.2,135.2,495.8,134.7,496.3,134.2z"/>
	<path class="st5" d="M146.7,555.2c-7.1-7.3-15.7-13.1-25.7-17.3c-10-4.2-20.9-6.3-32.8-6.3s-22.8,2.1-32.8,6.3
		c-10,4.2-18.5,9.9-25.7,17.3c-7.1,7.3-12.7,16-16.7,26C9,591.2,7,602,7,613.6C7,625.2,9,636,13,646c4,10,9.6,18.6,16.7,26
		c7.1,7.3,15.7,13.1,25.7,17.3c10,4.2,20.9,6.3,32.8,6.3s22.8-2.1,32.8-6.3c10-4.2,18.5-9.9,25.7-17.3c7.1-7.3,12.7-16,16.7-26
		c4-10,6.1-20.8,6.1-32.4c0-11.6-2-22.4-6.1-32.4C159.4,571.2,153.8,562.6,146.7,555.2z M142.9,637.7c-2.8,7.6-6.8,14.1-11.9,19.7
		c-5.1,5.6-11.3,10-18.5,13.3c-7.2,3.3-15.3,5-24.2,5c-9,0-17-1.7-24.2-5c-7.2-3.3-13.4-7.7-18.5-13.3c-5.1-5.6-9.1-12.1-11.9-19.7
		c-2.8-7.6-4.2-15.6-4.2-24.1c0-8.5,1.4-16.6,4.2-24.1c2.8-7.6,6.8-14.1,11.9-19.7c5.1-5.6,11.3-10,18.5-13.3c7.2-3.3,15.3-5,24.2-5
		c9,0,17,1.7,24.2,5c7.2,3.3,13.4,7.7,18.5,13.3c5.1,5.6,9.1,12.2,11.9,19.7c2.8,7.6,4.2,15.6,4.2,24.1
		C147.1,622.1,145.7,630.2,142.9,637.7z"/>
	<path class="st5" d="M285.7,600.4c-4.6-5-10.2-8.9-16.7-11.7c-6.5-2.8-13.8-4.2-21.9-4.2c-7,0-13.9,1.5-20.6,4.6
		c-6.7,3.1-11.9,7.4-15.7,13h-0.4v-15h-19.8v166.5h19.8v-77.1h0.4c3.5,5.4,8.6,9.7,15.2,12.9c6.6,3.2,13.7,4.7,21.1,4.7
		c8.1,0,15.4-1.4,21.9-4.2c6.5-2.8,12.1-6.6,16.7-11.6c4.6-4.9,8.2-10.7,10.7-17.4c2.5-6.7,3.7-13.9,3.7-21.7
		c0-7.6-1.2-14.8-3.7-21.5C293.9,611.2,290.3,605.4,285.7,600.4z M276.5,654c-1.6,4.5-3.9,8.3-6.8,11.5c-2.9,3.2-6.5,5.7-10.8,7.5
		c-4.3,1.8-9,2.8-14.3,2.8s-10.1-0.9-14.3-2.8c-4.3-1.8-7.9-4.3-10.8-7.5c-2.9-3.2-5.2-7-6.8-11.5c-1.6-4.5-2.4-9.4-2.4-14.6
		c0-5.3,0.8-10.2,2.4-14.6c1.6-4.5,3.9-8.3,6.8-11.5c2.9-3.2,6.5-5.6,10.8-7.5c4.3-1.8,9-2.8,14.3-2.8s10.1,0.9,14.3,2.8
		c4.3,1.8,7.9,4.3,10.8,7.5c2.9,3.2,5.2,7,6.8,11.5c1.6,4.5,2.4,9.4,2.4,14.6C279,644.6,278.2,649.5,276.5,654z"/>
	<path class="st5" d="M412,602c-4.1-5.2-9.4-9.4-15.7-12.7c-6.4-3.2-14.2-4.8-23.5-4.8c-7.8,0-15,1.4-21.6,4.2
		c-6.6,2.8-12.3,6.6-17.1,11.6c-4.8,4.9-8.5,10.7-11.2,17.4c-2.7,6.7-4.1,13.9-4.1,21.7c0,7.8,1.2,15,3.7,21.7
		c2.5,6.7,6.1,12.5,10.7,17.4c4.6,4.9,10.3,8.8,17,11.6c6.7,2.8,14.1,4.2,22.4,4.2c19.8,0,35.2-7.1,46.2-21.4l-15-11.5
		c-3.8,4.7-8,8.5-12.6,11.3c-4.6,2.9-9.9,4.3-16.1,4.3c-4.6,0-9-0.7-13.2-2.2c-4.3-1.5-8-3.5-11.2-6.2c-3.2-2.6-5.8-5.8-7.8-9.6
		s-3-7.9-3-12.4h83.7v-7c0-6.8-0.9-13.4-2.8-19.9C419.1,613.1,416.1,607.2,412,602z M340,630.8c0-3.5,0.8-7.1,2.3-10.7
		c1.5-3.6,3.7-6.9,6.5-9.8c2.8-2.9,6.2-5.3,10.2-7.2c4-1.8,8.5-2.8,13.3-2.8c5,0,9.4,0.8,13.1,2.3c3.7,1.5,6.9,3.7,9.4,6.4
		c2.5,2.7,4.4,5.9,5.6,9.6c1.2,3.7,1.9,7.7,2.1,12.1H340z"/>
	<path class="st5" d="M524.2,594c-3.5-3.2-7.5-5.6-12.1-7.2s-9.4-2.3-14.4-2.3c-8.1,0-15.2,1.7-21.4,5.2c-6.2,3.5-10.5,8-13,13.5
		h-0.4v-16.1H443v104.4h19.8v-53.7c0-6,0.7-11.2,2.2-15.6c1.5-4.4,3.5-8,6.2-10.9c2.6-2.9,5.7-5,9.2-6.3s7.3-2,11.5-2
		c3.1,0,6.1,0.5,8.9,1.4c2.9,1,5.4,2.5,7.6,4.6c2.2,2.1,4,4.9,5.3,8.4c1.3,3.5,2,7.6,2,12.4v61.7h19.8v-67.2c0-6.9-1-12.9-3.1-17.9
		C530.4,601.4,527.6,597.2,524.2,594z"/>
	<polygon class="st6" points="606.4,628.1 674.1,628.1 674.1,596.4 606.4,596.4 606.4,567.3 678,567.3 678,535.6 572.1,535.6 
		572.1,691.6 682,691.6 682,659.8 606.4,659.8 	"/>
	<polygon class="st6" points="846.7,535.6 805.1,535.6 773.2,590.3 739.9,535.6 696.7,535.6 748.3,610.1 693.7,691.6 734.4,691.6 
		771.4,628.8 809.5,691.6 852.7,691.6 796.3,609.4 	"/>
	<path class="st6" d="M954,625.7c11-2.1,19.4-6.9,25.1-14.6s8.6-17.1,8.6-28.1c0-9.1-1.6-16.7-4.7-22.8c-3.2-6.1-7.4-10.9-12.8-14.5
		c-5.4-3.6-11.6-6.2-18.7-7.7c-7.1-1.5-14.6-2.3-22.6-2.3h-60.3v155.9h34.4v-62.3h17l32.6,62.3h41.2L954,625.7z M949.2,592.7
		c-1.8,2.4-4.1,4.1-6.9,5.2c-2.8,1.1-5.9,1.8-9.4,2c-3.5,0.2-6.7,0.3-9.8,0.3h-20.3v-35.5h22.5c3.1,0,6.2,0.2,9.5,0.7
		c3.2,0.4,6.1,1.3,8.6,2.5c2.5,1.2,4.5,3,6.2,5.4c1.6,2.4,2.4,5.5,2.4,9.5C952,587,951.1,590.3,949.2,592.7z"/>
	<polygon class="st5" points="502,345.4 679.1,314.2 502,345.4 	"/>
	<path class="st5" d="M340,411c-1,0.2-2.1,0.4-3.1,0.5l49.1,61.2l368.2-64.9l-67-83.4l-202.6,35.7c-36.5,26.1-92.8,41.2-138.1,49.7
		C344.4,410.2,342.2,410.6,340,411L340,411z"/>
	<polygon class="st7" points="336.9,304.6 312.9,274.7 312.9,274.7 338.2,306.3 338.2,306.3 	"/>
	<path class="st7" d="M489.7,249.6c-36.2,28.4-95.6,44.5-143,53.3C394.1,294,453.4,278,489.7,249.6z"/>
	<path class="st7" d="M340,411L340,411c2.2-0.4,4.4-0.8,6.7-1.2c45.3-8.4,101.6-23.5,138.1-49.7l-96.7,17.1l-6.7,1.2l-4.3-5.3
		l-10.9-13.6c-15.1-2.7-30-10.2-38.2-20.5c-8.3-10.3-7.7-20.6-0.1-27.2L299.9,277l-62.2,11l99.2,123.6
		C337.9,411.4,339,411.2,340,411z"/>
	<polygon class="st7" points="386.1,365.8 381.6,360.3 386.1,365.8 502,345.4 502,345.4 	"/>
	<polygon class="st5" points="338.2,306.3 381.6,360.3 338.2,306.3 	"/>
	<path class="st5" d="M327.9,338.9c8.3,10.3,23.1,17.9,38.2,20.5l-38.3-47.8C320.2,318.4,319.7,328.7,327.9,338.9z"/>
	<polygon class="st7" points="505,235.1 677.1,204.8 677.1,204.8 505,235.1 	"/>
	<path class="st7" d="M340,304.1L340,304.1c-1,0.2-2.1,0.4-3.1,0.5l1.3,1.6l43.4,54.1l4.4,5.5L502,345.4l177.1-31.2l75.2-13.3
		L685.4,215l-195.7,34.5c-36.2,28.4-95.6,44.5-143,53.3C344.4,303.3,342.2,303.7,340,304.1z"/>
	<path class="st6" d="M494.6,135.7c-35.6,31-98.3,48.2-148,57.4C396.3,183.9,459.1,166.7,494.6,135.7L494.6,135.7z"/>
	<polygon class="st6" points="337.8,196 340.1,198.8 340.1,198.8 	"/>
	<polygon class="st6" points="386.1,256.1 386.1,256.1 505,235.1 505,235.1 	"/>
	<path class="st6" d="M312.9,274.7l24,29.9c1-0.2,2.1-0.4,3.1-0.5h0c2.2-0.4,4.4-0.8,6.7-1.2c47.4-8.8,106.8-24.9,143-53.3
		l-101.6,17.9l-6.7,1.2l-4.3-5.3l-8.4-10.4c-15.9-2.2-32-10.1-40.8-20.9s-7.7-21.8,1.2-28.3l-1.2-1.5l-26-32.4L237.7,181l52.9,65.9
		L312.9,274.7z"/>
	<path class="st7" d="M327.9,232c8.7,10.9,24.8,18.7,40.8,20.9l-39.5-49.3C320.3,210.2,319.2,221.1,327.9,232z"/>
	<polygon class="st7" points="340.1,198.8 352.3,214.1 340.1,198.8 	"/>
	<path class="st6" d="M600.2,77.2c-0.1,0-0.2,0-0.3,0.1c-0.1,0-0.3,0-0.4,0.1c-32.6,5.8-67.3,18.3-91.1,44.2c-1,1-1.9,2.1-2.8,3.2
		c-0.8,0.9-1.6,1.8-2.4,2.7c-1.7,1.9-3.6,3.8-5.5,5.6c-0.4,0.4-0.9,0.8-1.3,1.2c-0.5,0.5-1.1,1-1.7,1.5c-35.6,31-98.3,48.2-148,57.4
		c-2.3,0.4-4.5,0.8-6.7,1.2h0c-1,0.2-2.1,0.4-3.1,0.5l0.9,1.1l2.2,2.8l12.3,15.3l33.7,42l118.9-21l172.2-30.4l13-2.3l64.2-11.3
		l-95-118.4c-1,0-2,0-3.1,0C640.7,72.7,620.9,73.6,600.2,77.2z"/>
	<path class="st8" d="M314.9,167.4l22.1,27.5c1-0.2,2.1-0.4,3.1-0.5h0c2.2-0.4,4.4-0.8,6.7-1.2c49.6-9.2,112.4-26.5,148-57.4
		c0.6-0.5,1.1-1,1.7-1.5c0.4-0.4,0.9-0.8,1.3-1.2c1.9-1.8,3.8-3.7,5.5-5.6c0.8-0.9,1.6-1.8,2.4-2.7c0.9-1.1,1.9-2.1,2.8-3.2
		c23.7-25.9,58.5-38.4,91.1-44.2c0.1,0,0.3,0,0.4-0.1c0.1,0,0.2,0,0.3-0.1c20.7-3.6,40.5-4.5,56-4.5c1,0,2.1,0,3.1,0l-46.8-58.3
		l-6.6-8.2l-199,35.1L237.7,71.3l68.9,85.9L314.9,167.4z M342.9,88.5c20.4-3.6,46.7,5.7,58.8,20.8c12.1,15.1,5.4,30.2-15,33.8
		c-20.4,3.6-46.7-5.7-58.8-20.8S322.5,92,342.9,88.5z"/>
	<ellipse transform="matrix(0.294 -0.9558 0.9558 0.294 146.9088 430.3855)" class="st6" cx="364.8" cy="115.7" rx="26" ry="44.2"/>
</g>
</svg>
