<?xml version="1.0" encoding="UTF-8"?>
<svg id="AW" xmlns="http://www.w3.org/2000/svg" viewBox="4.267578 8.7564745 96.90625 69.08727">
  <defs>
    <style>
      .cls-1 {
        fill: #101c41;
      }

      .cls-2, .cls-3 {
        fill: #80e3b7;
      }

      .cls-4, .cls-5 {
        fill-rule: evenodd;
      }

      .cls-4, .cls-5, .cls-3, .cls-6 {
        stroke: #101c41;
        stroke-linecap: round;
        stroke-linejoin: round;
        stroke-width: 1.5px;
      }

      .cls-4, .cls-6 {
        fill: none;
      }

      .cls-5 {
        fill: #fff;
      }
    </style>
  </defs>
  <g>
    <path class="cls-1" d="M9.4482422,62.7089844c-.7402344,0-1.4277344-.1230469-2.0625-.3701172-.6347656-.2460938-1.1855469-.59375-1.6513672-1.0410156s-.8271484-.9707031-1.0830078-1.5693359-.3837891-1.2490234-.3837891-1.953125c0-.7128906,.1279297-1.3681641,.3837891-1.9667969,.2558594-.5976562,.6171875-1.1191406,1.0830078-1.5615234,.4658203-.4433594,1.0146484-.7880859,1.6445312-1.0351562,.6308594-.2470703,1.3203125-.3701172,2.0693359-.3701172,.7402344,0,1.4257812,.1210938,2.0556641,.3632812,.6308594,.2421875,1.1767578,.5849609,1.6376953,1.0273438,.4619141,.4433594,.8203125,.9667969,1.0761719,1.5693359,.2558594,.6035156,.3837891,1.2607422,.3837891,1.9736328s-.1279297,1.3681641-.3837891,1.9667969-.6142578,1.1220703-1.0761719,1.5693359c-.4609375,.4472656-1.0068359,.7929688-1.6376953,1.0341797-.6298828,.2421875-1.3154297,.3632812-2.0556641,.3632812Zm0-1.5625c.484375,0,.9296875-.0820312,1.3369141-.2460938,.40625-.1650391,.7597656-.3974609,1.0615234-.6992188s.5371094-.6572266,.7060547-1.0683594,.2529297-.8642578,.2529297-1.3574219-.0820312-.9453125-.2460938-1.3564453c-.1650391-.4111328-.4003906-.7675781-.7060547-1.0693359s-.6621094-.5341797-1.0683594-.6982422c-.4072266-.1650391-.8525391-.2470703-1.3369141-.2470703s-.9335938,.0820312-1.3496094,.2470703c-.4160156,.1640625-.7744141,.3994141-1.0761719,.7050781-.3007812,.3066406-.5390625,.6630859-.7119141,1.0693359-.1738281,.40625-.2607422,.8564453-.2607422,1.3496094,0,.484375,.0869141,.9316406,.2607422,1.34375,.1728516,.4111328,.4111328,.7695312,.7119141,1.0751953,.3017578,.3066406,.6601562,.5410156,1.0761719,.7060547,.4160156,.1640625,.8652344,.2460938,1.3496094,.2460938Z"/>
    <path class="cls-1" d="M15.8076172,62.5722656v-9.59375h3.9472656c.8496094,0,1.578125,.1357422,2.1855469,.4042969,.6074219,.2695312,1.0761719,.6601562,1.4052734,1.171875s.4931641,1.1240234,.4931641,1.8369141c0,.703125-.1640625,1.3085938-.4931641,1.8154297-.3291016,.5078125-.7978516,.9003906-1.4052734,1.1787109-.6074219,.2792969-1.3359375,.4179688-2.1855469,.4179688h-2.9462891l.78125-.8222656v3.5908203h-1.7822266Zm1.7822266-3.3984375l-.78125-.8779297h2.8642578c.7851562,0,1.3769531-.1660156,1.7744141-.5,.3974609-.3330078,.5966797-.8017578,.5966797-1.4042969,0-.6035156-.1992188-1.0712891-.5966797-1.4052734-.3974609-.3330078-.9892578-.5-1.7744141-.5h-2.8642578l.78125-.8769531v5.5644531Z"/>
    <path class="cls-1" d="M26.7167969,61.0644531h5.4130859v1.5078125h-7.1953125v-9.59375h7.0029297v1.5078125h-5.2207031v6.578125Zm-.1376953-4.0976562h4.7695312v1.4667969h-4.7695312v-1.4667969Z"/>
    <path class="cls-1" d="M33.4316406,62.5722656v-9.59375h1.4667969l6.0166016,7.4013672h-.7265625v-7.4013672h1.7539062v9.59375h-1.4667969l-6.0019531-7.4003906h.7265625v7.4003906h-1.7685547Z"/>
    <path class="cls-1" d="M46.9443359,62.5722656v-9.59375h3.9472656c.8496094,0,1.578125,.1357422,2.1855469,.4042969,.6074219,.2695312,1.0761719,.6601562,1.4052734,1.171875s.4931641,1.1240234,.4931641,1.8369141c0,.703125-.1640625,1.3066406-.4931641,1.8085938-.3291016,.5029297-.7978516,.890625-1.4052734,1.1650391s-1.3359375,.4111328-2.1855469,.4111328h-2.9462891l.78125-.7949219v3.5908203h-1.7822266Zm1.7822266-3.3984375l-.78125-.8632812h2.8642578c.7851562,0,1.3769531-.1689453,1.7744141-.5078125,.3974609-.3378906,.5966797-.8085938,.5966797-1.4111328,0-.6035156-.1992188-1.0712891-.5966797-1.4052734-.3974609-.3330078-.9892578-.5-1.7744141-.5h-2.8642578l.78125-.8769531v5.5644531Zm4.4951172,3.3984375l-2.4257812-3.4814453h1.9042969l2.4394531,3.4814453h-1.9179688Z"/>
    <path class="cls-1" d="M58.0595703,61.0644531h5.4130859v1.5078125h-7.1953125v-9.59375h7.0029297v1.5078125h-5.2207031v6.578125Zm-.1376953-4.0976562h4.7695312v1.4667969h-4.7695312v-1.4667969Z"/>
    <path class="cls-1" d="M68.1591797,62.5722656l-4.1933594-9.59375h1.9326172l3.7412109,8.6757812h-1.1240234l3.8095703-8.6757812h1.7685547l-4.1806641,9.59375h-1.7539062Z"/>
    <path class="cls-1" d="M75.1074219,62.5722656v-9.59375h1.7822266v9.59375h-1.7822266Z"/>
    <path class="cls-1" d="M80.5761719,61.0644531h5.4130859v1.5078125h-7.1953125v-9.59375h7.0029297v1.5078125h-5.2207031v6.578125Zm-.1376953-4.0976562h4.7695312v1.4667969h-4.7695312v-1.4667969Z"/>
    <path class="cls-1" d="M89.4150391,62.5722656l-3.1796875-9.59375h1.8496094l2.8369141,8.6757812h-.9179688l2.9462891-8.6757812h1.6445312l2.8652344,8.6757812h-.8916016l2.9052734-8.6757812h1.7001953l-3.1796875,9.59375h-1.8916016l-2.6171875-7.8251953h.4931641l-2.6455078,7.8251953h-1.9179688Z"/>
    <path class="cls-1" d="M21.7490234,77.84375v-9.59375h1.0136719v9.59375h-1.0136719Z"/>
    <path class="cls-1" d="M25.2021484,77.84375v-9.59375h.8359375l6.6191406,8.3330078h-.4384766v-8.3330078h1.0009766v9.59375h-.8359375l-6.6064453-8.3320312h.4384766v8.3320312h-1.0136719Z"/>
    <path class="cls-1" d="M35.6591797,77.84375v-9.59375h1.0136719v9.59375h-1.0136719Z"/>
    <path class="cls-1" d="M40.9755859,77.84375v-8.7158203h-3.3710938v-.8779297h7.7568359v.8779297h-3.3710938v8.7158203h-1.0146484Z"/>
    <path class="cls-1" d="M46.2939453,77.84375v-9.59375h1.0136719v9.59375h-1.0136719Z"/>
    <path class="cls-1" d="M48.2119141,77.84375l4.3857422-9.59375h1l4.3857422,9.59375h-1.0693359l-4.0283203-9.0039062h.4111328l-4.0292969,9.0039062h-1.0556641Zm1.7265625-2.5625l.3017578-.8222656h5.578125l.3017578,.8222656h-6.1816406Z"/>
    <path class="cls-1" d="M60.2714844,77.84375v-8.7158203h-3.3710938v-.8779297h7.7568359v.8779297h-3.3710938v8.7158203h-1.0146484Z"/>
    <path class="cls-1" d="M65.5898438,77.84375v-9.59375h1.0136719v9.59375h-1.0136719Z"/>
    <path class="cls-1" d="M71.6611328,77.84375l-4.2490234-9.59375h1.0966797l3.9746094,9.0322266h-.6035156l4.0019531-9.0322266h1.0273438l-4.2480469,9.59375h-1Z"/>
    <path class="cls-1" d="M78.6220703,76.9667969h5.7705078v.8769531h-6.7841797v-9.59375h6.578125v.8779297h-5.5644531v7.8388672Zm-.109375-4.4267578h5.0712891v.8632812h-5.0712891v-.8632812Z"/>
  </g>
  <g>
    <rect class="cls-2" x="30.9650428" y="9.598542" width="32.3332682" height="25.166616" rx="3" ry="3"/>
    <g>
      <polyline class="cls-3" points="67.7264416 42.6997127 74.7901295 39.9572242 89.0181695 25.7291841 84.814821 21.5258356 70.5941466 35.74651 67.7264416 42.6997127"/>
      <line class="cls-6" x1="71.4752223" y1="35.9409704" x2="74.7989617" y2="39.2647099"/>
    </g>
    <g>
      <path class="cls-5" d="M42.2993924,17.1670091v9.5208923l11.9011115-4.7604465-11.9011115-4.7604458Z"/>
      <path class="cls-4" d="M52.978104,35.1149284h-18.2216968c-2.4736001,0-4.4788492-2.0052491-4.4788492-4.4788492V13.2353238c0-2.4736001,2.0052491-4.4788492,4.4788492-4.4788492h24.6108786c2.4736001,0,4.4788492,2.0052491,4.4788492,4.4788492V30.6360793c0,2.4736001-2.0052491,4.4788492-4.4788492,4.4788492h-.9719409"/>
      <line class="cls-6" x1="30.1727746" y1="43.0211625" x2="63.8949289" y2="43.0211625"/>
      <line class="cls-6" x1="42.2614698" y1="39.2618902" x2="42.2614698" y2="46.2924072"/>
    </g>
  </g>
</svg>