<svg xmlns="http://www.w3.org/2000/svg" role="img" viewBox="14.08984 136.49023 471.8337 227.03036"><defs id="defs383"><style id="style381"/></defs><path id="logo" d="M39.13086 136.49023a25.04 25.04 0 0 0-25.04102 25.03907 25.04 25.04 0 0 0 25.04102 25.04101 25.04 25.04 0 0 0 11.52344-2.875l13.51562 9.17383a56.47 56.47 0 0 0-3.82031 19.57031A46 46 0 0 0 64.08984 232L56 238.89258a25.04 25.04 0 0 0-14.19922-4.42188 25.04 25.04 0 0 0-25.04101 25.03907 25.04 25.04 0 0 0 25.04101 25.04101 25.04 25.04 0 0 0 25.03906-25.04101 25.04 25.04 0 0 0-.10742-2.26758L76 249.33984a52.39 52.39 0 0 0 34.81055 13.59961 50.55 50.55 0 1 0 0-101.09961h-.03125A49.86 49.86 0 0 0 76 175.43945l-12.4961-8.45312a25.04 25.04 0 0 0 .66602-5.45703 25.04 25.04 0 0 0-25.03906-25.03907zm71.79883 38.43946a41.44 41.44 0 0 1 15.41992 2.80078 36 36 0 0 1 12.2207 7.76953 34.94 34.94 0 0 1 8.04883 12 41.76 41.76 0 0 1 2.91016 15.63086 40.22 40.22 0 0 1-2.91016 15.47852 35.88 35.88 0 0 1-20.26953 20 41.26 41.26 0 0 1-15.41992 2.86132 40.82 40.82 0 0 1-15.36914-2.86132 35.88 35.88 0 0 1-12.16016-7.92969 35.36 35.36 0 0 1-8-12.10938 40 40 0 0 1-2.8496-15.48047A41.71 41.71 0 0 1 75.40038 197.5a35.73 35.73 0 0 1 8-12 37 37 0 0 1 12.16016-7.76953 42 42 0 0 1 15.36914-2.80078zm60.55078.28125l-.03125 78.47851h11v-34.47851h12.45117a48.23 48.23 0 0 0 11.36914-1.27149A26.68 26.68 0 0 0 215.35938 214a18.48 18.48 0 0 0 6-6.86914 21.87 21.87 0 0 0 2.16015-10.0918 22.34 22.34 0 0 0-2-9.85937 18 18 0 0 0-5.65039-6.75977A25 25 0 0 0 207 176.48047a48.59 48.59 0 0 0-11.58008-1.26953h-23.93945zm65.91992 0v78.47851h52v-9.75976h-41v-26.16016h37v-9.41992h-37v-23.5h39.32031v-9.63867h-50.32031zm66.59961 0v78.47851h11v-64.07031h.24023l41.45899 64.07031h13.88086v-78.47851h-11V238h-.2207l-41.0586-62.78906H304zm-195.39844 8.83008a29.76 29.76 0 0 0-9.08203 2.18945 25.25 25.25 0 0 0-8.61914 6.33984 28.53 28.53 0 0 0-5.48047 9.31055 32 32 0 0 0-2 11.25 32.74 32.74 0 0 0 2 11.41992 28.16 28.16 0 0 0 5.54102 9.3086 25.45 25.45 0 0 0 8.61914 6.23046 29.46 29.46 0 0 0 22.73047 0 25.44 25.44 0 0 0 8.74023-6.23046 27.57 27.57 0 0 0 5.53906-9.3086 32.73 32.73 0 0 0 1.91993-11.41992h.01953a32 32 0 0 0-1.93946-11.25 28.68 28.68 0 0 0-5.53906-9.31055 26.08 26.08 0 0 0-8.68164-6.33984 29.76 29.76 0 0 0-13.76758-2.18945zm73.84766.46875h11.89062a39.72 39.72 0 0 1 7.21094.60937 16.13 16.13 0 0 1 5.69922 2.10156 11.19 11.19 0 0 1 3.76953 3.87891 11.59 11.59 0 0 1 1.39063 5.92969 12.31 12.31 0 0 1-1.33008 6 10.37 10.37 0 0 1-3.76953 3.93164 18.39 18.39 0 0 1-5.82032 2.21875 35.36 35.36 0 0 1-7.37109.7207h-11.63867l-.03125-25.39062zm-29.37891 99.57031a42.67 42.67 0 0 0-10.58008 1.33008 28.93 28.93 0 0 0-9.39062 4.2207A22.25 22.25 0 0 0 126.36914 297a21.36 21.36 0 0 0-2.5 10.76953 20.73 20.73 0 0 0 1.65039 8.71094 18.91 18.91 0 0 0 4.38086 6.08008 23.51 23.51 0 0 0 6.18945 4.10937 63.29 63.29 0 0 0 7.09961 2.7793c2.5.79 4.67969 1.5114 6.67969 2.1914a25.23 25.23 0 0 1 4.91016 2.24024 10.34 10.34 0 0 1 3 2.72852 6 6 0 0 1 1.07031 3.63085A8.06 8.06 0 0 1 158 344.08008a6.94 6.94 0 0 1-2.30078 2.56054 9.76 9.76 0 0 1-3.35938 1.38868 17.84 17.84 0 0 1-3.94922.43164 19.78 19.78 0 0 1-9-2.30078 22.09 22.09 0 0 1-7.31054-5.71094l-12 12.16992a33.2 33.2 0 0 0 12.59961 8.07031 44.68 44.68 0 0 0 15.70117 2.83008 38.92 38.92 0 0 0 10.7793-1.5 27.39 27.39 0 0 0 9.28906-4.58984 22.34 22.34 0 0 0 6.46094-7.84961 24.59 24.59 0 0 0 2.41015-11.26953 18.26 18.26 0 0 0-2.25-9.45117 21.58 21.58 0 0 0-5.66015-6.34961 29.63 29.63 0 0 0-7.58008-4.10938c-2.76-1.03-5.43-1.98008-8-2.83008-1.78-.56666-3.38078-1.12015-4.80078-1.66015a20.5 20.5 0 0 1-3.68946-1.75977 7.24 7.24 0 0 1-2.34961-2.24023 6 6 0 0 1-.80078-3.19922 6.24 6.24 0 0 1 1-3.69141 8.28 8.28 0 0 1 2.50977-2.34961 9.64 9.64 0 0 1 3.36133-1.23047 22.17 22.17 0 0 1 3.68945-.32031 17.25 17.25 0 0 1 7.31055 1.77148 16.47 16.47 0 0 1 6.13867 4.75l11.64062-12.27148a33.62 33.62 0 0 0-11.68945-6.93945 39.16 39.16 0 0 0-13.08008-2.34961zm63.10938 0a42.67 42.67 0 0 0-10.58008 1.33008 28.93 28.93 0 0 0-9.38867 4.2207A22.25 22.25 0 0 0 189.48047 297a21.36 21.36 0 0 0-2.46094 10.76953 20.73 20.73 0 0 0 1.65039 8.71094 18.91 18.91 0 0 0 4.38086 6.08008 23.51 23.51 0 0 0 6.18945 4.10937 62.7 62.7 0 0 0 7.10938 2.7793c2.49.79 4.66992 1.5114 6.66992 2.1914a25.23 25.23 0 0 1 4.91016 2.24024 10.52 10.52 0 0 1 3 2.72852 6.06 6.06 0 0 1 1.06054 3.63085 8.06 8.06 0 0 1-.84961 3.83985 6.94 6.94 0 0 1-2.30078 2.56054 9.76 9.76 0 0 1-3.35937 1.38868 17.84 17.84 0 0 1-4 .43164 19.78 19.78 0 0 1-9-2.30078 22.09 22.09 0 0 1-7.31055-5.71094l-12 12.16992a33.2 33.2 0 0 0 12.59961 8.07031 44.68 44.68 0 0 0 15.70117 2.83008 38.92 38.92 0 0 0 10.7793-1.5 27.39 27.39 0 0 0 9.28906-4.58984A22.34 22.34 0 0 0 238 349.58008a24.59 24.59 0 0 0 2.42969-11.29102 18.26 18.26 0 0 0-2.25-9.44922 21.58 21.58 0 0 0-5.66016-6.34961 29.63 29.63 0 0 0-7.58008-4.10937c-2.76-1.03-5.43-1.98008-8-2.83008-1.78-.56667-3.37882-1.12016-4.79883-1.66016a20.84 20.84 0 0 1-3.6914-1.75976 7.24 7.24 0 0 1-2.34961-2.24024 6 6 0 0 1-.79883-3.20117 6.24 6.24 0 0 1 1-3.68945 8.28 8.28 0 0 1 2.50977-2.33008 9.72 9.72 0 0 1 3.35937-1.23047 22.17 22.17 0 0 1 3.68946-.32031 17.25 17.25 0 0 1 7.31054 1.77148 16.47 16.47 0 0 1 6.14063 4.75L241 293.35938a33.62 33.62 0 0 0-11.74023-6.92969 39.16 39.16 0 0 0-13.08008-2.34961zm229.62109.03711a45.83 45.83 0 0 0-16 2.88281 37.87 37.87 0 0 0-12.65039 8.00977 36.3 36.3 0 0 0-8.33008 12.5 45 45 0 0 0 0 32.25 37 37 0 0 0 21 20.82031 45 45 0 0 0 32 0 37.66 37.66 0 0 0 12.70899-8.2207 38.26 38.26 0 0 0 8.39062-12.59961 41.65 41.65 0 0 0 3-16.08008A41.85 41.85 0 0 0 482.88086 307.5a37 37 0 0 0-8.39063-12.5 37.74 37.74 0 0 0-12.68945-8 45.83 45.83 0 0 0-16-2.88281zM70.83984 286l-31.70898 75.58984H59L64.53906 346.75h29.26172l5.86914 14.83984H120L88.57031 286H70.83984zm181.64063 0v75.58984h52.75976V346h-35.14062v-15.67969H301.5v-14.63086h-31.40039v-14.30859h33.21094V286h-50.83008zM310 286v15.58008h21.40039v60h18.25977v-60L371 301.58984V286h-61zm70.73047 0v75.58984h10.58008V286h-10.58008zm62.71875 7.45703a30.45 30.45 0 0 1 14.28125 2.30274 26.93 26.93 0 0 1 9 6.57031 29.65 29.65 0 0 1 5.75976 9.66015 33.61 33.61 0 0 1 2 11.68946 34.32 34.32 0 0 1-2.02929 11.84961 28.94 28.94 0 0 1-5.76172 9.66015 26.56 26.56 0 0 1-9.08008 6.46094A29.05 29.05 0 0 1 445.76953 354a28.31 28.31 0 0 1-11.68945-2.33984 26.7 26.7 0 0 1-9-6.46094 29 29 0 0 1-5.76953-9.66016 34.32 34.32 0 0 1-2-11.85937 33.61 33.61 0 0 1 2-11.68946 30.08 30.08 0 0 1 5.71875-9.66015 26.21 26.21 0 0 1 9-6.57031 30.45 30.45 0 0 1 9.41992-2.30274zM79.38086 306.16992l9.38867 25.94922h-19l9.61133-25.94922z"/></svg>