<svg xmlns="http://www.w3.org/2000/svg" role="img" viewBox="-2.52 -2.52 131.17 116.80"><g transform="translate(-.888 -7.591)"><path fill="#d1cece" d="M9.2671 118.7629c-.21475-.85563.6256-4.96326 2.00776-9.814l1.05641-3.70752-4.37253-.0758c-4.04554-.0701-4.37253-.11402-4.37253-.58691 0-.63535-.40732-.96762-1.69381-1.38169l-1.00416-.32319.79226-1.43689c.89173-1.61729.99308-2.27016.38847-2.50217-.2276-.08733-.4138-.28682-.4138-.4433 0-.18764 2.27924-.28453 6.69334-.28453h6.69335l2.3101-4.89655c4.43892-9.40884 9.7866-19.23845 13.02982-23.95016 1.19878-1.74157 1.34281-2.1104 1.34658-3.44828.0061-2.15118.24957-2.41805 1.52158-1.66755.96991.57227 1.05524.5798 1.5452.1364.6956-.62952.83154-.41255.49813.79496-.27003.97796-.09459 1.91057.86862 4.61739.2062.57947.22396.5354.11112-.27587-.10478-.75335.01449-.59161.54276.736.53736 1.35044 4.43679 18.41992 5.26726 23.0571.1019.56897.20693 1.0345.2334 1.0345.02646 0 1.53032-.42716 3.3419-.94924s3.34776-.89525 3.41374-.82928c.06598.06597-.08618.34773-.33813.62613-.25194.2784-.45854.6826-.4591.89824-.0011.42827-2.5523 2.58715-4.21425 3.56622-.7043.41492-.99954.76064-.90943 1.06494.26762.90377 2.06928 12.72643 1.93939 12.72643-.03408 0-.41753-.18544-.85212-.41209-1.25612-.65511-1.4798-.53955-1.4798.7645 0 .649-.20207 1.46848-.44903 1.82107-.35633.50873-.4127 1.01971-.27306 2.47518l.17595 1.8341-.56213-.68966c-1.08874-1.33571-2.65033-5.87037-4.2805-12.42998l-.99808-4.0162-2.94451.77148c-4.06521 1.06511-7.8237 1.82859-12.04796 2.44737-4.1259.60438-4.22657.67386-5.54214 3.8253-1.25238 3.00004-3.40983 7.2-4.86512 9.471-.7535 1.17586-1.40666 2.13793-1.45147 2.13793-.0448 0-.15887-.30842-.25348-.68538zm21.00832-22.10564c2.69335-.39714 4.938-.75883 4.98811-.80377.05011-.04494-.47354-3.2269-1.1637-7.07104-.69014-3.84414-1.3993-7.8485-1.57592-8.8986-.31945-1.89932-.3232-1.90526-.7229-1.14242-.22097.42175-.45504 1.19626-.52014 1.72113-.26096 2.10404-3.12355 8.65826-6.2065 14.21052-.74263 1.33743-1.35023 2.49346-1.35023 2.56896 0 .27812 1.77152.11999 6.55128-.58479zm28.46582 20.73477c-.52033-.28707-.7935-.76466-1.03448-1.80865-.1801-.78021-.32745-1.65502-.32745-1.94403 0-.289-.38723-1.31072-.86052-2.2705l-.86052-1.74505 1.12881-5.62406c.62085-3.09324 1.0863-5.6666 1.03432-5.71857-.05197-.05197-.72271.15313-1.49054.45578-.90351.35613-1.43094.44558-1.49495.25355-.06574-.19722-.9123-.09294-2.52438.31091-1.334.3342-2.48676.54635-2.56167.47144-.0749-.0749 1.70418-1.21676 3.95353-2.53745 2.24934-1.3207 4.31845-2.54456 4.59801-2.7197.3775-.23648.9577-2.0919 2.25467-7.21016.9605-3.79046 2.1145-8.1131 2.56444-9.60585l.81806-2.7141-2.8148.19185c-2.81077.19158-2.81546.19084-3.27963-.51757-.25565-.39018-.46483-.94759-.46483-1.23868 0-.30984-.25731-.60635-.62069-.71523-.5214-.15623-.33383-.29759 1.17242-.88362.9862-.3837 3.1155-1.02828 4.73175-1.4324l2.93864-.73476.976-2.6207c1.5351-4.122 2.12655-5.3374 2.44325-5.0207.18847.18847.17776.8932-.03294 2.16724-.19978 1.20801-.22137 2.19652-.05995 2.74475.13875.47124.19524 1.154.12553 1.51724l-.12675.66044 3.65801-.085c4.3446-.10098 6.75375.34272 9.60444 1.76886 3.3144 1.65812 5.80449 5.06849 6.44928 8.83275.42173 2.46206-.26008 6.2016-1.51518 8.31037-1.56561 2.63047-2.61134 3.54374-4.50243 3.93214-2.05375.4218-7.64423 2.3499-9.03067 3.11457-.88352.4873-1.12444.51827-1.68745.21696-.54474-.29154-1.02774-.26926-2.8314.13058-1.19604.26515-2.67717.69663-3.2914.95885l-1.11679.47677-.7393 5.34399c-.40662 2.93919-.8158 6.15089-.9093 7.13709-.26131 2.7562-1.1948 6.49955-1.87202 7.50698-.69042 1.02705-1.37403 1.21031-2.40112.64367zm12.53289-29.93682c7.27762-3.60238 10.10518-5.93616 10.10518-8.34047 0-1.15427-.43722-1.56544-2.40165-2.25854-1.16995-.41278-6.65909-1.37238-9.51017-1.66254l-1.567-.15948.22427.78197c.13128.45773.10998.9862-.05137 1.2745-.1516.2709-.2124 1.05352-.13512 1.73917.08258.73264-.06385 2.11236-.35515 3.34634-.27262 1.15484-.70197 3.15488-.9541 4.44453-.25215 1.28966-.5207 2.56207-.5968 2.82759-.0761.26552-.0532.48276.0509.48276s2.44006-1.11413 5.19101-2.47583zm36.58794 29.15683c-.68276-.64255-1.53835-1.35973-1.90133-1.59373-.5552-.35793-.74007-.87421-1.16478-3.2528-.27766-1.55503-.99792-4.16735-1.60058-5.80515-2.71311-7.37317-4.58327-15.1295-7.1626-29.70628-1.27212-7.18918-1.20907-8.94854.23685-6.609.32476.52548 1.32865 1.40383 2.23085 1.9519.9022.54805 1.75883 1.21781 1.90362 1.48834 1.07014 1.99959 5.50074 16.8487 6.81382 22.8365.27339 1.24666.57959 2.1777.68046 2.06897.10086-.10873.89345-1.87354 1.7613-3.92182 3.19744-7.54648 6.32819-14.35696 9.25733-20.13793 3.56414-7.03422 7.64075-13.67213 8.10902-13.20386.23798.23798-.57182 4.9211-1.24195 7.18227-.41376 1.39608-.47852 2.01654-.26822 2.56968.36883.9701.35201 2.95313-.0332 3.9167-.17076.42713-.34677 1.39728-.39114 2.1559-.11802 2.01795-.85927 4.89082-1.32988 5.15419-.72029.40309-1.83057 4.7528-1.83057 7.17154 0 .80391-.21821 1.29612-.92536 2.08727-1.36574 1.52798-3.10728 6.42993-4.03981 11.37098-.15654.82946-1.3343 4.13676-2.61723 7.34954-1.28293 3.21278-2.41414 6.35137-2.5138 6.97464l-.18121 1.13322-1.27509-.006c-1.11595-.006-1.43002-.1522-2.51647-1.17467zM38.4 65.6c-.75067-.75067-.31907-3.07286 2.30781-12.41681 2.40275-8.54673 4.18887-13.4505 7.23937-19.87566 1.55103-3.26686 1.59389-3.41718 1.22921-4.3109-.53835-1.31934-.21523-2.50809.78429-2.88536.43887-.16566.79794-.39811.79794-.51658 0-.11846.19876-.21538.4417-.21538.24292 0 1.32453-.81738 2.40356-1.8164 2.22439-2.05943 3.21441-2.66826 3.77528-2.32163.3093.19116.3209.43136.0616 1.27618-.17566.57238-.28707 1.07302-.24755 1.11253.0395.0395 1.05961-.2437 2.2669-.62937 5.42771-1.73386 8.4423-1.00522 10.97314 2.65226 1.73553 2.5081.8463 5.63118-2.57846 9.05595-4.0468 4.0468-12.83378 9.0328-16.84727 9.55967l-1.26835.1665-2.77236 6.4032c-1.5248 3.52175-2.857 6.80663-2.96047 7.29973-.16127.76862-.11156.89656.34833.89656.29504 0 .87006-.26243 1.27783-.58318.40776-.32074.77822-.53798.82325-.48276.57848.70953-3.18776 5.55248-5.51874 7.09646-1.40414.93006-2.01345 1.05855-2.53701.535zm16.01992-27.01007c4.83643-2.4168 9.8746-5.90679 11.00771-7.62514.6-.90988.64504-1.97599.11416-2.702-.3172-.4338-.81005-.55144-2.66259-.63557-2.45496-.11149-3.691.13907-6.05161 1.22671l-1.51724.69907-1.59868 4.60281c-2.03504 5.85914-1.94429 5.56833-1.73772 5.56833.09693 0 1.19761-.5104 2.44597-1.1342zm21.16629 6.39348c-2.65612-.81088-4.71556-2.80222-5.43148-5.25186-.36943-1.26407-.39365-1.83006-.14174-3.31155.60301-3.5463 4.17544-9.56354 6.86169-11.55757 3.20553-2.37949 4.72955-2.79737 7.6944-2.10978 2.50478.5809 4.08143 1.53497 4.92265 2.97882 1.53032 2.62662 1.62588 6.11671.20997 7.66873-.68722.75328-1.19942.90187-7.7017 2.2342l-6.96551 1.42725v1.04c0 .70172.21657 1.29176.66583 1.814.60685.70544.82068.77106 2.4138.7408 2.00455-.03808 3.60055-.53511 6.68944-2.08324 2.95264-1.47984 6.16835-3.5692 8.97694-5.83262 1.28312-1.03406 2.4792-1.9651 2.65796-2.06897.17876-.10387.64158-1.35238 1.02848-2.77446l.70346-2.5856-1.0852.14556c-.59686.08006-1.0852.05606-1.0852-.05333 0-.1094.7713-.5631 1.71397-1.00824.94269-.44514 2.2707-1.2307 2.95112-1.74572l1.23714-.93638.78412.93638c.56683.6769.73894 1.11805.62108 1.59196-.13669.54965-.0828.62308.33373.45443 3.65418-1.47964 6.54402-1.85844 8.08298-1.05952.53104.27568 1.20982.95749 1.5084 1.51513.54196 1.01218.54186 1.02034-.063 4.82759-.33321 2.09753-.69036 4.4937-.79366 5.32482l-.18782 1.51112 1.76802-1.61058c3.44189-3.1354 4.29181-3.20745 2.00582-.17002-2.56529 3.40854-3.17025 5.52312-2.0042 7.00552.45014.57225.50769.82062.25947 1.11971-.28869.34785-4.70038 1.52967-5.7102 1.52967-.22925 0-.94548-.37966-1.59162-.84368l-1.1748-.84368.4989-2.12184c.27439-1.167.87678-4.23218 1.33864-6.81149 1.28254-7.1625 1.22722-6.48276.52758-6.48276-1.12538 0-3.44976.89125-4.94974 1.8979-1.78597 1.19858-2.06175 1.82838-3.45166 7.88248-1.4711 6.4078-2.30613 7.59696-4.7648 6.78553-1.79704-.59308-1.84888-.65878-1.46452-1.85601.59543-1.85467 2.24914-7.64444 2.24914-7.8744 0-.12204-1.16664.94475-2.59253 2.37064-3.02613 3.02614-9.21834 7.3391-11.51692 8.0217-1.4918.44302-4.82533.53667-6.02848.16937zm8.79125-13.26832c1.86893-.48345 2.36345-1.54347 1.587-3.40177-1.18187-2.82864-5.01603-2.75117-6.9976.14137-.83215 1.21473-2.00134 3.37596-2.00134 3.69947 0 .23522 6.23255-.13398 7.41194-.43907zM23.5174 44.6597c-3.11695-.51942-6.58543-2.36475-8.70604-4.63186-3.96273-4.23647-4.21728-10.24314-.73445-17.3308 2.86411-5.82856 8.22526-11.46036 13.42782-14.1057 3.53086-1.79535 9.29087-1.1383 14.78147 1.68614 2.90988 1.49688 4.66078 3.12792 5.76448 5.36986.80578 1.63678.8935 2.0549.87884 4.18892-.0195 2.83465-.59192 5.13806-2.05548 8.27104-1.65308 3.53867-3.95404 6.77144-7.00264 9.8385-3.01336 3.03159-5.05126 4.50174-7.68566 5.54447-3.48858 1.38082-5.65003 1.67241-8.66834 1.16943zm4.55764-6.45968c2.06082-.612 5.3568-2.92645 8.22709-5.77712 5.15993-5.12465 7.5305-10.26365 6.49407-14.07807-.6833-2.51475-3.22574-4.29846-7.7689-5.45042-2.58931-.65654-2.64895-.65915-4.06574-.17757-3.67439 1.24897-6.80434 3.65742-8.9293 6.87097-1.15454 1.746-3.94367 7.20662-4.53054 8.86997-.59542 1.68762-.49912 3.72788.25211 5.3411 1.77304 3.8075 6.10293 5.65383 10.3212 4.40114z"/><path fill="#a39f9e" d="M9.29877 118.61837c-.19033-.72785.70525-4.99286 2.04232-9.72607.58999-2.08854 1.07288-3.82647 1.07309-3.86207.0002-.0356-1.986-.0277-4.4138.0174l-4.41417.0821v-.68002c0-.55179-.23406-.76939-1.24138-1.15409-.68276-.26075-1.24086-.48826-1.24023-.50558.00064-.0173.31098-.64218.68966-1.38858.80066-1.57819.863-2.24197.24314-2.58886-.28167-.15763 2.025-.32356 6.27586-.45144 3.69667-.11121 6.7332-.22247 6.74783-.24723.01463-.02477 2.02292-4.07951 4.46287-9.01055 4.63776-9.37274 7.11662-13.89312 10.29935-18.78164 1.44314-2.21657 1.90083-3.1548 1.90083-3.89655 0-.53734.07576-1.35576.16835-1.81872.18535-.92677.61876-.93148 1.63818-.0178.52762.47289.60797.47653 1.21003.05483l.64489-.4517-.18964 1.26457c-.1043.69551-.07339 1.49027.0687 1.76613.14207.27586.51767 1.30846.83466 2.29467.35212 1.09547.52602 1.41745.44697.82758-.569-4.24598 3.04154 10.87217 5.55313 23.25226.11214.55276.28523.73168.61456.63522.25215-.07385 1.20328-.32606 2.11362-.56047.91035-.2344 2.24848-.60852 2.97363-.83136l1.31845-.40517-.4219.60235c-.23204.3313-.42904.79197-.43776 1.02373-.0156.41408-2.54838 2.51414-4.3491 3.60604-.77244.46838-.8921.6739-.76056 1.30628.26141 1.25667 1.4768 8.92092 1.6891 10.65143.16218 1.32195.13053 1.58259-.16963 1.39709-.20295-.12543-.716-.26605-1.1401-.31248-.73944-.081-.7711-.0349-.7711 1.12087 0 .77406-.15974 1.33785-.4465 1.57584-.3587.29771-.42005.74022-.31197 2.25075.12989 1.81534.11693 1.86426-.37561 1.41852-.93562-.84673-3.56267-8.80195-4.6474-14.07327-.19095-.92796-.43022-1.82155-.53171-1.98576-.12638-.20449-.91856-.0851-2.51426.37876-2.61221.75945-9.20406 2.08911-13.37472 2.69785-2.56477.37435-2.80631.46475-3.51724 1.31632-.41984.5029-.76334 1.00431-.76334 1.11425 0 1.09339-6.0756 12.64854-6.6505 12.64854-.09994 0-.2469-.24932-.3266-.55405zm16.90813-21.3628c.83448-.08638 3.2381-.42192 5.3414-.74564l3.82414-.58856-.1458-.99517c-.28944-1.97561-3.00148-16.99723-3.08382-17.08089-.18049-.18336-1.09383 2.59735-1.0121 3.0814.05215.30887-.03082.44035-.20856.3305-.17915-.11072-.23287-.0201-.13667.23057.242.63066-2.44275 7.02866-4.70057 11.20188-2.98732 5.52157-2.77117 5.00493-2.03042 4.85314.34934-.07158 1.31791-.20083 2.1524-.28722zm32.44145 19.91685c-.50414-.45169-.78078-1.10891-1.01602-2.41379-.1778-.98621-.68386-2.54023-1.12458-3.45338l-.80133-1.66028 1.12795-5.61144c.62037-3.08629 1.064-5.6754.98582-5.75357-.07817-.07817-.649.0607-1.26852.30857-.61952.24788-1.40053.3833-1.73558.30092-.33506-.08238-1.59178.10293-2.79272.4118-1.20095.30887-2.23001.5151-2.28682.45829-.05681-.05681 1.7881-1.20526 4.09981-2.5521 2.31171-1.34685 4.41314-2.63502 4.66983-2.8626.28318-.25107.87393-2.09535 1.50216-4.68966.88368-3.64918 3.44084-13.11233 3.86878-14.31696.11444-.32216-.33667-.35528-2.73066-.2005-2.84209.18374-2.87178.17925-3.31745-.50094-.24734-.37748-.4497-.9328-.4497-1.23405 0-.30125-.20403-.6619-.4534-.80145-.51101-.28598 2.37725-1.34544 6.50084-2.38461l2.32332-.5855.64138-1.91903c1.0916-3.26609 2.35681-5.97076 2.65401-5.67357.17667.17667.15663.72239-.05779 1.57393-.20635.8195-.26056 2.0809-.14598 3.39722l.18225 2.09373 3.28947-.09226c7.56094-.21206 12.6166 2.1596 15.06299 7.0662 1.2749 2.557 1.57346 4.34293 1.18034 7.06048-.37494 2.59184-.89033 3.8891-2.46828 6.21273-1.30402 1.92026-1.50383 2.05434-3.74363 2.51214-1.92399.39326-6.92086 2.131-8.61781 2.99698-.96958.49479-1.26206.53905-1.7107.25886-.60615-.37854-2.49583-.07938-5.6474.89404l-1.73306.53529-.34312 2.4157c-.18871 1.32864-.69662 5.14674-1.12868 8.48467-.8266 6.38614-1.50222 9.06135-2.49052 9.86162-.78677.63709-1.19134.60962-2.0252-.13748zm12.662-29.65907c6.47063-3.23388 8.88024-4.9835 9.8396-7.14453.98256-2.21332-.1257-3.19207-4.73615-4.18265-2.09386-.44988-7.1054-1.15377-8.19603-1.15116-.11977.00028-.25444 1.2727-.29927 2.82758-.05514 1.9127-.38973 4.26996-1.03448 7.28824-.52414 2.45365-.95298 4.54132-.95298 4.63928 0 .32117 1.18284-.17946 5.3793-2.27676zm37.04681 29.43456c-.34369-.46486-1.053-1.11658-1.57627-1.44827-.52326-.3317-1.05222-.6722-1.17547-.75668-.12326-.0845-.42191-1.26378-.66367-2.62069-.24176-1.3569-1.10977-4.42683-1.92891-6.82207-2.78958-8.15698-4.42002-14.9234-6.72033-27.88984-1.45772-8.2169-1.45997-9.64422-.01202-7.61075.32666.45874 1.25144 1.25469 2.05506 1.76876.80363.51408 1.66558 1.22494 1.91546 1.5797.97936 1.3905 5.23538 15.37124 6.90996 22.69878.55829 2.44293.66754 2.69157.91573 2.08419 5.04655-12.34993 11.92155-26.74463 15.5225-32.50064 1.79584-2.87059 3.27243-4.85763 3.46595-4.6641.16674.16674-.9411 5.90702-1.45412 7.5345-.37408 1.18675-.40188 1.61592-.14167 2.18703.44748.9821.40481 2.59475-.10661 4.02921-.23669.6639-.3648 1.54413-.28469 1.95606.0801.41193-.0366 1.26547-.2593 1.89675-.22273.63129-.40496 1.40483-.40496 1.71897 0 .31415-.31811 1.03022-.70691 1.59126-.87275 1.25936-1.43 3.26494-1.74792 6.29081-.21731 2.0684-.33252 2.3991-1.0787 3.09647-1.17351 1.09674-2.77186 5.5227-3.78077 10.46927-.2586 1.2679-1.43655 4.7239-2.62211 7.69307-1.18391 2.96505-2.3586 6.10479-2.61041 6.9772l-.45785 1.58621h-1.21355c-1.03412 0-1.30593-.12496-1.83842-.8452zM38.29221 65.23606c-.43673-.95852-.03605-2.98072 2.13064-10.7533 2.76904-9.93333 4.84265-15.65631 7.82895-21.60723 1.38267-2.75528 1.3887-2.7788.99673-3.88974-.5378-1.52432-.16609-2.49441 1.19695-3.12372.57509-.26552 1.11581-.48276 1.2016-.48276.0858 0 .99669-.80034 2.02421-1.77853 2.77582-2.64255 4.4031-3.09254 3.67975-1.01756-.17126.49127-.26218.94242-.20206 1.00254.06013.06013 1.1607-.2107 2.4457-.60185 1.60217-.4877 3.03647-.72152 4.5643-.7441 2.02942-.02998 2.34866.0417 3.58269.8043.77913.48149 1.79578 1.4685 2.39275 2.32298.87462 1.2519 1.038 1.71022 1.038 2.91183 0 2.19287-1.21662 4.35465-3.83918 6.82177-2.82008 2.65293-5.61736 4.49897-10.45269 6.89815-3.03607 1.50643-4.29469 1.98725-5.45337 2.08334-.82848.0687-1.59553.26453-1.70454.43516-.57972.90738-5.5845 12.7183-5.7396 13.54503-.16566.88302-.1243.97212.45124.97212.34849 0 .92092-.26992 1.27208-.59982.6295-.59137.63847-.59191.63847-.0385 0 .81998-1.16303 2.43509-3.40422 4.7275-2.8086 2.87277-4.04578 3.435-4.6484 2.11239zm21.7078-29.72836c4.717-3.15963 6.50877-5.16052 5.9462-6.6402-.39585-1.04117-1.27566-1.36344-3.72918-1.36597-1.852-.0019-2.5949.14564-4.51208.89623-1.26228.49419-2.34306 1.04134-2.40173 1.2159-.34417 1.02394-3.40388 9.50589-3.5801 9.92454-.25443.60445 5.64912-2.27033 8.27688-4.0305zm15.12619 9.23933c-1.95271-.69712-3.26207-1.76283-4.21427-3.43008-1.5186-2.65895-1.30247-5.21893.7872-9.32468 2.3368-4.59128 4.62529-7.21104 7.58956-8.6882 1.7318-.86299 4.06486-.9077 6.5945-.12638 3.06852.94778 4.77687 3.5495 4.70898 7.17159-.02797 1.49255-.54391 2.92154-1.26363 3.49983-.19966.16042-2.90785.81434-6.0182 1.45313-3.11034.6388-6.24482 1.28465-6.96551 1.43523l-1.31034.27377.0061 1.14955c.0037.70277.21213 1.4176.53615 1.83921.48353.62915.70687.68757 2.5456.66588 1.57985-.01864 2.50574-.21609 4.28309-.91339 3.0094-1.18067 7.7139-4.04326 11.38506-6.92758l2.98109-2.34215.71764-2.54789c.3947-1.40134.71765-2.60388.71765-2.67231 0-.06843-.46552-.06006-1.03449.0186-.9443.13056-.85413.04291 1.03449-1.00547 1.13793-.63167 2.41589-1.4772 2.83992-1.87896l.77095-.73047.7379.94286c.48447.61904.71018 1.20714.65719 1.71232l-.0807.76945 1.52432-.67412c3.41683-1.51108 6.6253-1.49604 8.04674.03772.9899 1.06811 1.02323 1.85982.27121 6.4422-.3842 2.34114-.69855 4.69199-.69855 5.2241 0 .9228.0184.94118.39908.39772.42492-.60666 4.09356-3.69092 4.39025-3.69092.39558 0 .11223.53703-1.10257 2.08971-2.45603 3.13916-3.18869 5.74332-2.03018 7.21612.3842.48843.46885.80476.27716 1.03574-.15179.1829-1.57165.61688-3.15525.96441l-2.87926.63188-1.12203-.88866c-.61712-.48877-1.12203-1.00368-1.12203-1.14427 0-.14058.24382-1.35021.54182-2.68808.60632-2.72202 2.2168-11.4995 2.2168-12.08207 0-.92823-2.86905-.19175-5.51528 1.41575-1.57455.95649-1.60026.99295-2.28725 3.2429-.38214 1.25154-1.08397 3.92443-1.55962 5.93974-1.0343 4.38234-1.26931 4.94552-2.28228 5.46935-.83742.43305-2.37955.19785-3.32567-.50722-.43976-.32771-.42774-.48481.18511-2.41944.36048-1.13793.97386-3.24228 1.36307-4.67634l.70767-2.60738-1.84978 1.92329c-3.2934 3.42428-7.88119 6.85435-11.35449 8.48922-2.30362 1.0843-5.45524 1.29653-7.64495.5148zm9.88778-13.2124c1.24735-.49909 1.55289-1.29191 1.09145-2.83207-.48643-1.62354-1.52837-2.49566-2.98162-2.49566-2.33603 0-3.67845 1.08277-5.6089 4.52404l-.91298 1.62748 3.67602-.19983c2.21182-.12023 4.09824-.36876 4.73603-.62396zM23.76773 44.66827c-1.71469-.29932-4.70563-1.44387-6.16139-2.3578-7.21615-4.53028-7.81383-13.50645-1.53435-23.04363C19.11543 14.6445 24.97247 9.45995 28.55173 8.22c1.91575-.66368 5.79846-.6483 8.46439.03354 3.98773 1.01989 8.32967 3.48803 10.00872 5.68939 2.3567 3.08978 2.45258 7.91968.26127 13.16048-2.40556 5.75325-7.97654 12.4059-12.66542 15.12457-3.45034 2.00056-7.78659 2.97557-10.85296 2.4403zm4.57194-6.46492c3.0633-.9097 9.06315-6.12014 11.86214-10.30142 3.52895-5.27173 3.80002-9.75073.75206-12.42687-1.36779-1.20094-2.9533-1.89477-6.13838-2.68621l-2.56383-.63707-1.7775.66905c-5.15586 1.94066-7.99859 4.9745-11.62463 12.40613-1.57801 3.23415-1.60815 3.34014-1.60815 5.65517 0 2.07677.0908 2.51371.75835 3.64929 1.98822 3.3822 6.236 4.89067 10.33994 3.67193z"/><path fill="#827c7a" d="M9.37931 118.05395c0-1.2175 1.2633-6.78786 2.35174-10.3697.3755-1.23574.68274-2.3548.68274-2.4868 0-.13201-1.94873-.23819-4.33052-.23597l-4.33053.004-.15984-.6692c-.11534-.4829-.48246-.77674-1.31866-1.05548l-1.15881-.38627.68366-1.34915c.75726-1.49436.84907-2.19519.35263-2.69162-.25747-.25747.5548-.33135 3.65518-.33246 2.19241-.00079 5.20066-.08186 6.68498-.18014l2.69878-.17871 1.69592-3.61297c4.49947-9.58561 9.78424-19.37632 13.22389-24.49893 1.12322-1.6728 1.6185-2.67892 1.62957-3.31035.0087-.49892.10184-1.38227.2069-1.963l.191-1.05587 1.06672.72461c1.03074.70016 1.08517.70793 1.61319.23008.5393-.48806.54387-.47737.34984.81652-.11085.73921-.08234 1.46037.06538 1.65338.1441.18827.41223 1.02508.59586 1.85956.18364.83448.5155 1.82759.73748 2.2069l.4036.68965-.14183-.82758c-.11206-.65392-.05519-.59603.271.27586.22706.6069 1.46325 5.99062 2.7471 11.96384 1.28385 5.9732 2.39629 10.9224 2.47209 10.9982.0758.0758 1.63265-.28924 3.45968-.81119 2.68701-.76764 3.23913-.85759 2.88898-.47068-.23808.26309-.46362.6878-.5012.9438-.083.56555-3.23092 3.27647-4.3363 3.73433-.43727.18113-.79504.43559-.79504.56546 0 .12987.35997 2.4424.79993 5.13895 1.22827 7.52804 1.27643 7.98753.79536 7.58827-.22257-.18472-.47573-.2648-.56257-.17796-.08684.0868-.4168.0193-.73323-.15003-.54271-.29045-.57536-.23905-.57536.90596 0 .81271-.1901 1.45557-.57522 1.94517-.56744.72137-.5849 1.52426-.07874 3.61898.11292.4673.03065.43938-.53764-.18247-.8051-.881-3.09273-7.69608-4.1983-12.50718-.41839-1.82069-.83544-3.39348-.92678-3.49508-.09134-.1016-1.8362.24467-3.87745.76949-3.57961.92035-12.56161 2.58766-13.94004 2.58766-.92835 0-1.88558 1.12791-2.7846 3.2811-1.77216 4.24438-5.7809 11.61545-6.31704 11.61545-.07892 0-.1435-.50331-.1435-1.11847zM29.10345 96.9308c1.51724-.21652 3.5489-.52977 4.51481-.69613l1.7562-.30247-.14347-1.13851c-.22175-1.75968-2.93534-16.79689-3.05224-16.91379-.21414-.21414-1.2963 2.70169-1.11285 2.99853.12578.2035.06604.23257-.1736.08446-.27145-.16776-.31594-.097-.17306.27534.23305.60733-.31757 2.41567-.66935 2.19826-.13775-.08514-.16872.05822-.06882.31857.10046.26178.06821.40362-.07212.31731-.13957-.08584-.2662.1884-.28138.60943-.03093.85762-2.2474 5.60176-4.6155 9.879-.86008 1.55349-1.56379 2.8895-1.56379 2.96895 0 .15698 1.38797.01 5.65517-.59896zM58.9888 117.4101c-.69267-.3433-1.54742-2.4376-1.5888-3.89286-.01293-.45518-.32936-1.32414-.70316-1.93104-.93054-1.51082-.88108-2.63493.38005-8.63701.64358-3.063.93907-5.00201.7508-4.92682-.17075.06819-.83944.33785-1.48598.59924-.85056.34388-1.27386.39365-1.53126.18003-.25747-.21369-.84339-.14346-2.12119.25423-.971.30221-1.95576.51282-2.18836.46803-.2326-.0448 1.56933-1.23948 4.0043-2.65485l4.4272-2.5734 1.15619-4.7677c.98202-4.04953 3.03393-11.63666 3.76357-13.91618l.21256-.66409-2.85995.15844c-2.80945.15563-2.86895.14632-3.36992-.52733-.28342-.38112-.44612-.92988-.36625-1.2353.10081-.38551-.02917-.6135-.43549-.7638-.45478-.16824.0091-.39904 2.15936-1.07443 1.5062-.4731 3.59823-1.0829 4.64894-1.35514l1.9104-.49496 1.02313-2.75862c1.74529-4.70567 1.97999-5.19407 2.25762-4.69797.15125.27027.1209.81816-.07887 1.42345-.21358.64716-.26016 1.75971-.13604 3.24971l.18873 2.26565 3.08301-.1173c7.57309-.28812 12.93714 2.26042 15.41288 7.32291.87056 1.78014.91152 2.00647.91152 5.03631 0 3.82566-.27908 4.83515-2.06506 7.46983-1.54638 2.28122-1.81319 2.46085-4.65625 3.13488-2.24714.53275-7.44912 2.4193-8.41372 3.05134-.5195.3404-.70165.34584-1.15468.03453-.44958-.30894-.83223-.30881-2.33098.00077-1.9044.39338-4.38669 1.12333-4.90102 1.4412-.3279.20266-1.14323 5.34676-1.86455 11.764-.45585 4.05549-1.22705 7.44919-1.94006 8.53739-.52668.80381-1.26018 1.01243-2.09867.59686zm15.47026-31.41597c5.63746-3.13178 8.09604-6.01739 6.72179-7.88927-.89892-1.22442-5.44705-2.41418-11.29325-2.95424l-1.97445-.1824-.01586 1.06761c-.0087.58719-.01375 1.76958-.01116 2.62754.0026.85796-.43626 3.61032-.9752 6.11635-.53895 2.50603-.9799 4.74346-.9799 4.97208 0 .30487.93113-.02642 3.49355-1.24299 1.92145-.91226 4.18697-2.04387 5.03448-2.51469zm34.0753 30.95316c-.44562-.4652-1.31972-1.16818-1.94243-1.56218l-1.13221-.71636-.6975-3.33438c-.38363-1.8339-1.32768-5.13951-2.09789-7.34579-.77021-2.20628-1.89973-5.93042-2.51004-8.27586-2.01626-7.74863-5.27515-25.3092-4.88538-26.32493.18506-.48227.30576-.42272 1.2268.60524.56183.62707 1.54597 1.45888 2.18696 1.84846.64099.38959 1.34268.98807 1.55931 1.32997 1.05865 1.67082 4.85242 14.1173 6.60799 21.6793l.91801 3.95423 1.59981-3.8163c4.5731-10.90889 10.32222-22.92004 13.64433-28.50594 1.69156-2.84424 3.84747-5.92268 4.02355-5.74524.13907.14016-.91904 5.71001-1.39895 7.36397-.36236 1.24884-.37535 1.6927-.0829 2.8337.2926 1.14168.27709 1.6642-.0993 3.34679-.24533 1.09664-.44651 2.30423-.44706 2.68354-.002 1.105-.96583 4.31386-1.46332 4.86983-.64606.72199-1.29058 3.09837-1.63014 6.01038-.24057 2.06313-.40335 2.59535-.9331 3.05083-1.24645 1.07168-2.64046 4.79856-3.8804 10.37424-.39162 1.76097-1.52155 5.111-2.8379 8.41379-1.20297 3.01831-2.34444 6.07748-2.5366 6.79817-.33671 1.26279-.38627 1.31035-1.36538 1.31035-.77366 0-1.20924-.20174-1.82622-.84581zM38.32794 65.34776c-.42619-.79635-.18207-2.26943 1.29622-7.82164 2.96367-11.13106 4.96323-16.89874 8.25497-23.81126 1.73955-3.65298 1.7438-3.66791 1.35637-4.766-.54285-1.53863-.18339-2.30947 1.4308-3.06823.71772-.33737 2.1183-1.39237 3.11242-2.34445 2.70303-2.58874 4.29015-3.01212 3.57232-.95296-.17126.49127-.24658.95802-.16737 1.03723.0792.0792 1.1177-.16152 2.30776-.53494 2.97451-.93335 5.15296-1.14173 6.77007-.6476 1.60561.49061 2.5249 1.20062 3.86677 2.98649.89646 1.19307 1.04415 1.59265 1.04415 2.825 0 2.87658-2.53357 6.27919-7.08732 9.51834-4.5476 3.23479-11.0159 6.3702-13.14158 6.3702h-1.18554l-2.83482 6.52867c-1.55915 3.59078-2.89941 6.92672-2.97836 7.4132-.19249 1.18617.31713 1.44657 1.3445.68701 2.02375-1.49623 1.02514.72552-1.5986 3.5566-3.12248 3.36923-4.70158 4.25977-5.36276 3.02434zM57.46327 37.0666c4.98728-2.81863 8.74363-6.08507 8.74363-7.60329 0-.28758-.29369-.81656-.65264-1.17551-1.35063-1.35062-5.1365-1.17473-8.62405.40069l-1.69048.76363-1.03735 3.136c-.57055 1.72481-1.39259 4.03925-1.82676 5.1432-.43418 1.10395-.78941 2.06445-.78941 2.13445 0 .24022 3.1741-1.27157 5.87705-2.79917zM76 45.00232c-5.45564-1.43564-7.41714-6.40195-4.74583-12.01593 1.35683-2.85149 2.83609-5.26948 4.03677-6.5985 1.06558-1.17947 3.52114-2.91395 4.92183-3.47654 1.28872-.51761 4.55236-.25426 6.26655.50566 1.79619.79627 2.55459 1.52207 3.3476 3.20368 1.1239 2.3833.76456 6.51649-.63115 7.25951-.27836.14819-3.36128.84765-6.85094 1.55435-3.48966.7067-6.61727 1.39655-6.95026 1.533-.5213.21363-.5823.39364-.439 1.29545.09152.57604.34324 1.3206.55936 1.65457.52504.81135 2.42232 1.08619 4.44975.64459 3.39075-.73855 9.44999-4.17029 14.38015-8.1444 1.28966-1.03956 2.37946-1.91415 2.42178-1.94353.09031-.0627 1.43182-4.8677 1.43686-5.14654.0019-.10425-.46209-.1268-1.03105-.05011-.95712.12901-.88915.06032.9089-.91856 1.06887-.5819 2.36026-1.38425 2.86977-1.783l.92637-.725.64748.76949c.36962.43927.64748 1.13049.64748 1.6107v.84122l1.24781-.55197c.68629-.30358 2.08284-.72879 3.10345-.9449 2.96396-.62765 4.89304-.02534 5.70778 1.78213.41922.93001.40445 1.23406-.25531 5.25345-.38516 2.34647-.70028 4.75493-.70028 5.35214v1.08583l1.62716-1.59613c1.60708-1.57641 3.33835-2.86433 3.33835-2.48344 0 .10787-.57133.95616-1.26962 1.8851-2.6233 3.48976-3.2697 5.74898-2.09822 7.3335.56971.77056.57826.84306.12724 1.0783-.26594.13872-1.64604.5227-3.06689.85332l-2.58335.6011-1.10323-.76454c-.60677-.4205-1.15854-.9087-1.22615-1.08488-.0676-.1762.0661-1.04986.29714-1.94147.5003-1.93072 2.37136-12.03419 2.37136-12.80502 0-1.17259-2.94889-.48266-5.71195 1.33638-1.68357 1.10836-1.86238 1.54372-3.63972 8.8618-1.24995 5.14658-1.71372 5.93415-3.45583 5.86866-.83141-.03126-2.64078-.70495-2.64078-.98327 0-.0482.25483-.82089.56628-1.71705.69119-1.98883 2.24092-7.60381 2.12942-7.71531-.04434-.04434-.58192.51404-1.19462 1.24085-2.51479 2.98315-8.71787 7.73599-12.14307 9.3041-1.63766.74974-5.01439 1.0983-6.59939.6812zM80.8276 32.1452c3.5595-.19703 4.8426-.50355 5.2435-1.25261.74816-1.39796-.26354-3.92557-1.83388-4.5817-.85785-.35844-1.13915-.3573-2.40156.0097-1.72209.50062-2.7881 1.53876-4.1558 4.04715-1.12774 2.06826-1.17756 2.27319-.50743 2.08711.26551-.07373 1.91034-.21307 3.65517-.30965zm-56.4138 12.52482c-5.11655-.65418-9.66033-3.66054-11.51317-7.6176-1.5396-3.28809-1.40142-8.01764.3638-12.45226 2.19372-5.51107 6.74198-11.02046 12.1039-14.66167 2.6892-1.8262 3.5795-2.0776 7.32134-2.06741 3.00713.00819 3.55039.0916 5.93103.91065 4.63733 1.59543 8.06716 4.1035 9.39274 6.86844.85154 1.77618 1.0363 5.28128.41765 7.92323-1.40714 6.00913-7.48806 14.51117-12.89202 18.02498-2.03876 1.32566-5.456 2.73333-7.2098 2.96994-.63627.08584-1.40512.19145-1.70857.2347-.30345.04324-1.29655-.01661-2.2069-.133zm4.23148-6.55882c3.88545-1.47635 9.58846-6.72027 12.34647-11.35259 2.81593-4.7296 2.83904-8.60183.06692-11.21164-1.29208-1.21642-2.86436-1.9412-5.95082-2.74312-2.58456-.67153-2.7106-.67901-4.06002-.24104-3.642 1.18206-6.89502 3.68138-9.09112 6.98479-.67274 1.01194-2.00576 3.43712-2.96227 5.38928-1.51116 3.08415-1.75296 3.79445-1.84475 5.419-.0581 1.02827.03826 2.30561.21413 2.83852.71684 2.17204 2.77565 4.17258 5.17486 5.0284 1.53596.54789 4.5142.49346 6.1066-.1116z"/><path fill="#645c5a" d="M9.37931 118.20676c0-1.25165 1.04934-5.8953 2.29219-10.14362l.94997-3.24722-3.22749.1824c-4.15145.23462-5.74192.0177-5.85943-.799-.06004-.41734-.43406-.72778-1.23023-1.0211l-1.14396-.42145.6612-1.23618c.73032-1.36542.83264-2.20431.33016-2.7068-.25747-.25746.77569-.33103 4.6492-.33103 2.73912 0 5.7415-.07957 6.67196-.17682l1.69174-.17682 4.27752-8.683c4.52191-9.1791 7.01025-13.73662 10.19537-18.67341 1.76572-2.7368 1.9746-3.21156 2.22456-5.05631l.27586-2.03592 1.06673.72506c.97149.66031 1.10895.68685 1.53955.29716.44082-.39894.47275-.32986.47172 1.02091-.0016 2.04898 1.23634 6.1798 1.75572 5.8588.24984-.1544.57179 1.19456 3.27998 13.74305 1.04145 4.82555 1.96609 8.84628 2.05476 8.93496.08867.08867 1.37498-.18084 2.85845-.59892 4.29853-1.2114 3.88195-1.15055 3.2909-.4808-.28038.3177-.43693.69553-.34788.83961.18218.29478-2.45913 2.5581-4.03677 3.45908-.5678.32427-1.03331.74027-1.03448.92444-.0012.18417.37293 2.66693.83133 5.51724 1.29258 8.03726 1.22638 7.4258.7622 7.04057-.22277-.18489-.48372-.25748-.57989-.16131-.09617.0962-.36705.0153-.60197-.17964-.5773-.47911-.72983-.25812-.895 1.29672-.07737.72819-.32853 1.53923-.55815 1.80232-.34341.39348-.36959.77574-.14754 2.15456.2673 1.65971.26467 1.67093-.26596 1.14029-.69047-.69046-2.90403-7.36756-4.08591-12.32492-.50641-2.12414-.94435-3.90113-.9732-3.94887-.02885-.0478-2.02028.40668-4.42542 1.00982-2.40513.60315-6.54538 1.42852-9.20055 1.83416s-5.0097.83113-5.23227.94553c-.45007.23133-1.1934 1.62557-3.45132 6.4735-1.4446 3.10167-4.09678 7.74577-4.60173 8.05784-.12755.0788-.23192-.30586-.23192-.85488zm21.63076-21.53715c2.41416-.36671 4.4226-.69997 4.4632-.74057.0406-.0406-.10468-1.00332-.32285-2.13936-.21816-1.13605-.89499-4.92071-1.50406-8.41037-1.51082-8.65614-1.28455-8.04253-2.23786-6.06896-.43972.91034-.73997 1.90448-.6672 2.20919.07276.3047.0052.73919-.15016.96551-.21417.31203-.24156.24479-.11328-.27815.22147-.90285-.26387-.14717-.53153.82759-.1446.52662-.12088.59184.10034.27586.3229-.46121.386-.27403.13132.38964-.09176.23913-.24693.38533-.34483.3249-.0979-.06043-.19512.17618-.21606.5258-.05893.98404-1.77479 4.75506-4.07704 8.96032-1.15048 2.10145-2.09178 3.9025-2.09178 4.00234 0 .2265 1.94484.0095 7.56179-.84374zm77.5243 20.26837c-.44562-.47033-1.32431-1.21182-1.95262-1.64778-1.11524-.77379-1.15347-.85347-1.60816-3.35176-.25616-1.40752-1.26027-4.91775-2.23133-7.8005-.97107-2.88276-2.25829-7.2276-2.86049-9.65518-1.93952-7.81862-4.95347-24.20733-4.61434-25.09107.13797-.35956.39927-.21683 1.3484.7366.6475.65042 1.75135 1.57237 2.453 2.04878l1.27572.8662 1.99598 6.03009c1.09779 3.31655 2.77936 9.13354 3.73681 12.92664 1.45497 5.76407 1.78454 6.7833 2.00699 6.2069 1.99778-5.17664 7.35477-17.10283 10.53247-23.44828 2.70867-5.40884 4.2405-8.13004 6.39428-11.35897 1.62402-2.43472 2.35171-3.2299 2.06982-2.26178-.0828.28452-.35114 1.63455-.59622 3.00006-.24508 1.36552-.64613 3.12936-.89124 3.91966-.3886 1.25298-.39835 1.63399-.0762 2.9769.32436 1.35208.31326 1.71822-.0909 3.00048-.2532.80327-.44121 1.94963-.41778 2.54747.0234.59785-.0864 1.33206-.24403 1.63159-.15765.29953-.37887 1.10322-.4916 1.78597-.11273.68276-.48889 1.5796-.83592 1.993-.68596.81715-1.34934 3.37491-1.66031 6.4016-.16469 1.60299-.32084 2.02636-.96653 2.6207-1.145 1.0539-2.97865 6.18415-3.86262 10.8069-.18552.97021-1.36542 4.37091-2.622 7.55711-1.25658 3.18621-2.43275 6.38276-2.61371 7.10345-.31824 1.26738-.36245 1.31035-1.34812 1.31035-.78145 0-1.20802-.1994-1.82932-.85513zm-49.85468.23444c-.25314-.18966-.66422-1.21379-.91352-2.27586-.2493-1.06207-.74867-2.58551-1.10972-3.38543-.36105-.79991-.65276-1.85508-.64826-2.34482.0045-.48975.48819-3.187 1.07485-5.99389.58666-2.8069 1.0336-5.13903.9932-5.18253-.04042-.04349-.7242.17742-1.51953.4909-1.02204.40286-1.54693.48628-1.79007.2845-.23974-.19898-.66932-.17184-1.41739.08952-.59036.20627-1.56994.45982-2.17683.56345-1.35979.23219-1.41655.27377 3.75464-2.75017l4.0305-2.3569.90054-3.77629c.70385-2.95154 2.81136-10.73969 4.07148-15.04588.13979-.4777-.03107-.50479-2.62193-.41584-2.44957.0841-2.8412.03204-3.37186-.44819-.44311-.40101-.56032-.74373-.4474-1.3083.1298-.64901.05995-.76808-.4608-.7855-.8081-.02703 2.56615-1.2213 5.8619-2.07474 1.4375-.37224 2.7029-.76688 2.812-.87697.10912-.1101.57427-1.2664 1.03368-2.56958 1.17657-3.33749 2.12984-5.3249 2.3184-4.8335.08508.22172.03293.84415-.1159 1.38317-.14883.53901-.23448 2.0069-.19034 3.26195l.08026 2.28193 4.13793.01357c3.08408.0101 4.5946.13897 5.93104.50598 4.00318 1.09934 6.98594 3.51597 8.63408 6.99534.83882 1.77082.88237 2.02369.8674 5.03683-.01814 3.6567-.42333 5.0065-2.24171 7.46796-1.50695 2.03987-1.66446 2.14358-4.16197 2.7401-2.33562.55784-8.01892 2.60271-8.46022 3.04401-.34948.34948-1.34995.33902-1.70682-.01785-.19346-.19346-.88748-.14612-2.1931.14959-2.2261.50419-4.5794 1.22408-4.8756 1.49149-.21969.19832-1.34625 7.68267-1.851 12.29712-.36804 3.36471-1.01798 6.27313-1.71068 7.65517-.41306.82413-.67492 1.03449-1.28775 1.03449-.42309 0-.97636-.15518-1.2295-.34483zm11.02043-28.77395c5.00064-2.36914 7.78605-4.02065 9.64194-5.71683 2.34276-2.14115 2.91272-3.7567 1.71803-4.86973-1.16034-1.08102-5.97928-2.25473-10.96416-2.67045l-2.18331-.18208-.01565 1.20997c-.0086.66548-.01592 1.83432-.01624 2.59741-.00048 1.09982-.83845 5.5474-2.0645 10.95738-.06017.26552-.06977.48276-.02132.48276.04844 0 1.8058-.8138 3.90521-1.80843zM38.62069 65.66074c-.91781-.58079-.42806-3.22197 2.48508-13.40174 2.3499-8.21162 4.77334-14.678 7.61777-20.32628.96574-1.9177.9748-1.96692.55753-3.0292-.56808-1.44618-.1881-2.236 1.45101-3.01594.69736-.33183 1.97639-1.286 2.8423-2.12037 2.86789-2.76346 4.34452-3.27751 3.738-1.3013-.16575.54005-.23495 1.0483-.1538 1.12946.08117.08116 1.25024-.17667 2.59794-.57294 4.63167-1.36187 7.26925-.9631 9.50461 1.43696 1.67212 1.7953 1.98692 2.48696 1.85514 4.076-.17614 2.12403-1.18057 3.9016-3.5169 6.22393-4.12943 4.1047-13.56308 9.37861-16.7759 9.37861h-1.08462l-2.81363 6.45708c-1.5475 3.5514-2.88346 6.88733-2.9688 7.4132-.20447 1.26005.28095 1.53633 1.33287.75861 2.05315-1.51795.87423.9142-1.84344 3.8031-1.18606 1.26078-2.62783 2.5328-3.20396 2.82672-1.21373.6192-1.0915.5993-1.6212.2641zm17.65517-27.91346c4.74925-2.5335 8.98155-5.77618 9.65219-7.39524.27279-.65856.27515-1.00532.0112-1.64256-.39793-.9607-.72344-1.10778-2.90184-1.3112-1.91908-.1792-4.37179.35812-6.45625 1.4144-1.27639.64679-1.39547.80118-1.97333 2.55851-.33824 1.0286-1.15647 3.33465-1.8183 5.12455-.66182 1.7899-1.20332 3.31226-1.20332 3.38302 0 .21713 1.93939-.66433 4.68966-2.13148zm19.44828 7.12614c-1.85734-.61756-2.78547-1.21429-3.9547-2.5426-1.45114-1.64858-1.80065-2.76028-1.63365-5.19616.21534-3.14102 2.9337-8.45078 5.75221-11.23577 3.1073-3.07034 5.97689-3.87712 9.70006-2.72714 2.15289.66495 3.0067 1.29823 3.97268 2.94655 1.34324 2.29207 1.18326 6.74335-.27501 7.65194-.32784.20427-3.51331.95669-7.07883 1.67205s-6.66897 1.39866-6.89655 1.51844c-.52395.27576-.41634 2.0167.181 2.92837 1.69783 2.59121 10.52377-.69592 17.90999-6.6704 3.57685-2.8932 3.45543-2.742 4.14645-5.16329.84854-2.9732.84475-3.03657-.16848-2.81403-1.2841.28204-.98682-.04961.89656-1.00023.94827-.47864 2.13164-1.18101 2.6297-1.56083l.90557-.69059.68064.63943c.45329.42585.68064.9394.68064 1.53753v.8981l1.72414-.71456c1.23716-.51274 2.38642-.74904 4.06896-.83662 2.12341-.11052 2.41962-.0629 3.13688.50435 1.53094 1.21076 1.62655 1.93106.85827 6.46625-.37664 2.22332-.6848 4.60619-.6848 5.29527v1.25287l1.9192-1.81048c1.81535-1.71251 3.04631-2.61972 3.04631-2.2451 0 .09273-.5352.87295-1.18935 1.73384-1.71175 2.25277-2.31239 3.32588-2.67998 4.78808-.2951 1.17383-.26732 1.39397.30411 2.4107.34588.61541.54868 1.1991.45068 1.2971-.098.098-1.44166.47613-2.98591.84027l-2.80772.66208-1.07524-.74514c-.59138-.40982-1.12787-.8303-1.1922-.93439-.0643-.1041.19335-1.65437.57263-3.44505.86391-4.07878 2.05126-10.81612 2.05126-11.63936 0-.54856-.10427-.60255-.89655-.46415-1.79464.31348-2.86127.7394-4.52875 1.80837-1.97435 1.2657-2.15283 1.61073-3.25742 6.29709-1.78037 7.55338-2.13904 8.35539-3.80032 8.4978-.53897.0462-1.4238-.10145-1.96626-.32811l-.9863-.4121.3983-1.1289C94.0704 41.03003 96 34.1439 96 33.8369c0-.09793-1.33448 1.15568-2.96551 2.7858-3.20695 3.20512-8.24468 6.83445-10.87666 7.83587-1.8526.70487-4.959.90518-6.43369.41485zm6.9649-12.86135c1.34528-.13225 2.57064-.41722 2.99796-.6972.65002-.42591.71-.60598.59623-1.79-.34123-3.55123-3.71493-4.6133-6.54178-2.05941-.85861.7757-3.0518 4.3038-3.0518 4.90933 0 .1577 1.83197.04694 5.99939-.36272zm-60.34421 12.2428c-5.09912-1.33917-8.9672-4.7932-10.08964-9.00963-.51682-1.9414-.4944-5.41612.04929-7.6414.54453-2.22877 2.41616-6.27918 3.93495-8.5157 2.81835-4.1502 7.44454-8.42138 11.05756-10.20901 2.0123-.99563 2.12274-1.017 5.24138-1.01414 2.55785.00234 3.59089.12956 5.24113.64544 4.73831 1.48125 8.66806 4.20585 10.16901 7.05046.67425 1.27783.74115 1.67856.74115 4.43911 0 2.4606-.12323 3.39969-.6516 4.96552-2.05313 6.08454-7.44216 13.22129-12.54523 16.6138-2.81072 1.86857-6.59661 3.10981-9.42386 3.08972-1.2138-.0086-2.88965-.195-3.72414-.41416zm7.65714-6.72064c2.01963-1.0806 6.3379-4.63576 7.95126-6.54616 5.35604-6.34216 6.61822-11.4716 3.65196-14.84145-1.39876-1.58908-3.0814-2.45439-6.5147-3.35023-3.05427-.79694-3.50369-.73842-6.7046.87309-4.05656 2.04229-7.05654 5.8401-10.29408 13.0318-.83073 1.84533-1.03172 2.62402-1.03982 4.02862-.01836 3.18327 1.56095 5.62367 4.60318 7.11296 1.52754.74778 1.84663.80273 4.13793.71259 2.1862-.08601 2.68894-.20799 4.20887-1.02122z"/><path fill="#433a37" d="M9.48207 117.37593c.17168-1.46074 1.90104-8.47289 2.78126-11.27734l.42362-1.34968-2.7284.18791c-1.5006.10335-3.5418.10458-4.53597.003-1.56007-.15983-1.81901-.26517-1.89095-.76926-.05766-.40406-.4313-.70437-1.21232-.97439l-1.12897-.3906.82899-1.60737c.80539-1.56162.81471-1.62314.32759-2.1614-.50058-.55314-.49198-.55404 5.29998-.55404 3.19076 0 6.19397-.07852 6.67382-.17448.83211-.16643 1.04816-.53348 4.67423-7.94124 4.4021-8.99316 7.45252-14.5756 10.69805-19.5781C31.9181 67.35932 32 67.17566 32 65.61653c0-1.81642.26541-2.0002 1.49348-1.03421.7096.55817.76262.56212 1.27858.09518.60896-.5511.65403-.38776.26616.96466-.20218.70495-.17811 1.09448.09363 1.51542.20117.3116.45014 1.00105.55328 1.53208.30765 1.58408 1.07132 3.37275 1.28936 3.01996.21794-.35263.22705-.3144 3.12287 13.10787 1.14284 5.29712 2.16072 9.40648 2.3452 9.46797.2668.08894 2.62757-.50582 5.97123-1.50436.5388-.1609.53979-.1514.04194.40624-.28038.31405-.4396.68457-.35381.82337.16508.26711-2.5858 2.58154-4.27863 3.59979-.98395.59185-.99913.6271-.7492 1.73947.1403.62446.55907 3.13652.93058 5.58236 1.03572 6.81876.99227 6.33372.53334 5.95285-.22004-.18262-.40008-.2504-.40008-.15063 0 .0998-.26407.0401-.58681-.13263-.76179-.4077-1.05842.0303-1.06414 1.5712-.0026.70456-.17306 1.27876-.4471 1.50619-.3574.29662-.40856.68913-.2651 2.03378l.17776 1.66623-.5668-.82759c-.75262-1.09892-3.06154-8.25628-4.02685-12.48276-.4245-1.85862-.9043-3.37931-1.06623-3.37931-.16193 0-1.163.24982-2.22458.55517-2.5533.7344-10.65613 2.35729-13.858 2.77558-2.35748.30798-2.59655.39724-3.1892 1.19075-.35237.47179-1.11422 1.97505-1.693 3.34057-.57877 1.36552-1.36046 3.10345-1.73708 3.86207-1.0988 2.21325-3.7546 6.48276-4.03253 6.48276-.14678 0-.1791-.6451-.0762-1.52063zm21.77777-20.68517c2.24809-.34965 4.13355-.68184 4.18991-.7382.05636-.05637-.63302-4.19634-1.53198-9.19994-.89895-5.0036-1.6411-9.15951-1.64922-9.23537-.0319-.29784-.82788 1.38692-1.50424 3.18385-.39165 1.04052-.64768 2.0597-.56895 2.26487.07873.20517.02043.2972-.12955.2045-.29678-.18342-.31622-.13168-.42413 1.12887-.10605 1.23887-1.50961 4.38446-4.00306 8.97146-1.20469 2.21618-2.19034 4.12374-2.19034 4.23903 0 .26473 2.58782-.0066 7.81156-.81907zm27.43548 20.48166c-.47708-.37-1.03605-2.11439-1.03867-3.24138-.00088-.37931-.36906-1.37241-.81818-2.2069-.44912-.83448-.8215-1.84832-.82752-2.25297-.006-.40465.47945-3.1315 1.07882-6.05966.59937-2.92817 1.03763-5.37607.9739-5.43979-.06371-.06372-.75735.16012-1.54142.49742-1.13327.48752-1.4712.53947-1.64802.25336-.18033-.29177-.47346-.27357-1.54833.09615-3.4925 1.20128-3.24382.79084 1.08185-1.78556 2.38633-1.42132 4.40325-2.64868 4.48204-2.72747.07879-.07879.7057-2.42978 1.39316-5.22443.68745-2.79465 1.82308-7.10105 2.52362-9.56978.70054-2.46873 1.22206-4.54025 1.15892-4.60338-.06313-.06314-1.31077-.02734-2.77252.07955-2.56113.18727-2.67872.17077-3.2352-.45399-.38854-.4362-.52476-.85836-.41635-1.2903.11988-.47764.03149-.67085-.34532-.75475-.57666-.1284 3.07918-1.36545 6.35468-2.15027 1.19431-.28616 2.19687-.55692 2.2279-.60169.03104-.04477.34002-.8883.68663-1.8745 1.2685-3.60922 2.29344-5.8518 2.5125-5.49735.11824.19131.09615.66038-.04908 1.04238-.14523.382-.2274 1.82853-.1826 3.21452l.08146 2.52 4-.0098c4.45025-.01093 6.37282.35525 9.26606 1.76487 2.15227 1.0486 4.2881 3.29627 5.43699 5.72167.81919 1.72937.88316 2.07423.88316 4.76097 0 3.64038-.50662 5.27752-2.43107 7.85606-1.11377 1.49232-1.64505 1.97045-2.39652 2.15674-2.57167.63754-6.71578 1.99369-8.7981 2.87916-1.96053.83368-2.39885.9324-2.86032.6442-.44626-.27869-1.00129-.22803-3.06397.2797-3.72847.91774-4.25926 1.18727-4.43375 2.25146-.081.49401-.27203 1.64303-.4245 2.55337-.15247.91035-.58178 4.2-.95403 7.31035-.68647 5.73593-1.37902 8.72153-2.24503 9.67846-.54839.60596-1.46394.68559-2.1112.18361zm12.6333-29.57595c5.75354-2.87552 8.5909-4.82119 9.63912-6.60985 1.46925-2.50709.65068-3.65624-3.32911-4.67356-2.05975-.52651-7.13782-1.27857-8.63323-1.27857-1.26854 0-1.16393-.32933-1.13918 3.5862.0079 1.24535-.55928 4.2335-2.08123 10.96552-.07718.34138-.03664.62069.09009.62069s2.58082-1.1747 5.45353-2.61043zm37.0643 29.20182c-.36783-.39543-1.17762-1.07126-1.79953-1.50184-1.0814-.74869-1.14625-.87687-1.48559-2.93621-.19516-1.18434-1.19752-4.70037-2.22746-7.81341-1.02995-3.11304-2.43706-7.95442-3.1269-10.75862-1.89125-7.6878-4.7474-23.31216-4.43908-24.2836.1398-.4405.29742-.3597 1.15927.59426.5486.60724 1.53962 1.4218 2.20224 1.81012.66263.38833 1.37904 1.04305 1.59204 1.45494 1.46013 2.82359 5.37781 16.19753 7.22997 24.68125l.23571 1.07966 1.48307-3.56242c6.04055-14.50968 12.41237-27.37092 16.28611-32.87276.77448-1.1 1.44923-2 1.49942-2 .16107 0-1.19671 6.7774-1.57899 7.8816-.31529.91068-.30736 1.25743.0547 2.3895.39725 1.2422.38727 1.44717-.16096 3.30883-.36735 1.2474-.49707 2.14784-.34923 2.42409.13232.24723.12615.61402-.0141.83843-.13712.21941-.38758 1.08169-.5566 1.91617-.16901.83448-.61345 1.96802-.98765 2.51897-.70914 1.0441-1.74386 5.30176-1.75054 7.20304-.003.78999-.19245 1.2006-.80793 1.749-.44237.39415-1.06472 1.32198-1.383 2.06183-.7448 1.73134-2.38825 7.4412-2.65497 9.22423-.11336.75777-1.21926 3.92328-2.45756 7.03448s-2.4151 6.24638-2.61511 6.96707c-.36001 1.29723-.37523 1.31035-1.52109 1.31035-.89221 0-1.3107-.16476-1.82622-.71896zM38.67586 65.6c-.7004-.7004-.33111-3.18261 1.43311-9.63283 2.87692-10.51833 4.65247-15.52578 8.14282-22.96458 1.32432-2.82244 1.38812-3.0585 1.09286-4.04397-.48713-1.62591-.16234-2.3629 1.33279-3.02426.71147-.31472 2.0455-1.29424 2.96449-2.1767 1.7257-1.65711 3.28902-2.65545 3.73072-2.38246.14598.09022.0842.63477-.14603 1.28733-.21947.62204-.39903 1.16783-.39903 1.21287 0 .04504.96207-.22686 2.13793-.60422 1.29208-.41465 3.125-.74732 4.6328-.84084 2.16358-.1342 2.64227-.07954 3.60502.41162 1.21241.61853 2.86314 2.30234 3.53968 3.61062 1.49251 2.88621-1.21584 7.41644-6.7707 11.32526-4.56759 3.2141-11.07405 6.3601-13.1538 6.3601-.90359 0-1.13063.12083-1.4254.75861-2.34414 5.072-5.53105 12.8828-5.53105 13.5561 0 1.0249.53603 1.12708 1.58481.30211 1.8007-1.41644.6211.9394-1.797 3.58885-1.57493 1.7256-3.89806 3.58743-4.4763 3.58743-.09167 0-.31565-.14897-.49772-.33104zm16.29425-27.15194c5.17981-2.59412 9.68918-5.84377 10.71446-7.72133.55203-1.01091.58092-1.22964.26357-1.9958-.67977-1.6411-3.98375-1.9049-7.69206-.61416-2.61974.91185-3.25044 1.3782-3.51833 2.6015-.10454.47736-.80538 2.5438-1.55743 4.59208C51.55042 39.74954 51.47117 40 51.69656 40c.09608 0 1.56918-.69837 3.27355-1.55194zm21.09457 6.50993c-3.83768-.96607-6.19904-4.05581-5.94102-7.77359.20967-3.02102 3.00243-8.53917 5.62559-11.11543 3.29424-3.23536 6.02678-4.05184 9.76268-2.9171 3.27219.9939 4.97083 3.32538 4.97083 6.82273 0 1.64079-.66318 3.57885-1.34352 3.92623-.24727.12626-3.52512.83643-7.28412 1.57816-6.36158 1.25527-6.84587 1.39237-6.99841 1.9812-.23497.90705.49557 2.61272 1.29155 3.0155 3.01071 1.52351 11.02608-2.04988 18.59007-8.28779l2.18661-1.80326.74688-2.6715.74689-2.67148-1.00246.161c-1.15034.18477-.9519.0024 1.20444-1.10666.75862-.3902 1.80209-1.02696 2.31882-1.41503l.9395-.7056.6467.75184c.35569.4135.64671 1.10254.64671 1.53117v.77934l2.38876-.82337c3.0341-1.0458 5.69433-1.02664 6.8396.04928 1.16581 1.09522 1.25073 2.00769.56814 6.10456-.79284 4.75861-.99578 6.59732-.72814 6.59732.11812 0 .51572-.32664.88355-.72588.97943-1.06306 3.88464-3.46055 4.02424-3.32096.0659.06591-.50948.9513-1.27865 1.9675-.76917 1.01622-1.66495 2.36531-1.99062 2.99799-.74822 1.45352-.82327 3.50733-.15516 4.24613.26552.29361.48276.668.48276.83197 0 .16398-1.3206.61512-2.93466 1.00254l-2.93465.7044-1.22007-.87618c-.94716-.6802-1.18444-1.00187-1.06082-1.43805.89275-3.14988 2.87117-14.6225 2.57302-14.92066-.3326-.3326-3.69565.7379-5.18144 1.64932-.83448.51189-1.74315 1.31068-2.01926 1.7751-.27611.46442-1.11137 3.2987-1.85614 6.29842-.74477 2.9997-1.58631 5.7665-1.87009 6.14843-.6505.8755-1.9869 1.03681-3.38111.40811l-1.03368-.46612.40993-1.14103C94.16509 40.80618 96 34.23934 96 33.8678c0-.13477-1.27241 1.04175-2.82758 2.6145-2.081 2.10451-3.77449 3.4827-6.4138 5.21966-1.97241 1.29806-4.11424 2.56257-4.75962 2.81-1.46164.5604-4.55607.79297-5.93432.44602zm6.14222-12.84417c3.78454-.28717 4.77486-1.16275 3.9739-3.51344-.83146-2.4402-2.56613-3.17162-5.0192-2.11633-.77942.3353-1.71464.99976-2.07826 1.47658-.6369.83518-2.39368 4.11757-2.39368 4.47238 0 .0951.7138.1022 1.5862.01581.87242-.08639 2.64138-.23714 3.93104-.335zM22.16863 44.16567C12.35672 41.3574 9.20554 32.86905 14.2046 22.71294c2.834-5.75755 8.85746-11.93979 13.88646-14.2525 1.07574-.4947 1.78879-.5908 4.32272-.58255 3.62786.0118 5.58204.4817 9.13928 2.19762 3.08066 1.48602 5.30568 3.43529 6.3442 5.55794 2.79795 5.7188-1.08107 15.5809-9.12125 23.19012-5.23933 4.95849-11.22286 6.88321-16.6074 5.3421zm7.03879-6.26485c2.08837-.9306 4.6494-2.82361 7.16662-5.2973 3.72332-3.65891 6.05478-7.43967 6.6799-10.8323.2822-1.5316.26318-2.02052-.13147-3.37808-.8335-2.86713-3.22795-4.56005-8.1127-5.73581l-2.50649-.60332-1.73785.62548c-5.13237 1.84722-8.5726 5.55594-12.06252 13.0039-1.45824 3.11209-1.81376 4.78083-1.41482 6.641 1.10817 5.16724 6.97728 7.86777 12.11933 5.57643z"/><path fill="#342a27" d="M9.38363 118.27587c.00937-1.34627 2.29615-10.67238 3.17916-12.96552.1723-.44747-.13853-.48276-4.25216-.48276H3.87258l-.16567-.6601c-.12219-.48681-.47169-.74578-1.33134-.98646l-1.16566-.32637.77436-1.53517c.90375-1.7917.9458-2.15773.2916-2.53877-.3386-.1972 1.37084-.28481 5.72413-.29334 3.4138-.0067 6.45822-.07969 6.76538-.16222.39567-.10632 1.02845-1.17081 2.17057-3.6514 3.97035-8.62333 9.99244-19.78917 13.45038-24.93904C31.9105 67.46481 32 67.23912 32 65.66576c0-.91617.0931-1.6653.2069-1.66473.1138.00057.62426.25549 1.13438.56649.87704.5347.95582.53981 1.44828.09414.60378-.54642.60585-.54083.25398.68608-.2078.72453-.14505 1.30381.28364 2.61887 1.00301 3.07684 1.407 4.03844 1.63691 3.89634.1251-.07732.4767.94603.78133 2.2741 1.1607 5.06023 4.18562 19.32733 4.18562 19.74161 0 .23848.0931.48629.2069.55068.17612.09966 3.89225-.86284 6.13792-1.58977.66877-.21648.67504-.20685.2069.3179-.26552.29763-.48276.6925-.48276.87748 0 .44575-1.11239 1.4205-3.34728 2.93312l-1.83004 1.23861.37775 1.9825c.20776 1.09037.63235 3.72835.94355 5.86218.31119 2.13382.63115 4.18067.71102 4.54854.12618.58121.0887.62197-.28593.31105-.23712-.1968-.43114-.27617-.43114-.1764 0 .0998-.26406.0401-.5868-.13263-.7618-.4077-1.05843.0303-1.06415 1.5712-.0026.70803-.17294 1.27866-.45035 1.5089-.35126.29151-.41358.69469-.29306 1.89584.15167 1.51154.14841 1.51992-.35304.90943-.65454-.79686-2.71986-7.15938-3.89676-12.00453-.50675-2.0862-1.05015-3.79228-1.20756-3.79128-.15742.001-1.98273.43003-4.05626.95338-3.5208.88864-9.79405 2.08391-13.13288 2.50226-1.8272.22895-2.2441.74513-4.14285 5.1295-.76404 1.7642-1.87662 4.06075-2.4724 5.10344-2.60703 4.56263-3.10721 5.19158-3.09819 3.89581zm19.44396-21.1747c2.12414-.29997 4.527-.68198 5.3397-.84893 1.46873-.30171 1.47655-.30878 1.29973-1.17444-.09784-.479-.79448-4.34676-1.5481-8.59504-.75363-4.24827-1.44229-8.03448-1.53037-8.4138l-.16014-.68965-.39969.76017c-.79763 1.51702-2.24251 5.6076-2.24251 6.34872 0 .72913-3.378 7.85421-5.42504 11.44284l-.98349 1.72414.89392-.0043c.49165-.0024 2.63185-.24974 4.75599-.5497zm29.947 20.15592c-.44955-.28443-1.1089-2.26869-1.11523-3.35618-.0023-.39589-.3766-1.41768-.83177-2.27065-.45517-.85298-.82759-1.86114-.82759-2.24037 0-.37923.49707-3.07072 1.1046-5.98108.60752-2.91037 1.05057-5.3456.98455-5.41162-.06602-.06601-.80269.13537-1.63703.44754-1.09886.41114-1.5473.47661-1.627.23754-.08236-.2471-.48579-.21663-1.6055.12126-3.16337.95461-3.0186.7353 1.12521-1.70462 2.35172-1.38473 4.37521-2.61436 4.49664-2.73252.12143-.11816.70452-2.20591 1.29575-4.63944.59124-2.43354 1.70223-6.6512 2.46888-9.37258C63.37275 77.63298 64 75.26002 64 75.08112c0-.24025-.72448-.27779-2.77195-.1436-2.70705.1774-2.78279.16619-3.23438-.47855-.25434-.36311-.42566-.94079-.38072-1.28372.05815-.44372-.0632-.62944-.4208-.64406-.90588-.03702 4.75268-1.868 7.95745-2.57485.6374-.14059.8362-.46375 1.48647-2.41632.41287-1.23972 1.10873-3.0089 1.54637-3.9315l.79571-1.67748-.19717 1.7931c-.10844.9862-.15396 2.16552-.10114 2.62069.0528.45517.10213 1.27843.10958 1.82946l.01356 1.00187 3.87437-.01422c7.01815-.02576 11.22551 1.71798 13.90467 5.76277 1.4678 2.21597 2.06906 4.52635 1.89145 7.26792-.18068 2.78884-.77481 4.511-2.36318 6.84997-1.34612 1.98225-1.62143 2.1584-4.4224 2.82954-2.1993.52698-6.81972 2.17895-8.07528 2.88722-.87967.49623-1.52752.5304-1.67488.08832-.08213-.24638-.53692-.23636-1.88505.04156-3.4203.70511-5.23422 1.37456-5.47952 2.02226-.22792.60182-1.5085 9.57689-1.8183 12.74368-.24944 2.54972-1.24031 6.41178-1.84097 7.17539-.5519.70164-1.42831.87637-2.1393.42652zm12.53576-29.58463c7.08752-3.51302 10.34482-6.1632 10.34482-8.41667 0-1.735-1.6552-2.6132-6.62068-3.51276-1.28966-.23364-3.4322-.52579-4.76122-.64922l-2.41638-.22443-.0177.9791c-.0097.53851-.01082 1.71163-.0024 2.60694.0084.89531-.28262 2.94359-.64673 4.55173-.3641 1.60814-.80489 3.66872-.97951 4.57906-.17463.91035-.38328 1.88467-.46367 2.16517-.2056.71735.31285.52362 5.56347-2.07891zm37.08257 29.12583c-.36783-.39543-1.17298-1.06807-1.78923-1.49475-1.10291-.76364-1.12795-.81859-1.59901-3.51-.26321-1.50382-.9816-4.15187-1.59644-5.88457-1.53624-4.32932-2.29007-6.84954-3.54146-11.84-1.84587-7.36118-4.8514-23.62235-4.5447-24.58868.16204-.51055.228-.48398.83257.33547.36112.48948 1.36535 1.36063 2.23161 1.9359.86626.57526 1.68072 1.2348 1.8099 1.46564 1.29581 2.31547 5.40165 16.28558 7.30209 24.84527l.24356 1.09705 1.19321-2.89015c4.44014-10.75483 10.75822-24.0122 14.12912-29.64744 2.22306-3.71637 3.83242-5.94713 3.83242-5.3122 0 .77195-1.09787 5.91532-1.515 7.0976-.36604 1.03746-.36345 1.30485.024 2.48954.40713 1.24473.39984 1.4484-.11728 3.27572-.30327 1.07165-.49535 2.16948-.42686 2.43961.15348.6053-.90515 4.81414-1.26715 5.03787-.70889.43812-1.93913 5.11714-1.93913 7.37515 0 .7222-.24297 1.24571-.9322 2.0086-1.28481 1.42214-2.81501 5.70908-3.88245 10.8769-.23881 1.15612-1.42168 4.57335-2.6286 7.59383-1.20692 3.02049-2.33722 6.05897-2.51178 6.75219-.31389 1.24661-.33007 1.26041-1.47791 1.26041-.89555 0-1.31325-.16417-1.82932-.71896zM38.52874 65.47127c-.63028-.63028-.01761-3.77138 2.43922-12.50575 2.34035-8.32023 4.0355-12.95985 7.00493-19.17241 1.6837-3.52261 1.81487-3.9227 1.49232-4.55173-.46234-.90167-.457-2.07226.01161-2.54086.20536-.20536.8704-.5975 1.47786-.87143.60746-.27392 1.8789-1.23497 2.82542-2.13565 1.87945-1.78842 3.19059-2.61419 3.45962-2.1789.09217.14914.0405.73136-.1148 1.29383s-.24938 1.05567-.20906 1.096c.04033.04033 1.0611-.25603 2.26839-.65856 1.7454-.58195 2.74097-.73507 4.86-.74746 2.53534-.01483 2.72303.02522 3.85994.82363.65727.46156 1.6727 1.51674 2.25654 2.34482.9768 1.38544 1.0504 1.6184.92224 2.91869-.2368 2.40242-1.77659 4.74648-4.83825 7.3654-4.18554 3.58027-12.0652 7.77988-15.32 8.16507l-1.35116.1599-2.85468 6.6207c-2.82545 6.55286-3.35995 8.41379-2.41664 8.41379.2421 0 .79605-.2534 1.231-.56312l.79083-.56312-.28109.80633c-.38015 1.0905-3.27917 4.49383-4.8489 5.69241-1.1891.90795-2.2361 1.21765-2.66534.78842zM57.42872 37.2322c2.21024-1.25241 4.99646-3.16565 6.68991-4.59379 2.07542-1.75027 2.59517-3.26155 1.561-4.5389-.49264-.60847-.7146-.65122-3.37931-.65091-2.61889.0003-3.02547.07514-4.9734.9154l-2.12137.91506-1.165 3.4984c-.64074 1.92411-1.51716 4.3534-1.9476 5.3984-.43043 1.04501-.7826 1.93795-.7826 1.9843 0 .17197 4.16633-1.82185 6.11837-2.92796zm19.18687 7.72881c-1.8413-.31787-3.61037-1.2376-4.64328-2.41402-2.38366-2.71483-2.51424-5.55759-.45131-9.82461 1.97468-4.0845 3.57654-6.31158 5.67205-7.8859 2.25558-1.69457 3.88208-2.281 5.83438-2.10359 4.69554.4267 7.09372 2.62526 7.39066 6.77545.1484 2.07413-.33992 3.59247-1.36056 4.2304-.35406.22128-3.56098.98762-7.1265 1.70295-3.56551.71534-6.63792 1.34694-6.82758 1.40356-.19982.05965-.34483.55834-.34483 1.18587 0 .82409.19915 1.29612.83315 1.97482.82553.88374.85262.89075 2.96551.76808 1.66383-.0966 2.6441-.34514 4.4612-1.13108 3.32281-1.4372 7.4046-3.97553 10.89199-6.77335l3.0139-2.41797.73775-2.60513.73775-2.60512-.68999-.09132c-.59356-.07856-.4432-.22701 1.07593-1.06233.97126-.53406 2.05623-1.2378 2.41105-1.56386l.64514-.59284.67686.8276c.46083.56344.64341 1.07624.57205 1.60666-.0827.61466-.0124.74782.33318.63095.24089-.08148 1.30695-.45989 2.36902-.84093 2.57367-.92335 4.93278-.9524 6.23506-.07679 1.49971 1.00835 1.63104 1.87167.92564 6.08484-.79436 4.74446-1.03746 6.80216-.80363 6.80216.10443 0 .91136-.66797 1.79318-1.48437 1.83665-1.70042 3.5095-2.95087 3.1612-2.36298-.13004.21949-.77652 1.10782-1.43661 1.97407-1.46936 1.92825-2.5582 4.20356-2.5618 5.35332-.001.47264.26155 1.1953.58452 1.60588.39944.5078.49718.83658.30564 1.02812-.15487.15487-1.50162.5693-2.99278.92093l-2.71119.63934-1.11169-.85588c-.61142-.47074-1.1338-.8644-1.16084-.87482-.027-.01042.19677-1.07268.49736-2.36059.97224-4.1657 2.41967-12.8177 2.18435-13.05697-.4343-.4416-3.23191.39325-5.2024 1.55246l-1.97671 1.16287-.67981 2.06897c-.37389 1.13793-1.04739 3.69282-1.49665 5.67753-.98775 4.36358-1.44995 5.53491-2.34498 5.94272-.7624.34737-2.30387.14643-3.04738-.39723-.46187-.33773-.45094-.47681.21122-2.68615.38408-1.28149 1.0118-3.49393 1.39493-4.91654l.6966-2.58656-2.67989 2.73863c-2.62623 2.68379-7.47133 6.4007-9.99024 7.66401-2.31588 1.16148-4.84824 1.61514-6.97062 1.24875zm7.24648-12.98104c1.58475-.26157 2.76497-1.17627 2.75256-2.1333-.01098-.84714-1.01449-2.70695-1.78959-3.31664-1.16023-.91264-3.09534-.68735-4.9013.57062-.76204.53081-3.23408 4.43052-3.23408 5.10185 0 .27305.63411.31565 2.82758.18995 1.55518-.08912 3.51035-.27474 4.34483-.41248zM22.6207 44.2503c-5.52939-1.46883-9.3979-5.06254-10.4873-9.74229-.78848-3.38706.28141-8.68001 2.58838-12.80526 3.06462-5.48005 9.30611-11.6147 13.39939-13.17003 6.18451-2.34993 17.05385 1.53663 19.7587 7.06514.652 1.33265.7348 1.82295.73157 4.33175-.0042 3.2477-.54476 5.34409-2.27737 8.83175-1.61807 3.25712-3.71566 6.13555-6.609 9.06925-3.62305 3.67362-6.48279 5.39617-10.89747 6.56406-1.5266.40385-4.39423.33716-6.2069-.14437zm6.34287-6.1552c4.47903-1.7019 11.63878-9.11243 13.53717-14.01133.43312-1.11768.62815-2.23199.64605-3.6911.0229-1.866-.06309-2.23303-.80195-3.42341-1.41249-2.27568-3.9452-3.6199-8.65229-4.59213-1.57172-.32463-1.75093-.30346-3.61241.42687-2.75609 1.08132-5.61423 3.22593-7.3843 5.54083-.8121 1.06207-2.42865 3.83401-3.59234 6.15988-2.04276 4.08287-2.11597 4.29713-2.12092 6.2069-.0061 2.34892.63881 3.99483 2.16206 5.51808 2.51926 2.51926 6.23852 3.22585 9.81893 1.8654z"/><path fill="#221714" d="M9.38181 118.13794c.00539-1.04095 2.50577-11.06297 3.23475-12.96552.1023-.267-.864-.34483-4.28128-.34483h-4.4134l-.17051-.67938c-.12396-.49387-.4711-.76945-1.27129-1.00919-.60542-.18139-1.10077-.37634-1.10077-.43323 0-.0569.31035-.71587.68966-1.46441.8161-1.61051.8558-2.0827.2069-2.46066-.3377-.1967 1.52833-.2837 6.2102-.28957l6.69296-.0084 1.97852-4.2069c4.59502-9.77033 9.39155-18.64687 13.09142-24.22718C31.92571 67.51974 32 67.3354 32 65.70384c0-.93712.06823-1.70385.15163-1.70385.41862 0 1.7794.88197 1.7794 1.15329 0 .1786.21526.11673.50449-.14502.73138-.66189.86799-.567.5882.4086-.1865.65026-.10371 1.31828.33333 2.68965.9123 2.86268 1.37043 3.90267 1.64454 3.73326.1394-.08616.23068-.05432.20283.07076-.02785.12507.02816.4136.12447.64119.22897.54112 4.60215 20.83888 4.60215 21.36053 0 .22.0931.45726.2069.52723.11379.06997 1.57577-.26589 3.24885-.74636l3.04196-.87359-.26363.83161c-.27151.8565-2.99914 3.22402-4.59972 3.99245-.6688.3211-.8061.52841-.68076 1.02786.23058.91868 1.46238 8.51546 1.68297 10.37918l.18966 1.60237-1.0683-.0851-1.06828-.0851-.14707 1.46399c-.08089.80519-.31676 1.56886-.52415 1.69703-.28131.17387-.33545.63636-.21318 1.82109.147 1.4242.12043 1.54457-.25742 1.16671-.61833-.61833-2.6645-6.89192-3.84995-11.80399-.56755-2.35172-1.0459-4.30036-1.06301-4.3303-.01711-.0299-1.08247.25202-2.36748.62658-2.9341.85525-9.06247 2.11967-13.3169 2.74757-3.10617.45844-3.2877.52166-3.93506 1.37039-.37327.48938-.99728 1.6739-1.3867 2.63227-1.63097 4.01383-5.3457 10.74659-5.92933 10.74659-.13812 0-.25-.21724-.24863-.48275zm21.56534-21.34637c2.22782-.3291 4.18468-.68123 4.34856-.78252.2044-.12632-.18792-2.9505-1.24924-8.99315-.85097-4.84495-1.60759-8.9952-1.68137-9.2228-.2631-.81146-2.3723 4.15594-2.86977 6.75863-.26397 1.38109-2.66747 6.51675-5.08714 10.86994l-1.28856 2.31822 1.88846-.17498c1.03865-.09624 3.71123-.44424 5.93906-.77334zm27.76503 20.36513c-.26578-.20616-.64698-1.26113-.90225-2.49697-.24312-1.17698-.77552-2.77777-1.18313-3.5573l-.7411-1.41733 1.16544-5.78024c.64099-3.17913 1.10634-5.83933 1.03411-5.91156-.07223-.07223-.65056.07643-1.28519.33036-.65968.26395-1.47109.392-1.89455.299-.40738-.08948-1.08834-.03051-1.51324.13104-.87837.33395-2.90951.81625-2.90951.69086 0-.04565 1.87282-1.16744 4.16182-2.49287 2.45656-1.42246 4.26184-2.64803 4.40593-2.99112.13427-.3197.8731-3.12608 1.64185-6.23643 1.18576-4.7976 2.96883-11.20989 3.50745-12.6135.12802-.33362-.3006-.36369-2.79882-.19634-2.8982.19414-2.95806.18608-3.40987-.45896-.25293-.36112-.4231-.93716-.37817-1.2801.05816-.44381-.06312-.62932-.4208-.64367-.89711-.03598 2.68796-1.20129 7.5324-2.44835 1.12525-.28966 1.14803-.32077 1.98073-2.70537.46332-1.32678 1.16716-3.09509 1.5641-3.92957l.72171-1.51724-.20551 1.65517c-.11303.91034-.18944 1.90345-.16979 2.2069.01965.30344.06787 1.19376.10716 1.97848l.07143 1.42675 3.87867-.01337c4.31478-.01488 6.65627.39967 9.05355 1.60285 3.14973 1.58083 5.1554 3.90363 6.2871 7.28115.49566 1.4793.57331 2.17932.4437 4-.21458 3.01392-.75798 4.62561-2.32526 6.89655-1.09092 1.5807-1.53033 1.9899-2.42207 2.25553-3.9736 1.1836-8.48195 2.71715-9.64843 3.28198-1.5536.75229-1.96678.81604-2.12927.32856-.22186-.66558-6.90197 1.09583-7.34495 1.93672-.24946.47354-1.05708 5.99511-1.82438 12.47307-.4566 3.85494-.94522 5.9155-1.71743 7.24271-.57206.98321-1.56427 1.26921-2.33343.67261zm17.20609-31.8456c2.49816-1.4849 4.75888-3.39241 5.33038-4.49756.56667-1.09583.51716-2.55894-.10568-3.1226-1.13058-1.02316-6.5338-2.26474-11.97081-2.7507l-1.58647-.1418.18417.73378c.10129.40358.15084.9222.11012 1.1525-.04074.2303-.07043 1.03942-.06599 1.79804.0044.75862-.47947 3.6315-1.07537 6.38418-.5959 2.75268-1.08345 5.13422-1.08345 5.29232 0 .35431 7.35914-3.12205 10.2631-4.84816zm32.44656 31.41377c-.35238-.43581-1.14622-1.12047-1.76408-1.52146-1.09362-.70976-1.13289-.78929-1.48155-3.00073-.19698-1.2494-1.14588-4.63026-2.10865-7.51302-2.86458-8.5772-4.57125-15.81168-6.85758-29.069-1.02498-5.9433-1.0064-7.13765.08709-5.60198.32857.46144 1.0607 1.11576 1.62695 1.45406 2.21718 1.3246 2.4192 1.67126 4.30981 7.3954 1.90173 5.75784 4.25116 14.22997 5.02071 18.10489.2568 1.29307.4976 2.31692.53512 2.27522.0375-.0417.65085-1.50342 1.36297-3.24825 3.76135-9.21606 10.48276-23.39092 13.68244-28.85505 1.64241-2.80477 3.84141-5.99675 4.01302-5.82514.17218.17218-.94819 5.78007-1.42445 7.12994-.3692 1.04643-.36629 1.30582.028 2.49287.4077 1.22748.40477 1.44186-.0399 2.91528-.26397.87471-.50869 2.149-.54381 2.83176-.10288 1.99993-.71301 4.21819-1.38282 5.02747-.67986.82145-1.43264 3.71552-1.69375 6.51166-.13649 1.46164-.31325 1.93873-.99257 2.67891-.45457.49531-1.11378 1.60669-1.46491 2.46972-.77836 1.91319-2.22586 6.99359-2.47637 8.69155-.10073.68276-1.21377 3.84828-2.47341 7.03448-1.25964 3.18621-2.43742 6.38276-2.61728 7.10345-.32691 1.30988-.32745 1.31035-1.51566 1.31035-.97637 0-1.30306-.14151-1.82932-.79238zM38.51227 65.21882c-.31788-.82839-.16296-1.78768 1.05438-6.529 2.75156-10.71685 5.22452-17.94422 8.45118-24.69907 1.86666-3.90774 1.87908-3.94914 1.50395-5.01236-.5536-1.5691-.28196-2.16062 1.34346-2.92549.77584-.36508 2.08742-1.3427 2.91462-2.1725 1.46362-1.4682 3.15916-2.61954 3.44167-2.33703.07692.07692-.001.59896-.17325 1.16008-.17222.56112-.23914 1.0942-.14872 1.18462.09042.09042 1.28937-.1666 2.66433-.57116 5.61755-1.65285 7.9746-1.10591 10.55242 2.44862 3.01754 4.16085-2.40109 10.6341-13.45914 16.07872-2.71643 1.33747-4.07752 1.8476-5.3208 1.9942-.91886.10833-1.72096.25108-1.78245.3172-.49171.52871-5.73067 13.25407-5.77402 14.02502-.04781.85024.03659 1.00471.59193 1.08338.39372.05577.9208-.16054 1.34424-.55167l.69655-.64341-.55724 1.10345c-.30648.6069-1.34542 1.96275-2.30876 3.01302-2.7721 3.02225-4.61298 4.13145-5.03435 3.03338zm16.41177-26.54279c5.56589-2.78877 10.39427-6.35414 11.19261-8.26484.33421-.79988.32572-1.0336-.06765-1.86257-.34985-.73727-.67348-.99293-1.4563-1.1505-1.81902-.36613-4.27024-.1988-6.10994.41707-2.73107.9143-3.5064 1.48466-3.87403 2.84993-.17373.64517-.98694 2.99358-1.80713 5.21867-.8202 2.2251-1.49126 4.12358-1.49126 4.21885 0 .33602.45166.15772 3.6137-1.42661zm20.93803 6.04772c-2.75075-.90439-4.7031-2.77067-5.3976-5.15961-.59385-2.04279-.21947-4.06824 1.31916-7.1368 2.46112-4.90834 4.6725-7.4486 7.82071-8.98384 2.04678-.99813 5.92625-.57 8.14418.89878 1.47122.97427 2.5765 3.4432 2.55576 5.7089-.0178 1.94258-.56138 3.40544-1.38252 3.72055-.45164.1733-10.90936 2.39973-13.12865 2.79505-1.02051.18179-1.03447.20156-1.03312 1.46392.00099.91699.1797 1.50249.63058 2.06594.55579.69453.8212.79111 2.2745.82758.9049.02271 2.1108-.05743 2.67976-.1781l1.03448-.2194v1.92726c0 1.1923-.12517 2.00462-.32824 2.13012-.4827.29832-4.38682.4034-5.189.13965zm9.78234-13.10512c.89376-.58561 1.13298-1.594.71171-3.00007-.5241-1.7493-1.63123-2.68752-3.17134-2.68752-1.57569 0-2.87793.52578-3.85286 1.5556-.76824.81152-2.90797 4.43175-2.91448 4.93107-.0062.47366 8.39491-.2539 9.22697-.79908zm-61.53348 12.796c-6.2586-.9177-11.05116-5.23542-11.98707-10.79944-1.02617-6.1007 2.99113-14.48007 9.93615-20.72504 4.25318-3.82447 6.51347-4.89307 10.33489-4.88607 6.71319.0123 14.21311 4.0449 15.71376 8.44906 1.0436 3.06278.33252 7.83609-1.79625 12.05786-4.29153 8.51096-10.82959 14.29085-17.84804 15.77833-2.00485.4249-2.26.43225-4.35344.1253zm5.48068-6.54645c4.90503-2.30804 10.81886-8.48537 12.8544-13.42713.89238-2.1665 1.09898-4.98844.48323-6.60074-.56094-1.46881-2.10526-3.07236-3.77255-3.91724-.7089-.35923-2.54196-.97077-4.07347-1.35899l-2.78456-.70585-1.87057.70408c-2.64367.99508-4.10143 1.90858-6.10233 3.82404-2.01252 1.92658-3.49986 4.2105-5.74825 8.82686-1.36718 2.8071-1.61382 3.55214-1.70395 5.14723-.1211 2.14322.20618 3.35014 1.32868 4.8997 2.56173 3.53636 7.17263 4.5922 11.38937 2.60804zm52.06782 4.54561l.0043-2 2.70295-1.28594c3.0831-1.4668 6.95865-3.98397 10.36225-6.73026l2.33762-1.88617.7491-2.73135c.62684-2.28563.68613-2.77122.3633-2.97563-.2122-.13434-.24987-.24617-.08373-.2485.16613-.0023 1.08028-.5072 2.03143-1.12197 1.62671-1.05139 1.75939-1.0906 2.23476-.66039.27796.25155.54312.90971.58925 1.46258.0949 1.1379-.0209 1.1313 2.56664.14625 2.54251-.96791 5.25623-1.06115 6.39333-.21967 1.55421 1.15015 1.61195 1.61865.81072 6.57801-.7411 4.58718-.88814 6.50063-.49955 6.50063.12196 0 .64955-.4455 1.17242-.99001.52286-.5445 1.56183-1.50511 2.30881-2.13468l1.35815-1.14466-1.31864 1.78985c-2.64272 3.58706-3.30401 5.97352-2.08478 7.52352l.55426.70462-.89909.28769c-.49449.15822-1.80661.49023-2.91582.7378l-2.01674.45012-1.08671-.75309c-.59769-.4142-1.08671-.85264-1.08671-.97432 0-.12167.18165-1.00479.40368-1.96248.55954-2.41358 2.35494-12.26882 2.35494-12.92666 0-1.18347-3.42692-.38202-6.11329 1.4297-1.41348.95327-1.61504 1.21726-2.12543 2.78373-.31013.95183-.93328 3.34439-1.38479 5.3168-1.05018 4.58771-1.43692 5.64995-2.2885 6.28576-.5915.4416-.84969.47358-1.76957.21917-1.77136-.48992-1.83617-.58523-1.34142-1.9727.57794-1.62078 2.33335-8.01041 2.33335-8.49334 0-.20916-1.33449.97822-2.96552 2.63863-1.92894 1.96369-4.0262 3.74636-6 5.10002-2.69367 1.84734-5.07676 3.25695-5.50625 3.25695-.08191 0-.14701-.9-.14467-2z"/></g></svg>