<svg id="Layer_1" data-name="Layer 1" xmlns="http://www.w3.org/2000/svg" viewBox="0 0 314.43 315.92"><title>Artboard 1</title><path d="M158.24,50.66A108.16,108.16,0,1,0,266.39,158.81,108.15,108.15,0,0,0,158.24,50.66Zm90.45,143-17.77-4.76a78.44,78.44,0,0,1-10.32,17.83l13,13L219.16,234.2l-13-13A78.5,78.5,0,0,1,188.3,231.5l4.76,17.76-19.76,5.3-4.76-17.79a77.22,77.22,0,0,1-20.6,0l-4.77,17.79-19.76-5.3,4.76-17.76a78.44,78.44,0,0,1-17.83-10.32l-13,13L82.85,219.73l13-13a78.81,78.81,0,0,1-10.32-17.83l-17.76,4.76-5.3-19.76,17.79-4.77a77.22,77.22,0,0,1,0-20.6l-17.79-4.76L67.79,124l17.76,4.76a78.59,78.59,0,0,1,10.32-17.83l-13-13L97.32,83.43l13,13a78.44,78.44,0,0,1,17.83-10.32l-4.76-17.77,19.76-5.29,4.77,17.79a76.13,76.13,0,0,1,20.6,0l4.76-17.79,19.76,5.29L188.3,86.13a78.5,78.5,0,0,1,17.84,10.32l13-13L233.62,97.9l-13,13a78.22,78.22,0,0,1,10.32,17.83L248.69,124,254,143.75l-17.79,4.76a76.13,76.13,0,0,1,0,20.6L254,173.88Z"/><path d="M276.59,174.5a119,119,0,1,1,0-31.37h30a148.72,148.72,0,1,0,0,31.37Z"/></svg>