<?xml version="1.0" encoding="UTF-8" standalone="no"?>
<svg
   viewBox="0 0 395.47158 396.51734"
   height="396.51733"
   width="395.47159"
   xml:space="preserve"
   id="svg2"
   version="1.1"
   sodipodi:docname="opencue-icon-black.svg"
   inkscape:export-filename="/Users/johnmertic/Code/aswf-artwork/projects/opencue/icon/black/opencue-icon-black.png"
   inkscape:export-xdpi="377.10001"
   inkscape:export-ydpi="377.10001"
   inkscape:version="1.1.2 (b8e25be8, 2022-02-05)"
   xmlns:inkscape="http://www.inkscape.org/namespaces/inkscape"
   xmlns:sodipodi="http://sodipodi.sourceforge.net/DTD/sodipodi-0.dtd"
   xmlns="http://www.w3.org/2000/svg"
   xmlns:svg="http://www.w3.org/2000/svg"
   xmlns:rdf="http://www.w3.org/1999/02/22-rdf-syntax-ns#"
   xmlns:cc="http://creativecommons.org/ns#"
   xmlns:dc="http://purl.org/dc/elements/1.1/"><sodipodi:namedview
     id="namedview28"
     pagecolor="#ffffff"
     bordercolor="#666666"
     borderopacity="1.0"
     inkscape:pageshadow="2"
     inkscape:pageopacity="0.0"
     inkscape:pagecheckerboard="0"
     showgrid="false"
     inkscape:zoom="0.57848045"
     inkscape:cx="58.774674"
     inkscape:cy="282.63703"
     inkscape:window-width="1070"
     inkscape:window-height="583"
     inkscape:window-x="0"
     inkscape:window-y="697"
     inkscape:window-maximized="0"
     inkscape:current-layer="g12" /><metadata
     id="metadata8"><rdf:RDF><cc:Work
         rdf:about=""><dc:format>image/svg+xml</dc:format><dc:type
           rdf:resource="http://purl.org/dc/dcmitype/StillImage" /></cc:Work></rdf:RDF></metadata><defs
     id="defs6"><clipPath
       id="clipPath20"
       clipPathUnits="userSpaceOnUse"><path
         id="path18"
         d="M 292,1124 V 4098 H 3259 V 1124 Z" /></clipPath></defs><g
     transform="matrix(1.3333333,0,0,-1.3333333,-39.003066,546.39999)"
     id="g10"><g
       transform="scale(0.1)"
       id="g12"><g
         id="g14"><g
           clip-path="url(#clipPath20)"
           id="g16"><path
             id="path22"
             style="fill:#100f0d;fill-opacity:1;fill-rule:nonzero;stroke:none"
             d="m 2680.04,2262.99 -177.64,47.6 c -26.58,-64.19 -61.44,-124.02 -103.2,-178.32 l 130.19,-130.2 -144.66,-144.66 -130.19,130.19 c -54.31,-41.76 -114.15,-76.63 -178.33,-103.21 l 47.59,-177.63 -197.6,-52.95 -47.66,177.86 c -33.74,-4.41 -68.06,-6.92 -103,-6.92 -34.93,0 -69.25,2.51 -102.98,6.92 l -47.66,-177.86 -197.61,52.95 47.59,177.63 c -64.18,26.58 -124.02,61.45 -178.32,103.21 l -130.2,-130.19 -144.66,144.66 130.2,130.2 c -41.77,54.3 -76.63,114.13 -103.22,178.32 l -177.629,-47.6 -52.949,197.62 177.867,47.66 c -4.414,33.73 -6.93,68.05 -6.93,102.98 0,34.94 2.516,69.26 6.93,102.99 l -177.867,47.66 52.949,197.61 177.629,-47.6 c 26.59,64.19 61.45,124.03 103.22,178.33 l -130.2,130.2 144.66,144.66 130.2,-130.2 c 54.3,41.76 114.14,76.63 178.32,103.21 l -47.59,177.64 197.61,52.95 47.66,-177.87 c 33.73,4.42 68.05,6.93 102.98,6.93 34.94,0 69.26,-2.51 103,-6.93 l 47.66,177.87 197.6,-52.95 -47.59,-177.64 c 64.18,-26.58 124.02,-61.45 178.33,-103.21 l 130.19,130.2 144.66,-144.66 -130.19,-130.2 c 41.76,-54.3 76.62,-114.14 103.2,-178.33 l 177.64,47.6 52.95,-197.61 -177.86,-47.66 c 4.41,-33.73 6.92,-68.05 6.92,-102.99 0,-34.93 -2.51,-69.25 -6.92,-102.98 l 177.86,-47.66 z m -904.5,1429.82 c -597.32,0 -1081.548,-484.23 -1081.548,-1081.56 0,-597.32 484.228,-1081.55 1081.548,-1081.55 597.34,0 1081.57,484.23 1081.57,1081.55 0,597.33 -484.23,1081.56 -1081.57,1081.56" /><path
             id="path24"
             style="fill:#100f0d;fill-opacity:1;fill-rule:nonzero;stroke:none"
             d="m 2959.06,2454.41 c -76.77,-582.92 -575.52,-1032.86 -1179.4,-1032.86 -657.06,0 -1189.707,532.64 -1189.707,1189.7 0,657.06 532.647,1189.71 1189.707,1189.71 603.88,0 1102.63,-449.94 1179.4,-1032.86 h 299.5 c -78.36,747.59 -710.56,1330.29 -1478.9,1330.29 -821.324,0 -1487.137,-665.81 -1487.137,-1487.14 0,-821.32 665.813,-1487.13 1487.137,-1487.13 768.34,0 1400.54,582.7 1478.9,1330.29 h -299.5" /></g></g></g></g></svg>
